<svg xmlns="http://www.w3.org/2000/svg" viewBox="0 0 110 110"><title>AmazonPolly</title><g id="95857266-eff8-436a-9b10-a32163b83a04" data-name="Layer 2"><g id="474168d8-714f-43a9-93fe-097f58723d0f" data-name="Layer 1"><circle cx="55" cy="55" r="52.5" style="fill:#44474e"/><path d="M55,5A50,50,0,1,1,5,55,50,50,0,0,1,55,5m0-5a55,55,0,1,0,55,55A55.06,55.06,0,0,0,55,0Z" style="fill:#28292d"/><g id="f1b742ea-8f7e-4148-8773-fc8cf5186255" data-name="SMOgfk.tif"><path d="M98.19,55.28A43.25,43.25,0,0,1,63,97.75c-1.3.25-1.5,0-1.19-1.43a26.93,26.93,0,0,0,.4-11.23,16.24,16.24,0,0,0-7-10.69C51.8,72.1,48,72.07,44.09,72.91c-6.17,1.33-11.19,4.72-15.66,9-1,.95-1.9,2-2.81,3s-1,1.14-2,.08A43.09,43.09,0,0,1,45.21,13.38c14.94-3.39,28.3.31,39.54,10.8A41.89,41.89,0,0,1,97.84,50.35C98.05,52,98.08,53.64,98.19,55.28ZM63.28,96.46C77.53,94.19,95.06,81,96.89,58.6a42.05,42.05,0,0,0-80.49-20c-7.73,18-1.43,36.55,8.3,45.64l.9-1A41.63,41.63,0,0,1,38,73.78a13.75,13.75,0,0,0,3.66-2.68c3.53-3.64,5-8.23,5.66-13.14.13-1,.17-2,.26-3-3.45-.07-6.46-.79-8.92-3a11.75,11.75,0,0,1-4.08-8.33c2.25.76,4.42,1.48,6.68.33-.06-.14-.06-.18-.09-.21L40.34,43a7.76,7.76,0,0,1-2.52-6.27,14.42,14.42,0,0,1,2.8-7.33,26.5,26.5,0,0,1,1.88-2.35.76.76,0,0,1,.7-.18,1,1,0,0,1,.22.71,3.48,3.48,0,0,1-.24.8,15.77,15.77,0,0,0-.78,5.82,6.82,6.82,0,0,0,2.53,5.21,1.16,1.16,0,0,0,.14-.19l.06-.48a9.13,9.13,0,0,1,3.76-6.85,1.32,1.32,0,0,1,1-.21c.14,0,.26.54.24.82-.19,3.91,2.26,6.49,5.6,7.67a18.2,18.2,0,0,0,8.57.66c4.89-.65,9.2,1.38,11.43,5.44a16.7,16.7,0,0,1,1.83,6.2,1.52,1.52,0,0,0,.87,1.29,8.29,8.29,0,0,1,3.77,4.09c1.58,3.75.8,7.41-.57,11a.79.79,0,0,1-.62.42c-.21,0-.42-.33-.53-.56C80,67.87,79.69,67,79.25,66a13.25,13.25,0,0,1-8.84,3.38C68,73.61,65.7,77.83,63.34,82a2.19,2.19,0,0,0-.25,1.7,16.49,16.49,0,0,1,.52,3.68C63.59,90.41,63.4,93.41,63.28,96.46Zm-.89-15.25C63,80,63.61,79,64.17,78c1.52-2.74,3-5.49,4.58-8.21a1.33,1.33,0,0,0-.13-1.8,5.15,5.15,0,0,1-1.08-4.2c.65-5.18,3.3-8.85,8.28-10.71a2.73,2.73,0,0,0,.48-.3c0-.41-.07-.78-.13-1.13-1-6.09-4.65-10.5-12.25-9.56a17.43,17.43,0,0,1-10-1.35A8.45,8.45,0,0,1,49,34.69c-.07-.32-.17-.64-.28-1.07a8.46,8.46,0,0,0-2.44,6.49c0,.35-.11.9-.34,1a1.42,1.42,0,0,1-1.1-.22A7,7,0,0,1,41.47,36c-.28-1.68-.25-3.4-.36-5.08A12.36,12.36,0,0,0,39,36.76a6.51,6.51,0,0,0,2.55,5.7c.4.34.85.61,1.25.94.65.53.64,1-.11,1.38a7,7,0,0,1-2.27.74c-1.46.12-2.93,0-4.4,0a10.64,10.64,0,0,0,8.47,7.91,19,19,0,0,0,7-.25c.53-.1,1.26-.35,1.38.47s-.58.74-1.1.84l-3.08.56C48.4,61.21,47,66.9,42.72,71.82,51.89,69.64,58.32,72.84,62.39,81.21Zm7.69-21.64a12.39,12.39,0,0,1,11,7.16,18.21,18.21,0,0,0,.81-4,8.2,8.2,0,0,0-4.22-8.07,2.28,2.28,0,0,0-2.27-.12A11.92,11.92,0,0,0,70.08,59.57Zm8.33,5.52a11.47,11.47,0,0,0-8.34-4.16c-.24,0-.69.2-.74.39-.52,1.74-.93,3.51-.16,5.28a2.2,2.2,0,0,0,2.11,1.54A11,11,0,0,0,78.41,65.09Z" style="fill:#28292d"/><path d="M62.39,81.21c-4.07-8.37-10.5-11.57-19.67-9.39C47,66.9,48.4,61.21,48.78,55.09l3.08-.56c.52-.1,1.2-.15,1.1-.84s-.85-.57-1.38-.47a19,19,0,0,1-7,.25,10.64,10.64,0,0,1-8.47-7.91c1.47,0,2.94.08,4.4,0a7,7,0,0,0,2.27-.74c.75-.35.76-.85.11-1.38-.4-.33-.85-.6-1.25-.94A6.51,6.51,0,0,1,39,36.76a12.36,12.36,0,0,1,2.07-5.82c.11,1.68.08,3.4.36,5.08a7,7,0,0,0,3.41,4.89,1.42,1.42,0,0,0,1.1.22c.23-.12.35-.67.34-1a8.46,8.46,0,0,1,2.44-6.49c.11.43.21.75.28,1.07a8.45,8.45,0,0,0,4.87,6.07,17.43,17.43,0,0,0,10,1.35c7.6-.94,11.28,3.47,12.25,9.56.06.35.08.72.13,1.13a2.73,2.73,0,0,1-.48.3c-5,1.86-7.63,5.53-8.28,10.71A5.15,5.15,0,0,0,68.62,68a1.33,1.33,0,0,1,.13,1.8c-1.54,2.72-3.06,5.47-4.58,8.21C63.61,79,63,80,62.39,81.21Z" style="fill:#18aceb"/><path d="M70.08,59.57a11.92,11.92,0,0,1,5.32-5,2.28,2.28,0,0,1,2.27.12,8.2,8.2,0,0,1,4.22,8.07,18.21,18.21,0,0,1-.81,4A12.39,12.39,0,0,0,70.08,59.57Z" style="fill:#a2e9f4"/><path d="M78.41,65.09a11,11,0,0,1-7.13,3,2.2,2.2,0,0,1-2.11-1.54c-.77-1.77-.36-3.54.16-5.28,0-.19.5-.41.74-.39A11.47,11.47,0,0,1,78.41,65.09Z" style="fill:#a2e9f4"/></g></g></g></svg>