<svg xmlns="http://www.w3.org/2000/svg" viewBox="0 0 110 110"><title>BackYard</title><g id="61f815ab-52f3-43d2-a164-fc083a8d0edc" data-name="Layer 2"><g id="982e3399-7f30-4285-81b8-adceffe8993a" data-name="Layer 1"><circle cx="55" cy="55" r="52.5" style="fill:#44474e"/><path d="M55,5A50,50,0,1,1,5,55,50,50,0,0,1,55,5m0-5a55,55,0,1,0,55,55A55.06,55.06,0,0,0,55,0Z" style="fill:#28292d"/><g id="771e8c78-1eb5-4903-a7d6-b932ccca35cd" data-name="QOSDhM.tif"><path d="M69.7,43c4.66,5.44,9.5,11,14.19,16.62a4,4,0,0,1-.34,5.59c-2.7,2.85-5.5,5.6-8.34,8.31a3.71,3.71,0,0,1-5.33.12C64.2,69,58.55,64.3,53,59.74Z" style="fill:#18aceb"/><path d="M68.9,38.9a13.38,13.38,0,0,1-1.65,2.5Q59.48,49.25,51.58,57c-2.26,2.24-3.7,2.32-6.24.48-6-4.31-6.34-5.32-.81-10.46,5.22-4.85,10.26-9.88,15.39-14.82,2.38-2.29,3.89-2.16,5.74.55,1.06,1.55,2,3.16,3,4.76A5.11,5.11,0,0,1,68.9,38.9Z" style="fill:#18aceb"/><path d="M80.75,94.58h-36a29.8,29.8,0,0,1,.06-5.1,3.46,3.46,0,0,1,3.72-2.92c9.42,0,18.84,0,28.26,0,2.42,0,3.74,1.42,3.92,3.85C80.83,91.72,80.75,93,80.75,94.58Z" style="fill:#18aceb"/><path d="M60.57,69.13c8,2.89,6.3,9.31,6.13,15.6a37.12,37.12,0,0,1-4.85-.08,2.07,2.07,0,0,1-1.22-1.56C60.53,78.45,60.57,73.82,60.57,69.13Z" style="fill:#18aceb"/></g><path d="M55.35,32.15a.74.74,0,0,1-.63-.36L45.54,16.54a.73.73,0,0,1,.25-1,.75.75,0,0,1,1,.25L56,31a.73.73,0,0,1-.25,1A.76.76,0,0,1,55.35,32.15Z" style="fill:#18aceb"/><path d="M47.54,37a.7.7,0,0,1-.49-.19L33,24.34a.74.74,0,1,1,1-1.11L48,35.73a.73.73,0,0,1,.07,1A.76.76,0,0,1,47.54,37Z" style="fill:#18aceb"/><path d="M41,46.13a.76.76,0,0,1-.38-.11L25.47,36.81a.74.74,0,0,1,.76-1.26l15.19,9.21A.74.74,0,0,1,41,46.13Z" style="fill:#18aceb"/></g></g></svg>