<svg xmlns="http://www.w3.org/2000/svg" viewBox="0 0 110 110"><title>Cameras</title><g id="7651317b-ec9b-43ac-a27c-a25e6e042eca" data-name="Layer 2"><g id="e5ccc399-998a-473c-a499-3732eabd958c" data-name="Layer 1"><circle cx="55" cy="55" r="52.5" style="fill:#44474e"/><path d="M55,5A50,50,0,1,1,5,55,50,50,0,0,1,55,5m0-5a55,55,0,1,0,55,55A55.06,55.06,0,0,0,55,0Z" style="fill:#28292d"/><g id="e1ddf8d9-193b-4d92-a474-936538bae81e" data-name="CCTV"><path d="M78.69,29.13a.45.45,0,0,1-.31.11.51.51,0,0,1-.39-.18,19.06,19.06,0,0,0-1.53-1.71.5.5,0,0,1,0-.7.5.5,0,0,1,.71,0,22.55,22.55,0,0,1,1.6,1.78A.49.49,0,0,1,78.69,29.13Z" style="fill:#18aceb"/><path d="M84,27.68a.48.48,0,0,0-.35-.18.56.56,0,0,0-.37.13l-3.08,2.85a.75.75,0,0,0-.07-.12.5.5,0,1,0-.84.54l.17.27L73.18,37a.5.5,0,0,0,.68.74L80,32.06a20.85,20.85,0,0,1,0,19.86l-6.12-5.66a.5.5,0,0,0-.68.74l6.28,5.82a20.25,20.25,0,0,1-3,3.83.5.5,0,0,0,0,.7.51.51,0,0,0,.36.15.49.49,0,0,0,.35-.15,20.62,20.62,0,0,0,3-3.84l3.09,2.86a.51.51,0,0,0,.34.13h0a.48.48,0,0,0,.35-.18C90.67,48.43,90.67,35.58,84,27.68Zm-.43,27.59-2.85-2.64a21.9,21.9,0,0,0,0-21.27l2.84-2.63A22.11,22.11,0,0,1,83.59,55.27Z" style="fill:#18aceb"/></g><rect x="20.99" y="67.5" width="8.33" height="21.43" rx="1.79" ry="1.79" style="fill:#18aceb"/><path d="M38.11,75.83a6.55,6.55,0,0,0,0,4.77h-7.6V75.83Z" style="fill:#18aceb"/><path d="M49.56,78.21a5.35,5.35,0,1,1-5.36-5.35A5.36,5.36,0,0,1,49.56,78.21Z" style="fill:#18aceb"/><path d="M44.2,71.67a6.45,6.45,0,0,0-2.06.34L44,52h5.34L47.44,72.54A6.36,6.36,0,0,0,44.2,71.67Z" style="fill:#18aceb"/><path d="M71.76,29a1.73,1.73,0,0,0-1.5-.83H24A1.79,1.79,0,0,0,22.18,30v8.33A1.79,1.79,0,0,0,24,40.12H66.48a1.8,1.8,0,0,0,1.63-1l.53-1.19a.45.45,0,0,0,.06-.12l1.46-3.2,0-.07,1.7-3.75A1.72,1.72,0,0,0,71.76,29Zm-46,8.1a.6.6,0,1,1-1.19,0V31.19a.6.6,0,1,1,1.19,0ZM74,35.36H71.1l-1.3,2.87V43.1a.58.58,0,0,0,.59.59H74a.58.58,0,0,0,.59-.59V36A.58.58,0,0,0,74,35.36Zm-7.49,6H24.56v7.74a1.78,1.78,0,0,0,1.79,1.78H66.82a1.78,1.78,0,0,0,1.79-1.78V40.4A2.92,2.92,0,0,1,66.48,41.31Z" style="fill:#18aceb"/><path d="M81,22.08a.59.59,0,0,1,.84-.83,27.47,27.47,0,0,1,1.91,2.12.59.59,0,0,1-.1.83.53.53,0,0,1-.37.13.62.62,0,0,1-.46-.21A23.46,23.46,0,0,0,81,22.08Z" style="fill:#18aceb"/></g></g></svg>