<svg xmlns="http://www.w3.org/2000/svg" viewBox="0 0 110 110"><title>Cellphones</title><g id="a6e24e2a-a40a-4904-a161-5018332d3b14" data-name="Layer 2"><g id="22950cd4-872b-4918-9c7d-cf445bd33570" data-name="Layer 1"><circle cx="55" cy="55" r="52.5" style="fill:#44474e"/><path d="M55,5A50,50,0,1,1,5,55,50,50,0,0,1,55,5m0-5a55,55,0,1,0,55,55A55.06,55.06,0,0,0,55,0Z" style="fill:#28292d"/><path d="M56.7,88.57a2.5,2.5,0,0,1-1.77,4.27,2.5,2.5,0,1,1,0-5A2.48,2.48,0,0,1,56.7,88.57Z" style="fill:#25a9e0;fill-rule:evenodd"/><path d="M56.7,88.57a2.5,2.5,0,0,1-1.77,4.27,2.5,2.5,0,1,1,0-5A2.48,2.48,0,0,1,56.7,88.57Z" style="fill:#25a9e0;fill-rule:evenodd"/><path d="M75.07,31h-.22V20.26a6.07,6.07,0,0,0-6-6.06H41.07A6.08,6.08,0,0,0,35,20.26V23.8h-.08a.33.33,0,0,0-.32.33v2.19a.32.32,0,0,0,.32.32H35V31h-.08a.32.32,0,0,0-.32.32v4.78a.33.33,0,0,0,.32.32H35v1.91h-.08a.32.32,0,0,0-.32.32v4.78a.33.33,0,0,0,.32.32H35v46a6.08,6.08,0,0,0,6.06,6.06H68.8a6.07,6.07,0,0,0,6-6.06V36.4h.22a.33.33,0,0,0,.32-.32V31.3A.32.32,0,0,0,75.07,31ZM54.93,16.19a.4.4,0,0,1,0,.8.4.4,0,0,1,0-.8Zm-2.81,2.72h5.62a.3.3,0,1,1,0,.59H52.12a.3.3,0,0,1,0-.59ZM49,18.63a.58.58,0,0,1,0,1.15.58.58,0,1,1,0-1.15Zm8.14,73.94a3.14,3.14,0,1,1,.93-2.23A3.13,3.13,0,0,1,57.16,92.57ZM73.1,85.8H36.77V24H73.1Z" style="fill:#25a9e0;fill-rule:evenodd"/><rect x="26.02" y="38.72" width="57.83" height="32.33" transform="translate(109.82 -0.05) rotate(90)" style="fill:#25a9e0"/></g></g></svg>