<svg xmlns="http://www.w3.org/2000/svg" viewBox="0 0 110 110"><title>Dasher</title><g id="cd9ef4af-3a84-426a-815e-9697dfdc61f1" data-name="Layer 2"><g id="0f739fd6-de93-474a-a019-defcf889b257" data-name="Layer 1"><circle cx="55" cy="55" r="52.5" style="fill:#44474e"/><path d="M55,5A50,50,0,1,1,5,55,50,50,0,0,1,55,5m0-5a55,55,0,1,0,55,55A55.06,55.06,0,0,0,55,0Z" style="fill:#28292d"/><path d="M21.6,71.82c.21-.32.53-.35,1-.06A65,65,0,0,0,55.73,80.6a65.76,65.76,0,0,0,23.59-4.45l.88-.37c.39-.16.66-.28.82-.36a1.07,1.07,0,0,1,1.43.36c.35.49.24.94-.33,1.34-.73.53-1.67,1.14-2.8,1.83a46,46,0,0,1-11.7,4.82A49.69,49.69,0,0,1,55,85.47a48.91,48.91,0,0,1-18-3.32A49.41,49.41,0,0,1,21.85,72.8a.84.84,0,0,1-.37-.61A.65.65,0,0,1,21.6,71.82ZM40,54.45A12.31,12.31,0,0,1,42,47.26a12.81,12.81,0,0,1,5.67-4.51,30.9,30.9,0,0,1,8.1-2c1.1-.12,2.89-.29,5.37-.49v-1q0-3.9-.86-5.25a4.57,4.57,0,0,0-4-1.82h-.49a6.55,6.55,0,0,0-3.47,1.28,4.94,4.94,0,0,0-1.89,3,1.56,1.56,0,0,1-1.22,1.41l-7-.86c-.69-.16-1-.53-1-1.1a1.76,1.76,0,0,1,.06-.42,11.66,11.66,0,0,1,5.09-8,19.12,19.12,0,0,1,9.47-2.92h1.53q6.95,0,10.84,3.59a11.66,11.66,0,0,1,1.13,1.31,11.37,11.37,0,0,1,.82,1.25,6.14,6.14,0,0,1,.55,1.59c.16.69.29,1.17.37,1.43a8.76,8.76,0,0,1,.18,1.71c0,.87.06,1.39.06,1.55V51.71a8.55,8.55,0,0,0,.46,2.89,7.34,7.34,0,0,0,.88,1.89c.29.39.75,1,1.4,1.86a1.79,1.79,0,0,1,.37,1,1,1,0,0,1-.49.85l-5.48,4.75a1.7,1.7,0,0,1-1.77.13,18.91,18.91,0,0,1-1.49-1.41c-.43-.44-.73-.77-.92-1a14.75,14.75,0,0,1-.88-1.19c-.41-.59-.69-1-.85-1.19a15,15,0,0,1-6.71,4.63,18.26,18.26,0,0,1-5.12.61A10.67,10.67,0,0,1,43,62.65Q39.95,59.76,40,54.45Zm10.48-1.22A5.77,5.77,0,0,0,51.62,57a3.92,3.92,0,0,0,3.2,1.43,3.28,3.28,0,0,0,.52-.06,3.07,3.07,0,0,1,.45-.06,6.17,6.17,0,0,0,4-3.29,9.24,9.24,0,0,0,1-2.53,11.64,11.64,0,0,0,.36-2.22c0-.57,0-1.51,0-2.81V46a22,22,0,0,0-5.37.49Q50.44,48,50.43,53.23ZM76,72.86a1.76,1.76,0,0,1,.36-.49A9.49,9.49,0,0,1,79.32,71a19.54,19.54,0,0,1,4.51-.67,3.65,3.65,0,0,1,1.15.06c1.83.16,2.93.46,3.29.91a2,2,0,0,1,.25,1.1v.43a13.91,13.91,0,0,1-1.16,5,11.74,11.74,0,0,1-3.23,4.67.93.93,0,0,1-.55.24.53.53,0,0,1-.24-.06c-.25-.12-.31-.35-.18-.67,1.5-3.54,2.25-6,2.25-7.38a1.57,1.57,0,0,0-.24-1c-.41-.49-1.55-.73-3.42-.73q-1,0-2.43.12c-1,.12-1.95.24-2.81.36a.69.69,0,0,1-.48-.12A.19.19,0,0,1,76,73,.38.38,0,0,1,76,72.86Z" style="fill:#18aceb"/></g></g></svg>