<svg xmlns="http://www.w3.org/2000/svg" viewBox="0 0 121 110"><title>Docker</title><g id="48fe9f90-7e72-4580-aa43-ebb7b3330a6a" data-name="Layer 2"><g id="0f0f7e2a-36b8-49ee-8058-f48073597949" data-name="Layer 1"><circle cx="55" cy="55" r="52.5" style="fill:#44474e"/><path d="M55,5A50,50,0,1,1,5,55,50,50,0,0,1,55,5m0-5a55,55,0,1,0,55,55A55.06,55.06,0,0,0,55,0Z" style="fill:#28292d"/><path d="M15.44,63.75A28.72,28.72,0,0,0,18.15,72l.82,1.5a27.71,27.71,0,0,0,1.7,2.56c3,.19,5.72.25,8.22.2a52.63,52.63,0,0,0,6.7-.52,29.56,29.56,0,0,0,5.29-1.22.86.86,0,0,1,.57,1.63c-.4.15-.82.28-1.26.4h0A41.53,41.53,0,0,1,31.26,78c-1.3.07-2.68.11-4.12.11-1.66,0-3.41,0-5.24-.15A34.18,34.18,0,0,0,44.11,88.53c.56.07,1.14.12,1.73.16l1.11.07,1.26,0,1.29,0H51c.52,0,1,0,1.54,0,19.7-.73,36.77-8.61,47.11-25Zm30,5.59a2.7,2.7,0,1,1,.07,5.39H45.4a2.7,2.7,0,0,1,0-5.39Zm.74,4.48a1.94,1.94,0,0,0,1-2.52.81.81,0,0,1-.7.4.78.78,0,0,1-.39-1.46,1.86,1.86,0,0,0-.7-.14,1.73,1.73,0,0,0-.74.16,1.93,1.93,0,0,0,1.48,3.56ZM25,43.73V53.5h9.78V43.73Zm1.59,9h-.77V44.54h.77Zm1.48,0h-.8V44.54H28Zm1.48,0H28.7V44.54h.81Zm1.48,0h-.8V44.54H31Zm1.48,0h-.8V44.54h.8Zm1.45,0h-.77V44.54h.77Zm2.32-20.24v9.77H46V32.45Zm1.58,9h-.76V33.26h.76Zm1.49,0H38.5V33.26h.81Zm1.47,0H40V33.26h.8Zm1.49,0h-.8V33.26h.8Zm1.48,0h-.81V33.26h.81Zm1.45,0h-.77V33.26h.77Zm-9,2.32V53.5H46V43.73Zm1.58,9h-.76V44.54h.76Zm1.49,0H38.5V44.54h.81Zm1.47,0H40V44.54h.8Zm1.49,0h-.8V44.54h.8Zm1.48,0h-.81V44.54h.81Zm1.45,0h-.77V44.54h.77Zm2.31-20.24v9.77h9.78V32.45Zm1.59,9h-.77V33.26h.77Zm1.48,0h-.8V33.26h.8Zm1.48,0h-.8V33.26h.8Zm1.49,0h-.81V33.26h.81Zm1.47,0h-.8V33.26H55Zm1.45,0H55.7V33.26h.77Zm-9,2.32V53.5h9.78V43.73Zm1.59,9h-.77V44.54h.77Zm1.48,0h-.8V44.54h.8Zm1.48,0h-.8V44.54h.8Zm1.49,0h-.81V44.54h.81Zm1.47,0h-.8V44.54H55Zm1.45,0H55.7V44.54h.77Zm2.32-31.52V31h9.78V21.17Zm1.58,9h-.76V22h.76Zm1.49,0h-.8V22h.8Zm1.48,0h-.81V22h.81Zm1.48,0H64V22h.8Zm1.48,0h-.81V22h.81Zm1.45,0H67V22h.77Zm-9,2.32v9.77h9.78V32.45Zm1.58,9h-.76V33.26h.76Zm1.49,0h-.8V33.26h.8Zm1.48,0h-.81V33.26h.81Zm1.48,0H64V33.26h.8Zm1.48,0h-.81V33.26h.81Zm1.45,0H67V33.26h.77Zm-9,2.32V53.5h9.78V43.73Zm1.58,9h-.76V44.54h.76Zm1.49,0h-.8V44.54h.8Zm1.48,0h-.81V44.54h.81Zm1.48,0H64V44.54h.8Zm1.48,0h-.81V44.54h.81Zm1.45,0H67V44.54h.77Zm2.31-9V53.5h9.78V43.73Zm1.59,9h-.77V44.54h.77Zm1.49,0h-.81V44.54h.81Zm1.47,0h-.8V44.54h.8Zm1.49,0h-.81V44.54h.81Zm1.47,0h-.8V44.54h.8Zm1.45,0h-.76V44.54H79Zm28-6.58c.75-5.87-3.65-10.49-6.38-12.68-3.14,3.63-3.62,13.15,1.31,17.16-2.75,2.44-8.56,4.66-14.49,4.66H15.15a33.65,33.65,0,0,0,.08,7.11c4.31.1,8.49-1.1,10.11-2.61,3.36,4.88,23,3,24.32-.78,4.23,5,17.3,5,21.52,0,1.36,3.8,21,5.66,24.32.78a11.42,11.42,0,0,0,5.27,2.19,60.29,60.29,0,0,0,4.27-9c6.65.68,13-1,16-6.7C116.36,43.53,110.41,44.39,107,46.11Z" style="fill:#44474e"/><path d="M43.62,72.78a1.92,1.92,0,0,1,1-2.52,1.73,1.73,0,0,1,.74-.16,1.86,1.86,0,0,1,.7.14.78.78,0,0,0,.39,1.46.81.81,0,0,0,.7-.4,1.93,1.93,0,0,1-3.57,1.48Z" style="fill:#18aceb"/><path d="M15.44,63.75A28.72,28.72,0,0,0,18.15,72l.82,1.5a27.71,27.71,0,0,0,1.7,2.56c3,.19,5.72.25,8.22.2a52.63,52.63,0,0,0,6.7-.52,29.56,29.56,0,0,0,5.29-1.22.86.86,0,0,1,.57,1.63c-.4.15-.82.28-1.26.4h0a37,37,0,0,1-8.28,1.35c.19,0-.2,0-.2,0l-.37,0c-1.31.08-2.72.09-4.16.09S24,78.06,22.3,78l0,0c5.08,5.7,12.56,9.48,21.85,10.53.56.07,1.14.12,1.73.16l1.11.07,1.26,0,1.29,0H51c.52,0,1,0,1.54,0,19.7-.73,36.77-8.61,47.11-25Zm30,5.59a2.7,2.7,0,1,1,.07,5.39H45.4a2.7,2.7,0,0,1,0-5.39Z" style="fill:#18aceb"/><path d="M121,46.2c-2.91,5.69-9.31,7.38-16,6.7a60.29,60.29,0,0,1-4.27,9,11.42,11.42,0,0,1-5.27-2.19c-3.36,4.88-23,3-24.32-.78-4.22,5-17.29,5-21.52,0-1.37,3.8-21,5.66-24.32.78-1.62,1.51-5.8,2.71-10.11,2.61a33.65,33.65,0,0,1-.08-7.11H87.42c5.93,0,11.74-2.22,14.49-4.66-4.93-4-4.45-13.53-1.31-17.16,2.73,2.19,7.13,6.81,6.38,12.68C110.41,44.39,116.36,43.53,121,46.2Z" style="fill:#18aceb"/><path d="M36.24,32.45v9.77H46V32.45Zm1.58,9h-.76V33.26h.76Zm1.49,0H38.5V33.26h.81Zm1.47,0H40V33.26h.8Zm1.49,0h-.8V33.26h.8Zm1.48,0h-.81V33.26h.81Zm1.45,0h-.77V33.26h.77ZM25,43.73V53.5h9.78V43.73Zm1.59,9h-.77V44.54h.77Zm1.48,0h-.8V44.54H28Zm1.48,0H28.7V44.54h.81Zm1.48,0h-.8V44.54H31Zm1.48,0h-.8V44.54h.8Zm1.45,0h-.77V44.54h.77Z" style="fill:#18aceb"/><path d="M36.24,43.73V53.5H46V43.73Zm1.58,9h-.76V44.54h.76Zm1.49,0H38.5V44.54h.81Zm1.47,0H40V44.54h.8Zm1.49,0h-.8V44.54h.8Zm1.48,0h-.81V44.54h.81Zm1.45,0h-.77V44.54h.77Z" style="fill:#18aceb"/><path d="M47.51,43.73V53.5h9.78V43.73Zm1.59,9h-.77V44.54h.77Zm1.48,0h-.8V44.54h.8Zm1.48,0h-.8V44.54h.8Zm1.49,0h-.81V44.54h.81Zm1.47,0h-.8V44.54H55Zm1.45,0H55.7V44.54h.77Z" style="fill:#18aceb"/><path d="M58.79,43.73V53.5h9.78V43.73Zm1.58,9h-.76V44.54h.76Zm1.49,0h-.8V44.54h.8Zm1.48,0h-.81V44.54h.81Zm1.48,0H64V44.54h.8Zm1.48,0h-.81V44.54h.81Zm1.45,0H67V44.54h.77ZM47.51,32.45v9.77h9.78V32.45Zm1.59,9h-.77V33.26h.77Zm1.48,0h-.8V33.26h.8Zm1.48,0h-.8V33.26h.8Zm1.49,0h-.81V33.26h.81Zm1.47,0h-.8V33.26H55Zm1.45,0H55.7V33.26h.77Z" style="fill:#18aceb"/><path d="M58.79,32.45v9.77h9.78V32.45Zm1.58,9h-.76V33.26h.76Zm1.49,0h-.8V33.26h.8Zm1.48,0h-.81V33.26h.81Zm1.48,0H64V33.26h.8Zm1.48,0h-.81V33.26h.81Zm1.45,0H67V33.26h.77Z" style="fill:#18aceb"/><path d="M58.79,21.17V31h9.78V21.17Zm1.58,9h-.76V22h.76Zm1.49,0h-.8V22h.8Zm1.48,0h-.81V22h.81Zm1.48,0H64V22h.8Zm1.48,0h-.81V22h.81Zm1.45,0H67V22h.77Z" style="fill:#18aceb"/><path d="M70.06,43.73V53.5h9.78V43.73Zm1.59,9h-.77V44.54h.77Zm1.49,0h-.81V44.54h.81Zm1.47,0h-.8V44.54h.8Zm1.49,0h-.81V44.54h.81Zm1.47,0h-.8V44.54h.8Zm1.45,0h-.76V44.54H79Z" style="fill:#18aceb"/><path d="M46.14,73.82a1.93,1.93,0,0,1-1.48-3.56,1.73,1.73,0,0,1,.74-.16,1.86,1.86,0,0,1,.7.14.78.78,0,0,0,.39,1.46.81.81,0,0,0,.7-.4A1.94,1.94,0,0,1,46.14,73.82Z" style="fill:#d3ecec"/><path d="M52.57,88.77c-.52,0-1,0-1.54,0H49.5l-1.29,0-1.26,0-1.11-.07c-.59,0-1.17-.09-1.73-.16A34.18,34.18,0,0,1,21.9,77.91c1.83.1,3.58.15,5.24.15,1.44,0,2.82,0,4.12-.11a41.53,41.53,0,0,0,8.92-1.36c.17.39.34.76.55,1.14a9.47,9.47,0,0,0,.6,1.13,5.09,5.09,0,0,0,.32.54l.16.26L42,80c.19.29.38.57.58.83a.18.18,0,0,0,.05.07A25.29,25.29,0,0,0,52.57,88.77Z" style="fill:#d3ecec"/><path d="M40.73,77.73c-.21-.38-.38-.75-.55-1.14h0Q40.45,77.16,40.73,77.73Z" style="fill:#d3ecec"/><path d="M40.73,77.73c.19.38.39.76.6,1.13A9.47,9.47,0,0,1,40.73,77.73Z" style="fill:#d3ecec"/></g></g></svg>