<svg xmlns="http://www.w3.org/2000/svg" xmlns:xlink="http://www.w3.org/1999/xlink" viewBox="0 0 110 110"><defs><radialGradient id="7f1dbeb1-1f3b-4845-ba1a-290624e1a9f1" cx="55.5" cy="90.42" r="25.9" gradientUnits="userSpaceOnUse"><stop offset="0.76" stop-color="#29bdc1"/><stop offset="0.76" stop-color="#29bbc1"/><stop offset="0.83" stop-color="#2890b5"/><stop offset="0.9" stop-color="#2770ac"/><stop offset="0.96" stop-color="#265da7"/><stop offset="1" stop-color="#2656a5"/></radialGradient><radialGradient id="964ec6b7-161a-456c-83a1-3550319d09db" cx="55.51" cy="90.64" r="26.06" xlink:href="#7f1dbeb1-1f3b-4845-ba1a-290624e1a9f1"/><radialGradient id="a7bf0544-f399-4a46-b8a5-631388f0bf1a" cx="55.51" cy="90.64" r="26.06" gradientUnits="userSpaceOnUse"><stop offset="0.76" stop-color="#00a9b0"/><stop offset="0.77" stop-color="#02a2ac"/><stop offset="0.84" stop-color="#0f7796"/><stop offset="0.91" stop-color="#195786"/><stop offset="0.96" stop-color="#1f447c"/><stop offset="1" stop-color="#213d78"/></radialGradient><radialGradient id="cd6403ad-7441-4f38-838c-da63747f88a3" cx="55.47" cy="88.08" r="24.37" gradientUnits="userSpaceOnUse"><stop offset="0.76" stop-color="#00a9b0"/><stop offset="1" stop-color="#213d78"/></radialGradient></defs><title>Echo</title><g id="b854fa84-5b12-406c-87a3-90bf77d1b284" data-name="Layer 2"><g id="19394e42-b7aa-484a-bee8-73a0589f90c3" data-name="Layer 1"><circle cx="55" cy="55" r="52.5" style="fill:#44474e"/><path d="M55,5A50,50,0,1,1,5,55,50,50,0,0,1,55,5m0-5a55,55,0,1,0,55,55A55.06,55.06,0,0,0,55,0Z" style="fill:#28292d"/><g id="78ba3078-f1a7-4ac7-afea-47bbd89a6983" data-name="&lt;Group&gt;"><g id="cc04c98e-cdf7-42ab-b06b-770efe575eca" data-name="Top"><circle id="319a7fa4-6539-41e5-8922-fdb06bbd23f5" data-name="Dark Top" cx="55" cy="55" r="40.13" style="fill:#28292d"/><path id="27d6ba69-be92-4930-8103-4552a73798c1" data-name="Colored Ring" d="M55,12.49A42.51,42.51,0,1,0,97.51,55,42.51,42.51,0,0,0,55,12.49Zm0,82A39.74,39.74,0,1,1,94.74,54.75,39.74,39.74,0,0,1,55,94.48Z" style="fill:url(#7f1dbeb1-1f3b-4845-ba1a-290624e1a9f1)"/><path d="M55,12.23A42.77,42.77,0,1,0,97.77,55,42.82,42.82,0,0,0,55,12.23Zm0,85A42.24,42.24,0,1,1,97.24,55,42.29,42.29,0,0,1,55,97.24Z" style="fill:url(#964ec6b7-161a-456c-83a1-3550319d09db)"/><path d="M55,14.75a40,40,0,1,0,40,40A40,40,0,0,0,55,14.75Zm0,79.47A39.47,39.47,0,1,1,94.47,54.75,39.52,39.52,0,0,1,55,94.22Z" style="fill:url(#964ec6b7-161a-456c-83a1-3550319d09db)"/><path d="M55,12.23A42.77,42.77,0,1,0,97.77,55,42.82,42.82,0,0,0,55,12.23Zm0,85A42.24,42.24,0,1,1,97.24,55,42.29,42.29,0,0,1,55,97.24Z" style="fill:url(#a7bf0544-f399-4a46-b8a5-631388f0bf1a)"/><path d="M55,14.75a40,40,0,1,0,40,40A40,40,0,0,0,55,14.75Zm0,79.47A39.47,39.47,0,1,1,94.47,54.75,39.52,39.52,0,0,1,55,94.22Z" style="fill:url(#cd6403ad-7441-4f38-838c-da63747f88a3)"/></g><g id="02ea2a4b-212e-4500-bfd1-dd4c2d5496f6" data-name="Speaker Mesh"><path d="M91.24,54.92v.2a.48.48,0,0,0,.48.49.49.49,0,0,0,.49-.49v-.2a.49.49,0,0,0-1,0Zm-.06-2V53a.5.5,0,0,0,.51.46.48.48,0,0,0,.46-.51v-.12a.49.49,0,0,0-.52-.46.48.48,0,0,0-.45.51Zm-.18-2L91,51a.48.48,0,0,0,.53.42.47.47,0,0,0,.43-.53v-.12a.49.49,0,0,0-.54-.43.49.49,0,0,0-.43.54Zm-.28-2,0,.12a.47.47,0,0,0,.56.4.49.49,0,0,0,.4-.56l0-.12a.5.5,0,0,0-.56-.4.48.48,0,0,0-.4.56Zm-.4-2,0,.12a.5.5,0,0,0,.58.37.49.49,0,0,0,.36-.59l0-.11a.49.49,0,1,0-1,.21Zm-.51-2,0,.11a.48.48,0,0,0,.6.33.49.49,0,0,0,.34-.6l0-.11a.49.49,0,0,0-.6-.34.5.5,0,0,0-.33.61ZM89.19,43l0,.11a.48.48,0,0,0,.62.3.5.5,0,0,0,.3-.62l0-.11a.49.49,0,0,0-.62-.3A.48.48,0,0,0,89.19,43Zm-.73-1.9.05.11a.48.48,0,1,0,.89-.37l0-.11a.49.49,0,0,0-.9.37Zm-.83-1.84.05.1a.48.48,0,1,0,.87-.42l0-.11a.48.48,0,0,0-.65-.22.48.48,0,0,0-.22.65Zm-.94-1.81.06.11a.49.49,0,0,0,.85-.47l-.06-.11a.49.49,0,0,0-.85.47Zm-1-1.74.06.1a.48.48,0,0,0,.67.15.48.48,0,0,0,.15-.67l-.06-.1a.49.49,0,0,0-.67-.15.48.48,0,0,0-.15.67ZM84.52,34l.07.1a.49.49,0,0,0,.8-.56l-.08-.1a.47.47,0,0,0-.67-.11.48.48,0,0,0-.12.67ZM83.3,32.36l.07.1a.49.49,0,0,0,.69.07.48.48,0,0,0,.07-.68l-.07-.09a.48.48,0,1,0-.76.6ZM82,30.81l.08.09a.48.48,0,0,0,.72-.64l-.08-.09a.49.49,0,0,0-.69,0A.48.48,0,0,0,82,30.81Zm-1.4-1.47.08.08a.5.5,0,0,0,.69,0,.49.49,0,0,0,0-.69l-.09-.09a.48.48,0,0,0-.68,0,.49.49,0,0,0,0,.69Zm-1.48-1.4.09.08a.48.48,0,0,0,.68,0,.49.49,0,0,0,0-.69l-.1-.08a.48.48,0,1,0-.64.72Zm-1.56-1.31.1.08a.48.48,0,1,0,.6-.76l-.09-.07a.48.48,0,0,0-.61.75Zm-1.62-1.22.1.07a.47.47,0,0,0,.67-.11.48.48,0,0,0-.11-.68l-.1-.07a.49.49,0,0,0-.68.12.48.48,0,0,0,.12.67Zm-1.69-1.13.1.07a.49.49,0,0,0,.52-.82l-.11-.07a.5.5,0,0,0-.67.15.49.49,0,0,0,.16.67Zm-1.76-1,.11.06a.48.48,0,0,0,.66-.19.49.49,0,0,0-.19-.66L73,22.4a.49.49,0,0,0-.47.85Zm-1.81-.93.11.05a.48.48,0,0,0,.65-.22.48.48,0,0,0-.22-.65l-.11-.06a.49.49,0,0,0-.65.23.48.48,0,0,0,.22.65Zm-1.85-.83.11,0a.47.47,0,0,0,.63-.26.48.48,0,0,0-.26-.63l-.11-.05a.49.49,0,0,0-.64.27A.49.49,0,0,0,68.82,21.49Zm-1.91-.72.12,0a.49.49,0,0,0,.32-.92l-.12,0a.48.48,0,0,0-.62.3A.5.5,0,0,0,66.91,20.77ZM65,20.15l.12,0a.49.49,0,0,0,.6-.34.48.48,0,0,0-.33-.6l-.12,0a.48.48,0,0,0-.27.93Zm-2-.5.11,0a.49.49,0,0,0,.58-.37.48.48,0,0,0-.36-.58l-.12,0a.49.49,0,0,0-.58.37.48.48,0,0,0,.37.58Zm-2-.39.12,0a.49.49,0,1,0,.16-1l-.12,0a.49.49,0,0,0-.16,1ZM59,19h.12a.48.48,0,0,0,.11-1h-.12A.48.48,0,1,0,59,19Zm-2-.17h.12a.49.49,0,1,0,.06-1H57a.48.48,0,1,0-.06,1Zm-2,0h.12a.48.48,0,0,0,.49-.48.49.49,0,0,0-.49-.49h-.12a.48.48,0,0,0-.48.49.47.47,0,0,0,.48.48Zm-2,.06H53a.48.48,0,1,0-.05-1h-.13a.49.49,0,0,0-.45.51.48.48,0,0,0,.51.46Zm-2,.17H51a.48.48,0,1,0-.1-1h-.12a.48.48,0,1,0,.11,1Zm-2,.29.12,0a.49.49,0,1,0-.16-1l-.12,0a.5.5,0,0,0-.4.56.49.49,0,0,0,.56.4Zm-2,.4.12,0a.49.49,0,0,0-.22-.95l-.12,0a.48.48,0,0,0-.36.58.5.5,0,0,0,.58.37Zm-2,.5.12,0a.48.48,0,0,0-.27-.93l-.12,0a.5.5,0,0,0-.33.6.48.48,0,0,0,.6.33ZM43,20.8l.11,0a.48.48,0,1,0-.32-.91l-.11,0a.48.48,0,0,0-.3.62.49.49,0,0,0,.62.29Zm-1.9.73.11,0a.49.49,0,1,0-.37-.9l-.11.05a.47.47,0,0,0-.26.63.48.48,0,0,0,.63.26Zm-1.85.83.11-.05a.49.49,0,0,0,.23-.65.48.48,0,0,0-.65-.22l-.11,0a.5.5,0,0,0-.23.65.48.48,0,0,0,.65.22Zm-1.8.94.11-.06a.49.49,0,1,0-.47-.85l-.11.06a.49.49,0,0,0,.47.85Zm-1.74,1,.1-.06a.49.49,0,0,0,.15-.67.48.48,0,0,0-.67-.15l-.1.06a.49.49,0,0,0,.52.82ZM34,25.46l.1-.06a.49.49,0,0,0-.56-.8l-.1.07a.49.49,0,0,0-.12.68.48.48,0,0,0,.68.11Zm-1.62,1.23.09-.08a.48.48,0,0,0,.08-.68.49.49,0,0,0-.68-.08l-.1.08a.49.49,0,0,0,.61.76ZM30.83,28l.09-.08a.48.48,0,0,0,0-.68.49.49,0,0,0-.69,0l-.09.08a.48.48,0,0,0,0,.68.49.49,0,0,0,.69,0Zm-1.48,1.4.09-.09a.48.48,0,0,0,0-.68.49.49,0,0,0-.69,0l-.08.08a.49.49,0,0,0,0,.69A.48.48,0,0,0,29.35,29.4ZM28,30.88l.08-.09a.49.49,0,0,0,0-.69.48.48,0,0,0-.68,0l-.09.09a.49.49,0,1,0,.73.65Zm-1.31,1.55.07-.09a.48.48,0,0,0-.07-.68.49.49,0,0,0-.69.07l-.07.1a.48.48,0,0,0,.07.68.5.5,0,0,0,.69-.08Zm-1.23,1.63.07-.1a.48.48,0,0,0-.11-.68.5.5,0,0,0-.68.11l-.07.1a.49.49,0,0,0,.12.68.48.48,0,0,0,.67-.11Zm-1.13,1.69.07-.1a.49.49,0,0,0-.15-.67.48.48,0,0,0-.67.15l-.07.1a.49.49,0,1,0,.82.52Zm-1,1.75.06-.11a.49.49,0,0,0-.85-.47l-.06.11a.49.49,0,1,0,.85.47Zm-.93,1.81.05-.11a.49.49,0,0,0-.23-.65.47.47,0,0,0-.64.23l-.06.11a.49.49,0,0,0,.88.42Zm-.83,1.86,0-.11a.48.48,0,1,0-.89-.38l0,.12a.48.48,0,0,0,.26.63A.5.5,0,0,0,21.5,41.17Zm-.73,1.9,0-.11a.48.48,0,0,0-.91-.33l0,.12a.48.48,0,1,0,.91.32ZM20.16,45l0-.12a.48.48,0,1,0-.93-.27l0,.12a.49.49,0,0,0,.34.6.5.5,0,0,0,.6-.33Zm-.51,2,0-.12a.48.48,0,0,0-.36-.58.49.49,0,0,0-.59.36l0,.12a.48.48,0,1,0,.94.22Zm-.39,2,0-.12a.48.48,0,0,0-.4-.56.49.49,0,0,0-.56.4l0,.12a.5.5,0,0,0,.4.56.49.49,0,0,0,.56-.4ZM19,51l0-.12a.49.49,0,0,0-1-.11v.13a.48.48,0,1,0,1,.1Zm-.16,2v-.12a.48.48,0,0,0-.45-.51.48.48,0,0,0-.52.45V53a.49.49,0,0,0,.46.52.5.5,0,0,0,.51-.46Zm-.06,2v-.12a.48.48,0,0,0-.48-.49.49.49,0,0,0-.49.49V55a.48.48,0,0,0,.49.48.47.47,0,0,0,.48-.48Zm.06,2V57a.48.48,0,0,0-.51-.46.5.5,0,0,0-.46.51v.13a.49.49,0,0,0,.51.45.48.48,0,0,0,.46-.51Zm.17,2V59a.49.49,0,0,0-1,.1l0,.12a.48.48,0,1,0,1-.1Zm.28,2,0-.12a.48.48,0,0,0-.55-.4.47.47,0,0,0-.4.56l0,.12a.48.48,0,1,0,.95-.16Zm.4,2,0-.12a.47.47,0,0,0-.58-.36.48.48,0,0,0-.36.58l0,.12a.49.49,0,0,0,.59.36.48.48,0,0,0,.36-.58Zm.51,2,0-.12a.5.5,0,0,0-.6-.33.49.49,0,0,0-.34.6l0,.12a.48.48,0,1,0,.93-.27ZM20.8,67l0-.11a.49.49,0,1,0-.92.32l0,.11A.49.49,0,1,0,20.8,67Zm.72,1.9,0-.11a.48.48,0,0,0-.64-.26.49.49,0,0,0-.26.63l.05.11a.48.48,0,0,0,.89-.37Zm.83,1.85-.05-.11a.48.48,0,0,0-.87.42l.05.11a.48.48,0,1,0,.87-.42Zm.94,1.8-.06-.1a.48.48,0,0,0-.66-.19.49.49,0,0,0-.19.66l.06.1a.48.48,0,0,0,.66.19.49.49,0,0,0,.19-.66Zm1,1.75-.06-.1a.49.49,0,0,0-.67-.16.48.48,0,0,0-.15.67l.06.11a.49.49,0,0,0,.67.15.48.48,0,0,0,.15-.67ZM25.45,76l-.07-.09a.48.48,0,0,0-.67-.12.49.49,0,0,0-.12.68l.07.1a.49.49,0,0,0,.79-.57Zm1.23,1.63-.08-.1a.49.49,0,1,0-.76.61l.08.09a.48.48,0,0,0,.68.08.49.49,0,0,0,.08-.68ZM28,79.16l-.08-.09a.49.49,0,0,0-.73.64l.09.09a.48.48,0,1,0,.72-.64Zm1.4,1.47-.09-.08a.49.49,0,0,0-.69,0,.48.48,0,0,0,0,.68l.09.09a.49.49,0,0,0,.69,0,.51.51,0,0,0,0-.69ZM30.86,82,30.77,82a.48.48,0,0,0-.68,0,.49.49,0,0,0,0,.68l.1.08a.48.48,0,0,0,.64-.72Zm1.56,1.31-.1-.07a.48.48,0,0,0-.68.07.49.49,0,0,0,.07.68l.1.08a.49.49,0,0,0,.61-.76ZM34,84.56l-.1-.06a.48.48,0,1,0-.56.78l.1.08a.49.49,0,0,0,.56-.8Zm1.69,1.14-.1-.07a.49.49,0,0,0-.67.15.48.48,0,0,0,.15.67l.1.07a.49.49,0,0,0,.67-.16.47.47,0,0,0-.15-.66Zm1.75,1-.1-.06a.49.49,0,0,0-.66.19.48.48,0,0,0,.19.66l.1.06a.49.49,0,0,0,.66-.19.48.48,0,0,0-.19-.66Zm1.81.94-.11-.06a.49.49,0,0,0-.42.88l.11.05a.49.49,0,0,0,.65-.23.48.48,0,0,0-.23-.64Zm1.86.83-.11,0a.49.49,0,0,0-.64.26.5.5,0,0,0,.26.64l.12,0a.48.48,0,0,0,.37-.89Zm1.9.72-.11,0a.49.49,0,0,0-.62.3.49.49,0,0,0,.29.62l.12,0a.49.49,0,1,0,.32-.92Zm1.94.62-.12,0a.49.49,0,0,0-.27.94l.12,0a.48.48,0,1,0,.27-.93Zm2,.5-.12,0a.48.48,0,0,0-.22.94l.12,0a.49.49,0,0,0,.58-.37.48.48,0,0,0-.36-.58Zm2,.4-.12,0a.48.48,0,1,0-.16,1l.12,0a.48.48,0,1,0,.16-1ZM51,91l-.12,0a.49.49,0,0,0-.11,1h.13a.48.48,0,0,0,.53-.43A.48.48,0,0,0,51,91Zm2,.16h-.12a.48.48,0,0,0-.51.45.48.48,0,0,0,.45.52h.12a.49.49,0,1,0,.06-1Zm2,.06H54.9a.48.48,0,0,0-.49.48.49.49,0,0,0,.49.49H55a.49.49,0,0,0,0-1Zm2-.06h-.12a.48.48,0,0,0-.46.51.5.5,0,0,0,.51.46h.13a.49.49,0,0,0-.06-1Zm2-.17H59a.49.49,0,0,0,.1,1h.12a.49.49,0,0,0-.1-1Zm2-.28-.12,0a.49.49,0,0,0-.4.56.49.49,0,0,0,.56.4l.12,0a.5.5,0,0,0,.4-.56.48.48,0,0,0-.56-.4Zm2-.4-.12,0a.48.48,0,0,0-.36.58.49.49,0,0,0,.58.37l.12,0a.48.48,0,0,0,.36-.58.49.49,0,0,0-.58-.37Zm2-.5-.12,0a.49.49,0,0,0-.33.6.47.47,0,0,0,.6.33l.12,0a.49.49,0,0,0,.33-.6.47.47,0,0,0-.6-.33ZM67,89.21l-.12,0a.49.49,0,0,0-.3.62.5.5,0,0,0,.62.3l.12,0a.49.49,0,0,0,.29-.62.47.47,0,0,0-.61-.3Zm1.89-.73-.11,0a.49.49,0,0,0,.37.9l.11-.05a.49.49,0,0,0,.27-.63.5.5,0,0,0-.64-.27Zm1.85-.83-.1.06a.47.47,0,0,0-.23.64.47.47,0,0,0,.64.23l.11,0a.48.48,0,0,0,.23-.65.5.5,0,0,0-.65-.23Zm1.8-.93-.1.06a.49.49,0,1,0,.47.85l.1-.06a.48.48,0,0,0,.19-.66.49.49,0,0,0-.66-.19Zm1.75-1-.1.06a.49.49,0,1,0,.52.82l.1-.06a.49.49,0,0,0-.52-.82ZM76,84.56l-.1.07a.48.48,0,0,0-.12.67.49.49,0,0,0,.68.12l.1-.07a.49.49,0,0,0,.12-.68.48.48,0,0,0-.68-.11Zm1.62-1.22-.09.07a.48.48,0,0,0,.6.76l.1-.08a.48.48,0,0,0-.61-.75ZM79.14,82l-.09.08a.5.5,0,0,0,0,.69.49.49,0,0,0,.69,0l.09-.08a.49.49,0,0,0,0-.69.5.5,0,0,0-.69,0Zm1.48-1.39-.09.08a.49.49,0,1,0,.69.69l.09-.09a.48.48,0,0,0,0-.68.49.49,0,0,0-.69,0ZM82,79.15l-.08.09a.49.49,0,1,0,.72.65l.08-.09a.49.49,0,1,0-.72-.65Zm1.31-1.55-.08.09a.49.49,0,0,0,.08.68A.48.48,0,0,0,84,78.3l.08-.09a.5.5,0,0,0-.08-.69.49.49,0,0,0-.68.08ZM84.55,76l-.07.09a.49.49,0,0,0,.12.68.47.47,0,0,0,.67-.11l.07-.1a.48.48,0,0,0-.11-.68.49.49,0,0,0-.68.12Zm1.14-1.69-.07.1a.49.49,0,0,0,.15.67.49.49,0,0,0,.67-.15l.07-.11a.49.49,0,0,0-.16-.67.48.48,0,0,0-.66.16Zm1-1.76-.06.11a.49.49,0,0,0,.19.66.48.48,0,0,0,.66-.19l.06-.11a.49.49,0,0,0-.19-.66.5.5,0,0,0-.66.19Zm.94-1.8-.06.1a.49.49,0,0,0,.23.65.48.48,0,0,0,.65-.22l0-.11a.48.48,0,0,0-.23-.65.47.47,0,0,0-.64.23Zm.83-1.86,0,.11a.49.49,0,1,0,.9.37l0-.11a.48.48,0,0,0-.27-.63.47.47,0,0,0-.63.26Zm.73-1.9,0,.11a.48.48,0,1,0,.91.32l0-.11a.48.48,0,0,0-.3-.62.47.47,0,0,0-.61.3ZM89.83,65l0,.12a.48.48,0,0,0,.33.6.49.49,0,0,0,.6-.33l0-.12a.48.48,0,0,0-.93-.27Zm.51-2,0,.12a.48.48,0,0,0,.36.58.49.49,0,0,0,.59-.36l0-.12a.48.48,0,0,0-.94-.22Zm.39-2,0,.12a.49.49,0,0,0,1,.16l0-.12a.49.49,0,0,0-.4-.56.5.5,0,0,0-.56.4Zm.28-2v.12a.48.48,0,0,0,1,.11l0-.13a.49.49,0,0,0-1-.1Zm.17-2v.12a.48.48,0,0,0,.46.51.47.47,0,0,0,.51-.45v-.12a.49.49,0,1,0-1-.06Z" style="fill:#161616"/><path d="M92.64,55.91v.2a.5.5,0,0,0,.49.52.5.5,0,0,0,.51-.49v-.21a.5.5,0,0,0-.49-.52.52.52,0,0,0-.52.5Zm0-2.12v.13a.5.5,0,0,0,.52.49.52.52,0,0,0,.49-.52v-.13a.5.5,0,0,0-.52-.49.51.51,0,0,0-.49.52Zm-.12-2.1v.12a.51.51,0,0,0,.55.46.51.51,0,0,0,.46-.55V51.6a.51.51,0,0,0-.55-.46.51.51,0,0,0-.46.55Zm-.24-2.1,0,.12a.49.49,0,0,0,.57.43.5.5,0,0,0,.42-.57v-.13A.51.51,0,0,0,92.7,49a.5.5,0,0,0-.43.57Zm-.36-2.08,0,.12a.52.52,0,0,0,.6.4.5.5,0,0,0,.39-.6l0-.12a.51.51,0,0,0-.6-.4.5.5,0,0,0-.39.6Zm-.48-2.06,0,.12a.51.51,0,0,0,.62.36.5.5,0,0,0,.36-.61l0-.12a.51.51,0,0,0-1,.25Zm-.59-2,0,.12a.5.5,0,1,0,1-.3l0-.13a.5.5,0,0,0-.63-.32A.49.49,0,0,0,90.84,43.42Zm-.7-2,0,.12a.5.5,0,1,0,.94-.36l0-.12a.51.51,0,0,0-.66-.29.49.49,0,0,0-.28.65Zm-.82-1.94.05.11a.5.5,0,1,0,.92-.41l-.05-.11a.51.51,0,0,0-.67-.26.52.52,0,0,0-.25.67ZM88.4,37.6l0,.11a.51.51,0,0,0,.68.21.5.5,0,0,0,.22-.68l-.06-.11a.5.5,0,0,0-.89.47Zm-1-1.85.06.11a.5.5,0,1,0,.87-.51l-.07-.11a.5.5,0,1,0-.86.51ZM86.24,34l.07.11a.5.5,0,0,0,.84-.56l-.08-.11a.51.51,0,0,0-.7-.14.5.5,0,0,0-.13.7ZM85,32.26l.07.1a.52.52,0,0,0,.71.1.51.51,0,0,0,.1-.71l-.08-.1a.5.5,0,0,0-.7-.1A.51.51,0,0,0,85,32.26Zm-1.32-1.65.08.1a.5.5,0,0,0,.77-.65l-.08-.1a.52.52,0,0,0-.72-.06A.51.51,0,0,0,83.69,30.61ZM82.28,29l.08.09a.5.5,0,0,0,.71,0,.5.5,0,0,0,0-.71L83,28.35a.52.52,0,0,0-.72,0,.5.5,0,0,0,0,.71Zm-1.5-1.49.09.09a.5.5,0,1,0,.69-.73l-.09-.09a.52.52,0,0,0-.72,0,.5.5,0,0,0,0,.71Zm-1.58-1.4.09.08a.51.51,0,0,0,.71-.06.5.5,0,0,0-.06-.71l-.09-.08a.5.5,0,0,0-.71.06.5.5,0,0,0,.06.71Zm-1.66-1.31.1.07a.51.51,0,0,0,.71-.1.5.5,0,0,0-.1-.7l-.1-.08a.51.51,0,1,0-.61.81Zm-1.72-1.22.1.07a.5.5,0,0,0,.56-.84l-.11-.07a.5.5,0,1,0-.55.84ZM74,22.5l.11.06a.5.5,0,1,0,.51-.87l-.11-.06a.5.5,0,0,0-.51.87Zm-1.85-1,.11.06a.51.51,0,0,0,.68-.22.5.5,0,0,0-.22-.68l-.11-.06a.51.51,0,0,0-.68.22.5.5,0,0,0,.22.68Zm-1.91-.91.11.05a.51.51,0,0,0,.42-.92l-.12-.05a.51.51,0,0,0-.67.25A.52.52,0,0,0,70.26,20.57Zm-2-.81.12,0a.5.5,0,1,0,.36-.94l-.12-.05a.5.5,0,0,0-.65.29A.5.5,0,0,0,68.3,19.76Zm-2-.69.12,0a.49.49,0,0,0,.63-.33.51.51,0,0,0-.33-.63l-.12,0a.51.51,0,0,0-.63.33.49.49,0,0,0,.33.63Zm-2-.57.12,0a.5.5,0,0,0,.61-.36.51.51,0,0,0-.36-.62l-.13,0a.5.5,0,0,0-.24,1ZM62.22,18l.12,0a.49.49,0,0,0,.59-.39.51.51,0,0,0-.4-.6l-.12,0a.5.5,0,0,0-.19,1Zm-2.09-.35.13,0a.49.49,0,0,0,.56-.43.51.51,0,0,0-.42-.57h-.13a.5.5,0,1,0-.14,1ZM58,17.47h.13A.5.5,0,0,0,58.7,17a.51.51,0,0,0-.46-.55h-.13a.51.51,0,0,0-.08,1Zm-2.11-.11h.13a.5.5,0,0,0,.52-.49.52.52,0,0,0-.49-.52H56a.5.5,0,0,0-.52.49.52.52,0,0,0,.49.52Zm-2.11,0h.13a.52.52,0,0,0,.49-.52.51.51,0,0,0-.52-.49h-.13a.5.5,0,1,0,0,1Zm-2.11.13h.13a.51.51,0,1,0-.09-1h-.12a.51.51,0,0,0,.08,1Zm-2.09.24.12,0a.5.5,0,0,0,.43-.57.51.51,0,0,0-.57-.43l-.13,0a.51.51,0,0,0-.42.57.5.5,0,0,0,.57.43Zm-2.08.36.12,0a.49.49,0,0,0,.39-.59.51.51,0,0,0-.59-.4l-.12,0a.5.5,0,0,0-.4.59.51.51,0,0,0,.6.4Zm-2.06.47.12,0a.5.5,0,0,0-.25-1l-.13,0a.5.5,0,0,0-.36.61.51.51,0,0,0,.62.36Zm-2,.59.12,0a.51.51,0,0,0,.33-.64.52.52,0,0,0-.64-.33l-.12,0a.51.51,0,0,0-.32.64.5.5,0,0,0,.63.32Zm-2,.71.12-.05a.5.5,0,1,0-.36-.94l-.12.05a.5.5,0,1,0,.36.94Zm-1.94.81.11-.05a.49.49,0,0,0,.25-.67.5.5,0,0,0-.66-.25l-.12.05a.52.52,0,0,0-.25.67.51.51,0,0,0,.67.25Zm-1.9.92.11-.05a.51.51,0,1,0-.46-.9l-.11.06a.5.5,0,1,0,.46.89Zm-1.84,1,.11-.06a.49.49,0,0,0,.17-.69.51.51,0,0,0-.69-.18l-.11.06a.53.53,0,0,0-.17.7.51.51,0,0,0,.69.17ZM34,23.75l.1-.07a.5.5,0,0,0-.56-.84l-.1.07a.49.49,0,0,0-.14.7.5.5,0,0,0,.7.14ZM32.27,25l.1-.08a.5.5,0,1,0-.61-.8l-.1.07a.51.51,0,0,0-.09.71.5.5,0,0,0,.7.1ZM30.63,26.3l.09-.08a.5.5,0,0,0-.65-.77l-.1.08a.51.51,0,0,0-.06.71.52.52,0,0,0,.72.06Zm-1.57,1.41.09-.08a.51.51,0,0,0-.7-.74l-.09.09a.51.51,0,1,0,.7.73Zm-1.49,1.5.08-.09a.5.5,0,0,0,0-.71.5.5,0,0,0-.71,0l-.09.1a.5.5,0,0,0,0,.71.52.52,0,0,0,.72,0Zm-1.41,1.58.08-.1a.5.5,0,0,0-.06-.71.51.51,0,0,0-.71.06l-.08.1a.5.5,0,1,0,.77.65Zm-1.31,1.65.07-.1a.49.49,0,0,0-.1-.7.49.49,0,0,0-.7.09l-.08.11a.5.5,0,0,0,.1.7.51.51,0,0,0,.71-.1Zm-1.22,1.73.07-.11a.5.5,0,1,0-.84-.56l-.07.11a.5.5,0,0,0,.14.7.51.51,0,0,0,.7-.14ZM22.51,36l.06-.11a.5.5,0,1,0-.87-.51l-.06.11a.5.5,0,1,0,.87.51Zm-1,1.85.05-.11a.5.5,0,1,0-.89-.46l-.06.11a.51.51,0,1,0,.9.46Zm-.92,1.91.06-.11a.51.51,0,0,0-.26-.67.52.52,0,0,0-.67.25l-.05.12a.51.51,0,0,0,.26.67A.5.5,0,0,0,20.57,39.72Zm-.8,2,0-.12a.5.5,0,1,0-.94-.36l0,.12a.5.5,0,1,0,.94.36Zm-.69,2,0-.12a.51.51,0,0,0-.33-.63.5.5,0,0,0-.63.33l0,.12a.5.5,0,1,0,1,.3Zm-.58,2,0-.12a.5.5,0,1,0-1-.25l0,.13a.5.5,0,0,0,.36.61.5.5,0,0,0,.61-.37ZM18,47.76l0-.12a.51.51,0,0,0-.4-.59.5.5,0,0,0-.59.4l0,.12a.5.5,0,0,0,.4.59.49.49,0,0,0,.59-.4Zm-.34,2.09v-.13a.49.49,0,0,0-.43-.56.51.51,0,0,0-.57.42v.13a.5.5,0,0,0,.43.57.51.51,0,0,0,.57-.43ZM17.47,52v-.13a.5.5,0,0,0-.46-.54.51.51,0,0,0-.55.46v.13a.51.51,0,0,0,1,.08Zm-.11,2.11v-.13a.5.5,0,0,0-.49-.52.51.51,0,0,0-.52.49V54a.5.5,0,0,0,.49.52.52.52,0,0,0,.52-.49Zm0,2.11V56a.52.52,0,0,0-.52-.49.5.5,0,0,0-.49.52v.13a.51.51,0,0,0,.52.49.5.5,0,0,0,.49-.52Zm.12,2.11v-.13a.5.5,0,0,0-.54-.46.51.51,0,0,0-.46.55v.12a.5.5,0,1,0,1-.08Zm.24,2.09v-.12a.51.51,0,0,0-.57-.43.5.5,0,0,0-.43.57l0,.13a.5.5,0,1,0,1-.15Zm.36,2.08,0-.12a.5.5,0,0,0-.59-.39.49.49,0,0,0-.4.59l0,.12a.51.51,0,0,0,.6.4.5.5,0,0,0,.39-.6Zm.48,2.06,0-.12a.51.51,0,0,0-.62-.36.5.5,0,0,0-.36.61l0,.13a.51.51,0,0,0,1-.26Zm.59,2,0-.12a.51.51,0,0,0-.63-.33.5.5,0,0,0-.33.64l0,.12a.5.5,0,0,0,.63.32.5.5,0,0,0,.33-.63Zm.7,2,0-.12a.51.51,0,0,0-.66-.29.5.5,0,0,0-.29.65l.05.12a.5.5,0,1,0,.94-.36Zm.81,1.94-.05-.11a.5.5,0,0,0-.92.41l0,.12a.51.51,0,0,0,.67.25.5.5,0,0,0,.25-.67Zm.92,1.9,0-.11a.51.51,0,0,0-.68-.22.5.5,0,0,0-.22.68l.06.12a.51.51,0,0,0,.68.21.5.5,0,0,0,.21-.68Zm1,1.84-.06-.1a.5.5,0,0,0-.87.51l.06.11a.5.5,0,0,0,.69.17.51.51,0,0,0,.18-.69ZM23.74,76l-.07-.1a.5.5,0,0,0-.84.56l.07.11a.5.5,0,0,0,.7.13.51.51,0,0,0,.14-.7ZM25,77.71l-.07-.1a.51.51,0,0,0-.81.61l.08.1a.5.5,0,1,0,.8-.61Zm1.33,1.65-.08-.1a.52.52,0,0,0-.72-.06.51.51,0,0,0-.06.71l.09.1a.5.5,0,0,0,.77-.65Zm1.41,1.57-.09-.09a.5.5,0,0,0-.73.69l.09.09a.5.5,0,0,0,.71,0,.5.5,0,0,0,0-.71Zm1.49,1.49-.09-.08a.5.5,0,0,0-.71,0,.52.52,0,0,0,0,.72l.09.08a.5.5,0,0,0,.69-.73Zm1.58,1.41-.09-.08a.52.52,0,0,0-.72,0,.51.51,0,0,0,.06.71l.1.09a.5.5,0,0,0,.65-.77Zm1.65,1.31-.09-.07a.5.5,0,1,0-.61.8l.1.08a.52.52,0,0,0,.71-.1.51.51,0,0,0-.11-.71Zm1.73,1.22-.1-.07a.51.51,0,0,0-.7.14.5.5,0,0,0,.13.7l.11.07a.5.5,0,0,0,.56-.84Zm1.79,1.12-.11-.06a.5.5,0,1,0-.51.87l.11.06a.5.5,0,1,0,.51-.87Zm1.85,1-.11,0a.5.5,0,0,0-.68.21.51.51,0,0,0,.22.68l.11.06a.51.51,0,1,0,.46-.9Zm1.91.92-.11,0a.51.51,0,0,0-.67.25.52.52,0,0,0,.25.67l.12,0a.51.51,0,0,0,.67-.26.5.5,0,0,0-.26-.66Zm2,.8-.12,0a.5.5,0,0,0-.36.94l.12,0a.52.52,0,0,0,.65-.3.5.5,0,0,0-.29-.65Zm2,.69-.12,0a.5.5,0,0,0-.63.32.51.51,0,0,0,.33.64l.12,0a.51.51,0,0,0,.3-1Zm2,.58-.12,0a.5.5,0,0,0-.61.36.51.51,0,0,0,.36.62l.13,0a.5.5,0,0,0,.61-.36.51.51,0,0,0-.37-.62Zm2.06.46-.12,0a.5.5,0,0,0-.59.4.49.49,0,0,0,.4.59l.12,0a.49.49,0,0,0,.59-.39A.5.5,0,0,0,47.74,92Zm2.09.35-.13,0a.5.5,0,1,0-.14,1l.13,0a.5.5,0,0,0,.14-1Zm2.1.23H51.8a.5.5,0,0,0-.54.46.49.49,0,0,0,.46.54h.12a.5.5,0,0,0,.55-.46.51.51,0,0,0-.46-.54Zm2.1.11h-.12a.51.51,0,0,0,0,1H54a.5.5,0,0,0,.52-.49.52.52,0,0,0-.5-.52Zm2.12,0H56a.51.51,0,1,0,0,1h.13a.51.51,0,0,0,.49-.52.5.5,0,0,0-.52-.49Zm2.11-.12h-.13a.5.5,0,0,0-.46.54.5.5,0,0,0,.54.46h.13A.5.5,0,0,0,58.8,93a.5.5,0,0,0-.54-.46Zm2.09-.24-.12,0a.49.49,0,0,0-.43.56.5.5,0,0,0,.57.43h.12a.51.51,0,0,0,.43-.57.5.5,0,0,0-.57-.43Zm2.08-.36-.12,0a.5.5,0,0,0-.4.59.52.52,0,0,0,.6.4l.12,0a.51.51,0,1,0-.2-1Zm2.06-.47-.12,0a.5.5,0,0,0-.36.61.5.5,0,0,0,.61.37l.13,0a.5.5,0,1,0-.26-1Zm2-.59-.12,0a.5.5,0,1,0,.31,1l.12,0a.5.5,0,0,0,.32-.63.49.49,0,0,0-.63-.33Zm2-.7-.12,0a.5.5,0,1,0,.36.94l.12,0a.5.5,0,1,0-.36-.94Zm1.94-.81-.11.05a.5.5,0,0,0,.41.92l.12,0a.51.51,0,0,0,.25-.67.49.49,0,0,0-.67-.25Zm1.9-.92-.11,0a.51.51,0,0,0-.22.68.5.5,0,0,0,.68.22l.12-.06a.51.51,0,0,0,.21-.68.5.5,0,0,0-.68-.21Zm1.84-1-.1.06a.5.5,0,0,0,.51.87l.11-.06a.49.49,0,0,0,.17-.69.51.51,0,0,0-.69-.18ZM76,86.27l-.11.07a.51.51,0,0,0-.14.7.5.5,0,0,0,.7.14l.11-.07a.5.5,0,0,0-.56-.84Zm1.72-1.22-.1.07a.5.5,0,0,0,.6.81l.1-.08a.5.5,0,1,0-.6-.8Zm1.64-1.32-.09.08a.5.5,0,0,0-.06.71.51.51,0,0,0,.71.06L80,84.5a.5.5,0,1,0-.65-.77Zm1.57-1.41-.09.08a.51.51,0,1,0,.7.74l.09-.09a.51.51,0,1,0-.7-.73Zm1.5-1.5-.09.09a.5.5,0,0,0,0,.71.5.5,0,0,0,.71,0l.09-.1a.5.5,0,1,0-.73-.69Zm1.4-1.58-.08.1a.5.5,0,1,0,.77.65l.08-.1a.5.5,0,0,0-.77-.65Zm1.32-1.65-.08.1a.51.51,0,0,0,.1.71.52.52,0,0,0,.71-.1l.07-.1a.5.5,0,1,0-.8-.61Zm1.22-1.72-.07.1a.5.5,0,0,0,.84.56l.07-.1a.51.51,0,0,0-.14-.7.5.5,0,0,0-.7.14Zm1.12-1.79-.06.1a.51.51,0,0,0,.18.69.5.5,0,0,0,.69-.17l.06-.11a.5.5,0,1,0-.87-.51Zm1-1.86,0,.11a.5.5,0,1,0,.89.47l.06-.11a.5.5,0,0,0-.22-.68.51.51,0,0,0-.68.21Zm.92-1.9,0,.11a.5.5,0,1,0,.92.41l0-.11a.51.51,0,0,0-.26-.67.5.5,0,0,0-.66.26Zm.8-2,0,.12a.5.5,0,1,0,.94.36l0-.12a.51.51,0,0,0-1-.36Zm.7-2,0,.11a.5.5,0,1,0,1,.31l0-.12a.5.5,0,0,0-.33-.63.49.49,0,0,0-.63.33Zm.58-2,0,.12a.5.5,0,0,0,1,.25l0-.13A.5.5,0,0,0,92.1,64,.5.5,0,0,0,91.49,64.34ZM92,62.28l0,.12a.5.5,0,1,0,1,.19l0-.12a.51.51,0,0,0-.4-.59.49.49,0,0,0-.59.4Zm.35-2.09,0,.13a.51.51,0,0,0,.43.57.52.52,0,0,0,.57-.43l0-.13a.52.52,0,0,0-.43-.57.5.5,0,0,0-.57.43Zm.23-2.1v.13a.49.49,0,0,0,.46.54.5.5,0,0,0,.54-.46v-.12a.51.51,0,0,0-.46-.55.5.5,0,0,0-.54.46Z" style="fill:#161616"/></g><g id="bdfea954-64d8-406e-b22b-9b45497217de" data-name="Button Ring"><path d="M77.31,62.31a7.25,7.25,0,1,1,7.25-7.25A7.26,7.26,0,0,1,77.31,62.31Zm0-14.12a6.87,6.87,0,1,0,6.87,6.87A6.88,6.88,0,0,0,77.31,48.19Z" style="fill:#161616"/></g><circle id="3744dbcd-e0d5-4620-9c25-a6b66e3c96e7" data-name="Button" cx="77.31" cy="55.06" r="1.45" style="fill:#25a9e0"/><g id="5bb6fe97-0f9d-4f59-9b0d-cfe881dc159c" data-name="Mic Ring"><path d="M32.69,62.18a7.25,7.25,0,1,1,7.25-7.24A7.25,7.25,0,0,1,32.69,62.18Zm0-14.11a6.87,6.87,0,1,0,6.87,6.87A6.88,6.88,0,0,0,32.69,48.07Z" style="fill:#161616"/></g><path id="8f8dc2fc-215e-4f7d-97dc-219b41977a1b" data-name="Microphone" d="M32.64,56h.1A1.23,1.23,0,0,0,34,54.73V53.55l1.78-1.77a.25.25,0,0,0,0-.34l-.16-.16a.25.25,0,0,0-.34,0L34,52.56v-.42a1.22,1.22,0,0,0-1.22-1.22h-.1a1.22,1.22,0,0,0-1.22,1.22v2.59a1.14,1.14,0,0,0,0,.33l-.37.37a1.71,1.71,0,0,1-.17-.74v-.5a.27.27,0,0,0-.53,0v.5a2.2,2.2,0,0,0,.31,1.13l-1.06,1.06a.23.23,0,0,0,0,.34l.15.15a.23.23,0,0,0,.34,0l1-1a2.21,2.21,0,0,0,.75.45h0l.2,0,.06,0,.09,0,.13,0h0v1.23H31.16c-.14,0-.26.25-.26.4s.12.39.26.39h3.05c.15,0,.27-.25.27-.39s-.12-.4-.27-.4H33V56.94h0l.13,0,.09,0,.06,0,.19,0h0A2.25,2.25,0,0,0,35,54.69v-.5a.26.26,0,0,0-.52,0v.5a1.74,1.74,0,0,1-.9,1.51h0a1.52,1.52,0,0,1-.4.16h0l-.14,0h-.59l-.14,0h0a1.4,1.4,0,0,1-.4-.16h0a1.61,1.61,0,0,1-.3-.21l.32-.33A1.17,1.17,0,0,0,32.64,56Z" style="fill:#25a9e0"/><circle cx="55" cy="55" r="0.99" style="fill:#161616"/></g></g></g></svg>