<svg xmlns="http://www.w3.org/2000/svg" viewBox="0 0 110 110"><title>ESPHomeYAML</title><g id="b37eead1-f7ee-4122-87d4-f4605ffd0705" data-name="Layer 2"><g id="90ba5e87-67c3-4566-8362-45d1b804159e" data-name="Layer 1"><circle cx="55" cy="55" r="52.5" style="fill:#44474e"/><path d="M55,5A50,50,0,1,1,5,55,50,50,0,0,1,55,5m0-5a55,55,0,1,0,55,55A55.06,55.06,0,0,0,55,0Z" style="fill:#28292d"/><path d="M79.79,32.28a.53.53,0,0,1-.37-.15,10.73,10.73,0,0,0-15.16,0,.51.51,0,0,1-.72-.72,11.76,11.76,0,0,1,16.61,0,.51.51,0,0,1-.36.87Z" style="fill:#18aceb"/><path d="M66.79,35.17a.51.51,0,0,1-.36-.87,7.66,7.66,0,0,1,10.83,0,.51.51,0,0,1-.72.72,6.65,6.65,0,0,0-9.39,0A.51.51,0,0,1,66.79,35.17Z" style="fill:#18aceb"/><path d="M69.68,38.06a.51.51,0,0,1-.36-.87,3.56,3.56,0,0,1,5.05,0,.51.51,0,0,1-.72.72,2.55,2.55,0,0,0-3.61,0A.51.51,0,0,1,69.68,38.06Z" style="fill:#18aceb"/><path d="M51.94,67.59V77.94H40.71V67.59a4.19,4.19,0,0,1,4.39-4h2.45A4.19,4.19,0,0,1,51.94,67.59Z" style="fill:#18aceb"/><path d="M51.94,50.88V57a.51.51,0,0,1-.51.51H41.22a.51.51,0,0,1-.51-.51V50.88a.51.51,0,0,1,.51-.51H51.43A.51.51,0,0,1,51.94,50.88Z" style="fill:#18aceb"/><path d="M46.32,38.93,28.46,54.25V77.94H39.69V67.59a5.2,5.2,0,0,1,5.41-5h2.45a5.2,5.2,0,0,1,5.41,5V77.94H64.19V54.25ZM53,57a1.54,1.54,0,0,1-1.53,1.53H41.22A1.53,1.53,0,0,1,39.69,57V50.88a1.53,1.53,0,0,1,1.53-1.53H51.43A1.54,1.54,0,0,1,53,50.88Z" style="fill:#18aceb"/><path d="M46,37.87,25.88,55.11a1.53,1.53,0,0,1-2-2.32L45.32,34.41a1.52,1.52,0,0,1,2,0L68.76,52.79a1.51,1.51,0,0,1,.16,2.15,1.57,1.57,0,0,1-2.16.17L46.66,37.87a.54.54,0,0,0-.34-.12A.54.54,0,0,0,46,37.87Z" style="fill:#18aceb"/><path d="M69.29,47.31V44.76h0V41.19a.52.52,0,0,1,.52-.52h4.08a.51.51,0,0,1,.51.52v6.12a.51.51,0,0,1-.51.51H69.81A.51.51,0,0,1,69.29,47.31Z" style="fill:#18aceb"/><path d="M78,64.66a1.54,1.54,0,0,1,1.53,1.53V77.94H69.29V66.19a1.54,1.54,0,0,1,1.53-1.53Z" style="fill:#18aceb"/><path d="M69.42,52l-7.86-6.74h6.71v2a1.54,1.54,0,0,0,1.54,1.53h4.08a1.54,1.54,0,0,0,1.53-1.53v-.13l7.3,6.25H70.25A2.51,2.51,0,0,0,69.42,52Z" style="fill:#18aceb"/><path d="M70.25,54.46a2.43,2.43,0,0,1-.55,1.14,2.54,2.54,0,0,1-3.6.28l-.89-.76V77.94h3.06V66.19a2.56,2.56,0,0,1,2.55-2.55H78a2.55,2.55,0,0,1,2.55,2.55V77.94h3.06V54.46Zm11.29,6.63a.5.5,0,0,1-.51.51.51.51,0,0,1-.51-.51V57.52H77a.51.51,0,1,1,0-1H81a.51.51,0,0,1,.51.51Z" style="fill:#18aceb"/><path d="M86.65,80.49A1.53,1.53,0,0,1,85.12,82H24.88a1.53,1.53,0,1,1,0-3.06H85.12A1.54,1.54,0,0,1,86.65,80.49Z" style="fill:#18aceb"/></g></g></svg>