<svg xmlns="http://www.w3.org/2000/svg" viewBox="0 0 110 110"><title>FrontEnd</title><g id="73fb7ea2-86fb-44bc-bbdc-7019fb5942e8" data-name="Layer 2"><g id="821861bd-1217-4512-bd82-84f4b1314156" data-name="Layer 1"><circle cx="55" cy="55" r="52.5" style="fill:#44474e"/><path d="M55,5A50,50,0,1,1,5,55,50,50,0,0,1,55,5m0-5a55,55,0,1,0,55,55A55.06,55.06,0,0,0,55,0Z" style="fill:#28292d"/><rect x="36.65" y="88.57" width="36.7" height="4.19" rx="2.09" ry="2.09" style="fill:#25a9e0"/><path d="M88.4,25.25H21.6a4.13,4.13,0,0,0-4.13,4.13v43A4.13,4.13,0,0,0,21.6,76.5H88.4a4.13,4.13,0,0,0,4.13-4.13v-43A4.13,4.13,0,0,0,88.4,25.25Zm1.49,46.48a2.65,2.65,0,0,1-2.65,2.65H22.56a2.65,2.65,0,0,1-2.45-2.64V30a2.65,2.65,0,0,1,2.65-2.65H87.24A2.65,2.65,0,0,1,89.89,30Z" style="fill:#3cbbdd"/><path d="M22.76,73.38h-.13a1.65,1.65,0,0,1-1.52-1.64V30a1.65,1.65,0,0,1,1.65-1.65H87.24A1.65,1.65,0,0,1,88.89,30V71.73a1.65,1.65,0,0,1-1.65,1.65Z" style="fill:#18aceb"/><polygon points="65.58 88.57 44.42 88.57 46.56 80.55 47.64 76.5 62.36 76.5 63.44 80.55 63.44 80.55 65.58 88.57" style="fill:#3cbbdd"/></g></g></svg>