<svg xmlns="http://www.w3.org/2000/svg" viewBox="0 0 110 110"><title>InFluxDB</title><g id="818ac11e-e6e7-4933-8cb8-2512c3abbd98" data-name="Layer 2"><g id="e6c2984d-1905-486b-99f6-7d0194d2da61" data-name="Layer 1"><circle cx="55" cy="55" r="52.5" style="fill:#44474e"/><path d="M55,5A50,50,0,1,1,5,55,50,50,0,0,1,55,5m0-5a55,55,0,1,0,55,55A55.06,55.06,0,0,0,55,0Z" style="fill:#28292d"/><path id="ccbca6b9-f137-4bc3-900e-0d84772b8d41" data-name="symbol" d="M75.26,48.9,71.34,31.78a3.06,3.06,0,0,0-2-2.12l-18-5.51a3.49,3.49,0,0,0-.78-.11,3.06,3.06,0,0,0-2.06.78l-12.89,12a3.24,3.24,0,0,0-.88,2.78l4.18,18.31a3.06,3.06,0,0,0,2,2.11l16.81,5.16a4.17,4.17,0,0,0,.77.1,3.11,3.11,0,0,0,2.07-.77L74.33,51.68A3,3,0,0,0,75.26,48.9ZM53.19,28.17l12.33,3.76c.46.16.46.36,0,.47L59,33.89a1.73,1.73,0,0,1-1.5-.46L53,28.53C52.63,28.22,52.73,28.06,53.19,28.17Zm7.69,22.12c.1.51-.21.77-.67.62L46.9,46.83c-.46-.15-.56-.56-.2-.87l10.21-9.49a.48.48,0,0,1,.87.26ZM39,38.22l10.83-10a.91.91,0,0,1,1.29,0l5.41,5.83a.9.9,0,0,1-.05,1.28L45.61,45.39a.91.91,0,0,1-1.29,0l-5.41-5.83A1,1,0,0,1,39,38.22Zm2.63,16L38.7,41.68c-.1-.52.06-.57.42-.21l4.53,4.9A1.69,1.69,0,0,1,44,47.92l-2,6.34C42,54.67,41.69,54.67,41.59,54.21Zm15.83,7.27L43.34,57.15A.93.93,0,0,1,42.73,56l2.32-7.63a.94.94,0,0,1,1.13-.62l14.08,4.33a1,1,0,0,1,.62,1.14l-2.32,7.63A.91.91,0,0,1,57.42,61.48ZM70,51.22,60.52,60c-.37.36-.57.21-.42-.26l2-6.34a1.79,1.79,0,0,1,1.19-1.08l6.5-1.5C70.21,50.7,70.31,50.91,70,51.22Zm1-1.86L63.2,51.11a.9.9,0,0,1-1.09-.67l-3.3-14.38A.92.92,0,0,1,59.48,35l7.79-1.75a.9.9,0,0,1,1.08.67l3.3,14.39A.92.92,0,0,1,71,49.36Z" style="fill:#18aceb"/><g id="08c59b37-ac84-498c-94ac-169cf2abecfe" data-name="type"><path d="M16.9,69.45l3-.4L17.76,81h-2.9Zm.86-5,3-.4-.56,3.27-3,.44Z" style="fill:#18aceb"/><path d="M29.14,72.62a1.48,1.48,0,0,0,0-.3c0-.3-.13-.5-.6-.5a10,10,0,0,0-3.5,1.36L23.7,81H20.8l2-11.51,2.5-.43,0,1.43A11.13,11.13,0,0,1,30.07,69c1.6,0,2.14,1.06,2.14,2.33a4.32,4.32,0,0,1-.14,1.17L30.57,81h-2.9Z" style="fill:#18aceb"/><path d="M41.54,71.58h-2.7l-1.77,9.94A6.88,6.88,0,0,1,34.51,86l-1.87-1.74a4.75,4.75,0,0,0,1.57-3l1.7-9.68h-1.8l.4-2.36h1.8l.3-1.71C37,65,38,63.91,41,63.91a17.39,17.39,0,0,1,3.7.47l3-.4-3,17h-2.9l2.53-14.38A17.79,17.79,0,0,0,41,66.21c-1,0-1.4.34-1.53,1.17l-.3,1.8h2.93Z" style="fill:#18aceb"/><path d="M51.11,77.59a1.54,1.54,0,0,0,0,.3c0,.3.13.5.6.5A10.07,10.07,0,0,0,55.18,77l1.34-7.6,3-.4L57.42,81H55l0-1.24a11,11,0,0,1-4.77,1.47c-1.6,0-2.13-1.07-2.13-2.33a4.33,4.33,0,0,1,.13-1.17l1.44-8.27,3-.4Z" style="fill:#18aceb"/><path d="M64.05,75.05l-2.53-5.53,2.7-.5L66,73.18l2.9-4H72l-4.8,6.2L69.76,81H66.82l-1.6-3.4L62.39,81h-3.1Z" style="fill:#18aceb"/><path d="M80.86,81H78.4v-1.3a5.76,5.76,0,0,1-4,1.53c-2,0-2.73-1.1-2.73-2.67a5.31,5.31,0,0,1,.13-1.23l.6-3.44c.54-3,1.1-4.9,5.71-4.9a9,9,0,0,1,1.93.24l.83-4.77,3-.4Zm-1.23-9.41a8.09,8.09,0,0,0-1.7-.13c-1.87,0-2.34.73-2.6,2.3l-.74,4.14a1.24,1.24,0,0,0,0,.3c0,.43.3.63.83.63a4.87,4.87,0,0,0,3.27-1.77Z" style="fill:#18aceb"/><path d="M86.8,64.41l3-.4L88.7,70a7.4,7.4,0,0,1,3.7-1c2,0,2.74,1.1,2.74,2.67A5.34,5.34,0,0,1,95,72.88l-.56,3.44c-.64,3.53-1.84,4.9-6.07,4.9A17.11,17.11,0,0,1,84,80.45Zm.37,14.21a9.15,9.15,0,0,0,1.7.17c1.86,0,2.33-.77,2.6-2.3l.73-4.14a.94.94,0,0,0,0-.3c0-.43-.3-.63-.84-.63a6.18,6.18,0,0,0-3.17,1.1Z" style="fill:#18aceb"/></g></g></g></svg>