<svg xmlns="http://www.w3.org/2000/svg" viewBox="0 0 110 110"><title>Internet</title><g id="ea4453aa-1048-4df9-b083-9e95f013617d" data-name="Layer 2"><g id="3530e672-3b85-4f72-9de1-dfedd996092d" data-name="Layer 1"><circle cx="55" cy="55" r="52.5" style="fill:#44474e"/><path d="M55,5A50,50,0,1,1,5,55,50,50,0,0,1,55,5m0-5a55,55,0,1,0,55,55A55.06,55.06,0,0,0,55,0Z" style="fill:#28292d"/><path d="M55,9.38a7.12,7.12,0,0,0-3,13.56v4.5a25.84,25.84,0,0,1,2.65-.13,27.07,27.07,0,0,1,3.39.21V22.94A7.12,7.12,0,0,0,55,9.38Zm3,9a3.56,3.56,0,0,1-6.58-1.88,3.44,3.44,0,0,1,0-.46.5.5,0,0,1,0-.12,3.56,3.56,0,0,1,7,0,.5.5,0,0,1,0,.12,3.44,3.44,0,0,1,0,.46A3.56,3.56,0,0,1,58,18.38Z" style="fill:#25a9e0"/><path d="M58,87.06V82.38a27.07,27.07,0,0,1-3.39.21A25.84,25.84,0,0,1,52,82.46v4.6a7.12,7.12,0,1,0,6,0Zm-3,10a3.56,3.56,0,0,1-3.56-3.56,3.4,3.4,0,0,1,0-.45.5.5,0,0,1,0-.12A3.35,3.35,0,0,1,52,91.62a3.55,3.55,0,0,1,6,0,3.35,3.35,0,0,1,.49,1.31.5.5,0,0,1,0,.12,3.4,3.4,0,0,1,0,.45A3.56,3.56,0,0,1,55,97.06Z" style="fill:#25a9e0"/><path d="M28.75,36.36a7.13,7.13,0,1,0-3,5.23l3.65,2.11a27.43,27.43,0,0,1,3.05-5.22Zm-7,3h-.12a3.57,3.57,0,0,1-3.56-3.56c0-.13,0-.25,0-.37l0-.17a.51.51,0,0,1,0-.13s0,0,0-.07v0h0a3.57,3.57,0,0,1,6.63-.92,3.74,3.74,0,0,1,.33.92h0v0s0,.05,0,.07a.51.51,0,0,1,0,.13l0,.17c0,.12,0,.24,0,.37A3.56,3.56,0,0,1,21.77,39.31Z" style="fill:#25a9e0"/><path d="M91.91,68.08a7.14,7.14,0,0,0-7.64.33L80,65.94a27.76,27.76,0,0,1-3,5.25l4.25,2.45a7.12,7.12,0,1,0,10.66-5.56Zm-3.56,9.73a3.56,3.56,0,0,1-3.15-1.88,3.63,3.63,0,0,1-.41-1.68c0-.12,0-.24,0-.36l0-.18a.5.5,0,0,1,0-.12s0,0,0-.08h0a3.56,3.56,0,0,1,3.36-2.81h.12a3.57,3.57,0,0,1,3.48,2.81h0s0,0,0,.08a.5.5,0,0,1,0,.12l0,.18c0,.12,0,.24,0,.36A3.56,3.56,0,0,1,88.35,77.81Z" style="fill:#25a9e0"/><path d="M40.32,43c-.56-.24-1.1-.49-1.61-.76a1,1,0,0,1,.08-.11h0Z" style="fill:#25a9e0"/><polygon points="48.96 55 48.96 55 48.96 55 48.96 55" style="fill:#25a9e0"/><path d="M64.49,60.93c0,.37-.09.74-.15,1.1C64.4,61.67,64.45,61.3,64.49,60.93Z" style="fill:#25a9e0"/><path d="M32.48,71.49a28.3,28.3,0,0,1-3.07-5.21l-3.68,2.13a7.12,7.12,0,1,0,3,5.23ZM24.8,75.93a3.57,3.57,0,0,1-6.71-1.68c0-.12,0-.24,0-.36l0-.18a.5.5,0,0,1,0-.12s0,0,0-.08h0a3.57,3.57,0,0,1,3.48-2.81h.12a3.56,3.56,0,0,1,3.36,2.81h0s0,0,0,.08a.5.5,0,0,1,0,.12l0,.18c0,.12,0,.24,0,.36A3.63,3.63,0,0,1,24.8,75.93Z" style="fill:#25a9e0"/><polygon points="51.98 56.74 51.98 56.74 51.97 56.74 51.98 56.74" style="fill:#25a9e0"/><polygon points="58.03 56.74 58.02 56.74 58.02 56.74 58.03 56.74" style="fill:#25a9e0"/><polygon points="61.04 55 61.04 55 61.04 55 61.04 55" style="fill:#25a9e0"/><path d="M64.13,46.67c0-.13,0-.26-.07-.39a.09.09,0,0,1,0,0c0,.07,0,.14,0,.21A.59.59,0,0,1,64.13,46.67Z" style="fill:#25a9e0"/><path d="M71.29,42.27c-.51.27-1.05.52-1.61.76l1.52-.87h0A1,1,0,0,1,71.29,42.27Z" style="fill:#25a9e0"/><path d="M94.51,32.19a7.12,7.12,0,0,0-13.26,4.17l-4.2,2.42A27.22,27.22,0,0,1,80,44l4.24-2.45a7.12,7.12,0,0,0,10.24-9.4Zm-6.16,7.12h-.12a3.56,3.56,0,0,1-3.44-3.56c0-.13,0-.25,0-.37l0-.17a.51.51,0,0,1,0-.13s0,0,0-.07v0h0a3.74,3.74,0,0,1,.33-.92,3.57,3.57,0,0,1,6.63.92h0v0s0,.05,0,.07a.51.51,0,0,1,0,.13l0,.17c0,.12,0,.24,0,.37A3.57,3.57,0,0,1,88.35,39.31Z" style="fill:#25a9e0"/><circle cx="93.5" cy="55" r="3.56" style="fill:#25a9e0"/><circle cx="16.5" cy="55" r="3.56" style="fill:#25a9e0"/><path d="M72.54,85.22a3.56,3.56,0,1,0,4.87,1.29A3.56,3.56,0,0,0,72.54,85.22Z" style="fill:#25a9e0"/><path d="M37.46,24.78a3.56,3.56,0,1,0-4.87-1.3A3.56,3.56,0,0,0,37.46,24.78Z" style="fill:#25a9e0"/><path d="M37.46,85.22a3.56,3.56,0,1,0,1.29,4.87A3.57,3.57,0,0,0,37.46,85.22Z" style="fill:#25a9e0"/><path d="M72.54,24.78a3.56,3.56,0,1,0-1.29-4.87A3.57,3.57,0,0,0,72.54,24.78Z" style="fill:#25a9e0"/><path d="M38.8,42.16l1.52.87c-.56-.24-1.1-.49-1.61-.76a1,1,0,0,1,.08-.11Z" style="fill:#25a9e0"/><path d="M64.34,62c.06-.36.11-.73.15-1.1C64.45,61.3,64.4,61.67,64.34,62Zm-.23-15.49c0-.07,0-.14,0-.21a.09.09,0,0,0,0,0c0,.13,0,.26.07.39A.59.59,0,0,0,64.11,46.54ZM64.34,62c.06-.36.11-.73.15-1.1C64.45,61.3,64.4,61.67,64.34,62Zm-.23-15.49c0-.07,0-.14,0-.21a.09.09,0,0,0,0,0c0,.13,0,.26.07.39A.59.59,0,0,0,64.11,46.54ZM61,55Zm-3,1.74Zm6.09-10.2c0-.07,0-.14,0-.21a.09.09,0,0,0,0,0c0,.13,0,.26.07.39A.59.59,0,0,0,64.11,46.54ZM64.34,62c.06-.36.11-.73.15-1.1C64.45,61.3,64.4,61.67,64.34,62Zm-.23-15.49c0-.07,0-.14,0-.21a.09.09,0,0,0,0,0c0,.13,0,.26.07.39A.59.59,0,0,0,64.11,46.54ZM64.34,62c.06-.36.11-.73.15-1.1C64.45,61.3,64.4,61.67,64.34,62ZM58,56.74Zm0,0Zm6.09-10.2c0-.07,0-.14,0-.21a.09.09,0,0,0,0,0c0,.13,0,.26.07.39A.59.59,0,0,0,64.11,46.54ZM58,56.74ZM64.34,62c.06-.36.11-.73.15-1.1C64.45,61.3,64.4,61.67,64.34,62Zm-.23-15.49c0-.07,0-.14,0-.21a.09.09,0,0,0,0,0c0,.13,0,.26.07.39A.59.59,0,0,0,64.11,46.54ZM64.34,62c.06-.36.11-.73.15-1.1C64.45,61.3,64.4,61.67,64.34,62Zm-.23-15.49c0-.07,0-.14,0-.21a.09.09,0,0,0,0,0c0,.13,0,.26.07.39A.59.59,0,0,0,64.11,46.54ZM64.34,62c.06-.36.11-.73.15-1.1C64.45,61.3,64.4,61.67,64.34,62Zm-.23-15.49c0-.07,0-.14,0-.21a.09.09,0,0,0,0,0c0,.13,0,.26.07.39A.59.59,0,0,0,64.11,46.54ZM64.34,62c.06-.36.11-.73.15-1.1C64.45,61.3,64.4,61.67,64.34,62Zm-.23-15.49c0-.07,0-.14,0-.21a.09.09,0,0,0,0,0c0,.13,0,.26.07.39A.59.59,0,0,0,64.11,46.54ZM49,55Zm15.38,7c.06-.36.11-.73.15-1.1C64.45,61.3,64.4,61.67,64.34,62Zm-.23-15.49c0-.07,0-.14,0-.21a.09.09,0,0,0,0,0c0,.13,0,.26.07.39A.59.59,0,0,0,64.11,46.54ZM38.8,42.16l.09-.12-.1.12a1,1,0,0,0-.08.11c.51.27,1,.52,1.61.76ZM34.38,53.41v.1a2.11,2.11,0,0,1,0-.25v0Zm0,2.47c0,.29,0,.58.06.86C34.37,56.46,34.35,56.17,34.34,55.88Zm0-1.73v0Zm0,.26v.09a2.72,2.72,0,0,1,0-.28A1.21,1.21,0,0,0,34.33,54.41Zm5.56,14.7Zm7.25-33.24-.21.09.33-.14Zm2.12,39h0l.13,0Zm.44.12h0l-.19,0,.13,0,.08,0h0Zm26-20.58a1.21,1.21,0,0,0,0-.19,2.72,2.72,0,0,1,0,.28v-.09Zm0-.26v0Zm0-.47a2.45,2.45,0,0,1,0-.27l0-.19q0-.3-.06-.6a.77.77,0,0,0,0-.15.49.49,0,0,0,0-.12h0c0,.3-.08.6-.14.9A16.83,16.83,0,0,1,75,55h.61q0-.44.06-.87h0C75.65,54,75.64,53.82,75.64,53.68Zm0,3.06c0-.28.05-.57.06-.86C75.65,56.17,75.63,56.46,75.6,56.74ZM71.29,42.27a1,1,0,0,0-.08-.11l-.1-.12.09.12L69.68,43C70.24,42.79,70.78,42.54,71.29,42.27ZM60.73,35.13l-.26-.08.55.16Zm3.38,11.41c0-.07,0-.14,0-.21a.09.09,0,0,0,0,0c0,.13,0,.26.07.39A.59.59,0,0,0,64.11,46.54ZM59.74,75.13l-.11,0,.1,0h0Zm.73-.18.26-.08.29-.08Zm2.26-.77.07,0,.21-.08Zm6.66-4.33,0,0,.09-.08,0,0Zm.72-.74h0ZM64.34,62c.06-.36.11-.73.15-1.1C64.45,61.3,64.4,61.67,64.34,62ZM61,55Zm-3,1.74Zm-6.05,0h0ZM49,55ZM34.49,52.35a.49.49,0,0,0,0,.12v-.11Zm29.62-5.81c0-.07,0-.14,0-.21a.09.09,0,0,0,0,0c0,.13,0,.26.07.39A.59.59,0,0,0,64.11,46.54ZM64.34,62c.06-.36.11-.73.15-1.1C64.45,61.3,64.4,61.67,64.34,62Zm-.23-15.49c0-.07,0-.14,0-.21a.09.09,0,0,0,0,0c0,.13,0,.26.07.39A.59.59,0,0,0,64.11,46.54ZM64.34,62c.06-.36.11-.73.15-1.1C64.45,61.3,64.4,61.67,64.34,62Zm-.23-15.49c0-.07,0-.14,0-.21a.09.09,0,0,0,0,0c0,.13,0,.26.07.39A.59.59,0,0,0,64.11,46.54ZM64.34,62c.06-.36.11-.73.15-1.1C64.45,61.3,64.4,61.67,64.34,62Zm-.23-15.49c0-.07,0-.14,0-.21a.09.09,0,0,0,0,0c0,.13,0,.26.07.39A.59.59,0,0,0,64.11,46.54ZM64.34,62c.06-.36.11-.73.15-1.1C64.45,61.3,64.4,61.67,64.34,62ZM58,56.74Zm6.09-10.2c0-.07,0-.14,0-.21a.09.09,0,0,0,0,0c0,.13,0,.26.07.39A.59.59,0,0,0,64.11,46.54ZM58,56.74ZM64.34,62c.06-.36.11-.73.15-1.1C64.45,61.3,64.4,61.67,64.34,62ZM58,56.74Zm6.09-10.2c0-.07,0-.14,0-.21a.09.09,0,0,0,0,0c0,.13,0,.26.07.39A.59.59,0,0,0,64.11,46.54ZM64.34,62c.06-.36.11-.73.15-1.1C64.45,61.3,64.4,61.67,64.34,62Zm-.23-15.49c0-.07,0-.14,0-.21a.09.09,0,0,0,0,0c0,.13,0,.26.07.39A.59.59,0,0,0,64.11,46.54ZM64.34,62c.06-.36.11-.73.15-1.1C64.45,61.3,64.4,61.67,64.34,62Zm-.23-15.49c0-.07,0-.14,0-.21a.09.09,0,0,0,0,0c0,.13,0,.26.07.39A.59.59,0,0,0,64.11,46.54ZM64.34,62c.06-.36.11-.73.15-1.1C64.45,61.3,64.4,61.67,64.34,62Zm0,0c.06-.36.11-.73.15-1.1C64.45,61.3,64.4,61.67,64.34,62Z" style="fill:#25a9e0"/><path d="M58,56.74ZM49,55ZM38.8,42.16l.09-.12-.1.12a1,1,0,0,0-.08.11c.51.27,1,.52,1.61.76ZM34.38,53.41v.1a2.11,2.11,0,0,1,0-.25C34.39,53.31,34.39,53.36,34.38,53.41Zm0,2.47c0,.29,0,.58.06.86C34.37,56.46,34.35,56.17,34.34,55.88Zm0-1.73v0Zm0,.26v.09a2.72,2.72,0,0,1,0-.28A1.21,1.21,0,0,0,34.33,54.41ZM47.14,35.87l-.21.09.33-.14ZM49.68,75h0Zm26-20.57a1.21,1.21,0,0,0,0-.19,2.72,2.72,0,0,1,0,.28v-.09Zm0-.26v0Zm0-.47a2.45,2.45,0,0,1,0-.27s0-.1,0-.15v0q0-.3-.06-.6a.77.77,0,0,0,0-.15v-.11c0,.3-.08.6-.14.9A16.83,16.83,0,0,1,75,55h.61q0-.44.06-.87h0C75.65,54,75.64,53.82,75.64,53.68Zm0,3.06c0-.28.05-.57.06-.86C75.65,56.17,75.63,56.46,75.6,56.74ZM71.29,42.27a1,1,0,0,0-.08-.11l-.1-.12.09.12L69.68,43C70.24,42.79,70.78,42.54,71.29,42.27ZM60.73,35.13l-.26-.08.55.16Zm3.38,11.41c0-.07,0-.14,0-.21a.09.09,0,0,0,0,0c0,.13,0,.26.07.39A.59.59,0,0,0,64.11,46.54ZM59.74,75.13l-.11,0,.1,0h0Zm.73-.18.26-.08.29-.08Zm2.26-.77.07,0,.21-.08ZM64.34,62c.06-.36.11-.73.15-1.1C64.45,61.3,64.4,61.67,64.34,62ZM61,55Zm-3,1.74Zm-6.05,0h0ZM49,55ZM58,56.74Zm0,0Z" style="fill:#25a9e0"/><path d="M34.49,52.36v.11a.49.49,0,0,1,0-.12Z" style="fill:#25a9e0"/><path d="M34.34,54.22a2.72,2.72,0,0,0,0,.28v-.09A1.21,1.21,0,0,1,34.34,54.22Z" style="fill:#25a9e0"/><path d="M34.34,54.13v0Z" style="fill:#25a9e0"/><path d="M34.4,56.74c0-.28,0-.57-.06-.86C34.35,56.17,34.37,56.46,34.4,56.74Z" style="fill:#25a9e0"/><path d="M34.4,53.22v0a2.11,2.11,0,0,0,0,.25v-.1Z" style="fill:#25a9e0"/><path d="M49.4,74.91l-.13,0h0Z" style="fill:#25a9e0"/><path d="M49.67,75h-.06l-.13,0Z" style="fill:#25a9e0"/><path d="M59.8,75.12h-.07l-.1,0,.11,0Z" style="fill:#25a9e0"/><path d="M61,74.79l-.29.08-.26.08Z" style="fill:#25a9e0"/><path d="M63,74.07l-.21.08-.07,0Z" style="fill:#25a9e0"/><path d="M69.48,69.76l0,0-.09.08,0,0Z" style="fill:#25a9e0"/><path d="M75.66,55.88c0,.29,0,.58-.06.86C75.63,56.46,75.65,56.17,75.66,55.88Z" style="fill:#25a9e0"/><path d="M75.66,54.12h0q0,.43-.06.87H75a16.83,16.83,0,0,0,.38-1.74c.06-.3.1-.6.14-.9h0a.49.49,0,0,1,0,.12.77.77,0,0,1,0,.15q0,.3.06.6l0,.19a2.45,2.45,0,0,0,0,.27C75.64,53.82,75.65,54,75.66,54.12Z" style="fill:#25a9e0"/><path d="M75.66,54.22v0Z" style="fill:#25a9e0"/><path d="M75.67,54.47v0a2.72,2.72,0,0,0,0-.28,1.21,1.21,0,0,1,0,.19Z" style="fill:#25a9e0"/><path d="M69.48,69.76l0,0-.09.08,0,0Z" style="fill:#25a9e0"/><polygon points="39.89 69.12 39.89 69.11 39.89 69.11 39.89 69.12" style="fill:#25a9e0"/><path d="M69.48,69.76l0,0,0,0Z" style="fill:#25a9e0"/><polygon points="70.11 69.11 70.11 69.12 70.11 69.11 70.11 69.11" style="fill:#25a9e0"/><path d="M40.32,43c-.56-.24-1.1-.49-1.61-.76a1,1,0,0,1,.08-.11h0Z" style="fill:#25a9e0"/><path d="M71.29,42.27c-.51.27-1.05.52-1.61.76l1.52-.87h0A1,1,0,0,1,71.29,42.27Z" style="fill:#25a9e0"/><path d="M40.32,43c-.56-.24-1.1-.49-1.61-.76a1,1,0,0,1,.08-.11h0Z" style="fill:#25a9e0"/><path d="M71.29,42.27c-.51.27-1.05.52-1.61.76l1.52-.87h0A1,1,0,0,1,71.29,42.27Z" style="fill:#25a9e0"/><path d="M34.34,54.13v0Z" style="fill:#25a9e0"/><polygon points="48.96 55 48.96 55 48.96 55 48.96 55" style="fill:#25a9e0"/><polygon points="61.04 55 61.04 55 61.04 55 61.04 55" style="fill:#25a9e0"/><path d="M75.66,54.12h0q0,.43-.06.87H75a16.83,16.83,0,0,0,.38-1.74h.23c0,.14,0,.28,0,.42S75.65,54,75.66,54.12Z" style="fill:#25a9e0"/><path d="M75.66,54.22v0Z" style="fill:#25a9e0"/><polygon points="48.96 55 48.96 55 48.96 55 48.96 55" style="fill:#25a9e0"/><polygon points="61.04 55 61.04 55 61.04 55 61.04 55" style="fill:#25a9e0"/><path d="M49.4,74.91l-.13,0h0Z" style="fill:#25a9e0"/><path d="M49.71,75h0l-.08,0-.13,0,.19,0h0Z" style="fill:#25a9e0"/><path d="M49.67,75h-.06l-.13,0Z" style="fill:#25a9e0"/><path d="M49.7,75h0Z" style="fill:#25a9e0"/><path d="M61,35.21l-.55-.16.26.08Z" style="fill:#25a9e0"/><path d="M64.13,46.67c0-.13,0-.26-.07-.39a.09.09,0,0,1,0,0c0,.07,0,.14,0,.21A.59.59,0,0,1,64.13,46.67Z" style="fill:#25a9e0"/><path d="M64.49,60.93c0,.37-.09.74-.15,1.1C64.4,61.67,64.45,61.3,64.49,60.93Z" style="fill:#25a9e0"/><path d="M61,74.79l-.29.08-.26.08Z" style="fill:#25a9e0"/><path d="M59.74,75.13h0l-.1,0Z" style="fill:#25a9e0"/><path d="M78.53,44.9a25.19,25.19,0,0,0-3-5.23A25.57,25.57,0,0,0,58,29.58a25.42,25.42,0,0,0-6,0A25.57,25.57,0,0,0,34.5,39.67a25.19,25.19,0,0,0-3,5.23,25.68,25.68,0,0,0,0,20.2,25.19,25.19,0,0,0,3,5.23A25.59,25.59,0,0,0,52,80.42a25.42,25.42,0,0,0,6,0A25.59,25.59,0,0,0,75.5,70.33a25.19,25.19,0,0,0,3-5.23,25.68,25.68,0,0,0,0-20.2ZM50.66,34.78q.65-.14,1.32-.24c.42-.06.85-.11,1.28-.15v7.83L52,42.15a37.87,37.87,0,0,1-4.82-.65,27.47,27.47,0,0,1,1.22-3.06A16.79,16.79,0,0,1,50.66,34.78Zm-3.52,1.09.12,0-.33.14Zm-.91,9a41.52,41.52,0,0,0,5.75.78l1.28.07v7.55H45.19c0-.14,0-.29,0-.43a46.84,46.84,0,0,1,.74-6.55C46,45.8,46.13,45.33,46.23,44.86ZM49,55ZM45.35,36.71l-.12.24a31.69,31.69,0,0,0-1.45,3.68,21.82,21.82,0,0,1-2.59-1A20.52,20.52,0,0,1,45.35,36.71Zm-11,16.7,0-.19q0-.3.06-.6a.77.77,0,0,1,0-.15.49.49,0,0,1,0-.12h0a20.63,20.63,0,0,1,1.28-5,20.29,20.29,0,0,1,2.94-5.12,1,1,0,0,1,.08-.11l.1-.12-.09.12,1.52.87h0c.81.34,1.65.66,2.54.94,0,.15-.07.31-.1.46a46.57,46.57,0,0,0-.93,6.45c-.06.78-.1,1.57-.13,2.37H34.4a2.11,2.11,0,0,0,0,.25Zm-.05,1.09v-.09a1.21,1.21,0,0,1,0-.19v0A2.72,2.72,0,0,0,34.33,54.5Zm5.56,14.61ZM40.31,67c-.56.24-1.09.49-1.6.76a20.51,20.51,0,0,1-4.31-11c0-.28,0-.57-.06-.86,0,.29,0,.58.06.86h7.3c0,.8.07,1.59.13,2.37a46.57,46.57,0,0,0,.93,6.45c0,.15.07.31.1.46l-.4.13c-.74.25-1.46.52-2.14.82ZM45,73.1l-.31-.17-.31-.19-.31-.19-.31-.19-.3-.2h0l-.28-.2-.36-.26-.33-.24-.3-.23-.64-.53-.16-.15-.18-.15.24-.12.2-.08c.54-.24,1.12-.47,1.71-.67l.39-.13.06,0a30,30,0,0,0,1.44,3.68l.12.24Zm.94-9.38a46.84,46.84,0,0,1-.74-6.55c0-.15,0-.29,0-.43h8.07v7.55L52,64.36a41.52,41.52,0,0,0-5.75.78C46.13,64.67,46,64.2,45.94,63.72Zm3.33,11.15h0l.14,0Zm.42.12-.08,0-.13,0,.19,0h0Zm4,.65-.41,0h0l-.42,0-.42,0-.17,0-.25,0-.76-.13-.23,0-.33-.07a16.79,16.79,0,0,1-2.28-3.66A28.34,28.34,0,0,1,47.3,68.9c0-.13-.09-.27-.14-.4.43-.09.87-.17,1.31-.24l.44-.07.6-.09.78-.09.34,0,.3,0,.34,0,.71-.06.29,0,1,0V75.6c.28,0,.57.05.86.06Zm15.14-36a21.82,21.82,0,0,1-2.59,1A31.69,31.69,0,0,0,64.77,37l-.12-.24A20.52,20.52,0,0,1,68.81,39.61Zm-8.08-4.48.29.08-.55-.16Zm-4-.74c.43,0,.86.09,1.28.15s.89.15,1.32.24a16.79,16.79,0,0,1,2.28,3.66c.17.35.33.72.49,1.1l.15.37.15.4.15.39c.1.26.19.53.28.8a37.87,37.87,0,0,1-4.82.65l-1.28.07Zm0,11.32L58,45.64a41.52,41.52,0,0,0,5.75-.78h0c0,.11,0,.23.08.34s.1.47.14.71.05.24.07.36a.09.09,0,0,1,0,0c0,.07,0,.14,0,.21a.59.59,0,0,1,0,.13c0,.16.06.32.08.48s.1.59.14.89a2,2,0,0,1,0,.26c0,.26.07.52.1.77s0,.27.05.4l.09.91,0,.31c0,.05,0,.1,0,.15a1.94,1.94,0,0,1,0,.24c0,.3,0,.6.06.9a.49.49,0,0,1,0,.12c0,.1,0,.2,0,.3h0c0,.14,0,.28,0,.42s0,.29,0,.43H56.74ZM61,55ZM59.73,75.13l-.1,0,.11,0h0Zm1-.26-.26.08.55-.16ZM62.67,69l-.12.35a2.6,2.6,0,0,0-.1.25c0,.12-.09.23-.13.34s-.11.29-.17.43l-.15.35,0,.08-.15.36c-.06.14-.13.28-.19.41a16.79,16.79,0,0,1-2.28,3.66l-.33.07-.23,0-.76.13-.25,0-.17,0-.42,0-.42,0h0l-.41,0-.45,0c.29,0,.58,0,.86-.06V67.78l1,0,.29,0,.71.06.34,0,.3,0,.34,0,.78.09.6.09.44.07c.44.07.88.15,1.31.24-.05.13-.09.27-.14.4Zm.13,5.16-.07,0,.28-.11Zm1.76-13.81c0,.2,0,.39-.07.59,0,.37-.09.74-.15,1.1l-.06.44-.06.33c0,.16,0,.33-.08.5s0,.28-.08.42,0,.24-.07.36,0,.24-.07.36-.05.23-.07.35-.05.21-.07.31a.08.08,0,0,0,0,0A41.52,41.52,0,0,0,58,64.36l-1.28-.07V56.74h8.07c0,.14,0,.29,0,.43s0,.27,0,.41l-.06.9-.06.8c0,.16,0,.32,0,.48Zm4.07,10.2-.16.15-.64.53-.3.23-.33.24-.36.26-.28.2h0l-.3.2-.31.19-.31.19-.31.19-.66.36.12-.24a30,30,0,0,0,1.44-3.68l.06,0,.39.13c.59.2,1.17.43,1.71.67l.2.08.24.12Zm.81-.74-.09.08,0,0,.09-.09Zm.67-.68h0ZM75.6,56.74a20.51,20.51,0,0,1-4.31,11c-.51-.27-1.05-.52-1.61-.76s-1.4-.57-2.14-.82l-.4-.13c0-.15.07-.31.1-.46a46.57,46.57,0,0,0,.93-6.45c.06-.78.1-1.57.13-2.37h7.3c0-.28.05-.57.06-.86C75.65,56.17,75.63,56.46,75.6,56.74Zm.07-2.24a2.72,2.72,0,0,0,0-.28v-.09q0,.43-.06.87H75a16.83,16.83,0,0,0,.38-1.74H68.3c0-.8-.07-1.59-.13-2.37a46.57,46.57,0,0,0-.93-6.45c0-.15-.07-.31-.1-.46.89-.29,1.74-.6,2.54-.95l1.52-.87L71.11,42l.1.12a1,1,0,0,1,.08.11,20.29,20.29,0,0,1,2.94,5.12h0a20.63,20.63,0,0,1,1.28,5h0a.49.49,0,0,1,0,.12.77.77,0,0,1,0,.15q0,.3.06.6l0,.19a2.45,2.45,0,0,0,0,.27c0,.14,0,.29,0,.44h0v.09a1.21,1.21,0,0,1,0,.19v.09Z" style="fill:#25a9e0"/></g></g></svg>