<svg xmlns="http://www.w3.org/2000/svg" viewBox="0 0 185.01 91.32"><title>LAN</title><g id="1ecbde09-971e-41f8-bfb7-f5041897b8f9" data-name="Layer 2"><g id="845c8668-4535-4679-bd10-b729bda8eb65" data-name="Layer 1"><path d="M113.9,6.29V27h64V6.29ZM120.55,24a3,3,0,0,1-3-3,1.34,1.34,0,0,1,0-.2,1.5,1.5,0,0,1,0-.2c0-.13,0-.25.07-.38l.06-.18a3,3,0,0,1,5.69.37,1.25,1.25,0,0,1,0,.19,1.5,1.5,0,0,1,0,.2,1.34,1.34,0,0,1,0,.2A3,3,0,0,1,120.55,24Zm0-9a3,3,0,0,1-3-2.95,1.48,1.48,0,0,1,0-.21,1.23,1.23,0,0,1,0-.19c0-.13,0-.26.07-.38l.06-.19a3,3,0,0,1,5.69.37,1.2,1.2,0,0,1,0,.2,1.23,1.23,0,0,1,0,.19,1.48,1.48,0,0,1,0,.21A3,3,0,0,1,120.55,15Zm10.14,9a3,3,0,0,1-3-3v-.2c0-.06,0-.13,0-.2a1.29,1.29,0,0,1,0-.19,3,3,0,0,1,5.69-.37,1.21,1.21,0,0,1,0,.18,2.57,2.57,0,0,1,.08.38,1.5,1.5,0,0,1,0,.2c0,.07,0,.13,0,.2A3,3,0,0,1,130.69,24Zm0-9a3,3,0,0,1-3-2.95v-.21c0-.06,0-.13,0-.19a1.18,1.18,0,0,1,0-.2,3,3,0,0,1,5.69-.37,1.33,1.33,0,0,1,0,.19,2.33,2.33,0,0,1,.08.38,1.23,1.23,0,0,1,0,.19c0,.07,0,.14,0,.21A3,3,0,0,1,130.69,15Zm10.14,9a3,3,0,0,1-3-3v-.2c0-.06,0-.13,0-.2s0-.25.08-.38a1.21,1.21,0,0,0,.05-.18,3,3,0,0,1,5.59,0l.06.18c0,.13.06.25.08.38s0,.14,0,.2v.2A3,3,0,0,1,140.83,24Zm0-9a3,3,0,0,1-3-2.95v-.21c0-.06,0-.13,0-.19s0-.26.08-.38a1.33,1.33,0,0,0,.05-.19,3,3,0,0,1,5.59,0l.06.19c0,.12.06.25.08.38s0,.13,0,.19v.21A3,3,0,0,1,140.83,15ZM151,24a3,3,0,0,1-3-3,1.34,1.34,0,0,1,0-.2,1.5,1.5,0,0,1,0-.2c0-.13,0-.25.07-.38l.06-.18a3,3,0,0,1,5.69.37c0,.06,0,.13,0,.19s0,.14,0,.2v.2A3,3,0,0,1,151,24Zm0-9a3,3,0,0,1-3-2.95,1.48,1.48,0,0,1,0-.21,1.23,1.23,0,0,1,0-.19c0-.13,0-.26.07-.38l.06-.19a3,3,0,0,1,5.69.37c0,.06,0,.13,0,.2s0,.13,0,.19v.21A3,3,0,0,1,151,15Zm10.14,9a3,3,0,0,1-3-3v-.2l0-.2a1.25,1.25,0,0,1,0-.19,3,3,0,0,1,5.69-.37l.06.18c0,.13,0,.25.07.38a1.5,1.5,0,0,1,0,.2,1.34,1.34,0,0,1,0,.2A3,3,0,0,1,161.11,24Zm0-9a3,3,0,0,1-3-2.95v-.21l0-.19a1.2,1.2,0,0,1,0-.2,3,3,0,0,1,5.69-.37l.06.19c0,.12,0,.25.07.38a1.23,1.23,0,0,1,0,.19,1.48,1.48,0,0,1,0,.21A3,3,0,0,1,161.11,15Zm10.13,9a3,3,0,0,1-3-3v-.2a1.62,1.62,0,0,1,0-.2,2.53,2.53,0,0,1,.07-.38l.06-.18a3,3,0,0,1,5.59,0c0,.06,0,.12.05.18s.06.25.08.38a1.5,1.5,0,0,1,0,.2c0,.07,0,.13,0,.2A3,3,0,0,1,171.24,24Zm0-9a3,3,0,0,1-3-2.95v-.21a1.25,1.25,0,0,1,0-.19,2.32,2.32,0,0,1,.07-.38l.06-.19a3,3,0,0,1,5.59,0c0,.06,0,.13.05.19s.06.25.08.38a1.23,1.23,0,0,1,0,.19c0,.07,0,.14,0,.21A3,3,0,0,1,171.24,15Z" style="fill:#25a9e0"/><path d="M180.41,0H4.6A4.6,4.6,0,0,0,0,4.6V36.13a4.6,4.6,0,0,0,4.6,4.6H180.41a4.6,4.6,0,0,0,4.6-4.6V4.6A4.6,4.6,0,0,0,180.41,0Zm-89,12.52V11.7H89.77V5.94h7.94V11.7H96.12v.82h-1v1H92.35v-1Zm-13.86,0V11.7H75.91V5.94h7.94V11.7H82.26v.82h-1v1H78.49v-1Zm-13.87,0V11.7H62V5.94H70V11.7H68.39v.82h-1v1H64.63v-1Zm-13.87,0V11.7H48.17V5.94h7.95V11.7H54.53v.82h-1v1H50.76v-1Zm-13.87,0V11.7H34.31V5.94h7.94V11.7H40.66v.82h-1v1H36.89v-1ZM14.51,25.3H12.93v.81h-1v1H9.16v-1h-1V25.3H6.58V19.54h7.93Zm0-13.6H12.93v.82h-1v1H9.16v-1h-1V11.7H6.58V5.94h7.93ZM28.38,25.3H26.8v.81h-1v1H23v-1H22V25.3H20.44V19.54h7.94Zm0-13.6H26.8v.82h-1v1H23v-1H22V11.7H20.44V5.94h7.94ZM42.25,25.3H40.66v.81h-1v1H36.89v-1h-1V25.3H34.31V19.54h7.94Zm13.87,0H54.53v.81h-1v1H50.76v-1h-1V25.3H48.17V19.54h7.95ZM70,25.3H68.39v.81h-1v1H64.63v-1h-1V25.3H62V19.54H70Zm13.87,0H82.26v.81h-1v1H78.49v-1h-1V25.3H75.91V19.54h7.94Zm13.86,0H96.12v.81h-1v1H92.35v-1h-1V25.3H89.77V19.54h7.94ZM181.44,27a3.55,3.55,0,0,1-3.55,3.55h-64A3.55,3.55,0,0,1,110.36,27V6.29a3.55,3.55,0,0,1,3.54-3.54h64a3.55,3.55,0,0,1,3.55,3.54Z" style="fill:#25a9e0"/><polygon points="167.18 71.87 167.18 86.7 21.38 86.7 21.38 71.87 84.66 71.87 84.66 40.73 99.5 40.73 99.5 71.87 167.18 71.87" style="fill:#fff2df"/><path d="M114.76,72.69V85.62a5.7,5.7,0,0,1-5.7,5.7H75.11a5.71,5.71,0,0,1-5.71-5.7V72.69A5.71,5.71,0,0,1,75.11,67h4.8v-4.8a5.71,5.71,0,0,1,5.71-5.71H98.55a5.71,5.71,0,0,1,5.7,5.71V67h4.81A5.71,5.71,0,0,1,114.76,72.69Z" style="fill:#25a9e0"/><circle cx="120.56" cy="12.09" r="2.22" style="fill:#25a9e0"/><circle cx="130.69" cy="12.09" r="2.22" style="fill:#25a9e0"/><circle cx="140.83" cy="12.09" r="2.22" style="fill:#25a9e0"/><circle cx="150.96" cy="12.09" r="2.22" style="fill:#25a9e0"/><circle cx="161.1" cy="12.09" r="2.22" style="fill:#25a9e0"/><circle cx="171.24" cy="12.09" r="2.22" style="fill:#25a9e0"/><circle cx="120.56" cy="21.05" r="2.22" style="fill:#25a9e0"/><circle cx="130.69" cy="21.05" r="2.22" style="fill:#25a9e0"/><circle cx="140.83" cy="21.05" r="2.22" style="fill:#25a9e0"/><circle cx="150.96" cy="21.05" r="2.22" style="fill:#25a9e0"/><circle cx="161.1" cy="21.05" r="2.22" style="fill:#25a9e0"/><circle cx="171.24" cy="21.05" r="2.22" style="fill:#25a9e0"/><path d="M176.13,7.32a.65.65,0,0,1,.65.65V25a.66.66,0,0,1-.65.66H115.41a.66.66,0,0,1-.65-.66V8a.65.65,0,0,1,.65-.65h60.72m0-2H115.41A2.63,2.63,0,0,0,112.78,8V25a2.63,2.63,0,0,0,2.63,2.63h60.72A2.63,2.63,0,0,0,178.76,25V8a2.63,2.63,0,0,0-2.63-2.63Z" style="fill:#25a9e0"/></g></g></svg>