<svg xmlns="http://www.w3.org/2000/svg" viewBox="0 0 110 110"><title>MQTT</title><g id="6ac23d2f-fdbd-406b-977e-b1bfb7d5818e" data-name="Layer 2"><g id="0fe1a188-ca89-4af9-9e52-ebc2479289e1" data-name="Layer 1"><circle cx="55" cy="55" r="52.5" style="fill:#44474e"/><path d="M55,5A50,50,0,1,1,5,55,50,50,0,0,1,55,5m0-5a55,55,0,1,0,55,55A55.06,55.06,0,0,0,55,0Z" style="fill:#28292d"/><path d="M101.63,40.1v4.61H94.48c-1.11,0-1.11,0-1.11,1.09V66.46c0,.93,0,1-1,1H89.19c-1.22,0-1.22,0-1.22-1.23V46.26c0-.26,0-.53,0-.79,0-.66-.09-.73-.73-.76H72.7c-1.09,0-1.1,0-1.1,1.11V60.59c0,2,0,4,0,6,0,.81-.07.87-.85.88H67.57c-1.21,0-1.21,0-1.21-1.24v-20c0-.23,0-.47,0-.71,0-.65-.1-.75-.74-.75H59.34a3.32,3.32,0,0,0-.58.15,11.88,11.88,0,0,1,1.77,3.79,24.53,24.53,0,0,1,.68,4,25.73,25.73,0,0,1-.15,4.11,11.67,11.67,0,0,1-1,3.9C59.44,61.87,58.68,63,58,64.26a15.9,15.9,0,0,0,4.27,2.34c-.62,1.19-1.2,2.29-1.78,3.38a.4.4,0,0,1-.54.19,6.79,6.79,0,0,1-1.19-.45c-1.16-.68-2.31-1.39-3.45-2.12s-.9-.76-2.32-.28a13.45,13.45,0,0,1-3.65.73A18.53,18.53,0,0,1,44,67.58a11.72,11.72,0,0,1-5.65-3.23,11.42,11.42,0,0,1-2.95-5.46C35.14,58,35,57,34.8,56.11h-.06V66.56c0,.8-.07.86-.87.87H31.09c-1.27,0-1.27,0-1.27-1.25V46.88c0-.28,0-.55,0-.82a1.14,1.14,0,0,0-.35.64q-1.17,4.57-2.33,9.16-1.35,5.36-2.69,10.71c-.2.83-.24.85-1.06.86h-3.5c-.87,0-.89,0-1.11-.9q-1.29-5-2.56-10.08Q15,51.64,13.78,46.82c-.06-.26-.14-.5-.2-.75h-.14V59.16c0,2.46,0,4.93,0,7.39,0,.81-.06.87-.85.88H9.49c-1.12,0-1.12,0-1.12-1.16V46.8c0-2,0-3.91,0-5.87,0-.75.08-.82.83-.82h6.59c.72,0,.75,0,.93.71.85,3.14,1.68,6.29,2.52,9.43.71,2.67,1.41,5.33,2.12,8,.05.16.14.3.27.59.12-.33.21-.52.26-.71.27-1,.52-1.95.78-2.92l2.88-11.07c.29-1.1.57-2.2.88-3.3.18-.64.28-.72.95-.72H34c.66,0,.73.09.76.73,0,.21,0,.42,0,.63V51.89c.29-1.27.47-2.4.8-3.48a11.48,11.48,0,0,1,5.33-6.84A13.85,13.85,0,0,1,47.4,39.8a18,18,0,0,1,2.84.16,11.84,11.84,0,0,1,7.08,3.26c.2.2.41.38.62.58.08-.13.13-.17.13-.21,0-.67,0-1.33,0-2,0-1.62-.13-1.49,1.51-1.49ZM48.25,58.35a15.9,15.9,0,0,1,1.52.64c1.07.59,2.11,1.21,3.16,1.82.52.31.63.3,1-.2a10.46,10.46,0,0,0,.77-1.29,14.38,14.38,0,0,0,1-5.57c0-.45-.13-.9-.13-1.34A9.23,9.23,0,0,0,54.88,49a6.65,6.65,0,0,0-5-4.37,10,10,0,0,0-3.15-.13,7,7,0,0,0-5.91,5.16,15.83,15.83,0,0,0-.56,5c0,.39.13.78.14,1.18A9.44,9.44,0,0,0,41.14,59a6.73,6.73,0,0,0,4.49,4.27,9.81,9.81,0,0,0,1.8.3,4.76,4.76,0,0,0,2.68-.47,21.81,21.81,0,0,0-3.24-1.79Z" style="fill:#18aceb"/></g></g></svg>