<svg xmlns="http://www.w3.org/2000/svg" viewBox="0 0 110 110"><title>MuxMux</title><g id="4ad61a88-cb11-4266-a8b7-bf076c79644c" data-name="Layer 2"><g id="5c75f551-a553-4369-8f6f-14b42e052b46" data-name="Layer 1"><circle cx="55" cy="55" r="52.5" style="fill:#44474e"/><path d="M55,5A50,50,0,1,1,5,55,50,50,0,0,1,55,5m0-5a55,55,0,1,0,55,55A55.06,55.06,0,0,0,55,0Z" style="fill:#28292d"/><polygon points="13.67 53.48 15.07 33.79 19.59 33.79 23.72 45.47 28.16 33.79 33.14 33.79 34.08 53.48 29 53.48 29 46.56 26.29 53.48 21.85 53.48 18.81 46.56 18.81 53.48 13.67 53.48" style="fill:#18aceb"/><path d="M50.76,33.79V46a8.23,8.23,0,0,1-1.51,4.86,7.18,7.18,0,0,1-3.64,2.65,9.09,9.09,0,0,1-5.29-.18,6.79,6.79,0,0,1-3.86-3.55,8,8,0,0,1-1-3.91V33.79h4.79V47c0,3,5.7,3,5.7,0V33.79Z" style="fill:#18aceb"/><polygon points="52.94 33.79 58.35 33.79 61.55 38.66 64.88 33.79 70.23 33.79 64.23 43.64 70.62 53.48 64.94 53.48 61.78 48.19 58.03 53.82 52.94 53.82 58.75 43.64 52.94 33.79" style="fill:#18aceb"/><polygon points="39.38 75.88 40.78 56.19 45.3 56.19 49.43 67.87 53.87 56.19 58.85 56.19 59.78 75.88 54.71 75.88 54.71 68.96 52 75.88 47.56 75.88 44.52 68.96 44.52 75.88 39.38 75.88" style="fill:#18aceb"/><path d="M76.47,33.79V68.38A8.28,8.28,0,0,1,75,73.24a7.22,7.22,0,0,1-3.64,2.64A9.09,9.09,0,0,1,66,75.71a6.81,6.81,0,0,1-3.86-3.56,8,8,0,0,1-1-3.9V56.18H66V69.39c0,3,5.7,3,5.7,0V33.79Z" style="fill:#18aceb"/><polygon points="78.65 56.19 84.06 56.19 87.26 61.05 90.59 56.18 95.94 56.18 89.94 66.03 96.33 75.88 90.65 75.88 87.49 70.58 83.74 76.21 78.65 76.21 84.45 66.03 78.65 56.19" style="fill:#18aceb"/></g></g></svg>