<svg xmlns="http://www.w3.org/2000/svg" viewBox="0 0 110 110"><title>Nest</title><g id="c599269e-ea1a-439f-b399-7bff282d0386" data-name="Layer 2"><g id="a767f8ce-c75a-4b63-9bc7-8b274627ca66" data-name="Layer 1"><circle cx="55" cy="55" r="52.5" style="fill:#44474e"/><path d="M55,5A50,50,0,1,1,5,55,50,50,0,0,1,55,5m0-5a55,55,0,1,0,55,55A55.06,55.06,0,0,0,55,0Z" style="fill:#28292d"/><g id="fdb27005-a8ee-4f0a-89cb-0d0f97db5caa" data-name="nest thermostats"><g id="8a53dfaa-5ce2-4f8b-a118-8f4a8f5512b0" data-name="downstairs nest blue"><g id="37f23c09-5df0-4688-ae69-03e22fe5f96f" data-name="downstairs nest artwork"><circle cx="55" cy="55" r="45.52" style="fill:#808285"/><circle cx="55" cy="55" r="42.22" style="fill:#28292d"/><circle cx="55" cy="55" r="26.45" style="fill:#25a9e0"/><path d="M73.51,71.27l-3-2.68.22-.25,3,2.63Zm-37,0-.26-.3,3.05-2.62.22.25ZM74,70.66l-3.1-2.58.21-.25,3.14,2.52C74.2,70.46,74.11,70.56,74,70.66ZM36,70.66l-.26-.31,3.15-2.52.2.25ZM74.53,70l-3.18-2.47.2-.27,3.22,2.42ZM35.47,70l-.24-.32,3.21-2.42.21.26ZM75,69.4,71.75,67l.2-.27,3.29,2.32C75.16,69.19,75.09,69.3,75,69.4Zm-40,0c-.08-.11-.16-.21-.23-.32l3.29-2.32.2.27Zm-.46-.65-.22-.33,3.37-2.21.18.28Zm40.94,0-3.33-2.26.18-.28,3.37,2.21ZM34.1,68.09l-.21-.34,3.43-2.1.18.28Zm41.8,0-3.4-2.16.18-.29,3.44,2.11Zm-42.22-.68-.2-.34,3.5-2c.06.1.11.2.17.29Zm42.64,0-3.47-2c.06-.1.12-.19.17-.29l3.5,2Zm-43-.68-.19-.35,3.56-1.88.16.29Zm43.43,0-3.54-1.93c.06-.1.11-.2.16-.3l3.56,1.88ZM32.92,66l-.18-.35,3.62-1.77.15.31Zm44.17,0-3.6-1.81.15-.3,3.63,1.76Zm-44.52-.7c-.06-.12-.11-.24-.16-.36l3.67-1.65c.05.11.09.21.14.31Zm44.87,0-3.65-1.71c0-.1.09-.2.14-.3l3.67,1.64C77.55,65,77.49,65.16,77.44,65.29Zm-45.19-.72c-.06-.12-.11-.24-.16-.36l3.73-1.53c0,.11.09.21.13.31Zm45.51,0L74.06,63c0-.1.09-.2.13-.31l3.73,1.53C77.87,64.31,77.82,64.43,77.76,64.55Zm-45.82-.71c0-.13-.09-.25-.14-.38l3.78-1.4.12.31Zm46.13,0-3.76-1.46.12-.31,3.78,1.4C78.16,63.56,78.11,63.69,78.07,63.81Zm-46.4-.72c-.05-.12-.09-.25-.13-.38l3.82-1.28c0,.11.07.22.1.32Zm46.67,0-3.8-1.33c0-.11.08-.21.11-.32l3.82,1.28C78.43,62.81,78.39,62.94,78.34,63.06Zm-46.93-.73c0-.12-.08-.25-.11-.38l3.85-1.15c0,.11.07.21.1.32Zm43.35-1.24.09-.32,3.86,1.15c0,.13-.07.26-.11.38m-47.41-.73c0-.13-.08-.26-.11-.39l3.89-1,.09.32Zm47.63,0L75,60.45c0-.1,0-.21.08-.32l3.9,1C78.89,61.28,78.86,61.41,78.82,61.54ZM31,60.8l-.09-.39,3.92-.9c0,.11,0,.22.08.33Zm48.05,0-3.91-1c0-.11,0-.22.07-.33l3.93.9ZM30.8,60c0-.13-.05-.26-.08-.39l4-.77.06.32Zm48.4,0-3.94-.83c0-.11,0-.22.07-.33l4,.77C79.26,59.73,79.23,59.86,79.2,60Zm-48.55-.75c0-.13,0-.26-.07-.39l4-.65c0,.11,0,.22,0,.33Zm48.71,0-4-.71.06-.33,4,.65Zm-48.84-.76c0-.13,0-.26-.05-.39l4-.52c0,.11,0,.22,0,.33Zm49,0-4-.58c0-.11,0-.21,0-.33l4,.52Zm-49.06-.76c0-.13,0-.26,0-.39l4-.39,0,.33Zm49.17,0-4-.44c0-.12,0-.23,0-.34l4,.39C79.61,57.37,79.6,57.5,79.59,57.63Zm-49.25-.76,0-.4,4-.26,0,.34Zm49.32,0-4-.32c0-.11,0-.22,0-.33l4,.25Zm-49.37-.76c0-.14,0-.27,0-.4l4-.14c0,.12,0,.23,0,.34Zm49.42,0-4-.19c0-.11,0-.22,0-.33l4,.13C79.72,55.78,79.72,55.91,79.71,56Zm-49.45-.76v-.4h4v.33Zm49.48,0-4-.07v-.39h4v.46Zm-45.45-.71-4,0c0-.14,0-.27,0-.4l4,.12C34.29,54.32,34.29,54.43,34.29,54.54Zm41.42-.08c0-.11,0-.22,0-.33l4-.14c0,.13,0,.27,0,.4Zm-41.4-.58-4-.19c0-.13,0-.26,0-.4l4,.25C34.32,53.65,34.32,53.77,34.31,53.88Zm41.38-.09c0-.11,0-.22,0-.33l4-.26,0,.39Zm-41.34-.58-4-.31,0-.4,4,.38Zm41.29-.08,0-.33,4-.4c0,.13,0,.27,0,.4Zm-41.22-.58-4-.45c0-.13,0-.26.05-.39l4,.5Zm41.16-.08c0-.12,0-.23,0-.34l4-.52c0,.13,0,.26,0,.4ZM34.5,51.88l-4-.57.06-.39,4,.63C34.53,51.66,34.51,51.77,34.5,51.88Zm41-.08c0-.11,0-.22,0-.33l4-.65.06.4ZM34.6,51.23l-4-.71c0-.13.05-.26.07-.39l4,.77C34.64,51,34.62,51.12,34.6,51.23Zm40.78-.09-.06-.32,4-.78c0,.13,0,.26.08.39Zm-40.65-.57-3.94-.83c0-.13.06-.26.08-.39l3.93.9C34.78,50.35,34.75,50.46,34.73,50.57Zm40.52-.08a3,3,0,0,0-.07-.32l3.92-.91.09.39Zm-40.37-.57L31,49l.09-.38,3.9,1C34.93,49.71,34.9,49.81,34.88,49.92Zm40.22-.08c0-.11,0-.21-.08-.32l3.89-1c0,.12.07.25.1.38Zm-40-.57-3.88-1.08c0-.12.07-.25.11-.38L35.14,49Zm39.88-.07-.09-.32,3.86-1.16c0,.12.07.25.11.38Zm-39.69-.56-3.85-1.21c0-.13.08-.25.13-.38l3.82,1.26C35.3,48.42,35.27,48.53,35.24,48.64Zm39.5-.08c0-.11-.07-.21-.1-.32L78.45,47c0,.12.09.25.13.37ZM35.45,48l-3.8-1.33c0-.13.09-.25.13-.38l3.78,1.39C35.52,47.79,35.48,47.9,35.45,48Zm39.08-.07-.12-.32,3.78-1.4c0,.12.09.24.13.37Zm-38.85-.56-3.76-1.45.15-.37,3.73,1.51Zm38.61-.07L74.17,47l3.73-1.53c0,.13.1.25.14.38Zm-38.36-.55-3.71-1.57.16-.37,3.68,1.64ZM74,46.69l-.13-.31,3.67-1.65c.06.12.11.25.16.37ZM36.2,46.14l-3.65-1.69c.06-.12.11-.25.17-.37l3.62,1.76C36.3,45.94,36.25,46,36.2,46.14Zm37.57-.06c0-.1-.1-.2-.14-.3L77.25,44c0,.12.11.24.17.36Zm-37.28-.54L32.9,43.73l.18-.36,3.57,1.87Zm37-.06-.15-.29,3.55-1.88a3.9,3.9,0,0,1,.19.35ZM36.8,45,33.27,43l.19-.35,3.51,2C36.91,44.75,36.86,44.85,36.8,45Zm36.37-.06c-.06-.09-.11-.19-.17-.29l3.5-2,.2.35Zm-36-.52-3.47-2,.21-.34,3.44,2.1Zm35.71,0c-.06-.1-.12-.19-.17-.29l3.43-2.1a3.79,3.79,0,0,1,.2.34ZM37.48,43.8l-3.4-2.16.21-.33,3.37,2.21Zm35,0-.18-.28,3.36-2.22.22.34Zm-34.64-.51L34.51,41l.23-.33L38,43C38,43.05,37.91,43.15,37.85,43.24Zm34.27,0a2.75,2.75,0,0,0-.19-.28l3.29-2.32c.08.1.15.21.23.32Zm-33.89-.51L35,40.32l.24-.32,3.22,2.42Zm33.51,0-.2-.27L74.75,40l.24.32Zm-33.11-.49-3.18-2.47.25-.32,3.14,2.53Zm32.71,0-.21-.26,3.13-2.53c.09.1.17.21.25.31Zm-32.29-.48L36,39.07l.26-.31,3.06,2.62Zm31.87,0-.22-.26,3-2.62L74,39Zm-31.43-.47-3-2.67.26-.29,3,2.71C39.63,41,39.56,41.05,39.49,41.13Zm31,0-.22-.24,3-2.73.26.3Zm-30.54-.45L37,37.87l.27-.28,2.89,2.8ZM70,40.6l-.23-.24,2.88-2.82.27.29ZM40.4,40.16,37.56,37.3l.29-.28,2.79,2.91Zm29.16,0-.23-.23L72.11,37l.29.28ZM40.88,39.7l-2.74-3,.29-.27,2.7,3Zm28.2,0-.24-.22,2.69-3,.29.27Zm-27.7-.41-2.65-3L39,36,41.63,39Zm27.21,0L68.33,39l2.6-3.08.3.26Zm-26.7-.4L39.33,35.7l.32-.25,2.5,3.16Zm26.19,0-.27-.21,2.5-3.16.31.25ZM42.41,38.4,40,35.21l.32-.24,2.4,3.23Zm25.14,0-.27-.2,2.4-3.24.31.24ZM42.94,38,40.6,34.73l.32-.23,2.3,3.32ZM67,38l-.27-.19L69,34.47l.32.23Zm-23.52-.35-2.24-3.35.33-.22,2.19,3.38Zm23,0-.28-.19L68.36,34l.34.22Zm-22.41-.33-2.13-3.42.34-.21,2.08,3.45Zm21.85,0-.28-.18,2.06-3.45a3.79,3.79,0,0,1,.34.2Zm-21.28-.32-2-3.48.35-.2,2,3.52Zm20.71,0L65,36.73,67,33.21l.35.19ZM45.2,36.6l-1.91-3.55.36-.18,1.85,3.57Zm19.54,0-.29-.16,1.84-3.58.35.19Zm-18.95-.28L44,32.69l.36-.18,1.73,3.64Zm18.36,0-.3-.14,1.72-3.64.36.17ZM46.39,36l-1.67-3.67.36-.16,1.62,3.69Zm17.16,0-.31-.14,1.6-3.69.37.16ZM47,35.74,45.44,32l.37-.16,1.5,3.74Zm15.93,0-.31-.12,1.48-3.75.38.15Zm-15.31-.22-1.44-3.76.38-.14,1.37,3.79Zm14.69,0L62,35.35l1.35-3.79.38.14Zm-14.07-.2-1.31-3.81.38-.13,1.25,3.83Zm13.44,0-.32-.11L62.6,31.3l.38.13Zm-12.8-.18-1.19-3.85.38-.11L49.2,35ZM61,35l-.32-.09,1.11-3.87.39.11Zm-11.52-.16L48.46,31l.38-.1,1,3.9Zm10.88,0-.32-.08,1-3.91.39.1Zm-10.24-.14-.93-3.92.39-.09.87,3.93Zm9.59,0-.32-.08.86-3.93.39.09Zm-8.93-.13L50,30.62l.39-.08.74,4Zm8.28,0-.32-.07.73-4,.39.08Zm-7.63-.11-.68-4,.39-.07.62,4Zm7,0-.33-.05.6-4,.39.06Zm-6.32-.08-.55-4L52,30.3l.49,4Zm5.66,0-.33,0,.47-4,.4,0Zm-5-.06-.42-4,.4,0,.35,4Zm4.34,0-.34,0,.35-4,.39,0Zm-3.67,0-.3-4,.4,0,.23,4Zm3,0-.33,0,.21-4,.4,0Zm-2.34,0-.16-4h.39l.11,4Zm1.67,0h-.33l.09-4H56Zm-1,0,0-4h.4l0,4h-.34Z" style="fill:#2ac3f2"/><path id="721c24b6-5ea4-4f4c-8d9d-2bc1b4b3d0cb" data-name="leaf" d="M59.55,84.17c0,.46,0,.88,0,1.3A12.69,12.69,0,0,1,59.07,88a6.73,6.73,0,0,1-2.46,3.51,4.38,4.38,0,0,1-3.12.89,5,5,0,0,1-2.05-.58,4.14,4.14,0,0,1-.55-.38c-.11-.09-.09-.14,0-.24A8.62,8.62,0,0,1,53.72,89a20,20,0,0,1,1.87-.71,5.2,5.2,0,0,0,1.7-1c.08-.07.17-.13.19-.24s0,0-.06,0a8.93,8.93,0,0,1-2.5,1,10.84,10.84,0,0,0-2.14.74,7.16,7.16,0,0,0-2.21,1.73,1.15,1.15,0,0,0-.07.11,1.3,1.3,0,0,1,0-.19,4.76,4.76,0,0,1,1.68-4.09,4.45,4.45,0,0,1,2-.86,12.62,12.62,0,0,1,2.38-.21,5.87,5.87,0,0,0,2.29-.47A1.77,1.77,0,0,0,59.55,84.17Z" style="fill:#25a9e0"/><path id="69cffe00-6634-4807-9d83-4490ba3c326c" data-name="nest logo" d="M58.53,21.78a.65.65,0,0,1,.44.6c0,.33-.26.53-.69.53a.8.8,0,0,1-.72-.53l-.07-.15H55.84a1.39,1.39,0,0,1-2.59-.74H57v-.15a3.58,3.58,0,0,0-.09-.83,1.52,1.52,0,0,0,.87.91l.76.36m-3.91-2.27a1.23,1.23,0,0,1,1.25,1.08H53.32a1.37,1.37,0,0,1,1.3-1.08m7.52,0v-1h-.8V17.4h-1v1.15h-2A1.47,1.47,0,0,0,56.83,20a2.64,2.64,0,0,0,0,.29,2.25,2.25,0,0,0-2.22-1.76A2.49,2.49,0,0,0,52.18,21v-.3a2.16,2.16,0,1,0-4.32,0v3.12h1V20.73a1.17,1.17,0,1,1,2.34,0v3.12h1V21.42a2.51,2.51,0,0,0,2.48,2.49,2.54,2.54,0,0,0,2-1.05,1.75,1.75,0,0,0,1.66,1.05A1.63,1.63,0,0,0,60,22.29a1.6,1.6,0,0,0-1-1.47l-.22-.1h0l-.23-.11c-.44-.19-.64-.34-.64-.63a.47.47,0,0,1,.5-.44h2v2.78a1.6,1.6,0,0,0,1.6,1.6v-1a.62.62,0,0,1-.62-.62V19.53h.8" style="fill:#25a9e0"/></g><g id="2e712279-5aa1-46a7-9b57-702f4004af13" data-name="climate.downstairs"><text transform="translate(42.5 59.14)" style="font-size:17.476093292236328px;fill:#2ac3f2;font-family:Helvetica-Bold, Helvetica;font-weight:700">74ยบ</text></g></g></g></g></g></svg>