<svg xmlns="http://www.w3.org/2000/svg" viewBox="0 0 110 110"><title>NestProtect</title><g id="2aaa3078-0dfc-4e7a-98b6-3ab6ef7e1035" data-name="Layer 2"><g id="ea097710-a934-4490-9bec-1f9f55a06fe6" data-name="Layer 1"><circle cx="55" cy="55" r="52.5" style="fill:#44474e"/><path d="M55,5A50,50,0,1,1,5,55,50,50,0,0,1,55,5m0-5a55,55,0,1,0,55,55A55.06,55.06,0,0,0,55,0Z" style="fill:#28292d"/><rect x="23.69" y="23.69" width="62.62" height="62.62" rx="16.54" ry="16.54" style="fill:#44474e"/><path d="M69.77,24.37A15.86,15.86,0,0,1,85.63,40.23V69.77A15.86,15.86,0,0,1,69.77,85.63H40.23A15.86,15.86,0,0,1,24.37,69.77V40.23A15.86,15.86,0,0,1,40.23,24.37H69.77m0-1.36H40.23A17.25,17.25,0,0,0,23,40.23V69.77A17.25,17.25,0,0,0,40.23,87H69.77A17.25,17.25,0,0,0,87,69.77V40.23A17.25,17.25,0,0,0,69.77,23Z" style="fill:#18aceb"/><path d="M40.24,24.37a15.85,15.85,0,0,0-5,.8l-.19.07-.34.11c-.29.11-.57.21-.85.33h0A16,16,0,0,0,30.07,28v0a14.58,14.58,0,0,0-1.5,1.44h0a16.15,16.15,0,0,0-2.5,3.61h0l-.05.09a15.89,15.89,0,0,0-1.65,7.07V69.76a15.91,15.91,0,0,0,.82,5v0c.14.4.28.79.45,1.18,0,0,0,.09.05.13h0A15.68,15.68,0,0,0,28.06,80l0,0a17.12,17.12,0,0,0,1.45,1.5h0A16.05,16.05,0,0,0,33.13,84h0l.08,0a15.82,15.82,0,0,0,7,1.64H69.76a16.1,16.1,0,0,0,5.08-.83c.33-.11.66-.23,1-.37l.28-.1h0A15.9,15.9,0,0,0,79.92,82l0,0a14.68,14.68,0,0,0,1.5-1.45h0a15.71,15.71,0,0,0,2.51-3.62h0a.61.61,0,0,0,0-.12q.17-.32.3-.63a15.87,15.87,0,0,0,1.34-6.4V40.24a16,16,0,0,0-.81-5h0a.14.14,0,0,0,0-.06c-.11-.33-.23-.65-.36-1,0-.09-.06-.18-.1-.27v0A15.52,15.52,0,0,0,82,30.1l0,0a14.58,14.58,0,0,0-1.44-1.5h0A16,16,0,0,0,77,26.08h0L76.79,26l-.62-.28a15.73,15.73,0,0,0-6.41-1.35Zm1.78.07h1.2a.87.87,0,0,0,.05.36,1,1,0,0,0,1.22.57h0a1,1,0,0,0,.62-.93h1.58a.86.86,0,0,0,.86,1.41.86.86,0,0,0,.62-1.05,1,1,0,0,0-.2-.36h3.88a.88.88,0,0,0,.88.56.86.86,0,0,0,.73-.56h3.77a.86.86,0,0,0,1.65,0h4.06a.89.89,0,0,0-.41.52.87.87,0,0,0,.6,1.06h0a.86.86,0,0,0,.65-1.58h1.62a.94.94,0,0,0,.6,1.09A1,1,0,0,0,67.23,25h0a1.06,1.06,0,0,0,0-.53h1.37a1,1,0,0,0,.53,1A1,1,0,0,0,70.43,25a.9.9,0,0,0,.08-.56c.47,0,.92.07,1.37.13a1,1,0,0,0,.52.81A1,1,0,0,0,73.83,25l0-.05a15.39,15.39,0,0,1,1.54.5,1.05,1.05,0,0,0,.4.57,1,1,0,0,0,1.08.08,15.81,15.81,0,0,1,3.63,2.52,1,1,0,0,0,1.43,1.51A15.41,15.41,0,0,1,84.3,34a1.07,1.07,0,0,0,.15.85,1.24,1.24,0,0,0,.28.28,15.17,15.17,0,0,1,.43,1.54,1,1,0,0,0-.28,1.35,1,1,0,0,0,.59.47q.07.8.09,1.62a1.09,1.09,0,0,0-.24.07,1,1,0,0,0-.46,1.26h0a.93.93,0,0,0,.7.53v1.2h0a1.4,1.4,0,0,0-.28.06,1,1,0,0,0-.57,1.22h0a1,1,0,0,0,.89.62v1.54a.86.86,0,0,0-.58-.18l-.17,0a.87.87,0,0,0-.62,1h0a.86.86,0,0,0,1,.62.77.77,0,0,0,.31-.16v3.86a.87.87,0,0,0-.51.86.85.85,0,0,0,.51.71V55.1a.87.87,0,1,0,0,.33v1.82A.85.85,0,0,0,85,58a.87.87,0,0,0,.57.89v4a.87.87,0,0,0-.47-.33,1,1,0,0,0-.24,0,.87.87,0,0,0-.22,1.7.87.87,0,0,0,.93-.34V65.4h-.18a.95.95,0,0,0-.3,1.84,1,1,0,0,0,.48,0v1.37h-.15A1,1,0,0,0,85,70.44h0a1,1,0,0,0,.51.08c0,.46-.07.92-.13,1.37A1,1,0,0,0,85,73.83h0a13.87,13.87,0,0,1-.51,1.58,1,1,0,0,0-.52.38,1.06,1.06,0,0,0-.1,1,15.39,15.39,0,0,1-2.52,3.66,1,1,0,0,0-.67-.27,1,1,0,0,0-.75.3,1,1,0,0,0-.08,1.4A16,16,0,0,1,76,84.3a1,1,0,0,0-.24,0,1,1,0,0,0-.84.44,15.77,15.77,0,0,1-1.57.44,1.08,1.08,0,0,0-.85-.41,1.2,1.2,0,0,0-.49.14,1,1,0,0,0-.47.58,14.66,14.66,0,0,1-1.62.09,1.87,1.87,0,0,0-.07-.22,1,1,0,0,0-.89-.56,1.18,1.18,0,0,0-.37.09,1,1,0,0,0-.54.7h-1.2a1.19,1.19,0,0,0,0-.32,1,1,0,0,0-.94-.62.88.88,0,0,0-.28.06.93.93,0,0,0-.62.88H63.39a.85.85,0,0,0,.16-.75.86.86,0,0,0-.88-.64.47.47,0,0,0-.17,0,.86.86,0,0,0-.62,1,.89.89,0,0,0,.15.31H58.17a.87.87,0,0,0-.79-.51h-.06a.87.87,0,0,0-.72.51H55a.86.86,0,1,0-1-.85h0a.87.87,0,0,0,.69.85H52.8a.9.9,0,0,0-.73-.57H52a.85.85,0,0,0-.83.57h-4a.87.87,0,0,0,.33-.47.85.85,0,0,0-.6-1.06h0a.58.58,0,0,0-.23,0,.85.85,0,0,0-.83.63.86.86,0,0,0,.33.93H44.65a1,1,0,0,0-.61-1,.83.83,0,0,0-.35-.05.94.94,0,0,0-.87.62.87.87,0,0,0,0,.48H41.41a1,1,0,0,0-.53-1,.85.85,0,0,0-.44-.09,1,1,0,0,0-.83.54,1,1,0,0,0-.08.51c-.46,0-.92-.06-1.37-.12a1.06,1.06,0,0,0-.51-.78,1.08,1.08,0,0,0-.58-.14,1.06,1.06,0,0,0-.85.53h0a14.32,14.32,0,0,1-1.57-.5,1,1,0,0,0-.39-.54,1,1,0,0,0-1-.09,15.55,15.55,0,0,1-3.65-2.5,1,1,0,0,0,0-1.45,1,1,0,0,0-.72-.31,1,1,0,0,0-.71.25,15.35,15.35,0,0,1-2.37-3.85,1.06,1.06,0,0,0-.14-.9,1.1,1.1,0,0,0-.32-.29,13.22,13.22,0,0,1-.42-1.49,1,1,0,0,0,.3-1.38,1,1,0,0,0-.62-.48c-.06-.53-.09-1.06-.1-1.6a.83.83,0,0,0,.28-.08,1,1,0,0,0,.47-1.26h0a1,1,0,0,0-.75-.55V66.83a.93.93,0,0,0,.93-1.27h0a.94.94,0,0,0-.93-.62V63.36a.87.87,0,0,0,.79.19.86.86,0,0,0-.26-1.7l-.17,0a.86.86,0,0,0-.36.2V58.19a.86.86,0,0,0,.56-.87.89.89,0,0,0-.56-.74V52.82a.86.86,0,0,0,0-1.66V47.1a.86.86,0,1,0,0-.84V44.63A.94.94,0,0,0,25,42.82a1,1,0,0,0-.35-.06l-.18,0V41.4A.95.95,0,0,0,25,39.61h0a1,1,0,0,0-.43-.09l-.13,0q0-.7.12-1.38a1,1,0,0,0,.82-.51A1.05,1.05,0,0,0,25,36.22h0l-.06,0a16,16,0,0,1,.49-1.53,1,1,0,0,0,.59-.41,1,1,0,0,0,.07-1.1,16.05,16.05,0,0,1,2.5-3.63h0a1,1,0,0,0,1.5-1.44A15.8,15.8,0,0,1,34,25.73a1.09,1.09,0,0,0,.93-.13,1.26,1.26,0,0,0,.31-.34q.72-.24,1.47-.42a1,1,0,0,0,1.38.32,1,1,0,0,0,.49-.63c.52-.05,1.06-.08,1.59-.09a1.29,1.29,0,0,0,.08.28.94.94,0,0,0,1.8-.28Zm13.24,0a.87.87,0,0,0-.86.86h0a.87.87,0,1,0,.86-.86Zm-5.13.41H50a.86.86,0,1,0,.3,1.7.86.86,0,0,0,.7-1h0A.86.86,0,0,0,50.13,24.88ZM60.42,25a.86.86,0,0,0-.15,1.71.86.86,0,0,0,.3-1.69ZM39,25.88a.9.9,0,0,0-.45.13,1,1,0,0,0-.35,1.29h0a.95.95,0,0,0,1.65-.94h0A1,1,0,0,0,39,25.88Zm3.21.07a.75.75,0,0,0-.33.07.86.86,0,0,0-.43,1.14h0a.87.87,0,0,0,1.15.42A.86.86,0,0,0,43,26.45h0A.85.85,0,0,0,42.21,26ZM52.9,26h-.08a.8.8,0,0,0-.72.85h0a.78.78,0,1,0,1.56-.13A.78.78,0,0,0,52.9,26Zm4.94.06a.79.79,0,0,0-.8.71.78.78,0,0,0,1.56.15.79.79,0,0,0-.71-.86h0Zm13.55.06A1,1,0,0,0,71,27.89h0a.95.95,0,0,0,.94-1.64A.92.92,0,0,0,71.39,26.12Zm-26.34.06a.74.74,0,0,0-.25.05.87.87,0,0,0-.52,1.11h0a.88.88,0,0,0,1.11.51.86.86,0,0,0-.34-1.67Zm23.35.05a.86.86,0,1,0,.8,1.23h0a.87.87,0,0,0-.41-1.15h0A1,1,0,0,0,68.4,26.23ZM36,26.27a.9.9,0,0,0-.53.16,1,1,0,0,0-.25,1.32h0a.95.95,0,0,0,1.57-1.07h0A1,1,0,0,0,36,26.27Zm29.43.07A.87.87,0,0,0,65.11,28h0a.86.86,0,0,0,1.1-.52h0a.85.85,0,0,0-.51-1.1h0A.85.85,0,0,0,65.39,26.34Zm9.2.31a1,1,0,0,0-.73.4,1,1,0,0,0,1.55,1.1h0a1,1,0,0,0-.22-1.32A.94.94,0,0,0,74.59,26.65Zm-42.12.07a1.06,1.06,0,0,0-.68.25,1,1,0,0,0-.13,1.47h0a1,1,0,1,0,.81-1.72ZM48,26.8H48a.9.9,0,0,0-.16,0,.78.78,0,0,0-.56,1h0a.79.79,0,0,0,1,.56h0a.77.77,0,0,0,.56-.95h0A.79.79,0,0,0,48,26.8ZM62.67,27a.8.8,0,0,0-.76.58.79.79,0,0,0,.55,1h0a.79.79,0,0,0,1-.54h0a.78.78,0,0,0-.55-1h0A.76.76,0,0,0,62.67,27ZM78,27a1.06,1.06,0,0,0-.83.37,1,1,0,0,0,1.6,1.34h0A1,1,0,0,0,78,27Zm-22.72.24a.8.8,0,0,0-.78.79.79.79,0,0,0,1.57,0A.79.79,0,0,0,55.26,27.27Zm-4.68.37h-.14a.79.79,0,0,0-.63.91h0a.78.78,0,0,0,.9.64h0a.79.79,0,0,0,.64-.91A.78.78,0,0,0,50.58,27.64Zm9.36.09a.78.78,0,0,0-.13,1.55.78.78,0,0,0,.27-1.54h-.14Zm-19.57.6a.88.88,0,0,0-.42.11.86.86,0,0,0-.31,1.18h0a.88.88,0,0,0,1.18.32.86.86,0,0,0,.31-1.18h0A.85.85,0,0,0,40.37,28.33Zm12.7.05H53a.74.74,0,0,0-.67.79.73.73,0,0,0,.78.67.74.74,0,0,0,.67-.79h0A.73.73,0,0,0,53.07,28.38Zm4.51.05h0a.71.71,0,0,0-.67.65.73.73,0,0,0,.65.8.74.74,0,0,0,.8-.66.74.74,0,0,0-.66-.79Zm-14.25,0a.63.63,0,0,0-.3.07.78.78,0,1,0,.65,1.42h0a.79.79,0,0,0,.39-1h0A.81.81,0,0,0,43.33,28.44Zm26.77.13H70a.84.84,0,0,0-.71.43.86.86,0,1,0,1.18-.32h0A.87.87,0,0,0,70.1,28.57Zm-32.57,0a.89.89,0,0,0-.49.16.86.86,0,0,0-.22,1.2h0a.86.86,0,1,0,1.42-1h0A.86.86,0,0,0,37.53,28.59Zm29.74.12A.79.79,0,1,0,68,29.84h0a.79.79,0,0,0-.37-1h0A.85.85,0,0,0,67.27,28.71ZM46,28.82h0a.59.59,0,0,0-.23.05.78.78,0,0,0-.47,1h0a.78.78,0,1,0,1.47-.53h0A.78.78,0,0,0,46,28.82Zm27,.16H73a.92.92,0,0,0-.66.36.88.88,0,0,0,.21,1.21.86.86,0,0,0,1-1.41A.81.81,0,0,0,73.08,29Zm-8.63,0a.79.79,0,0,0-.71.52.77.77,0,0,0,.46,1,.79.79,0,0,0,1-.47.8.8,0,0,0-.47-1A.93.93,0,0,0,64.45,29Zm-30.08.11a1,1,0,0,0-.61.22,1,1,0,0,0-.12,1.34h0a.94.94,0,0,0,1.33.11.94.94,0,0,0-.61-1.67Zm14.22,0h-.05l-.14,0a.73.73,0,1,0,.89.52h0A.74.74,0,0,0,48.59,29.12ZM62,29.27a.73.73,0,0,0-.19,1.43h0a.73.73,0,0,0,.39-1.4A.69.69,0,0,0,62,29.27Zm14,.13a.93.93,0,0,0-.75.33,1,1,0,0,0,.11,1.34h0A1,1,0,0,0,76.77,31a.93.93,0,0,0-.12-1.33h0A.89.89,0,0,0,76.07,29.4Zm-20.82.26a.73.73,0,0,0-.73.73h0a.73.73,0,0,0,.73.73.73.73,0,0,0,0-1.46ZM31.45,30a.93.93,0,0,0-.69.27,1,1,0,0,0,0,1.34h0a.94.94,0,0,0,1.34,0h0a1,1,0,0,0,0-1.34h0A.9.9,0,0,0,31.45,30ZM51,30h-.14a.73.73,0,0,0-.59.84.72.72,0,0,0,.84.59h0a.72.72,0,0,0,.59-.84h0A.73.73,0,0,0,51,30Zm8.54.07a.75.75,0,0,0-.72.61.73.73,0,0,0,.59.84h0a.72.72,0,0,0,.84-.59h0a.73.73,0,0,0-.59-.84Zm19.6.41a1,1,0,0,0-.69.27,1,1,0,0,0,0,1.34h0a1,1,0,0,0,1.34,0h0a1,1,0,0,0,0-1.34h0A.92.92,0,0,0,79.12,30.48Zm-34.83.14a.64.64,0,0,0-.28.06.73.73,0,0,0-.36,1h0a.72.72,0,0,0,1.32-.6h0A.73.73,0,0,0,44.29,30.62Zm9,.14h-.07a.67.67,0,0,0-.62.72h0a.67.67,0,0,0,.72.62h0a.67.67,0,0,0,.61-.73h0A.68.68,0,0,0,53.24,30.76Zm-11.51,0a.78.78,0,0,0-.66,1.17.78.78,0,1,0,1.36-.78h0A.78.78,0,0,0,41.73,30.77Zm15.63,0a.68.68,0,0,0-.69.61.67.67,0,0,0,.61.73h0a.66.66,0,0,0,.73-.6h0a.67.67,0,0,0-.6-.73Zm-18.31,0a.77.77,0,0,0-.44.14.78.78,0,0,0-.2,1.09.76.76,0,0,0,1.08.2.79.79,0,0,0,.21-1.09h0A.8.8,0,0,0,39.05,30.85Zm27.2,0a.75.75,0,0,0-.64.41.73.73,0,0,0,.35,1h0a.72.72,0,1,0,.62-1.31h0A.72.72,0,0,0,66.25,30.87Zm2.48.14h0a.77.77,0,0,0-.64.39.78.78,0,0,0,.28,1.07.77.77,0,0,0,1.07-.29.78.78,0,0,0-.28-1.07A.86.86,0,0,0,68.73,31Zm-40.63,0a1,1,0,1,0,.77,1.72h0a1,1,0,0,0-.13-1.47A1.06,1.06,0,0,0,28.1,31.05Zm18.73,0h-.06a.8.8,0,0,0-.21.05.71.71,0,0,0-.43.93.73.73,0,0,0,.93.44.74.74,0,0,0,.44-.94h0A.72.72,0,0,0,46.83,31.07Zm16.81.15a.73.73,0,0,0-.23,1.42.73.73,0,0,0,.93-.44.72.72,0,0,0-.43-.93A.86.86,0,0,0,63.64,31.22Zm7.85,0a.83.83,0,0,0-.59.33.78.78,0,0,0,.18,1.09h0a.77.77,0,0,0,1.09-.18h0A.78.78,0,0,0,72,31.38.76.76,0,0,0,71.49,31.23Zm-35.37,0a.81.81,0,0,0-.55.21.86.86,0,1,0,1.11,1.31.86.86,0,0,0,.1-1.21A.87.87,0,0,0,36.12,31.26Zm46.16.16a1.1,1.1,0,0,0-.67.24,1,1,0,1,0,1.47.13A1.06,1.06,0,0,0,82.28,31.42Zm-33.12,0h0l-.14,0a.67.67,0,0,0-.48.82.68.68,0,0,0,.82.48.66.66,0,0,0,.48-.82h0A.67.67,0,0,0,49.16,31.43Zm12.24.14a.67.67,0,0,0-.18,1.32.67.67,0,0,0,.36-1.29A.57.57,0,0,0,61.4,31.57Zm12.92,0a.86.86,0,0,0-.69.31.85.85,0,0,0,.11,1.21h0A.86.86,0,0,0,75,33a.87.87,0,0,0-.1-1.22A.94.94,0,0,0,74.32,31.57ZM33.38,32a.89.89,0,0,0-.62.25A.86.86,0,0,0,34,33.5a.87.87,0,0,0,0-1.22h0A.87.87,0,0,0,33.38,32Zm21.85,0a.67.67,0,1,0,.67.67.67.67,0,0,0-.67-.67Zm-3.86.3h-.13a.69.69,0,0,0-.55.78h0a.67.67,0,0,0,.77.55.68.68,0,0,0,.55-.78h0A.68.68,0,0,0,51.37,32.35Zm7.73.08a.67.67,0,1,0,.66.79h0a.66.66,0,0,0-.54-.77Zm18.06.07H77.1a.8.8,0,0,0-.54.25A.86.86,0,1,0,77.77,34a.87.87,0,0,0,0-1.22A.84.84,0,0,0,77.16,32.5Zm-31.91.3-.27.06a.69.69,0,0,0-.33.89h0a.67.67,0,0,0,.89.34h0a.67.67,0,0,0,.33-.89h0A.68.68,0,0,0,45.25,32.8Zm-4.89,0A.74.74,0,0,0,40,33a.73.73,0,0,0-.19,1,.73.73,0,0,0,1,.19.73.73,0,0,0-.41-1.33Zm2.52,0a.67.67,0,0,0-.34.1.72.72,0,0,0-.27,1h0a.72.72,0,0,0,1,.27h0a.72.72,0,0,0,.26-1h0A.71.71,0,0,0,42.88,32.85ZM65.24,33a.7.7,0,0,0-.59.38.68.68,0,0,0,.31.9h0a.66.66,0,0,0,.89-.32h0a.67.67,0,0,0-.62-1Zm-34.87,0a1,1,0,0,0-.75.34.94.94,0,0,0,.12,1.34h0a.94.94,0,0,0,1.33-.12h0A.94.94,0,0,0,31,33.28h0A1,1,0,0,0,30.37,33.05Zm37.18,0h0a.72.72,0,0,0-.33,1.35.73.73,0,0,0,1-.26.74.74,0,0,0-.26-1A.88.88,0,0,0,67.55,33.07Zm-14.17.08h0a.6.6,0,0,0-.56.66.62.62,0,0,0,.66.57h0a.62.62,0,0,0,.56-.67h0A.6.6,0,0,0,53.38,33.15Zm16.8,0h-.05a.72.72,0,0,0-.55.3.73.73,0,0,0,.16,1h0a.72.72,0,0,0,1-.17h0a.72.72,0,0,0-.17-1A.74.74,0,0,0,70.18,33.18Zm-13.06,0a.63.63,0,0,0-.63.56.62.62,0,0,0,.56.67h0a.6.6,0,0,0,.67-.55.61.61,0,0,0-.55-.67h-.05Zm-9.56.15a.48.48,0,0,0-.2,0,.66.66,0,0,0-.4.86.68.68,0,0,0,.86.4h0a.67.67,0,0,0,.4-.86A.66.66,0,0,0,47.56,33.33ZM80,33.42a1,1,0,0,0-.61.22,1,1,0,1,0,1.22,1.46h0a1,1,0,0,0,.12-1.34h0A1,1,0,0,0,80,33.42Zm-42.13,0a.78.78,0,0,0-.51.18.8.8,0,0,0-.1,1.11h0a.79.79,0,0,0,1.11.09h0a.78.78,0,0,0,.1-1.1h0A.78.78,0,0,0,37.88,33.43Zm24.95,0a.66.66,0,0,0-.61.44.67.67,0,0,0,.39.86h0a.67.67,0,0,0,.86-.4.68.68,0,0,0-.4-.86h0A.47.47,0,0,0,62.83,33.47Zm9.73.27A.78.78,0,0,0,72,35.12h0a.78.78,0,0,0,1.1-.09.79.79,0,0,0-.1-1.11h0A.75.75,0,0,0,72.56,33.74Zm-22.83,0h0l-.12,0a.61.61,0,0,0-.44.75h0a.62.62,0,0,0,.75.45h0a.62.62,0,0,0-.15-1.22Zm11,.12a.6.6,0,0,0-.59.45.62.62,0,0,0,.43.76h0a.61.61,0,0,0,.75-.43h0a.62.62,0,0,0-.43-.76ZM35.25,34a.81.81,0,0,0-.57.23.78.78,0,0,0,1.1,1.12h0A.79.79,0,0,0,35.25,34Zm20,.46a.62.62,0,1,0,.62.62h0a.61.61,0,0,0-.61-.61Zm20.09,0a.75.75,0,0,0-.57.22.79.79,0,0,0,0,1.11.78.78,0,0,0,1.11,0h0a.79.79,0,0,0,0-1.11h0A.74.74,0,0,0,75.3,34.45Zm-47.75,0a1,1,0,0,0-.5,1.72h0A1,1,0,0,0,28.38,36h0a1,1,0,0,0-.23-1.32A.91.91,0,0,0,27.55,34.46Zm24.19.25h-.1a.61.61,0,0,0,.21,1.21h0a.61.61,0,0,0-.11-1.22Zm6.94.07A.61.61,0,0,0,58.57,36h0a.62.62,0,0,0,.72-.5h0a.63.63,0,0,0-.5-.72Zm-17,0a.81.81,0,0,0-.38.12.67.67,0,0,0-.17.94h0a.67.67,0,0,0,1.1-.76A.65.65,0,0,0,41.67,34.82Zm-9.24.07h-.06a.88.88,0,0,0-.6.31.87.87,0,0,0,.11,1.21A.86.86,0,1,0,33,35.1h0A.89.89,0,0,0,32.43,34.89Zm11.61,0a.85.85,0,0,0-.32.09.68.68,0,0,0-.25.92h0a.68.68,0,0,0,.92.25h0a.67.67,0,0,0,.24-.92A.68.68,0,0,0,44,34.93ZM46.2,35A.69.69,0,0,0,46,35a.62.62,0,0,0-.3.82.61.61,0,0,0,.81.31h0a.62.62,0,0,0,.3-.81h0A.6.6,0,0,0,46.2,35Zm36.63,0a.94.94,0,0,0-.78,1.48h0a1,1,0,0,0,1.32.25h0A.94.94,0,0,0,82.83,35Zm-14,.1h0a.65.65,0,0,0-.51.28.66.66,0,0,0,.15.93h0a.68.68,0,0,0,.94-.16h0a.66.66,0,0,0-.16-.94h0A.72.72,0,0,0,68.82,35.12Zm-2.45,0h-.05a.7.7,0,0,0-.55.34.67.67,0,1,0,1.17.67h0a.68.68,0,0,0-.25-.92h0A.9.9,0,0,0,66.37,35.14Zm-2.15,0a.62.62,0,1,0,.58.88h0a.62.62,0,0,0-.29-.82h0A.64.64,0,0,0,64.22,35.18Zm13.7.08a.85.85,0,0,0-.55.2.86.86,0,0,0-.11,1.22h0a.87.87,0,0,0,1.21.11h0a.86.86,0,0,0,.1-1.21h0A.83.83,0,0,0,77.92,35.26Zm-38.56,0a.73.73,0,0,0-.56,1.2.73.73,0,1,0,1.12-.94h0A.74.74,0,0,0,39.36,35.28Zm14.21.25h0a.57.57,0,0,0-.52.6A.56.56,0,1,0,54.12,36a.56.56,0,0,0-.55-.51Zm3.26,0h0a.58.58,0,0,0-.52.51.56.56,0,0,0,.51.61h0a.56.56,0,1,0,.11-1.11Zm14.22,0a.75.75,0,0,0-.58.26.73.73,0,0,0,.09,1,.73.73,0,0,0,.94-1.12A.83.83,0,0,0,71.05,35.57Zm-22.66,0h0a.39.39,0,0,0-.18,0,.61.61,0,0,0-.37.78.62.62,0,0,0,.79.37h0A.61.61,0,0,0,49,36h0A.59.59,0,0,0,48.39,35.58ZM62,35.71a.61.61,0,0,0-.2,1.19h0a.62.62,0,0,0,.79-.36.61.61,0,0,0-.37-.79A.54.54,0,0,0,62,35.71Zm-25.15,0A.73.73,0,0,0,36.34,37h0a.73.73,0,0,0,1,0,.74.74,0,0,0,0-1h0A.76.76,0,0,0,36.87,35.71Zm13.43.36h0l-.11,0a.56.56,0,0,0-.4.68h0a.55.55,0,0,0,.68.4h0a.56.56,0,0,0,.4-.68h0A.58.58,0,0,0,50.3,36.07Zm-20.44,0H29.8a.86.86,0,0,0-.46,1.56h0a.86.86,0,1,0,1-1.4h0A.84.84,0,0,0,29.86,36.12Zm43.76,0a.69.69,0,0,0-.52.21.73.73,0,0,0,0,1h0a.74.74,0,0,0,1,0,.73.73,0,0,0,0-1h0A.68.68,0,0,0,73.62,36.13Zm-13.49,0a.56.56,0,0,0-.16,1.1h0a.57.57,0,0,0,.69-.39h0a.57.57,0,0,0-.4-.69Zm20.46.5a.84.84,0,0,0-.49.15.87.87,0,0,0-.22,1.2h0a.87.87,0,0,0,1.2.22.85.85,0,0,0,.22-1.19h0A.87.87,0,0,0,80.59,36.67Zm-46.05,0a.84.84,0,0,0-.62.28.78.78,0,0,0,.1,1.11h0a.78.78,0,0,0,1.1-.1h0a.78.78,0,0,0-.09-1.1h0A.81.81,0,0,0,34.54,36.72Zm8.44.09a.61.61,0,0,0-.35.11.62.62,0,0,0-.16.86h0a.62.62,0,0,0,1-.7A.63.63,0,0,0,43,36.81Zm12.22,0a.56.56,0,0,0,0,1.12h0a.56.56,0,0,0,.56-.56h0A.56.56,0,0,0,55.2,36.83Zm-10,.19a.6.6,0,0,0-.29.08.62.62,0,1,0,.61,1.07h0a.61.61,0,0,0,.23-.84h0A.59.59,0,0,0,45.19,37Zm6.9,0H52a.56.56,0,0,0,.19,1.11.57.57,0,0,0,.46-.65h0a.58.58,0,0,0-.54-.47Zm15.36,0h0a.63.63,0,0,0-.47.26.61.61,0,0,0,.14.86h0a.62.62,0,0,0,.86-.14h0a.6.6,0,0,0-.15-.85A.54.54,0,0,0,67.45,37.07Zm8.38,0a.83.83,0,0,0-.5.18.79.79,0,0,0-.1,1.11h0a.79.79,0,0,0,1.11.09h0a.79.79,0,0,0,.1-1.1h0A.78.78,0,0,0,75.83,37.09Zm-17.57,0a.54.54,0,0,0-.55.46.56.56,0,0,0,.45.65h0a.56.56,0,0,0,.65-.46.57.57,0,0,0-.45-.65Zm-17.41,0a.66.66,0,0,0-.43.15.67.67,0,1,0,.86,1h0a.67.67,0,0,0,.08-.94A.63.63,0,0,0,40.85,37.14Zm6.31,0a.54.54,0,0,0-.22,0,.57.57,0,0,0-.28.74.56.56,0,0,0,.74.28.55.55,0,0,0,.28-.74h0A.54.54,0,0,0,47.16,37.17Zm18,0a.62.62,0,1,0,.34.08h0A.57.57,0,0,0,65.14,37.21Zm-1.93.12a.57.57,0,0,0-.49.32.58.58,0,0,0,.26.75.57.57,0,0,0,.75-.27.56.56,0,0,0-.27-.74h0A.54.54,0,0,0,63.21,37.33Zm6.26.07a.72.72,0,0,0-.47.24.68.68,0,0,0,.08,1h0a.67.67,0,1,0,.87-1,.7.7,0,0,0-.41-.16Zm-31,0h0a.65.65,0,0,0-.42.19.68.68,0,0,0,0,.95h0a.67.67,0,0,0,1,0h0a.67.67,0,0,0,0-1h0A.66.66,0,0,0,38.48,37.44Zm-11.39.22H27a1,1,0,0,0-.44,1.77h0a1,1,0,0,0,1.3-.35h0a.94.94,0,0,0-.34-1.29h0A.94.94,0,0,0,27.09,37.66Zm4.94.07H32a.79.79,0,0,0-.42,1.42h0A.78.78,0,0,0,32.65,39h0a.79.79,0,0,0-.18-1.1h0A.77.77,0,0,0,32,37.73ZM72,37.81a.73.73,0,0,0-.49.19.67.67,0,0,0,0,1h0a.66.66,0,0,0,.94,0,.67.67,0,0,0,0-1h0A.63.63,0,0,0,72,37.81Zm-22.78,0h0a.53.53,0,0,0-.17,0,.56.56,0,0,0-.33.71.57.57,0,0,0,.72.34.56.56,0,0,0,.33-.72h0A.55.55,0,0,0,49.17,37.83Zm12,.12a.56.56,0,1,0,.54.75.56.56,0,0,0-.34-.71A.45.45,0,0,0,61.21,38Zm22,.12a1.06,1.06,0,0,0-.45.13.95.95,0,1,0,1.3.35A1,1,0,0,0,83.19,38.07Zm-29.4.18h-.06a.56.56,0,0,0-.51.6.55.55,0,0,0,.6.51h0a.55.55,0,0,0,.51-.6A.54.54,0,0,0,53.79,38.25Zm24.61,0a.78.78,0,0,0-.44.13.8.8,0,0,0-.2,1.09h0a.78.78,0,0,0,1.3-.88A.77.77,0,0,0,78.4,38.27Zm-21.83,0a.56.56,0,0,0,0,1.11h0a.55.55,0,0,0,.61-.5.56.56,0,0,0-.5-.61h-.1Zm-20.27,0h0a.77.77,0,0,0-.51.26.72.72,0,0,0,.09,1h0a.75.75,0,0,0,1-.09.74.74,0,0,0-.1-1A.71.71,0,0,0,36.3,38.29ZM74,38.63a.69.69,0,0,0-.47.18.72.72,0,1,0,.93,1.11A.73.73,0,0,0,74,38.63ZM51,38.71h0l-.11,0a.55.55,0,0,0-.4.68h0a.55.55,0,0,0,.68.4h0a.55.55,0,0,0,.4-.68h0A.54.54,0,0,0,51,38.71Zm-6.7.09a.51.51,0,0,0-.32.1.55.55,0,0,0-.14.77.56.56,0,1,0,.46-.87Zm15.11,0a.56.56,0,1,0,.54.71h0a.57.57,0,0,0-.39-.69A.39.39,0,0,0,59.4,38.8ZM42.34,39a.63.63,0,0,0-.4.14.62.62,0,0,0-.08.87h0a.63.63,0,0,0,.87.08h0A.61.61,0,0,0,42.34,39ZM66,39a.55.55,0,0,0-.42.23A.57.57,0,1,0,66,39Zm-19.69.08a.5.5,0,0,0-.27.08.56.56,0,0,0-.21.76.56.56,0,1,0,1-.56A.55.55,0,0,0,46.35,39.1Zm-17,0A.86.86,0,0,0,29,40.72a.86.86,0,0,0,1.18-.32h0a.87.87,0,0,0-.32-1.18h0A.86.86,0,0,0,29.39,39.11Zm4.48,0a.72.72,0,1,0,.46.13A.75.75,0,0,0,33.87,39.15Zm6.25,0a.59.59,0,0,0-.44.18.62.62,0,0,0,0,.87h0a.63.63,0,0,0,.87,0h0a.64.64,0,0,0,0-.88h0A.64.64,0,0,0,40.12,39.17Zm27.9.06a.62.62,0,0,0-.48.22.62.62,0,0,0,.07.87h0a.62.62,0,0,0,.87-.07h0a.62.62,0,0,0-.08-.87h0A.67.67,0,0,0,68,39.23Zm-4,.05h0a.55.55,0,0,0-.46.28.55.55,0,0,0,.2.76.56.56,0,1,0,.56-1A.59.59,0,0,0,64,39.28Zm6.26.21a.62.62,0,0,0-.45,1h0a.63.63,0,0,0,.87,0,.62.62,0,0,0,0-.88h0A.62.62,0,0,0,70.27,39.49Zm10.57,0a.93.93,0,0,0-.41.12.86.86,0,0,0-.32,1.18h0a.86.86,0,0,0,1.18.31h0A.85.85,0,0,0,81.6,40,.87.87,0,0,0,80.84,39.52Zm-25.64,0a.56.56,0,0,0,0,1.12h0a.56.56,0,0,0,.56-.56h0A.56.56,0,0,0,55.2,39.55Zm21.28.08a.8.8,0,0,0-.42.13.73.73,0,0,0,.83,1.2h0a.73.73,0,0,0-.41-1.33Zm-28.19,0a.59.59,0,0,0-.22.05.57.57,0,0,0-.28.74h0a.57.57,0,0,0,.75.28h0a.57.57,0,0,0,.28-.74h0A.54.54,0,0,0,48.29,39.65Zm4.32.1h-.1a.56.56,0,1,0,.19,1.1h0a.56.56,0,0,0,.45-.65h0A.56.56,0,0,0,52.61,39.75Zm9.43,0a.54.54,0,0,0-.49.31.55.55,0,0,0,.26.75h0a.58.58,0,0,0,.75-.26.57.57,0,0,0-.27-.75h0A.43.43,0,0,0,62,39.8Zm-4.25,0a.57.57,0,0,0-.56.46.56.56,0,0,0,.46.65h0a.56.56,0,0,0,.65-.45h0a.56.56,0,0,0-.46-.65Zm-19.7,0a.65.65,0,0,0-.53.24.67.67,0,1,0,.95-.08h0A.72.72,0,0,0,38.09,39.86Zm34.15.32a.66.66,0,0,0-.43.15.68.68,0,0,0-.09,1h0a.66.66,0,0,0,.94.08.67.67,0,0,0,.09-.94h0A.66.66,0,0,0,72.24,40.18Zm-22.18.21-.16,0a.56.56,0,0,0-.34.71.57.57,0,0,0,.72.34h0a.56.56,0,0,0-.22-1.09Zm10.22.12a.56.56,0,0,0-.18,1.09.56.56,0,0,0,.38-1.05h0A.48.48,0,0,0,60.28,40.51Zm-28.53,0A.78.78,0,0,0,31.4,42h0a.78.78,0,1,0,.78-1.36A.8.8,0,0,0,31.75,40.55Zm4,0a.7.7,0,0,0-.51.28.68.68,0,0,0,.16.94h0a.65.65,0,0,0,.93-.16h0a.67.67,0,0,0-.16-.93A.68.68,0,0,0,35.76,40.57Zm-8.69.2a.82.82,0,0,0-.75.49.86.86,0,0,0,.4,1.15h0A.87.87,0,0,0,27.87,42h0a.86.86,0,0,0-.41-1.15A.74.74,0,0,0,27.07,40.77Zm16.75.07a.53.53,0,0,0-.36.13.56.56,0,0,0-.07.79h0a.56.56,0,0,0,.79.07h0a.56.56,0,0,0,.07-.79h0A.54.54,0,0,0,43.82,40.84Zm-2.08.06a.55.55,0,0,0-.4.16.56.56,0,0,0,.78.8.56.56,0,0,0,0-.79A.52.52,0,0,0,41.74,40.9ZM78.48,41a.87.87,0,0,0-.38.11.78.78,0,0,0-.28,1.07.77.77,0,0,0,1.07.29.78.78,0,0,0,.28-1.07A.79.79,0,0,0,78.48,41Zm-3.93,0a.64.64,0,0,0-.38.12.66.66,0,0,0-.17.93h0a.66.66,0,0,0,.93.17h0A.67.67,0,0,0,74.55,41ZM45.83,41a.57.57,0,0,0-.31.1.56.56,0,0,0-.15.78h0a.56.56,0,0,0,.92-.63h0A.58.58,0,0,0,45.83,41Zm20.62,0a.55.55,0,0,0-.39.2.58.58,0,0,0,.07.79h0a.56.56,0,0,0,.79-.07h0a.58.58,0,0,0-.07-.79h0a.51.51,0,0,0-.35-.13Zm2.14.1h0a.6.6,0,0,0-.35.16.56.56,0,0,0,0,.79h0a.56.56,0,1,0,.8-.78h0A.56.56,0,0,0,68.59,41.17Zm-4.09.07h0a.56.56,0,0,0-.29,1h0a.55.55,0,0,0,.78-.14h0a.56.56,0,0,0-.13-.78A.58.58,0,0,0,64.5,41.24Zm18.71.14a1,1,0,0,0-.33.07.88.88,0,0,0-.43,1.15.86.86,0,1,0,.76-1.22Zm-43.34,0a.58.58,0,0,0-.49.22.61.61,0,0,0,.07.86h0a.62.62,0,1,0,.8-.94h0A.59.59,0,0,0,39.87,41.43Zm7.84,0a.5.5,0,0,0-.27.08.56.56,0,0,0-.21.76h0a.56.56,0,0,0,.76.21.57.57,0,0,0,.21-.77h0A.61.61,0,0,0,47.71,41.46Zm14.89.18a.55.55,0,0,0-.45.28.56.56,0,0,0,1,.56.56.56,0,0,0-.2-.77A.64.64,0,0,0,62.6,41.64Zm7.84.08a.58.58,0,0,0-.39.15.61.61,0,0,0-.08.86.62.62,0,0,0,.87.08h0a.63.63,0,0,0,.08-.87h0A.62.62,0,0,0,70.44,41.72Zm-36.62.07h0a.74.74,0,0,0-.6.36.72.72,0,0,0,.27,1h0a.71.71,0,0,0,1-.26h0a.72.72,0,0,0-.62-1.09ZM29.48,42a.79.79,0,0,0-.32,1.5h0a.79.79,0,0,0,.67-1.42A.85.85,0,0,0,29.48,42Zm8.22,0h-.05a.62.62,0,0,0-.32,1.12h0a.62.62,0,0,0,.72-1A.59.59,0,0,0,37.7,42Zm17.3.12A12.89,12.89,0,1,0,67.89,55,12.91,12.91,0,0,0,55,42.11Zm21.45.06a.88.88,0,0,0-.35.1.73.73,0,1,0,.73,1.26h0a.72.72,0,0,0,.27-1A.74.74,0,0,0,76.45,42.17Zm-3.83.19a.61.61,0,0,0-.35.11.62.62,0,0,0-.16.86h0a.62.62,0,0,0,1-.7h0A.63.63,0,0,0,72.62,42.36Zm8.18.21a.82.82,0,0,0-.3.07.79.79,0,0,0-.39,1h0a.79.79,0,0,0,1,.39.79.79,0,0,0-.35-1.5Zm-37.16.27h0a.6.6,0,0,0-.35.16.56.56,0,0,0,0,.79h0a.56.56,0,0,0,.79,0A.56.56,0,0,0,44,43a.54.54,0,0,0-.4-.17Zm1.93.09a.61.61,0,0,0-.36.13.57.57,0,0,0-.06.79.55.55,0,0,0,.78.07.56.56,0,0,0,.07-.79A.54.54,0,0,0,45.57,42.93ZM41.63,43h0a.59.59,0,0,0-.39.2.56.56,0,0,0,.07.79.55.55,0,0,0,.78-.07.57.57,0,0,0-.06-.79A.61.61,0,0,0,41.63,43Zm-5.8,0h0a.69.69,0,0,0-.55.34A.67.67,0,0,0,36.4,44h0a.68.68,0,0,0-.25-.92h0A.62.62,0,0,0,35.83,43Zm-4.25,0a.7.7,0,0,0-.64.41.73.73,0,0,0,.34,1,.72.72,0,0,0,1-.34h0a.73.73,0,0,0-.35-1h0A.66.66,0,0,0,31.58,43.05Zm35.08,0a.58.58,0,0,0-.41.17A.56.56,0,0,0,67,44h0a.56.56,0,0,0,0-.79A.6.6,0,0,0,66.66,43.08Zm-1.92.07h0a.55.55,0,0,0-.39.2.56.56,0,0,0,.07.78.56.56,0,0,0,.79-.07.57.57,0,0,0-.43-.92Zm3.91.11a.59.59,0,0,0-.36.13.56.56,0,1,0,.72.86h0a.58.58,0,0,0,.07-.79A.6.6,0,0,0,68.65,43.26Zm5.77.12a.73.73,0,0,0-.32.09.67.67,0,0,0-.24.92.68.68,0,0,0,.92.25h0a.67.67,0,0,0,.24-.92h0A.69.69,0,0,0,74.42,43.38Zm-34.83,0h0a.58.58,0,0,0-.43.24.56.56,0,1,0,.78-.13A.58.58,0,0,0,39.59,43.41Zm39.09.17a.68.68,0,0,0-.28.07.71.71,0,0,0-.36,1h0a.72.72,0,0,0,1.32-.6h0A.72.72,0,0,0,78.68,43.58Zm-8,.15a.56.56,0,0,0-.46.87h0a.56.56,0,0,0,.78.14h0a.56.56,0,0,0,.14-.78h0A.56.56,0,0,0,70.69,43.73Zm-43.5.05a.86.86,0,0,0-.28,1.67h0A.86.86,0,0,0,28,44.94a.88.88,0,0,0-.51-1.11h0A1.12,1.12,0,0,0,27.19,43.78Zm6.49.34a.67.67,0,1,0,.62,1h0a.68.68,0,0,0-.31-.9A.85.85,0,0,0,33.68,44.12ZM83,44.23a1.11,1.11,0,0,0-.25.05.87.87,0,0,0-.52,1.11h0a.86.86,0,0,0,1.11.51h0A.86.86,0,0,0,83,44.23Zm-45.16,0a.63.63,0,0,0-.51.3.62.62,0,1,0,1.07.62.61.61,0,0,0-.23-.84h0A.56.56,0,0,0,37.8,44.26Zm34.6.33a.61.61,0,0,0-.3.08.63.63,0,0,0-.22.85A.62.62,0,0,0,73,44.9h0A.62.62,0,0,0,72.4,44.59Zm4.15,0a.58.58,0,0,0-.26.06.68.68,0,0,0-.33.89.66.66,0,0,0,.89.33.65.65,0,0,0,.33-.88A.67.67,0,0,0,76.55,44.59Zm-32.83.15h0a.56.56,0,0,0-.38.21.55.55,0,0,0,.06.78.57.57,0,0,0,.79-.06h0a.55.55,0,0,0-.06-.78A.54.54,0,0,0,43.72,44.74Zm-14,0a.79.79,0,0,0-.72.52.78.78,0,0,0,.47,1h0a.79.79,0,0,0,1-.46h0a.78.78,0,0,0-.47-1h0A.71.71,0,0,0,29.75,44.79Zm25.25,0A10.17,10.17,0,1,1,44.83,55,10.15,10.15,0,0,1,55,44.83ZM41.81,45h0a.54.54,0,0,0-.43.23.56.56,0,0,0,.13.78.57.57,0,0,0,.79-.13h0a.56.56,0,0,0-.13-.78h0A.58.58,0,0,0,41.81,45Zm24.75,0a.59.59,0,0,0-.36.13.56.56,0,0,0-.07.79h0a.56.56,0,0,0,.79.08h0a.56.56,0,0,0,.07-.79h0A.6.6,0,0,0,66.56,45Zm-30.78.18a.62.62,0,0,0-.54.35.61.61,0,0,0,.29.82h0a.62.62,0,0,0,.53-1.11A.67.67,0,0,0,35.78,45.19Zm44.62.05a.87.87,0,0,0-.22,0,.78.78,0,1,0,1,.47A.8.8,0,0,0,80.4,45.24Zm-12,0a.67.67,0,0,0-.31.1.56.56,0,0,0-.15.78h0a.55.55,0,0,0,.77.15.56.56,0,0,0,.15-.78h0A.59.59,0,0,0,68.44,45.27Zm-28.59.22h0a.59.59,0,0,0-.46.28.57.57,0,0,0,.21.77h0a.56.56,0,0,0,.56-1A.65.65,0,0,0,39.85,45.49Zm34.58.11a.63.63,0,0,0-.55.87A.62.62,0,0,0,75,46,.64.64,0,0,0,74.43,45.6Zm-42.49.06a.74.74,0,0,0-.67.48.73.73,0,0,0,1.37.5h0a.74.74,0,0,0-.43-.94h0A.75.75,0,0,0,31.94,45.66Zm38.43.14a.68.68,0,0,0-.27.07.57.57,0,0,0-.2.77h0a.54.54,0,0,0,.76.2h0a.56.56,0,0,0,.2-.76A.54.54,0,0,0,70.37,45.8Zm7.89.28h-.05l-.21,0a.74.74,0,0,0-.44.94h0a.73.73,0,0,0,1.37-.5A.74.74,0,0,0,78.26,46.08Zm-40.38.18a.57.57,0,0,0-.49.32.58.58,0,0,0,.26.75.57.57,0,0,0,.75-.27.55.55,0,0,0-.26-.74h0A.54.54,0,0,0,37.88,46.26Zm-3.76.27a.67.67,0,0,0-.21,1.3h0a.67.67,0,0,0,.46-1.26h0A.69.69,0,0,0,34.12,46.53Zm-6.36.06a.78.78,0,0,0-.76.58.77.77,0,0,0,.55,1h0a.78.78,0,0,0,1-.54.79.79,0,0,0-.54-1Zm44.54,0a.59.59,0,0,0-.22,0,.56.56,0,0,0-.27.74h0a.55.55,0,0,0,.74.28.57.57,0,0,0,.28-.74h0A.58.58,0,0,0,72.3,46.61Zm-30.13.25a.55.55,0,1,0,.31.07h0A.55.55,0,0,0,42.17,46.86ZM76,46.92a.65.65,0,0,0-.2,0,.67.67,0,0,0-.4.86h0a.67.67,0,0,0,1.26-.46A.66.66,0,0,0,76,46.92Zm-8,.24a.56.56,0,1,0,.29,1.05.57.57,0,0,0,.21-.77h0A.56.56,0,0,0,68,47.16Zm14.46.07h0l-.16,0a.79.79,0,0,0-.56,1h0a.78.78,0,0,0,1.52-.39.77.77,0,0,0-.75-.59ZM30,47.28a.74.74,0,0,0-.2,1.44h0a.75.75,0,0,0,.9-.51h0a.73.73,0,0,0-.51-.9A.63.63,0,0,0,30,47.28Zm6.31.12a.61.61,0,0,0-.57.4.62.62,0,0,0,.37.79h0a.61.61,0,0,0,.78-.36.62.62,0,0,0-.36-.8h0A.61.61,0,0,0,36.31,47.4Zm4,0a.56.56,0,1,0,.52.81h0a.55.55,0,0,0-.26-.75h0A.58.58,0,0,0,40.34,47.43Zm29.48.32a.44.44,0,0,0-.22,0,.57.57,0,0,0-.28.74h0a.56.56,0,0,0,.74.28h0a.58.58,0,0,0,.28-.75h0A.56.56,0,0,0,69.82,47.75Zm4,0a.39.39,0,0,0-.18,0,.61.61,0,1,0,.79.37h0A.62.62,0,0,0,73.82,47.76Zm6.39.09h0l-.14,0a.73.73,0,0,0,.36,1.41.73.73,0,0,0,.53-.89h0A.75.75,0,0,0,80.21,47.85Zm-48,.13a.67.67,0,0,0-.18,1.32h0a.67.67,0,0,0,.36-1.3h0A.55.55,0,0,0,32.24,48Zm6.26.29A.56.56,0,1,0,39,49a.57.57,0,0,0-.34-.72A.64.64,0,0,0,38.5,48.27Zm39.4.21-.13,0a.67.67,0,0,0-.48.82h0a.66.66,0,0,0,.82.48.67.67,0,0,0,.48-.82h0a.66.66,0,0,0-.62-.5Zm-6.23.12h0a.51.51,0,0,0-.17,0,.57.57,0,0,0-.33.72.56.56,0,0,0,.72.33.54.54,0,0,0,.33-.71h0A.55.55,0,0,0,71.67,48.6Zm-37.18.07a.63.63,0,0,0-.6.45.62.62,0,0,0,.43.76.62.62,0,1,0,.33-1.19Zm-8.66.1a.84.84,0,1,0,.15,0h-.15Zm49.86.34h0l-.12,0a.61.61,0,1,0,.31,1.19.61.61,0,0,0,.44-.75A.59.59,0,0,0,75.69,49.11Zm-34.63.09a.55.55,0,0,0-.51.37.56.56,0,0,0,.33.72h0A.57.57,0,0,0,41.6,50h0a.56.56,0,0,0-.33-.72h0A.64.64,0,0,0,41.06,49.2Zm43.27,0-.17,0a.85.85,0,0,0-.7,1h0A.86.86,0,1,0,85.15,50h0A.85.85,0,0,0,84.33,49.24Zm-55.82.08a.79.79,0,0,0-.13,1.56h0a.79.79,0,0,0,.27-1.55h-.14Zm8.22,0a.57.57,0,0,0-.54.41.56.56,0,0,0,.39.69h0a.56.56,0,0,0,.69-.39h0a.56.56,0,0,0-.39-.69Zm32.34.17a.35.35,0,0,0-.17,0,.54.54,0,0,0-.33.71.56.56,0,0,0,.71.34h0a.56.56,0,0,0,.33-.72h0A.56.56,0,0,0,69.07,49.53Zm4.36.2h-.15a.56.56,0,1,0,.68.41h0A.57.57,0,0,0,73.43,49.73Zm8.21.06-.16,0a.78.78,0,0,0,.27,1.54h0a.78.78,0,0,0,.63-.91h0A.78.78,0,0,0,81.64,49.79Zm-50.83,0a.72.72,0,1,0,.12,0h-.12Zm8.55.29a.56.56,0,0,0-.54.41.55.55,0,0,0,.39.69h0a.56.56,0,0,0,.69-.39h0a.56.56,0,0,0-.39-.69Zm40,.15h-.15a.73.73,0,0,0-.59.84.72.72,0,0,0,.84.59h0a.73.73,0,0,0,.59-.84h0A.73.73,0,0,0,79.34,50.24Zm-46.24,0a.65.65,0,0,0-.66.55.67.67,0,0,0,.54.78h0a.67.67,0,0,0,.78-.55h0a.67.67,0,0,0-.54-.77Zm37.65.14-.11,0a.55.55,0,0,0-.4.68h0a.56.56,0,1,0,1.08-.28A.57.57,0,0,0,70.75,50.42Zm6.27.26H76.9a.68.68,0,0,0-.54.78h0a.67.67,0,1,0,1.32-.23h0A.67.67,0,0,0,77,50.68Zm-41.63.07a.63.63,0,0,0-.61.51.62.62,0,0,0,.51.71h0a.61.61,0,0,0,.71-.5h0a.62.62,0,0,0-.5-.71Zm39.33.38h-.11a.61.61,0,0,0-.49.71.6.6,0,0,0,.71.5h0a.61.61,0,0,0-.11-1.22Zm-37,.1a.56.56,0,0,0-.1,1.11.57.57,0,0,0,.65-.45.56.56,0,0,0-.46-.65h-.09Zm-10.83.21a.79.79,0,0,0-.8.72.78.78,0,1,0,.86-.71Zm45.52.13h-.06a.57.57,0,0,0-.45.65h0A.56.56,0,1,0,73,52h0a.56.56,0,0,0-.53-.47Zm-32,.13a.57.57,0,0,0-.55.46.55.55,0,0,0,.45.65h0a.55.55,0,0,0,.65-.45.57.57,0,0,0-.45-.65Zm-11.19,0a.73.73,0,1,0,.71.8h0a.74.74,0,0,0-.66-.8h-.05ZM31.5,52a.68.68,0,0,0-.69.61.67.67,0,0,0,.61.73.66.66,0,0,0,.73-.6.67.67,0,0,0-.6-.74H31.5Zm38.24,0h-.1a.56.56,0,0,0-.46.64h0a.56.56,0,0,0,1.1-.2h0A.56.56,0,0,0,69.74,52.05Zm13.54.05H83.2a.79.79,0,0,0-.72.85h0a.78.78,0,0,0,.85.71.77.77,0,0,0,.71-.84A.78.78,0,0,0,83.28,52.1Zm-49.46.22a.62.62,0,1,0,.59.68.6.6,0,0,0-.55-.67h0Zm47.11,0h-.05a.73.73,0,0,0-.67.78h0A.73.73,0,1,0,81.66,53h0A.73.73,0,0,0,80.93,52.32Zm-2.31.23h-.06a.67.67,0,0,0-.62.72h0a.66.66,0,0,0,.72.61h0a.67.67,0,0,0,0-1.34Zm-42.54.06a.58.58,0,0,0-.52.51.56.56,0,0,0,.51.61h0a.56.56,0,1,0,.11-1.11h-.1Zm40.22.17h-.07a.61.61,0,0,0-.56.66.62.62,0,1,0,1.23-.1h0A.62.62,0,0,0,76.3,52.78Zm-37.51.09a.56.56,0,0,0,0,1.12h0a.56.56,0,1,0,.11-1.11h-.1ZM74,53h0a.57.57,0,0,0-.51.6h0a.56.56,0,0,0,.6.51h0a.56.56,0,0,0,.52-.6h0A.56.56,0,0,0,74,53Zm-2.71.22h0a.56.56,0,1,0,.6.51A.56.56,0,0,0,71.25,53.22Zm-45.92.7a.87.87,0,0,0-.86.86h0a.86.86,0,1,0,1.72,0,.85.85,0,0,0-.86-.86Zm2.73.08a.79.79,0,1,0,.78.78h0a.78.78,0,0,0-.78-.78Zm2.33.07a.73.73,0,1,0,.73.73h0a.73.73,0,0,0-.73-.73Zm2.33.07a.67.67,0,0,0-.67.68h0a.67.67,0,0,0,.67.67h0a.67.67,0,0,0,.67-.67h0A.67.67,0,0,0,32.72,54.14Zm2.34.08a.61.61,0,0,0-.62.61.62.62,0,0,0,.62.62.62.62,0,0,0,0-1.23Zm2.33.07a.56.56,0,0,0-.56.56h0a.56.56,0,0,0,.55.56h0a.56.56,0,0,0,.56-.56h0A.56.56,0,0,0,37.39,54.29Zm2.72,0a.56.56,0,0,0-.56.56h0a.56.56,0,0,0,.56.56h0a.56.56,0,0,0,.56-.56h0A.56.56,0,0,0,40.11,54.29ZM82,54.48a.79.79,0,0,0-.79.78h0a.79.79,0,0,0,.79.79.79.79,0,0,0,0-1.57Zm-2.33,0a.72.72,0,0,0-.73.72h0a.73.73,0,0,0,.72.73h0a.73.73,0,0,0,0-1.46Zm-2.34,0a.67.67,0,0,0-.67.67h0a.67.67,0,0,0,.67.67h0a.67.67,0,1,0,0-1.34ZM75,54.6a.61.61,0,0,0-.61.62.61.61,0,0,0,.61.61.61.61,0,0,0,.62-.61A.62.62,0,0,0,75,54.6Zm-5.06,0a.56.56,0,0,0-.56.56h0a.56.56,0,1,0,.56-.56Zm2.73,0a.56.56,0,0,0-.56.56h0a.56.56,0,1,0,.56-.56ZM38.82,55.71h-.06a.56.56,0,0,0-.51.6h0a.56.56,0,1,0,.57-.6Zm-2.73.22H36a.55.55,0,0,0-.51.6h0a.56.56,0,0,0,.6.52h0a.58.58,0,0,0,.52-.61h0A.56.56,0,0,0,36.09,55.93ZM33.78,56h-.07a.64.64,0,1,0,.07,0Zm37.44,0a.57.57,0,0,0-.57.51.56.56,0,0,0,.51.61h0a.56.56,0,1,0,.1-1.11Zm-39.77.1h-.07a.66.66,0,0,0-.61.72h0a.67.67,0,0,0,.72.62h0a.68.68,0,0,0,.62-.73h0A.69.69,0,0,0,31.45,56.15Zm-2.34.12h-.06a.71.71,0,0,0-.66.78h0a.73.73,0,0,0,1.45-.11h0A.72.72,0,0,0,29.11,56.27Zm44.83,0h0a.57.57,0,0,0-.57.51.55.55,0,0,0,.5.61h0a.56.56,0,0,0,.61-.5h0a.56.56,0,0,0-.5-.61Zm-47.14.07h-.08A.79.79,0,0,0,26.85,58h0a.79.79,0,0,0-.05-1.57Zm49.46.11a.62.62,0,0,0-.08,1.23h0a.62.62,0,0,0,.67-.55.63.63,0,0,0-.56-.68Zm2.32.18A.68.68,0,0,0,78.5,58h0a.67.67,0,0,0,.73-.61h0a.66.66,0,0,0-.6-.73Zm2.32.19a.72.72,0,0,0-.74.65.73.73,0,0,0,.65.8h0a.74.74,0,0,0,.8-.66h0a.72.72,0,0,0-.66-.79h0Zm-40.59,0h-.1A.56.56,0,0,0,40.4,58h0a.56.56,0,0,0-.1-1.11ZM83.22,57a.76.76,0,0,0-.79.7.78.78,0,0,0,.7.86.8.8,0,0,0,.86-.71.78.78,0,0,0-.71-.85Zm-13.54.19a.56.56,0,0,0-.56.46.58.58,0,0,0,.46.65.57.57,0,0,0,.65-.45.56.56,0,0,0-.45-.65h-.1Zm-32,.12h-.11a.57.57,0,0,0-.46.65.58.58,0,0,0,.65.46.57.57,0,0,0,.46-.65h0A.57.57,0,0,0,37.64,57.35Zm-2.31.33h-.11a.6.6,0,0,0-.5.71h0a.61.61,0,0,0,.71.5h0a.61.61,0,0,0,.5-.71h0A.62.62,0,0,0,35.33,57.68Zm37,0a.56.56,0,1,0,.55.66h0a.55.55,0,0,0-.45-.65ZM33,58h-.11a.67.67,0,0,0-.55.78h0a.68.68,0,0,0,.78.54h0A.67.67,0,0,0,33,58Zm41.64,0a.61.61,0,1,0,.6.72h0a.62.62,0,0,0-.5-.72Zm-43.92.28H30.6a.74.74,0,0,0-.59.85h0a.73.73,0,0,0,.84.59.73.73,0,0,0-.11-1.45ZM77,58.43a.66.66,0,0,0-.66.55.67.67,0,0,0,.54.78.66.66,0,0,0,.78-.54h0a.67.67,0,0,0-.54-.78H77Zm-37.67.08h0l-.11,0a.56.56,0,1,0,.68.4h0A.54.54,0,0,0,39.28,58.51Zm-10.83.18a.42.42,0,0,0-.16,0,.78.78,0,0,0-.64.9h0a.79.79,0,0,0,.91.63h0a.78.78,0,0,0-.11-1.55Zm50.8.1a.72.72,0,0,0-.72.6.73.73,0,0,0,.58.85h0a.73.73,0,0,0,.25-1.43Zm-8.56.05a.57.57,0,0,0-.54.41.56.56,0,0,0,.39.69h0a.56.56,0,0,0,.69-.39h0a.56.56,0,0,0-.39-.69h0Zm-44.93.24h-.17a.88.88,0,1,0,.17,0Zm55.78.08a.79.79,0,0,0-.78.65.78.78,0,0,0,.64.9h0a.78.78,0,0,0,.91-.63.79.79,0,0,0-.64-.91h-.13Zm-44.9,0h0l-.11,0a.56.56,0,0,0,.28,1.08.55.55,0,0,0,.4-.68A.57.57,0,0,0,36.64,59.19Zm4.29.21a.47.47,0,0,0-.17,0,.57.57,0,0,0-.34.72h0a.56.56,0,0,0,.72.33h0a.56.56,0,0,0-.21-1.08Zm43.29.15a.86.86,0,0,0-.85.71.88.88,0,0,0,.7,1h0a.86.86,0,0,0,.3-1.7Zm-10.9,0a.54.54,0,0,0-.54.41.55.55,0,0,0,.39.68.56.56,0,0,0,.69-.38h0a.56.56,0,0,0-.39-.69h0A.39.39,0,0,0,73.32,59.57Zm-38.94.14h0l-.13,0a.62.62,0,0,0-.44.75h0a.62.62,0,0,0,.75.44.61.61,0,0,0,.44-.75A.59.59,0,0,0,34.38,59.71Zm34.58,0a.55.55,0,0,0-.51.37.56.56,0,0,0,.33.72h0a.57.57,0,0,0,.72-.34.56.56,0,0,0-.33-.72h0Zm6.6.42a.6.6,0,0,0-.59.45.62.62,0,0,0,.43.76h0a.62.62,0,0,0,.75-.43h0a.61.61,0,0,0-.43-.75A.44.44,0,0,0,75.56,60.15Zm-43.44.07h0l-.13,0a.68.68,0,1,0,.82.49h0A.68.68,0,0,0,32.12,60.22Zm6.24.11a.45.45,0,0,0-.16,0,.57.57,0,0,0-.34.72h0a.56.56,0,0,0,.71.34h0a.56.56,0,0,0-.22-1.09Zm33.16.33a.56.56,0,0,0-.18,1.09h0a.57.57,0,0,0,.72-.34h0a.54.54,0,0,0-.33-.71A.52.52,0,0,0,71.52,60.66Zm6.28.07a.66.66,0,0,0-.64.49.68.68,0,0,0,.46.83h0a.67.67,0,0,0,.83-.47h0a.68.68,0,0,0-.46-.83h0a.62.62,0,0,0-.19,0Zm-47.94,0h-.05l-.15,0a.73.73,0,0,0-.52.89h0a.73.73,0,1,0,1.41-.37A.72.72,0,0,0,29.86,60.74Zm6.35.32h-.05a.57.57,0,0,0-.18,0,.62.62,0,0,0-.37.79h0a.62.62,0,0,0,.79.37h0a.62.62,0,0,0,.36-.79A.59.59,0,0,0,36.21,61.06Zm4,.12a.54.54,0,0,0-.21,0,.56.56,0,0,0-.28.74h0a.56.56,0,1,0,1-.46h0A.56.56,0,0,0,40.19,61.18Zm-12.59.07h-.06a.8.8,0,0,0-.15,0,.78.78,0,0,0-.56.95h0a.78.78,0,0,0,1.51-.39A.79.79,0,0,0,27.6,61.25Zm52.45.06a.73.73,0,0,0-.71.53.75.75,0,0,0,.51.9h0a.74.74,0,0,0,.9-.51h0a.73.73,0,0,0-.51-.9h0A.62.62,0,0,0,80.05,61.31Zm-6.34.11a.6.6,0,0,0-.57.4.62.62,0,0,0,.37.79h0a.62.62,0,0,0,.79-.36.61.61,0,0,0-.37-.79h0A.83.83,0,0,0,73.71,61.42Zm-4,.07a.6.6,0,0,0-.5.32.57.57,0,0,0,.27.75h0a.58.58,0,0,0,.75-.26h0a.56.56,0,0,0-.27-.74A.54.54,0,0,0,69.68,61.49ZM42,61.77a.52.52,0,0,0-.27.07.56.56,0,0,0-.2.77h0a.56.56,0,0,0,.76.2.56.56,0,0,0-.29-1Zm-8,0h0a.7.7,0,0,0-.59.91.68.68,0,0,0,.86.4h0a.67.67,0,0,0,.4-.86h0A.68.68,0,0,0,34,61.78Zm48.28.11a.77.77,0,0,0-.75.57.78.78,0,0,0,.54,1,.79.79,0,0,0,1-.55.78.78,0,0,0-.55-1A.76.76,0,0,0,82.29,61.89Zm-14.43.18h0a.59.59,0,0,0-.46.28.57.57,0,0,0,.21.77.56.56,0,0,0,.56-1A.5.5,0,0,0,67.86,62.07Zm8,.1a.68.68,0,0,0-.21,1.31h0a.67.67,0,0,0,.46-1.26h0A1,1,0,0,0,75.89,62.17Zm-38.18.15a.41.41,0,0,0-.21,0,.56.56,0,0,0-.28.74h0a.57.57,0,0,0,.74.28h0a.57.57,0,0,0,.28-.75h0A.55.55,0,0,0,37.71,62.32Zm-5.95.19a.8.8,0,0,0-.21.05.72.72,0,0,0,.5,1.36h0a.71.71,0,0,0,.43-.93h0A.74.74,0,0,0,31.76,62.51Zm40.38.15a.57.57,0,0,0-.49.32.55.55,0,0,0,.26.75h0a.57.57,0,0,0,.75-.27.56.56,0,0,0-.27-.74A.54.54,0,0,0,72.14,62.66Zm5.94.27a.74.74,0,0,0-.67.48.72.72,0,0,0,.43.93h0a.73.73,0,0,0,.94-.43h0a.74.74,0,0,0-.44-.94h0A.75.75,0,0,0,78.08,62.93Zm-38.43.2a.6.6,0,0,0-.27.07.56.56,0,0,0-.2.77.54.54,0,0,0,.76.2.56.56,0,0,0,.21-.76A.58.58,0,0,0,39.65,63.13Zm-4.07.09a.59.59,0,0,0-.23.05.62.62,0,1,0,.51,1.12h0a.62.62,0,0,0,.3-.82A.61.61,0,0,0,35.58,63.22Zm-6,0h-.05a.85.85,0,0,0-.23,0,.79.79,0,1,0,1,.47A.78.78,0,0,0,29.62,63.24Zm40.56.2a.54.54,0,0,0-.46.28.56.56,0,0,0,.21.76.55.55,0,0,0,.76-.2h0a.56.56,0,0,0-.2-.77h0A.55.55,0,0,0,70.18,63.44Zm4,.19a.61.61,0,0,0-.54.35.62.62,0,0,0,.3.82h0a.62.62,0,0,0,.53-1.12h0A.58.58,0,0,0,74.23,63.63Zm-32.63,0a.63.63,0,0,0-.32.1.57.57,0,0,0-.14.78h0a.56.56,0,0,0,.78.14.55.55,0,0,0,.14-.77h0A.56.56,0,0,0,41.6,63.65Zm38.66,0A.78.78,0,0,0,80,65.21h0a.79.79,0,0,0,1-.47h0a.77.77,0,0,0-.47-1h0A.92.92,0,0,0,80.26,63.69Zm-36.77.22a.59.59,0,0,0-.36.13.56.56,0,0,0-.07.79h0a.56.56,0,0,0,.79.07h0a.56.56,0,0,0,.07-.79h0A.58.58,0,0,0,43.49,63.91Zm24.73,0a.58.58,0,0,0-.43.24.56.56,0,0,0,.13.78h0a.56.56,0,1,0,.3-1ZM27,64.09a1,1,0,0,0-.25,0,.87.87,0,0,0-.52,1.11.86.86,0,0,0,1.11.51h0A.86.86,0,0,0,27,64.09Zm6.46,0a1.1,1.1,0,0,0-.26.06.67.67,0,1,0,.89.34A.69.69,0,0,0,33.46,64.11Zm32.87.07h0a.64.64,0,0,0-.39.2.57.57,0,0,0,.07.79.56.56,0,0,0,.72-.86A.59.59,0,0,0,66.33,64.18Zm-28.71,0a.6.6,0,0,0-.29.08.61.61,0,0,0-.23.84h0a.6.6,0,0,0,.84.22.61.61,0,0,0,.23-.84h0A.63.63,0,0,0,37.62,64.23Zm45.2.31a.86.86,0,0,0-.79.57.87.87,0,0,0,.52,1.11h0a.86.86,0,0,0,1.1-.52h0a.86.86,0,0,0-.51-1.11h0A1.13,1.13,0,0,0,82.82,64.54Zm-10.63,0a.61.61,0,0,0-.5.31.62.62,0,0,0,.22.84.61.61,0,0,0,.84-.23.62.62,0,0,0-.22-.84A.57.57,0,0,0,72.19,64.56Zm4.14,0a.64.64,0,0,0-.58.38.67.67,0,0,0,.31.89.68.68,0,0,0,.9-.31h0a.67.67,0,0,0-.32-.89A.66.66,0,0,0,76.33,64.59Zm-45,.42a.68.68,0,0,0-.28.07.71.71,0,0,0-.36,1h0a.72.72,0,0,0,1.32-.6h0A.72.72,0,0,0,31.33,65Zm8,.19a.51.51,0,0,0-.32.1.56.56,0,0,0-.15.78h0a.56.56,0,0,0,.78.14h0a.56.56,0,0,0,.14-.78h0A.57.57,0,0,0,39.36,65.2Zm-3.77.12a.73.73,0,0,0-.32.09.67.67,0,0,0-.24.92h0a.66.66,0,0,0,.91.24.67.67,0,0,0,.25-.91A.69.69,0,0,0,35.59,65.32Zm34.85.2a.54.54,0,0,0-.43.23.56.56,0,0,0,.13.78.57.57,0,0,0,.79-.13h0a.55.55,0,0,0-.14-.78h0A.53.53,0,0,0,70.44,65.52Zm8,0a.74.74,0,0,0-.64.42.73.73,0,0,0,.35,1h0a.73.73,0,0,0,1-.34h0a.72.72,0,0,0-.35-1h0A.73.73,0,0,0,78.43,65.54Zm-37,.13a.53.53,0,0,0-.36.13.56.56,0,1,0,.72.85.55.55,0,0,0-.36-1Zm32.85,0h0a.66.66,0,0,0-.55.34.67.67,0,0,0,.24.92h0a.67.67,0,0,0,.91-.25h0a.67.67,0,0,0-.24-.92A.9.9,0,0,0,74.25,65.68Zm-28.94.09h-.05a.64.64,0,0,0-.39.2.58.58,0,0,0,.07.79.56.56,0,0,0,.79-.07h0a.57.57,0,0,0-.06-.79A.59.59,0,0,0,45.31,65.77Zm-1.9.07a.56.56,0,1,0,.39.17A.61.61,0,0,0,43.41,65.84Zm-14.21.07a.73.73,0,0,0-.3.07.78.78,0,0,0-.39,1h0a.78.78,0,0,0,1,.39h0a.79.79,0,0,0,.38-1h0A.78.78,0,0,0,29.2,65.91Zm39.22,0h0a.56.56,0,0,0-.32,1,.57.57,0,0,0,.79-.06.56.56,0,0,0-.07-.79h0A.54.54,0,0,0,68.42,65.93Zm-4,.07a.59.59,0,0,0-.36.13.58.58,0,0,0-.07.79.56.56,0,1,0,.86-.72A.54.54,0,0,0,64.47,66Zm1.93.09h0a.52.52,0,0,0-.35.16.56.56,0,1,0,.78.8.56.56,0,0,0,0-.8h0A.58.58,0,0,0,66.4,66.09Zm-32.84.33a.67.67,0,0,0-.34.1.73.73,0,1,0,.72,1.26.73.73,0,0,0,.27-1A.71.71,0,0,0,33.56,66.42Zm3.87,0a.61.61,0,0,0-.35.11.62.62,0,0,0-.16.86h0a.62.62,0,0,0,.86.16.61.61,0,0,0,.15-.86A.6.6,0,0,0,37.43,66.45Zm43.1.06a.78.78,0,0,0-.69.44.79.79,0,1,0,1-.37h0A.77.77,0,0,0,80.53,66.51Zm-4.27.3h-.05a.74.74,0,0,0-.6.36.72.72,0,0,0,.27,1,.71.71,0,0,0,1-.26.72.72,0,0,0-.26-1h0A.73.73,0,0,0,76.26,66.81Zm-3.89,0h0a.61.61,0,1,0,.53,1h0a.61.61,0,0,0-.14-.86h0A.7.7,0,0,0,72.37,66.82ZM26.78,67a.8.8,0,0,0-.33.08.86.86,0,1,0,.72,1.56A.86.86,0,0,0,26.78,67Zm12.83.15a.63.63,0,0,0-.4.14.61.61,0,1,0,.79.94h0a.61.61,0,0,0-.39-1.08Zm7.82.19h0a.56.56,0,0,0-.25,1,.55.55,0,0,0,.76-.2h0a.57.57,0,0,0-.2-.77A.64.64,0,0,0,47.43,67.29Zm22.78.1a.64.64,0,0,0-.48.22.62.62,0,0,0,.07.87h0a.62.62,0,0,0,.87-.08h0a.62.62,0,0,0-.08-.87h0A.57.57,0,0,0,70.21,67.39Zm-7.9.07a.61.61,0,0,0-.26.08.56.56,0,0,0-.21.76h0a.58.58,0,0,0,.77.2.56.56,0,0,0,.2-.76h0A.58.58,0,0,0,62.31,67.46Zm-30.78.05A.79.79,0,1,0,31.94,69a.78.78,0,0,0,.29-1.07h0A.8.8,0,0,0,31.53,67.51Zm51.4,0a.87.87,0,0,0-.75.49.86.86,0,0,0,.4,1.15.87.87,0,0,0,1.15-.41h0a.86.86,0,0,0-.4-1.15h0A.8.8,0,0,0,82.93,67.56Zm-37.41.13a.56.56,0,0,0-.42.24.56.56,0,0,0,.91.64.56.56,0,0,0-.13-.78h0A.56.56,0,0,0,45.52,67.69Zm-10,0a.7.7,0,0,0-.38.11.68.68,0,0,0-.18.94h0a.68.68,0,0,0,.94.17h0a.67.67,0,0,0,.17-.93h0A.62.62,0,0,0,35.5,67.71Zm6,.05h0a.5.5,0,0,0-.35.16.56.56,0,0,0,0,.79h0a.56.56,0,0,0,.79,0h0a.57.57,0,0,0,0-.8h0A.51.51,0,0,0,41.46,67.76Zm2,.1a.56.56,0,0,0-.32,1h0a.56.56,0,0,0,.79-.07.57.57,0,0,0-.06-.79h0a.53.53,0,0,0-.34-.13Zm20.7,0a.55.55,0,0,0-.46.87h0a.56.56,0,1,0,.92-.63h0A.51.51,0,0,0,64.21,67.89Zm14.06,0h0a.77.77,0,0,0-.64.39.78.78,0,0,0,1.35.79h0A.78.78,0,0,0,78.65,68h0A.86.86,0,0,0,78.27,67.93Zm-9.94.1a.57.57,0,0,0-.41.16.56.56,0,0,0,0,.79.56.56,0,0,0,.79,0,.56.56,0,0,0,0-.79A.52.52,0,0,0,68.33,68Zm-2.1.06a.53.53,0,0,0-.36.13.57.57,0,0,0-.08.79h0a.55.55,0,0,0,.78.07.56.56,0,0,0,.07-.79h0A.53.53,0,0,0,66.23,68.09Zm8,0a.7.7,0,0,0-.52.28.68.68,0,0,0,.16.94h0a.67.67,0,0,0,.94-.15h0a.67.67,0,0,0-.16-.93.66.66,0,0,0-.36-.13Zm-24.47.28a.59.59,0,0,0-.52.37.57.57,0,0,0,.34.72h0a.54.54,0,0,0,.71-.33h0a.56.56,0,0,0-.33-.72A.71.71,0,0,0,49.75,68.41Zm-11.94.12a.66.66,0,0,0-.43.15.67.67,0,0,0-.09.95h0a.68.68,0,0,0,1,.09h0a.67.67,0,0,0,.08-.94h0A.64.64,0,0,0,37.81,68.53Zm22.12,0-.16,0a.56.56,0,0,0-.34.72h0a.56.56,0,0,0,.72.33h0a.56.56,0,0,0-.22-1.09Zm-30.76.27a.75.75,0,0,0-.41.12.86.86,0,1,0,1.18.31h0A.86.86,0,0,0,29.17,68.8Zm42.82,0a.65.65,0,0,0-.53.24.67.67,0,0,0,.08.94h0a.67.67,0,1,0,.86-1A.66.66,0,0,0,72,68.85ZM33.56,69a.73.73,0,0,0-.4.13.72.72,0,0,0-.19,1,.73.73,0,0,0,1,.19.73.73,0,0,0,.19-1A.74.74,0,0,0,33.56,69Zm18.7.16a.56.56,0,0,0-.55.46.57.57,0,0,0,.45.65.56.56,0,0,0,.65-.46.55.55,0,0,0-.45-.64Zm-4.28,0a.56.56,0,0,0-.23,1.07h0a.57.57,0,0,0,.75-.26h0a.56.56,0,0,0-.26-.74h0A.51.51,0,0,0,48,69.13Zm9.46.05h-.1a.55.55,0,0,0-.45.65h0a.56.56,0,1,0,.55-.66Zm23.13,0a.85.85,0,0,0-.7.42.86.86,0,0,0,.31,1.18h0a.87.87,0,0,0,1.18-.32h0a.86.86,0,0,0-.31-1.18A.89.89,0,0,0,80.57,69.22Zm-18.84.06a.54.54,0,0,0-.22,0,.56.56,0,0,0-.28.74h0a.56.56,0,0,0,.74.28h0a.56.56,0,0,0,.27-.74h0A.55.55,0,0,0,61.73,69.28Zm-21.93,0a.58.58,0,0,0-.45.17.62.62,0,0,0,0,.87h0a.61.61,0,0,0,.87,0,.63.63,0,0,0,0-.87.64.64,0,0,0-.43-.18Zm15.05,0a.56.56,0,0,0-.56.56h0a.54.54,0,0,0,.56.55h0a.56.56,0,0,0,.56-.55.57.57,0,0,0-.56-.57Zm21.31.07H76.1a.76.76,0,0,0-.55.31.72.72,0,0,0,.17,1,.72.72,0,0,0,.84-1.18A.67.67,0,0,0,76.16,69.44Zm-34.1.14a.64.64,0,0,0-.49.22.62.62,0,0,0,.08.87.61.61,0,0,0,.79-.94h0A.66.66,0,0,0,42.06,69.58ZM70,69.64a.67.67,0,0,0-.44.18.62.62,0,0,0,0,.87.62.62,0,0,0,.88-.86h0A.63.63,0,0,0,70,69.64ZM46,69.65a.55.55,0,0,0-.46.28.56.56,0,0,0,1,.56h0a.57.57,0,0,0-.21-.77A.6.6,0,0,0,46,69.65Zm17.65.18a.5.5,0,0,0-.27.07.55.55,0,0,0-.2.76.56.56,0,0,0,.76.21.55.55,0,0,0,.2-.76A.53.53,0,0,0,63.68,69.83Zm4,0a.62.62,0,0,0-.39.14.61.61,0,0,0-.08.87h0a.63.63,0,0,0,.87.08h0a.62.62,0,0,0,.07-.87h0A.6.6,0,0,0,67.71,69.83ZM44,69.91h0a.57.57,0,0,0-.29,1h0a.56.56,0,0,0,.78-.13h0A.55.55,0,0,0,44.3,70,.52.52,0,0,0,44,69.91Zm-8,0a.73.73,0,1,0,.47,1.28A.72.72,0,0,0,36,70Zm-9.2.12a.87.87,0,0,0-.45.12.95.95,0,0,0,.94,1.65h0a1,1,0,0,0,.35-1.3h0A.94.94,0,0,0,26.81,70.08Zm23.84,0a.57.57,0,0,0-.54.41.56.56,0,0,0,.39.69.57.57,0,0,0,.69-.39h0a.56.56,0,0,0-.39-.69h0Zm15.11,0a.58.58,0,0,0-.32.1.56.56,0,1,0,.64.92.56.56,0,0,0-.32-1Zm-34.12.08a.85.85,0,0,0-.44.14.78.78,0,0,0,.88,1.3h0a.78.78,0,0,0,.19-1.09h0A.77.77,0,0,0,31.64,70.21Zm27.4,0-.11,0a.55.55,0,0,0-.4.68h0a.55.55,0,0,0,.68.4h0a.55.55,0,0,0,.4-.68h0A.57.57,0,0,0,59,70.22Zm14.71.08h-.06a.77.77,0,0,0-.5.26.73.73,0,0,0,1.12.94h0a.73.73,0,0,0-.09-1h0A.73.73,0,0,0,73.75,70.3Zm9.18.19a1,1,0,0,0-.77.48.94.94,0,0,0,.34,1.29h0a1,1,0,0,0,1.3-.34h0a1,1,0,0,0-.35-1.3h0A1,1,0,0,0,82.93,70.49Zm-29.48.16a.56.56,0,0,0-.07,1.12.56.56,0,0,0,.61-.5h0a.56.56,0,0,0-.5-.61h0Zm2.82,0h-.05a.58.58,0,0,0-.51.61h0a.56.56,0,1,0,.56-.61ZM78,70.75a.8.8,0,0,0-.6.33.78.78,0,0,0,.19,1.09h0A.77.77,0,0,0,78.67,72h0a.78.78,0,0,0-.18-1.09h0A.76.76,0,0,0,78,70.75Zm-39.86.14a.7.7,0,0,0-.49.2.67.67,0,0,0,0,1h0a.67.67,0,0,0,1,0h0a.68.68,0,0,0,0-1h0A.72.72,0,0,0,38.13,70.89ZM48.81,71a.55.55,0,0,0-.51.37.56.56,0,0,0,.33.71.55.55,0,0,0,.72-.33h0A.56.56,0,0,0,49,71,.76.76,0,0,0,48.81,71Zm12,.12a.45.45,0,0,0-.16,0,.57.57,0,0,0-.34.72h0a.56.56,0,0,0,1.06-.38A.57.57,0,0,0,60.86,71.1Zm10.7.16h0a.68.68,0,0,0-.43,1.15h0a.68.68,0,0,0,1,0h0a.68.68,0,0,0,0-1h0a.66.66,0,0,0-.48-.2Zm-31,0a.68.68,0,0,0-.45,1.19h0a.67.67,0,0,0,.86-1h0A.67.67,0,0,0,40.55,71.3Zm-6.33.09a.78.78,0,0,0-.51.18.79.79,0,0,0-.1,1.11h0a.79.79,0,0,0,1.11.09h0a.78.78,0,0,0,.09-1.1h0A.74.74,0,0,0,34.22,71.39Zm35,.18a.67.67,0,1,0,.51.24A.66.66,0,0,0,69.2,71.57Zm-22.39,0a.56.56,0,1,0,.52.81h0a.57.57,0,0,0-.27-.75h0A.54.54,0,0,0,46.81,71.59Zm-2,0a.63.63,0,0,0-.51.3.61.61,0,0,0,.23.84.62.62,0,0,0,.84-.22h0a.61.61,0,0,0-.23-.84h0A.56.56,0,0,0,44.85,71.61Zm-15.4,0a.84.84,0,0,0-.48.16A.85.85,0,0,0,28.75,73h0a.86.86,0,1,0,1.42-1h0A.86.86,0,0,0,29.45,71.65Zm13.12.1a.6.6,0,0,0-.46.25.62.62,0,0,0,1,.72h0a.62.62,0,0,0-.14-.86h0A.64.64,0,0,0,42.57,71.75Zm20.29,0a.54.54,0,0,0-.22,0,.56.56,0,1,0,.47,1h0a.56.56,0,0,0,.27-.75h0A.55.55,0,0,0,62.86,71.76Zm12.69,0a.74.74,0,0,0-.62.28.78.78,0,0,0,.09,1.1h0a.79.79,0,0,0,1.11-.09h0a.8.8,0,0,0-.1-1.11h0A.79.79,0,0,0,75.55,71.76Zm-10.72,0a.61.61,0,0,0-.3.08.62.62,0,1,0,.85.23h0A.62.62,0,0,0,64.83,71.8Zm-13,0a.56.56,0,0,0-.1,1.12h0a.56.56,0,0,0,.65-.46h0a.57.57,0,0,0-.45-.65h-.1Zm6.14.06h-.11a.56.56,0,0,0-.46.65h0A.56.56,0,0,0,58,73h0a.57.57,0,0,0-.08-1.12Zm9.14.14a.61.61,0,0,0-.35.11.62.62,0,0,0-.16.86h0a.62.62,0,0,0,.86.16h0a.62.62,0,0,0,.16-.86h0A.6.6,0,0,0,67.07,72Zm-12.22.1a.56.56,0,0,0-.56.56h0a.56.56,0,0,0,.56.56h0a.56.56,0,1,0,0-1.12Zm25.37.11h-.06a.84.84,0,0,0-.66.36.87.87,0,0,0,.2,1.2h0a.86.86,0,1,0,1-1.41h0A.83.83,0,0,0,80.22,72.21Zm-43.78.25h-.06a.76.76,0,0,0-.45.21.73.73,0,0,0,0,1h0a.73.73,0,0,0,1,0h0a.73.73,0,0,0,0-1h0A.74.74,0,0,0,36.44,72.46Zm13.48.3a.56.56,0,0,0-.15,1.1.56.56,0,0,0,.69-.39.55.55,0,0,0-.39-.69h0A.39.39,0,0,0,49.92,72.76Zm9.84.1h0l-.11,0A.56.56,0,1,0,59.89,74h0a.56.56,0,0,0,.41-.68h0A.56.56,0,0,0,59.76,72.86Zm13.45,0a.74.74,0,0,0-.53.21.73.73,0,0,0,0,1h0a.73.73,0,0,0,1,0h0a.73.73,0,0,0,0-1h0A.7.7,0,0,0,73.21,72.88ZM39,73a.75.75,0,0,0-.58.26.73.73,0,0,0,.09,1,.73.73,0,1,0,.94-1.12A.83.83,0,0,0,39,73Zm-6.91,0a.86.86,0,0,0-.67,1.42h0a.86.86,0,0,0,1.22.11h0a.87.87,0,0,0,.11-1.22h0A.86.86,0,0,0,32.13,73.06Zm15.87,0a.59.59,0,0,0-.56.4.61.61,0,1,0,.78-.37h0A.78.78,0,0,0,48,73.11Zm-20.79,0a.9.9,0,0,0-.53.16.95.95,0,0,0,1.07,1.57h0A1,1,0,0,0,28,73.55h0A1,1,0,0,0,27.21,73.14Zm34.43.1a.57.57,0,0,0-.18,0,.62.62,0,0,0-.37.79h0a.62.62,0,0,0,.79.36.61.61,0,0,0,.37-.79h0A.62.62,0,0,0,61.64,73.24Zm9,.07a.73.73,0,0,0-.56,1.2h0a.73.73,0,0,0,1,.08.72.72,0,0,0,.09-1A.69.69,0,0,0,70.69,73.31Zm-17.56.06h0a.55.55,0,1,0,.1,0Zm3.37,0h-.06a.57.57,0,0,0-.51.6.56.56,0,0,0,.6.52.57.57,0,0,0,.52-.6h0A.55.55,0,0,0,56.5,73.4Zm21.14,0a.86.86,0,0,0-.69.31A.85.85,0,0,0,77.06,75h0a.87.87,0,0,0,1.21-.11h0a.87.87,0,0,0-.1-1.22A.94.94,0,0,0,77.64,73.43Zm-34,.13a.68.68,0,0,0-.55.34.67.67,0,1,0,1.17.67h0a.68.68,0,0,0-.25-.92A.78.78,0,0,0,43.66,73.56Zm-2.41,0h0a.63.63,0,0,0-.51.28.67.67,0,0,0,.15.94h0a.68.68,0,0,0,.94-.16h0a.68.68,0,0,0-.16-.94h0A.64.64,0,0,0,41.25,73.58Zm4.54.06a.62.62,0,0,0-.25,1.17h0a.62.62,0,0,0,.53-1.11A.67.67,0,0,0,45.79,73.64Zm36.67,0H82.4a.95.95,0,0,0-.5,1.72,1,1,0,0,0,1.32-.22A1,1,0,0,0,83,73.86h0A1,1,0,0,0,82.46,73.69ZM66,73.77a.57.57,0,0,0-.32.09.68.68,0,0,0-.25.92.67.67,0,0,0,1.17-.67h0A.67.67,0,0,0,66,73.77Zm-2.17.06a.69.69,0,0,0-.24,0,.62.62,0,0,0-.3.82h0a.62.62,0,0,0,.82.31h0a.63.63,0,0,0,.3-.82A.62.62,0,0,0,63.81,73.83Zm4.57,0A.64.64,0,0,0,68,74a.67.67,0,0,0-.18.93h0a.67.67,0,0,0,1.11-.76h0A.66.66,0,0,0,68.38,73.88ZM34.79,74a.79.79,0,0,0-.57.23.78.78,0,0,0,0,1.11h0a.79.79,0,0,0,1.11,0,.78.78,0,0,0,0-1.1A.81.81,0,0,0,34.79,74Zm16.58,0a.61.61,0,0,0-.11,1.22.61.61,0,0,0,.71-.5h0a.61.61,0,0,0-.5-.71Zm6.93.07h-.11a.62.62,0,0,0-.5.71h0a.62.62,0,0,0,.72.5h0a.61.61,0,0,0-.11-1.22Zm-3.47.27a.61.61,0,0,0-.61.61h0a.61.61,0,0,0,.61.62.62.62,0,0,0,.62-.62.61.61,0,0,0-.62-.61Zm20,.12a.74.74,0,0,0-.56.22.78.78,0,0,0,1.09,1.12h0a.79.79,0,0,0,0-1.11A.76.76,0,0,0,74.83,74.5ZM30,74.73a1,1,0,0,0-.61.22,1,1,0,0,0,1.22,1.46h0a.94.94,0,0,0,.11-1.33A.91.91,0,0,0,30,74.73Zm7.49,0a.77.77,0,0,0-.62.28A.79.79,0,0,0,37,76.13h0a.8.8,0,0,0,1.11-.1h0a.78.78,0,0,0-.1-1.1h0A.76.76,0,0,0,37.53,74.74ZM49.29,75a.61.61,0,1,0,.16,0h0A.44.44,0,0,0,49.29,75Zm22.88.1a.77.77,0,0,0-.5.18.79.79,0,0,0-.1,1.11h0a.79.79,0,0,0,1.1.1h0a.78.78,0,0,0,.09-1.1h0A.78.78,0,0,0,72.17,75.05Zm-11.84,0h0l-.12,0a.61.61,0,1,0,.75.44A.63.63,0,0,0,60.33,75.06Zm19.4,0a.94.94,0,0,0-.76.34,1,1,0,1,0,1.34-.12h0A.89.89,0,0,0,79.73,75.1Zm-32.54.14a.67.67,0,0,0-.22,1.3h0a.67.67,0,0,0,.86-.4h0a.66.66,0,0,0-.4-.86h0A.51.51,0,0,0,47.19,75.24Zm15.23.14a.65.65,0,0,0-.19,0,.68.68,0,0,0-.41.86.67.67,0,0,0,.86.4h0a.67.67,0,0,0-.27-1.3Zm-22.53,0h0a.72.72,0,1,0,.46.13h0A.75.75,0,0,0,39.89,75.41Zm2.64.11h-.05a.74.74,0,0,0-.6.36.72.72,0,0,0,.27,1,.71.71,0,0,0,1-.26h0a.71.71,0,0,0-.61-1.09ZM53,75.63a.61.61,0,0,0-.62.56.6.6,0,0,0,.55.67h0A.62.62,0,0,0,53,75.63Zm3.7,0h0a.62.62,0,0,0-.57.66h0a.62.62,0,0,0,1.23-.1h0A.61.61,0,0,0,56.65,75.67Zm-11.88,0a.7.7,0,0,0-.59.38.69.69,0,0,0,.32.9.67.67,0,0,0,.9-.32.66.66,0,0,0-.32-.89h0A.67.67,0,0,0,44.77,75.68Zm22.36.06a.74.74,0,0,0-.35.1.72.72,0,0,0-.27,1h0a.72.72,0,0,0,1,.27h0a.72.72,0,0,0,.27-1h0A.74.74,0,0,0,67.13,75.74Zm2.56,0a.77.77,0,0,0-.42.13.73.73,0,0,0,.83,1.2h0a.73.73,0,0,0-.41-1.33Zm-36.79.08a.81.81,0,0,0-.62.25.85.85,0,0,0,0,1.21.86.86,0,0,0,1.22,0,.87.87,0,0,0,0-1.22A.84.84,0,0,0,32.9,75.83Zm31.87.07a.66.66,0,0,0-.27.06.68.68,0,0,0-.33.89h0a.66.66,0,0,0,.89.33h0a.67.67,0,0,0,.34-.89A.68.68,0,0,0,64.77,75.9ZM51,76.28a.67.67,0,0,0-.12,1.33h0a.67.67,0,0,0,.78-.54h0a.67.67,0,0,0-.55-.78H51Zm25.76,0a.91.91,0,0,0-.63.25.86.86,0,0,0,1.21,1.23.86.86,0,0,0,0-1.22A.89.89,0,0,0,76.71,76.3Zm-18,0h-.13a.67.67,0,0,0-.55.78h0a.67.67,0,0,0,.78.54.67.67,0,0,0-.1-1.33Zm-30.94.19a1.06,1.06,0,0,0-.68.25,1,1,0,1,0,1.48.12h0A1,1,0,0,0,27.77,76.54Zm27.05.11a.68.68,0,0,0-.68.67h0a.68.68,0,0,0,.67.68h0a.67.67,0,0,0,.67-.68h0A.67.67,0,0,0,54.82,76.65Zm-19,.1a.84.84,0,0,0-.68.31.86.86,0,0,0,.1,1.21A.86.86,0,1,0,36.31,77,.94.94,0,0,0,35.78,76.75ZM82,76.91a1.06,1.06,0,0,0-.83.37,1,1,0,0,0,.13,1.47h0a1,1,0,0,0,1.47-.13h0a1,1,0,0,0-.13-1.47h0A1.05,1.05,0,0,0,82,76.91Zm-8.07.15a.86.86,0,1,0,.55,1.52.86.86,0,0,0,.1-1.21A.83.83,0,0,0,73.93,77.06Zm-25.28.08a.68.68,0,0,0-.65.49.68.68,0,0,0,.47.82A.67.67,0,0,0,49.3,78a.68.68,0,0,0-.47-.82A.55.55,0,0,0,48.65,77.14Zm-10.12.11h-.06a.77.77,0,0,0-.6.33.79.79,0,0,0,1.28.91.79.79,0,0,0-.18-1.1h0A.77.77,0,0,0,38.53,77.25Zm22.33,0-.14,0a.67.67,0,1,0,.82.48h0a.66.66,0,0,0-.62-.5Zm-14.49.1a.72.72,0,0,0-.67.48.73.73,0,1,0,.94-.44A.63.63,0,0,0,46.37,77.37Zm-5.07.1a.82.82,0,0,0-.65.39.79.79,0,0,0,.29,1.07.78.78,0,0,0,.79-1.35A.81.81,0,0,0,41.3,77.47Zm21.9,0a.78.78,0,0,0-.21,0,.74.74,0,0,0-.44.93h0a.73.73,0,0,0,.94.43h0a.73.73,0,0,0,.43-.93A.74.74,0,0,0,63.2,77.52Zm7.8.1a.8.8,0,0,0-.45.14.78.78,0,0,0-.2,1.09h0a.79.79,0,0,0,1.09.21h0a.78.78,0,0,0,.2-1.09A.78.78,0,0,0,71,77.62Zm-40,.06a.95.95,0,0,0-.7,1.61h0a1,1,0,0,0,1.34,0h0a.94.94,0,0,0,0-1.34h0A.88.88,0,0,0,31,77.68Zm37.31,0a.87.87,0,0,0-.38.11.78.78,0,0,0-.28,1.07h0A.79.79,0,1,0,69,78.1.82.82,0,0,0,68.28,77.71Zm-24.53,0a.72.72,0,0,0-.63.42.73.73,0,0,0,1.31.63h0a.73.73,0,0,0-.34-1h0A1,1,0,0,0,43.75,77.72Zm9,.17a.68.68,0,0,0-.08,1.35h0a.67.67,0,0,0,.73-.61.66.66,0,0,0-.6-.73h-.05Zm4.12,0h-.07a.68.68,0,0,0-.62.72h0a.66.66,0,0,0,.72.61h0a.67.67,0,0,0,0-1.34Zm8.88,0a.89.89,0,0,0-.28.07.71.71,0,0,0-.36,1h0a.72.72,0,1,0,1.32-.6h0A.72.72,0,0,0,65.72,78Zm12.92.19a.92.92,0,0,0-.68.27,1,1,0,0,0,0,1.34h0a.95.95,0,1,0,1.35-1.33h0A.92.92,0,0,0,78.64,78.16Zm-28.11.36a.73.73,0,1,0,.71.85h0a.72.72,0,0,0-.59-.84h-.12Zm8.57.07H59a.74.74,0,0,0-.59.85h0a.73.73,0,0,0,.84.59h0a.73.73,0,0,0-.11-1.45ZM34,78.75a1,1,0,0,0-.75.34,1,1,0,0,0,.11,1.34h0a.94.94,0,0,0,1.34-.12h0A.94.94,0,0,0,34.61,79,1,1,0,0,0,34,78.75Zm20.77.18a.73.73,0,0,0-.73.72h0a.73.73,0,0,0,.73.73h0a.74.74,0,0,0,.73-.73h0A.73.73,0,0,0,54.8,78.93Zm20.88.13a.91.91,0,0,0-.61.23A.94.94,0,0,0,75,80.62.95.95,0,1,0,76.4,79.4h0A1,1,0,0,0,75.68,79.06ZM48,79.32a.74.74,0,0,0-.7.54.72.72,0,0,0,.51.89.73.73,0,0,0,.9-.5h0a.72.72,0,0,0-.51-.89h0A.64.64,0,0,0,48,79.32Zm-11,0h-.06a.84.84,0,0,0-.66.35.86.86,0,1,0,1.2-.2h0A.92.92,0,0,0,37,79.34Zm24.48.13h-.06l-.14,0a.73.73,0,0,0-.52.89h0a.73.73,0,1,0,.72-.92Zm-15.92,0a.78.78,0,0,0-.72.51.78.78,0,1,0,1-.47A.66.66,0,0,0,45.56,79.5ZM64,79.66H64a1,1,0,0,0-.23,0,.78.78,0,0,0-.47,1h0a.79.79,0,0,0,1,.47h0a.78.78,0,0,0,.47-1h0A.79.79,0,0,0,64,79.66Zm8.47.07a.83.83,0,0,0-.48.15.85.85,0,0,0-.22,1.2h0a.86.86,0,0,0,1.42-1h0A.86.86,0,0,0,72.51,79.73ZM40,79.75h-.06a.87.87,0,0,0-.39,1.62h0a.88.88,0,0,0,1.18-.32h0a.87.87,0,0,0-.32-1.18A.93.93,0,0,0,40,79.75Zm2.75,0a.78.78,0,0,0-.32,1.49h0a.79.79,0,0,0,.68-1.42A.77.77,0,0,0,42.74,79.77Zm26.9.22a1,1,0,0,0-.41.12.86.86,0,1,0,.86,1.5h0a.85.85,0,0,0,.32-1.17h0A.87.87,0,0,0,69.64,80Zm-3,.05a1,1,0,0,0-.3.07.78.78,0,0,0-.39,1h0a.78.78,0,0,0,1,.39h0a.79.79,0,0,0,.39-1A.81.81,0,0,0,66.67,80Zm-14.21.12h-.05a.74.74,0,0,0-.67.66.73.73,0,0,0,.66.79.72.72,0,0,0,.79-.65.74.74,0,0,0-.66-.8Zm4.55,0h-.07a.73.73,0,0,0-.67.79.71.71,0,0,0,.78.66h0a.73.73,0,0,0,0-1.45Zm-6.9.54a.79.79,0,0,0-.78.65.78.78,0,0,0,.63.91h0a.79.79,0,0,0,.91-.63h0a.78.78,0,0,0-.64-.9Zm9.36.09h-.14a.78.78,0,0,0-.63.91h0a.78.78,0,0,0,.91.63h0a.77.77,0,0,0,.63-.9h0A.77.77,0,0,0,59.47,80.84Zm-27.34.09a1,1,0,0,0-.71,1.84h0a1,1,0,0,0,1.47-.12h0a1,1,0,0,0-.13-1.47A1.09,1.09,0,0,0,32.13,80.93Zm22.6.28a.78.78,0,0,0,.05,1.56h0a.78.78,0,0,0,.78-.78h0a.78.78,0,0,0-.78-.78Zm22.86,0a1.06,1.06,0,0,0-.68.25,1,1,0,1,0,.68-.25Zm-42.16.26h-.07a.92.92,0,0,0-.72.4.94.94,0,0,0,.22,1.32A1,1,0,0,0,36,81.67.9.9,0,0,0,35.43,81.5Zm12,0a.78.78,0,0,0-.21,1.54h0a.78.78,0,0,0,1-.55.77.77,0,0,0-.54-1h0A.76.76,0,0,0,47.38,81.51ZM62,81.68l-.15,0a.79.79,0,0,0-.56,1h0a.78.78,0,0,0,.95.56h0A.78.78,0,0,0,62,81.68Zm12.09.2a1,1,0,0,0-.54.17,1,1,0,0,0-.24,1.32h0a1,1,0,0,0,1.32.25h0a1,1,0,0,0,.25-1.32h0A1,1,0,0,0,74.08,81.88ZM44.62,82a.87.87,0,0,0-.79.57.86.86,0,0,0,.52,1.1.85.85,0,0,0,1.1-.51A.86.86,0,0,0,44.94,82h0A.86.86,0,0,0,44.62,82Zm-6,0h-.07a1,1,0,0,0-.78.48.95.95,0,1,0,1.3-.35h0A.9.9,0,0,0,38.63,82Zm3,.06a.87.87,0,0,0-.76.49.86.86,0,0,0,.41,1.15h0a.86.86,0,0,0,1.15-.4h0A.87.87,0,0,0,42,82.18.89.89,0,0,0,41.61,82.09Zm23.3.06a.7.7,0,0,0-.25,0,.86.86,0,0,0-.52,1.1h0a.87.87,0,0,0,1.11.52h0a.86.86,0,0,0,.51-1.11h0A.86.86,0,0,0,64.91,82.15Zm6.09.12a.9.9,0,0,0-.45.13.95.95,0,1,0,1,1.64h0a1,1,0,0,0,.35-1.29h0A.93.93,0,0,0,71,82.27Zm-3.22.11a.93.93,0,0,0-.33.07A.88.88,0,0,0,67,83.6h0a.88.88,0,0,0,1.15.43h0a.88.88,0,0,0,.43-1.15h0A.86.86,0,0,0,67.78,82.38Zm-15.53,0a.79.79,0,0,0-.1,1.57h0a.79.79,0,0,0,.86-.71.78.78,0,0,0-.71-.85Zm4.93.06H57.1a.79.79,0,0,0-.72.85h0A.79.79,0,0,0,58,83.2h0A.79.79,0,0,0,57.18,82.48Zm-7.54.88a.88.88,0,0,0-.86.71.86.86,0,1,0,1.7.3h0a.87.87,0,0,0-.7-1h-.14Zm10.3.08h-.15a.86.86,0,0,0-.7,1h0a.87.87,0,0,0,1,.69.86.86,0,0,0-.15-1.71Z" style="fill:#18aceb"/><path id="4cdd8b20-883b-4ad5-8d53-26e140b82a19" data-name="nest logo" d="M59,56.28a.76.76,0,0,1,.5.68c0,.39-.29.62-.78.62a.94.94,0,0,1-.83-.61l-.08-.17H56A1.58,1.58,0,0,1,53,56h4.27v-.18a4.07,4.07,0,0,0-.1-1,1.74,1.74,0,0,0,1,1.05l.87.4m-4.46-2.59A1.41,1.41,0,0,1,56,54.92H53.09a1.56,1.56,0,0,1,1.48-1.23m8.58,0V52.6h-.91V51.28H61.12V52.6H58.88a1.67,1.67,0,0,0-1.79,1.67,1.87,1.87,0,0,0,0,.34,2.58,2.58,0,0,0-2.54-2,2.85,2.85,0,0,0-2.8,2.83v-.35a2.47,2.47,0,1,0-4.93,0v3.57H48V55.08a1.34,1.34,0,1,1,2.67,0v3.57h1.13V55.88a2.87,2.87,0,0,0,2.83,2.84,2.91,2.91,0,0,0,2.26-1.2,2,2,0,0,0,1.89,1.2,1.87,1.87,0,0,0,2-1.85,1.83,1.83,0,0,0-1.18-1.68l-.25-.12h0L59,54.94c-.5-.23-.74-.39-.74-.72a.54.54,0,0,1,.58-.51h2.24v3.18a1.83,1.83,0,0,0,1.82,1.83V57.59a.7.7,0,0,1-.7-.7V53.71h.91" style="fill:#25a9e0"/></g></g></svg>