<svg xmlns="http://www.w3.org/2000/svg" viewBox="0 0 110 110"><title>Outlet</title><g id="0b0fb180-2359-44c3-93c2-535a02a0add1" data-name="Layer 2"><g id="3a911ce7-aac5-4453-8f2b-1a3382e54fbc" data-name="Layer 1"><circle cx="55" cy="55" r="52.5" style="fill:#44474e"/><path d="M55,5A50,50,0,1,1,5,55,50,50,0,0,1,55,5m0-5a55,55,0,1,0,55,55A55.06,55.06,0,0,0,55,0Z" style="fill:#28292d"/><g id="cf10e209-5e6a-4803-bdcb-5c8d2898cc10" data-name="&lt;Group&gt;"><path d="M100,54.2a.81.81,0,0,1,.81.8A45.89,45.89,0,0,1,55,100.85a.81.81,0,0,1,0-1.61A44.28,44.28,0,0,0,99.24,55,.82.82,0,0,1,100,54.2Z" style="fill:#18aceb"/><path d="M73.5,37.3v3.22a.8.8,0,0,1-.8.81H37.3a.81.81,0,0,1-.8-.81V37.3a.82.82,0,0,1,.8-.8H72.7A.8.8,0,0,1,73.5,37.3Z" style="fill:#18aceb"/><path d="M39.72,42.93V55.8A11.28,11.28,0,0,0,51,67.07h8A11.28,11.28,0,0,0,70.28,55.8V42.93Zm23.37,16.9H47a.81.81,0,0,1,0-1.61H63.09a.81.81,0,1,1,0,1.61Zm0-4.83H47a.8.8,0,0,1-.8-.8.82.82,0,0,1,.8-.81H63.09a.81.81,0,0,1,.81.81A.8.8,0,0,1,63.09,55Zm4-4.83a.81.81,0,1,1-1.61,0V47.76H63a.8.8,0,0,1-.8-.8.82.82,0,0,1,.8-.81h3.22a.81.81,0,0,1,.81.81Z" style="fill:#18aceb"/><path d="M68.67,22.83V34.89H63.85V22.83a2.41,2.41,0,1,1,4.82,0Z" style="fill:#18aceb"/><path d="M59.83,9.15a.8.8,0,0,1,.8.81.79.79,0,0,1-.8.8H58.22a.8.8,0,0,1-.81-.8.82.82,0,0,1,.81-.81Z" style="fill:#18aceb"/><path d="M59,69.48v1.61a.79.79,0,0,1-.8.8H51.78a.8.8,0,0,1-.8-.8V69.48a.82.82,0,0,1,.8-.81h6.44A.8.8,0,0,1,59,69.48Z" style="fill:#18aceb"/><path d="M55,9.15a.8.8,0,0,1,.8.81.79.79,0,0,1-.8.8A44.3,44.3,0,0,0,10.76,55a.79.79,0,0,1-.8.8.8.8,0,0,1-.81-.8A45.92,45.92,0,0,1,55,9.15Z" style="fill:#18aceb"/><path d="M51.78,99.24a.81.81,0,1,1,0,1.61H50.17a.81.81,0,0,1,0-1.61Z" style="fill:#18aceb"/><path d="M46.15,22.83V34.89H41.33V22.83a2.41,2.41,0,1,1,4.82,0Z" style="fill:#18aceb"/></g><line x1="53.4" y1="90.4" x2="56.61" y2="90.4" style="fill:none"/><rect x="53.39" y="73.5" width="3.22" height="17.28" style="fill:#18aceb"/></g></g></svg>