<svg xmlns="http://www.w3.org/2000/svg" viewBox="0 0 110 110"><title>ReedSwithces</title><g id="f4d2243d-9e8c-40a9-9e96-6a8433581191" data-name="Layer 2"><g id="d65be14e-4ded-467d-82d7-2a78f878a776" data-name="Layer 1"><circle cx="55" cy="55" r="52.5" style="fill:#44474e"/><path d="M55,5A50,50,0,1,1,5,55,50,50,0,0,1,55,5m0-5a55,55,0,1,0,55,55A55.06,55.06,0,0,0,55,0Z" style="fill:#28292d"/><g id="459fafbf-49bb-40fc-93e1-319d29679c19" data-name="6i0Qzv.tif"><path d="M58.08,24.07a5,5,0,0,1,.61.31,1.27,1.27,0,0,1,.53,1,1.93,1.93,0,0,1,0,.24V84.33a1.88,1.88,0,0,1-.39,1.12,1.44,1.44,0,0,1-.76.48h-.67l-.09-.05-3.85-.76L44.94,83.4l-8.37-1.67a1.4,1.4,0,0,1-1.24-1.52V29.81a1.4,1.4,0,0,1,1.25-1.53l9.21-1.85,10.08-2,1.63-.35ZM53.61,59.22c0-.94,0-1.87,0-2.81a1.28,1.28,0,0,0-.68-1.23,1.5,1.5,0,0,0-1.53,0,1.35,1.35,0,0,0-.6,1.28v5.42a1.84,1.84,0,0,0,0,.41,1.24,1.24,0,0,0,.67.94A1.4,1.4,0,0,0,53.6,62C53.61,61.08,53.61,60.15,53.61,59.22Z" style="fill:#25a9e0"/><path d="M21.24,54.62a2.7,2.7,0,0,0,0-.28,38.79,38.79,0,0,1,1.77-11.47,27.81,27.81,0,0,1,1.5-3.72,2.24,2.24,0,0,1,.11-.22l2.48,1.22c-.2.47-.42.92-.61,1.38a29.54,29.54,0,0,0-1.75,5.89,38.48,38.48,0,0,0-.61,4.79,43.57,43.57,0,0,0,0,5.11,38.72,38.72,0,0,0,.72,5.77,28.17,28.17,0,0,0,2.18,6.55l.08.16v.07l-2.49,1.22c-.26-.6-.54-1.16-.78-1.75a33.73,33.73,0,0,1-2.1-7.71,42.18,42.18,0,0,1-.48-6.05,1.18,1.18,0,0,0,0-.2Z" style="fill:#25a9e0"/><path d="M88.76,56.17h0V53.82h0Z" style="fill:#25a9e0"/><path d="M60.64,81.72V78.91H71.86V31.11H60.65V28.3H73.11a1.42,1.42,0,0,1,1.54,1.13,1,1,0,0,1,0,.29V80.3a1.39,1.39,0,0,1-1.42,1.41H60.64Z" style="fill:#25a9e0"/><path d="M88.72,53.82v2.36a38,38,0,0,1-3.36,14.9l-2.54-1.22c.2-.47.4-.92.58-1.37a32.71,32.71,0,0,0,1.81-6.11,37.76,37.76,0,0,0,.71-8.49,38.31,38.31,0,0,0-1.14-8.52,27.3,27.3,0,0,0-1.82-5l-.1-.2,2.5-1.23c.19.41.39.8.56,1.2a32.11,32.11,0,0,1,2.14,7.1A41.69,41.69,0,0,1,88.72,53.82Z" style="fill:#25a9e0"/><path d="M77.94,67.85a35.89,35.89,0,0,0,0-25.69l2.54-1a33.83,33.83,0,0,1,2.39,9.41,37.2,37.2,0,0,1-2.39,18.34Z" style="fill:#25a9e0"/><path d="M29.54,41.13l2.53,1a35.89,35.89,0,0,0,0,25.69l-2.54,1a34,34,0,0,1-2.4-9.55A37,37,0,0,1,29.54,41.13Z" style="fill:#25a9e0"/></g></g></g></svg>