<svg xmlns="http://www.w3.org/2000/svg" viewBox="0 0 110 110"><title>RMPro433Mhz</title><g id="ef1ae27f-59e4-4855-afe0-07498f263d0f" data-name="Layer 2"><g id="b74803d0-ddc0-4d5b-85f4-c72fe24992b0" data-name="Layer 1"><circle cx="55" cy="55" r="52.5" style="fill:#44474e"/><path d="M55,5A50,50,0,1,1,5,55,50,50,0,0,1,55,5m0-5a55,55,0,1,0,55,55A55.06,55.06,0,0,0,55,0Z" style="fill:#28292d"/><g id="10407418-20c2-40a0-9dd8-5fd0ad80f07d" data-name="&lt;Group&gt;"><path d="M27.35,83.28h10v0a.63.63,0,0,0-.63.63v3.74a.63.63,0,0,1-.62.63H28.6a.63.63,0,0,1-.62-.63V83.94a.63.63,0,0,0-.63-.63Z" style="fill:#18aceb"/><path d="M72.6,83.28H82.65v0a.63.63,0,0,0-.63.63v3.74a.63.63,0,0,1-.62.63H73.85a.63.63,0,0,1-.62-.63V83.94a.63.63,0,0,0-.63-.63Z" style="fill:#18aceb"/><path d="M72.6,55.61a.63.63,0,0,0,.63.63v.64H69.46v-.64a.62.62,0,0,0,.62-.63V39.29a1.26,1.26,0,1,1,2.52,0Z" style="fill:#18aceb"/><path d="M77.62,70.71a1.89,1.89,0,1,1-1.88-1.89A1.89,1.89,0,0,1,77.62,70.71Z" style="fill:#18aceb"/><path d="M68.82,70.71a1.88,1.88,0,1,1-1.88-1.89A1.89,1.89,0,0,1,68.82,70.71Z" style="fill:#18aceb"/><path d="M55,69.46V72a.63.63,0,0,1-.63.63H30.49a.63.63,0,0,1-.63-.63V69.46a.64.64,0,0,1,.63-.64H54.37A.64.64,0,0,1,55,69.46Z" style="fill:#18aceb"/><path d="M89.57,63.79V76.37A5.67,5.67,0,0,1,83.91,82H26.09a5.67,5.67,0,0,1-5.66-5.65V63.79a5.67,5.67,0,0,1,5.66-5.65H83.91A5.67,5.67,0,0,1,89.57,63.79Zm-2.52,3.78V64.43a3.78,3.78,0,0,0-3.77-3.78H80.14a.64.64,0,0,0-.63.64.63.63,0,0,0,.63.62h3.14a2.51,2.51,0,0,1,2.51,2.52v3.14a.64.64,0,0,0,.64.63A.63.63,0,0,0,87.05,67.57Zm-8.17,3.14a3.14,3.14,0,1,0-3.14,3.14A3.15,3.15,0,0,0,78.88,70.71Zm-8.8,0a3.14,3.14,0,1,0-3.14,3.14A3.14,3.14,0,0,0,70.08,70.71ZM56.26,72V69.46a1.89,1.89,0,0,0-1.89-1.89H30.49a1.89,1.89,0,0,0-1.89,1.89V72a1.89,1.89,0,0,0,1.89,1.88H54.37A1.89,1.89,0,0,0,56.26,72Z" style="fill:#18aceb"/></g><path d="M74.45,33A.63.63,0,0,1,74,34.1a.66.66,0,0,1-.45-.18,3.13,3.13,0,0,0-4.44,0,.63.63,0,0,1-.89-.89A4.41,4.41,0,0,1,74.45,33Z" style="fill:#18aceb"/><path d="M64.67,29.48a9.43,9.43,0,0,1,13.33,0,.63.63,0,0,1-.88.89,8.18,8.18,0,0,0-11.56,0,.62.62,0,0,1-.89,0A.64.64,0,0,1,64.67,29.48Z" style="fill:#18aceb"/><path d="M61.12,26.81a.64.64,0,0,1,0-.89,14.46,14.46,0,0,1,20.44,0,.62.62,0,0,1,0,.89.6.6,0,0,1-.45.19.61.61,0,0,1-.44-.19,13.21,13.21,0,0,0-18.66,0A.62.62,0,0,1,61.12,26.81Z" style="fill:#18aceb"/></g></g></svg>