<svg xmlns="http://www.w3.org/2000/svg" viewBox="0 0 110 110"><title>SleepIQPresence</title><g id="08a007f8-016a-436a-8ab4-ac46ed4f5767" data-name="Layer 2"><g id="a7799031-4897-4f5f-9472-5264513867ce" data-name="Layer 1"><circle cx="55" cy="55" r="52.5" style="fill:#44474e"/><path d="M55,5A50,50,0,1,1,5,55,50,50,0,0,1,55,5m0-5a55,55,0,1,0,55,55A55.06,55.06,0,0,0,55,0Z" style="fill:#28292d"/><g id="33557c43-defb-4eb6-803a-6fe4e0f61b5f" data-name="wmaLZV"><path d="M55,17.3c-20.89,0-37.39,16.84-37.43,38.15,0,20.31,17,37.2,37.57,37.25S92.39,75.78,92.44,55A37.55,37.55,0,0,0,55,17.3ZM43.85,48c3.32-6.47,6.69-12.91,10-19.36.12-.23.33-.42.8-1.05,1.06,2,1.93,3.63,2.79,5.29,2.6,5,5.18,10.07,7.75,15.11,1.07,2.06.79,2.57-1.57,2.57q-9,.06-18.07,0C43.52,50.57,43,49.75,43.85,48ZM66.16,60.73q-4.94,9.74-10,19.38c-.26.51-.84.84-1.26,1.24A6.08,6.08,0,0,1,53.68,80Q48.81,70.74,44,61.41c-1.16-2.23-.49-3.21,2.07-3.23h9c3.16,0,6.32,0,9.47,0C66.51,58.22,67,59,66.16,60.73Z" style="fill:#18aceb"/><path d="M55,17.3c-20.89,0-37.39,16.84-37.43,38.15,0,20.31,17,37.2,37.57,37.25S92.39,75.78,92.44,55A37.55,37.55,0,0,0,55,17.3ZM43.85,48c3.32-6.47,6.69-12.91,10-19.36.12-.23.33-.42.8-1.05,1.06,2,1.93,3.63,2.79,5.29,2.6,5,5.18,10.07,7.75,15.11,1.07,2.06.79,2.57-1.57,2.57q-9,.06-18.07,0C43.52,50.57,43,49.75,43.85,48ZM66.16,60.73q-4.94,9.74-10,19.38c-.26.51-.84.84-1.26,1.24A6.08,6.08,0,0,1,53.68,80Q48.81,70.74,44,61.41c-1.16-2.23-.49-3.21,2.07-3.23h9c3.16,0,6.32,0,9.47,0C66.51,58.22,67,59,66.16,60.73Z" style="fill:#18aceb"/></g></g></g></svg>