<svg xmlns="http://www.w3.org/2000/svg" viewBox="0 0 110 110"><title>SmartBlubs</title><g id="7ffb69b3-bb98-4724-b67a-01af9a5e9f05" data-name="Layer 2"><g id="b4f86bdf-c8bd-4578-94d9-c71726f3df0f" data-name="Layer 1"><circle cx="55" cy="55" r="52.5" style="fill:#44474e"/><path d="M55,5A50,50,0,1,1,5,55,50,50,0,0,1,55,5m0-5a55,55,0,1,0,55,55A55.06,55.06,0,0,0,55,0Z" style="fill:#28292d"/><path id="60453414-33e4-475a-9ec7-4cfaa0806486" data-name="path" d="M55,21.56a22,22,0,0,0-22,22c0,8.48,5.24,14.85,8.36,17.89a20.62,20.62,0,0,1,3.9,5.84c.17.33.33.66.5,1H64.23c.16-.31.33-.64.49-1a21,21,0,0,1,3.91-5.84c3.13-3,8.37-9.4,8.37-17.89A22,22,0,0,0,55,21.56ZM59.2,50.63a6,6,0,0,0-8.41,0l-1.41-1.42a7.94,7.94,0,0,1,11.23,0Zm4.29-4.3a12,12,0,0,0-17,0l-1.42-1.41a14,14,0,0,1,19.83,0ZM67.79,42A18.11,18.11,0,0,0,42.2,42l-1.41-1.42a20.12,20.12,0,0,1,28.41,0Z" style="fill:#18aceb"/><path d="M64.24,73.14H45.75a1.5,1.5,0,0,0,0,3H64.24a1.5,1.5,0,0,0,0-3Zm0,5H45.75a1.5,1.5,0,0,0,0,3H64.24a1.5,1.5,0,0,0,0-3Zm0,5H45.75a1.5,1.5,0,1,0,0,3H64.24a1.5,1.5,0,0,0,0-3ZM55,18.56a25,25,0,0,0-25,25c0,9.59,5.8,16.67,9.27,20a18.09,18.09,0,0,1,3.31,5l.53,1a2.64,2.64,0,0,0,2.28,1.59H64.6a2.64,2.64,0,0,0,2.28-1.59l.52-1a18.32,18.32,0,0,1,3.32-5.05c3.47-3.37,9.28-10.45,9.28-20A25,25,0,0,0,55,18.56Zm14.69,44c-2,1.94-3.05,4.38-4.13,6.44-.2.38-.53.79-1,.79H45.39c-.43,0-.76-.41-1-.79-1.08-2.06-2.13-4.5-4.13-6.44-4.87-4.74-8.81-11.43-8.81-19a23.5,23.5,0,1,1,47,0C78.5,51.1,74.55,57.79,69.68,62.53Zm-20.2,26a6.75,6.75,0,0,0,11.06,0Z" style="fill:#18aceb"/></g></g></svg>