<svg xmlns="http://www.w3.org/2000/svg" viewBox="0 0 110 110"><title>Tesla</title><g id="da77139b-53c3-4b77-810c-468286675d2b" data-name="Layer 2"><g id="432b81ca-a312-4dab-a071-0b847b4ead61" data-name="Layer 1"><circle cx="55" cy="55" r="52.5" style="fill:#44474e"/><path d="M55,5A50,50,0,1,1,5,55,50,50,0,0,1,55,5m0-5a55,55,0,1,0,55,55A55.06,55.06,0,0,0,55,0Z" style="fill:#28292d"/><path d="M20.37,34.44c9.05-3.67,24-4.15,30.48-3.9L55,35.87l4.15-5.33c6.49-.25,21.43.23,30.48,3.9C88.38,36.81,83,40.19,80,40.94c-.17-4.67-6.77-5.64-13.09-5.64L55,99,43.13,35.3c-6.33,0-12.92,1-13.09,5.64-3-.75-8.43-4.13-9.67-6.5Zm-4.2-6.33,2.31,3.4c8.79-3.08,19.22-4.57,30.23-4.9,4.17-.13,8.41-.13,12.57,0,11,.33,21.44,1.82,30.23,4.9l2.32-3.4c-10.38-3.52-21.4-4.69-32.42-5-4.26-.11-8.56-.11-12.82,0-11,.28-22,1.45-32.42,5Z" style="fill:#25a9e0;fill-rule:evenodd"/></g></g></svg>