<svg xmlns="http://www.w3.org/2000/svg" viewBox="0 0 110 110"><title>WholeHouseTTS</title><g id="fe9900f4-5f5a-4c0f-a333-62329a272665" data-name="Layer 2"><g id="c04030b4-9c12-4943-90f4-2588925c2c35" data-name="Layer 1"><circle cx="55" cy="55" r="52.5" style="fill:#44474e"/><path d="M55,5A50,50,0,1,1,5,55,50,50,0,0,1,55,5m0-5a55,55,0,1,0,55,55A55.06,55.06,0,0,0,55,0Z" style="fill:#28292d"/><path id="79e60e57-3773-4664-9940-553e51ded3cc" data-name="icon" d="M53.77,86h0a1.23,1.23,0,0,1-1.22-1.23V57.45H55V84.77A1.23,1.23,0,0,1,53.77,86Zm16.35-6.82h0A1.22,1.22,0,0,1,68.9,78V57.45h2.45V78A1.23,1.23,0,0,1,70.12,79.18Zm-28.61-.27h0a1.22,1.22,0,0,1-1.22-1.22V57.45h2.45V77.69A1.23,1.23,0,0,1,41.51,78.91Zm-16.35,0h0a1.22,1.22,0,0,1-1.22-1.22V57.45h2.45V77.69A1.23,1.23,0,0,1,25.16,78.91ZM45.6,75.23h0A1.23,1.23,0,0,1,44.37,74V57.45h2.46V74A1.23,1.23,0,0,1,45.6,75.23Zm20.44-1h0A1.23,1.23,0,0,1,64.81,73V57.45h2.45V73A1.23,1.23,0,0,1,66,74.21Zm-28.62,0h0A1.23,1.23,0,0,1,36.2,73V57.45h2.45V73A1.23,1.23,0,0,1,37.42,74.21Zm40.88-2h0A1.23,1.23,0,0,1,77.07,71V57.45h2.45V71A1.22,1.22,0,0,1,78.3,72.24Zm8.17-.52h0a1.22,1.22,0,0,1-1.22-1.22v-13H87.7v13A1.22,1.22,0,0,1,86.47,71.72ZM29.25,70.26h0A1.23,1.23,0,0,1,28,69V57.45h2.46V69A1.23,1.23,0,0,1,29.25,70.26Zm-8.18,0h0A1.23,1.23,0,0,1,19.85,69V57.45H22.3V69A1.23,1.23,0,0,1,21.07,70.26Zm73.58-1.64h0a1.22,1.22,0,0,1-1.23-1.22v-10h2.45v10A1.22,1.22,0,0,1,94.65,68.62Zm-20.44-.74h0A1.23,1.23,0,0,1,73,66.65v-9.2h2.46v9.2A1.23,1.23,0,0,1,74.21,67.88Zm-16.35,0h0a1.23,1.23,0,0,1-1.23-1.23v-9.2h2.46v9.2A1.23,1.23,0,0,1,57.86,67.88Zm-8.17,0h0a1.23,1.23,0,0,1-1.23-1.23v-9.2h2.45v9.2A1.23,1.23,0,0,1,49.69,67.88Zm32.7-1.54h0a1.23,1.23,0,0,1-1.23-1.22V57.45h2.45v7.67A1.22,1.22,0,0,1,82.39,66.34Zm8.17-.51h0a1.23,1.23,0,0,1-1.23-1.22V57.45h2.46v7.16A1.23,1.23,0,0,1,90.56,65.83ZM17,65.83h0a1.23,1.23,0,0,1-1.23-1.22V57.45h2.45v7.16A1.22,1.22,0,0,1,17,65.83Zm45-3.17h0a1.23,1.23,0,0,1-1.23-1.22v-4h2.45v4A1.22,1.22,0,0,1,62,62.66Zm36.79-1h0a1.23,1.23,0,0,1-1.23-1.22v-3H100v3A1.22,1.22,0,0,1,98.74,61.64Zm-85.84-.1h0a1.23,1.23,0,0,1-1.23-1.23V57.45h2.46v2.86A1.23,1.23,0,0,1,12.9,61.54Zm20.44-.41h0a1.23,1.23,0,0,1-1.23-1.23V57.45h2.45V59.9A1.23,1.23,0,0,1,33.34,61.13ZM100,52.55H97.51v-3a1.23,1.23,0,0,1,1.23-1.22h0A1.22,1.22,0,0,1,100,49.58Zm-4.09,0H93.42V42.6a1.22,1.22,0,0,1,1.23-1.22h0a1.22,1.22,0,0,1,1.22,1.22Zm-4.08,0H89.33V45.39a1.23,1.23,0,0,1,1.23-1.22h0a1.23,1.23,0,0,1,1.23,1.22Zm-4.09,0H85.25v-13a1.22,1.22,0,0,1,1.22-1.22h0A1.22,1.22,0,0,1,87.7,39.5Zm-4.09,0H81.16V44.88a1.23,1.23,0,0,1,1.23-1.22h0a1.22,1.22,0,0,1,1.22,1.22Zm-4.09,0H77.07V39a1.23,1.23,0,0,1,1.23-1.23h0A1.22,1.22,0,0,1,79.52,39Zm-4.08,0H73v-9.2a1.23,1.23,0,0,1,1.23-1.23h0a1.23,1.23,0,0,1,1.23,1.23Zm-4.09,0H68.9V32a1.22,1.22,0,0,1,1.22-1.22h0A1.23,1.23,0,0,1,71.35,32Zm-4.09,0H64.81V37A1.23,1.23,0,0,1,66,35.79h0A1.23,1.23,0,0,1,67.26,37Zm-4.09,0H60.72v-4A1.23,1.23,0,0,1,62,47.34h0a1.22,1.22,0,0,1,1.22,1.22Zm-4.08,0H56.63v-9.2a1.23,1.23,0,0,1,1.23-1.23h0a1.23,1.23,0,0,1,1.23,1.23Zm-4.09,0H52.55V25.23A1.23,1.23,0,0,1,53.77,24h0A1.23,1.23,0,0,1,55,25.23Zm-4.09,0H48.46v-9.2a1.23,1.23,0,0,1,1.23-1.23h0a1.23,1.23,0,0,1,1.22,1.23Zm-4.08,0H44.37V36a1.23,1.23,0,0,1,1.23-1.22h0A1.23,1.23,0,0,1,46.83,36Zm-4.09,0H40.29V32.31a1.22,1.22,0,0,1,1.22-1.22h0a1.23,1.23,0,0,1,1.23,1.22Zm-4.09,0H36.2V37a1.23,1.23,0,0,1,1.22-1.23h0A1.23,1.23,0,0,1,38.65,37Zm-4.09,0H32.11V50.1a1.23,1.23,0,0,1,1.23-1.23h0a1.23,1.23,0,0,1,1.22,1.23Zm-4.08,0H28V41a1.23,1.23,0,0,1,1.23-1.23h0A1.23,1.23,0,0,1,30.48,41Zm-4.09,0H23.94V32.31a1.22,1.22,0,0,1,1.22-1.22h0a1.23,1.23,0,0,1,1.23,1.22Zm-4.09,0H19.85V41a1.23,1.23,0,0,1,1.22-1.23h0A1.23,1.23,0,0,1,22.3,41Zm-4.09,0H15.76V45.39A1.23,1.23,0,0,1,17,44.17h0a1.22,1.22,0,0,1,1.22,1.22Zm-4.08,0H11.67V49.69a1.23,1.23,0,0,1,1.23-1.23h0a1.23,1.23,0,0,1,1.23,1.23ZM102.41,55h0a.82.82,0,0,0-.81-.82H8.4a.82.82,0,0,0-.81.82h0a.82.82,0,0,0,.81.82h93.2A.82.82,0,0,0,102.41,55Z" style="fill:#18aceb"/></g></g></svg>