<svg xmlns="http://www.w3.org/2000/svg" viewBox="0 0 110 110"><title>WinkHome</title><g id="f4f17fbd-5ed5-49f3-9acc-268430922aa4" data-name="Layer 2"><g id="62811b89-bc7b-4558-8f9e-62ff4cde673e" data-name="Layer 1"><circle cx="55" cy="55" r="52.5" style="fill:#44474e"/><path d="M55,5A50,50,0,1,1,5,55,50,50,0,0,1,55,5m0-5a55,55,0,1,0,55,55A55.06,55.06,0,0,0,55,0Z" style="fill:#28292d"/><path d="M72.2,37.8A24.34,24.34,0,1,0,79.32,55,24.18,24.18,0,0,0,72.2,37.8ZM58.37,58a.22.22,0,0,1-.23.22H51.86a.22.22,0,0,1-.23-.22v-3.9a.23.23,0,0,1,.1-.19l3.14-2.13a.21.21,0,0,1,.26,0l3.14,2.13a.23.23,0,0,1,.1.19Z" style="fill:#18aceb"/><path d="M81.6,21H28.4A7.44,7.44,0,0,0,21,28.4V81.6A7.44,7.44,0,0,0,28.4,89H81.6A7.44,7.44,0,0,0,89,81.6V28.4A7.44,7.44,0,0,0,81.6,21ZM77.91,64.68a24.88,24.88,0,1,1,2-9.68A24.6,24.6,0,0,1,77.91,64.68Z" style="fill:none;stroke:#18aceb;stroke-miterlimit:10"/></g></g></svg>