<svg xmlns="http://www.w3.org/2000/svg" viewBox="0 0 110 110"><title>Alexa</title><g id="ee98f688-3827-4672-8350-c01b0877047a" data-name="Layer 2"><g id="148e11d5-1477-446b-b8db-ea72bcb839f0" data-name="Layer 1"><circle cx="55" cy="55" r="52.5" style="fill:#44474e"/><path d="M55,5A50,50,0,1,1,5,55,50,50,0,0,1,55,5m0-5a55,55,0,1,0,55,55A55.06,55.06,0,0,0,55,0Z" style="fill:#28292d"/><path id="d4bddeb3-d324-40be-ae3e-0cc9eea53845" data-name="&lt;Compound Path&gt;" d="M55,18.74A36.26,36.26,0,1,0,91.26,55,36.32,36.32,0,0,0,55,18.74ZM49.31,90.8V83.61a6.37,6.37,0,0,0-3.93-5.84A24.72,24.72,0,1,1,79.72,55C79.72,71,67.34,86.15,49.31,90.8Z" style="fill:#18aceb"/></g></g></svg>