<svg xmlns="http://www.w3.org/2000/svg" viewBox="0 0 271.41 133.46"><title>AMP&amp;amp;MIXER</title><g id="7be91a16-e278-4396-95d7-f8f845d256ed" data-name="Layer 2"><g id="398e677e-0173-40fb-8ec4-3d2bc1c1d8b0" data-name="Layer 1"><path d="M164.27,79.12a27.53,27.53,0,1,1-27.52-27.53A27.52,27.52,0,0,1,164.27,79.12Z" style="fill:#18aceb"/><path d="M236.07,72.3a4.11,4.11,0,1,0,4.11,4.11A4.11,4.11,0,0,0,236.07,72.3Zm0,0a4.11,4.11,0,1,0,4.11,4.11A4.11,4.11,0,0,0,236.07,72.3ZM6.47,27.84V125H264.93V27.84Zm130.28,87.59a36.31,36.31,0,1,1,36.31-36.31A36.31,36.31,0,0,1,136.75,115.43Zm46.76,0a6.07,6.07,0,1,1,6.06-6.07A6.07,6.07,0,0,1,183.51,115.43Zm0-63.84a8.79,8.79,0,1,1,8.78-8.78A8.78,8.78,0,0,1,183.51,51.59ZM236.07,84.3A7.89,7.89,0,1,1,244,76.41,7.89,7.89,0,0,1,236.07,84.3Zm0-12a4.11,4.11,0,1,0,4.11,4.11A4.11,4.11,0,0,0,236.07,72.3Z" style="fill:#18aceb"/><path d="M164.27,79.12a27.53,27.53,0,1,1-27.52-27.53A27.52,27.52,0,0,1,164.27,79.12Z" style="fill:#18aceb"/><circle cx="236.07" cy="76.41" r="4.11" style="fill:#18aceb"/><rect y="126.77" width="271.41" height="6.7" rx="1.23" ry="1.23" style="fill:#18aceb"/><rect x="2.18" y="21.66" width="268" height="5.18" rx="2.59" ry="2.59" style="fill:#18aceb"/><polygon points="254.94 0 16.48 0 6.47 20.66 264.94 20.66 254.94 0" style="fill:#18aceb"/></g></g></svg>