<svg xmlns="http://www.w3.org/2000/svg" viewBox="0 0 110 110"><title>FrontYard</title><g id="c7c861c9-51c3-49b7-a753-74d6be517a72" data-name="Layer 2"><g id="abd7213a-26ea-487c-b3b8-bce9c7e06aef" data-name="Layer 1"><circle cx="55" cy="55" r="52.5" style="fill:#44474e"/><path d="M55,5A50,50,0,1,1,5,55,50,50,0,0,1,55,5m0-5a55,55,0,1,0,55,55A55.06,55.06,0,0,0,55,0Z" style="fill:#28292d"/><g id="7182522a-3eb8-4db8-8b15-9c188be003a6" data-name="QOSDhM.tif"><path d="M40.3,43c-4.66,5.44-9.5,11-14.19,16.62a4,4,0,0,0,.34,5.59c2.7,2.85,5.5,5.6,8.34,8.31a3.71,3.71,0,0,0,5.33.12C45.8,69,51.45,64.3,57,59.74Z" style="fill:#18aceb"/><path d="M41.1,38.9a13.38,13.38,0,0,0,1.65,2.5Q50.52,49.25,58.42,57c2.26,2.24,3.7,2.32,6.24.48,6-4.31,6.34-5.32.81-10.46-5.22-4.85-10.26-9.88-15.39-14.82-2.38-2.29-3.89-2.16-5.74.55-1.06,1.55-2,3.16-3,4.76A5.11,5.11,0,0,0,41.1,38.9Z" style="fill:#18aceb"/><path d="M29.25,94.58h36a29.8,29.8,0,0,0-.06-5.1,3.46,3.46,0,0,0-3.72-2.92c-9.42,0-18.84,0-28.26,0-2.42,0-3.74,1.42-3.92,3.85C29.17,91.72,29.25,93,29.25,94.58Z" style="fill:#18aceb"/><path d="M49.43,69.13c-8,2.89-6.3,9.31-6.13,15.6a37.12,37.12,0,0,0,4.85-.08,2.07,2.07,0,0,0,1.22-1.56C49.47,78.45,49.43,73.82,49.43,69.13Z" style="fill:#18aceb"/></g><path d="M54.65,32.15a.74.74,0,0,0,.63-.36l9.18-15.25a.74.74,0,0,0-1.27-.76L54,31a.73.73,0,0,0,.25,1A.76.76,0,0,0,54.65,32.15Z" style="fill:#18aceb"/><path d="M62.46,37a.7.7,0,0,0,.49-.19L77,24.34a.74.74,0,1,0-1-1.11L62,35.73a.73.73,0,0,0-.07,1A.76.76,0,0,0,62.46,37Z" style="fill:#18aceb"/><path d="M69,46.13a.76.76,0,0,0,.38-.11l15.19-9.21a.74.74,0,0,0-.76-1.26L68.58,44.76A.74.74,0,0,0,69,46.13Z" style="fill:#18aceb"/></g></g></svg>