<svg xmlns="http://www.w3.org/2000/svg" viewBox="0 0 110 110"><title>HomeAssistant</title><g id="ef1c8802-e576-49ad-9073-ce3c2e8c84f7" data-name="Layer 2"><g id="e669186f-ade5-4476-8792-e25e9478b3c1" data-name="Layer 1"><circle cx="55" cy="55" r="52.5" style="fill:#44474e"/><path d="M55,5A50,50,0,1,1,5,55,50,50,0,0,1,55,5m0-5a55,55,0,1,0,55,55A55.06,55.06,0,0,0,55,0Z" style="fill:#28292d"/><path d="M38.06,56.47a1.25,1.25,0,0,1,1.23,1.25A1.22,1.22,0,0,1,38.06,59a1.24,1.24,0,0,1-1.25-1.23A1.26,1.26,0,0,1,38.06,56.47Z" style="fill:#18aceb"/><path d="M39.05,66.06a1.22,1.22,0,0,1,1.23,1.23,1.25,1.25,0,0,1-1.23,1.25,1.26,1.26,0,0,1-1.25-1.25A1.24,1.24,0,0,1,39.05,66.06Z" style="fill:#18aceb"/><path d="M39.05,43.66a1.25,1.25,0,0,1-1.25-1.23,1.27,1.27,0,0,1,1.25-1.26,1.25,1.25,0,0,1,1.23,1.26A1.23,1.23,0,0,1,39.05,43.66Z" style="fill:#18aceb"/><path d="M40.56,75.62a1.24,1.24,0,0,1,1.26,1.23,1.25,1.25,0,1,1-2.49,0A1.23,1.23,0,0,1,40.56,75.62Z" style="fill:#18aceb"/><path d="M46.37,50.71a1.24,1.24,0,0,1,0-2.48,1.24,1.24,0,1,1,0,2.48Z" style="fill:#18aceb"/><path d="M48.9,37a1.23,1.23,0,0,1,1.23,1.23A1.25,1.25,0,1,1,48.9,37Z" style="fill:#18aceb"/><path d="M49,69.92a1.24,1.24,0,1,1,1.24-1.23A1.23,1.23,0,0,1,49,69.92Z" style="fill:#18aceb"/><path d="M61,39.5a1.27,1.27,0,0,1-1.26-1.25A1.26,1.26,0,0,1,61,37a1.23,1.23,0,0,1,1.23,1.23A1.25,1.25,0,0,1,61,39.5Z" style="fill:#18aceb"/><path d="M61.34,60.51a1.24,1.24,0,0,1,0-2.48,1.24,1.24,0,1,1,0,2.48Z" style="fill:#18aceb"/><path d="M62.5,48.56a1.25,1.25,0,0,1,1.23,1.25,1.24,1.24,0,0,1-2.48,0A1.25,1.25,0,0,1,62.5,48.56Z" style="fill:#18aceb"/><path d="M68.31,43.79a1.25,1.25,0,0,1-1.26-1.23,1.27,1.27,0,0,1,1.26-1.26,1.26,1.26,0,0,1,1.23,1.26A1.23,1.23,0,0,1,68.31,43.79Z" style="fill:#18aceb"/><path d="M69.43,78.36a1.24,1.24,0,1,1,0-2.48,1.24,1.24,0,1,1,0,2.48Z" style="fill:#18aceb"/><path d="M74.26,68.87A1.25,1.25,0,0,1,73,67.61a1.23,1.23,0,0,1,1.23-1.23,1.25,1.25,0,0,1,1.25,1.23A1.27,1.27,0,0,1,74.26,68.87Z" style="fill:#18aceb"/><path d="M74.35,51a1.23,1.23,0,0,1-1.25-1.23,1.24,1.24,0,1,1,2.48,0A1.23,1.23,0,0,1,74.35,51Z" style="fill:#18aceb"/><path d="M92.85,54.38a1.43,1.43,0,0,1-1.43,1.44H84.25V81.2A2.2,2.2,0,0,1,82,83.41H55.28l6.19-5.64H67a2.51,2.51,0,1,0,2.42-3.16,2.53,2.53,0,0,0-2.31,1.51H60.83L55.71,80.8V74.32l6.09-5.87H71.89a2.52,2.52,0,0,0,4.9-.84,2.52,2.52,0,0,0-4.9-.81h-8.4l5.61-5.43V55.72l4-3.73a2.41,2.41,0,0,0,1.25.33,2.52,2.52,0,0,0,0-5,2.53,2.53,0,0,0-2.53,2.53,2.34,2.34,0,0,0,.2.95L69.1,53.48V44.93a2.48,2.48,0,0,0,1.71-2.37,2.52,2.52,0,1,0-3.34,2.37v8.53l-2.73-2.55a2.27,2.27,0,0,0,.27-1.1,2.5,2.5,0,1,0-1.41,2.26l3.87,3.65v5l-5.14,5-.16-4a2.49,2.49,0,1,0-1.64,0l.22,5.52-5,4.88V44.89l4.4-4.27a2.75,2.75,0,0,0,.88.16,2.53,2.53,0,1,0-2.16-1.21l-3.91,3.8-3.78-4a2.38,2.38,0,0,0,.26-1.1,2.52,2.52,0,1,0-2.5,2.53,2.33,2.33,0,0,0,1.1-.27l4.06,4.36v19l-6.88-6.7V51.85a2.53,2.53,0,1,0-1.63,0v3.74l-5.69-5.54V44.8a2.5,2.5,0,0,0,1.7-2.37,2.52,2.52,0,1,0-3.33,2.37v6l6.32,6.15H40.43a2.51,2.51,0,0,0-2.37-1.71,2.52,2.52,0,1,0,0,5,2.49,2.49,0,0,0,2.37-1.69h5.78l7.85,7.65V80.7l-4.24-4.18V71.07a2.52,2.52,0,1,0-3.34-2.38,2.55,2.55,0,0,0,1.69,2.38v3.82l-6.77-6.7a2.47,2.47,0,0,0,.16-.9,2.52,2.52,0,0,0-5,0,2.54,2.54,0,0,0,2.53,2.52,2.35,2.35,0,0,0,1.29-.37L47,76H43a2.53,2.53,0,0,0-2.4-1.69,2.52,2.52,0,0,0,0,5,2.55,2.55,0,0,0,2.4-1.7h5.7l5.81,5.73H28a2.2,2.2,0,0,1-2.21-2.21V55.82H18.58a1.4,1.4,0,0,1-1-.4,1.45,1.45,0,0,1-.44-1,1.4,1.4,0,0,1,.42-1L54,17a1.44,1.44,0,0,1,2,0L74.93,35.9V32.29A1.29,1.29,0,0,1,76.22,31h6a1.29,1.29,0,0,1,1.29,1.29V43.36a1.26,1.26,0,0,1-.31.82l9.21,9.2A1.39,1.39,0,0,1,92.85,54.38Z" style="fill:#18aceb"/></g></g></svg>