<svg xmlns="http://www.w3.org/2000/svg" viewBox="0 0 110 110"><title>HomeBridge</title><g id="27648c7c-a7ac-4bf5-bbe9-6aaaf8a7ec8e" data-name="Layer 2"><g id="01744846-60c7-416f-ba79-288b7e61799e" data-name="Layer 1"><circle cx="55" cy="55" r="52.5" style="fill:#44474e"/><path d="M55,5A50,50,0,1,1,5,55,50,50,0,0,1,55,5m0-5a55,55,0,1,0,55,55A55.06,55.06,0,0,0,55,0Z" style="fill:#28292d"/><path id="ce77aaa3-f2d4-49f2-8e2a-bd786770c06b" data-name="hQqnHr.tif" d="M44.79,87h-1a.19.19,0,0,0-.1,0,7.68,7.68,0,0,1-3.16-1,15.34,15.34,0,0,1-3.46-2.85,44.92,44.92,0,0,1-4.39-5.62,42.18,42.18,0,0,1-5.27-11.07,39.08,39.08,0,0,1-1.84-9.81c0-.37,0-.75-.07-1.12V54.09a2.58,2.58,0,0,0,0-.29A26.17,26.17,0,0,1,26,49.57a20.49,20.49,0,0,1,4.52-9.66,17.52,17.52,0,0,1,7-5,16.74,16.74,0,0,1,4.53-1.08,12.22,12.22,0,0,1,3.67.14,29.45,29.45,0,0,1,4.67,1.39,38.28,38.28,0,0,0,4.05,1.32,2.77,2.77,0,0,0,1.48.1c1.12-.33,2.24-.66,3.35-1,1.5-.49,3-1,4.48-1.49a15.29,15.29,0,0,1,4.56-.7,20.19,20.19,0,0,1,5.35.79,15.72,15.72,0,0,1,8.3,5.4c.21.26.41.54.62.81l-.18.12A17.64,17.64,0,0,0,78,44.49a13.69,13.69,0,0,0-3,6.91,16.73,16.73,0,0,0,0,4.47,14.06,14.06,0,0,0,1.34,4.71,16.13,16.13,0,0,0,8.25,7.72v0a.8.8,0,0,0-.08.16c-.4,1-.77,2.09-1.2,3.11A42.27,42.27,0,0,1,75.84,83a12.63,12.63,0,0,1-3.74,3,8.14,8.14,0,0,1-4.62.91,16.24,16.24,0,0,1-3.8-.93c-1.08-.39-2.14-.82-3.24-1.16a13.4,13.4,0,0,0-6.26-.42A20.69,20.69,0,0,0,50,85.58a21,21,0,0,1-4,1.25C45.55,86.9,45.17,86.94,44.79,87Zm24.6-70-.15,0c-.34,0-.67.08-1,.14a16.32,16.32,0,0,0-4.45,1.54A16,16,0,0,0,55,31.51a10.49,10.49,0,0,0,.07,2.08c.65,0,1.29,0,1.92-.08a11,11,0,0,0,4.62-1.6,17.19,17.19,0,0,0,4.16-3.58,15,15,0,0,0,3.91-9c0-.76,0-1.52,0-2.29Z" style="fill:#18aceb"/></g></g></svg>