<svg xmlns="http://www.w3.org/2000/svg" viewBox="0 0 110 110"><title>HueHub</title><g id="af1309ff-4307-4d4a-88f4-6d9d55b62049" data-name="Layer 2"><g id="5aa8e3e9-b1d4-49ff-93f8-523facb10422" data-name="Layer 1"><circle cx="55" cy="55" r="52.5" style="fill:#44474e"/><path d="M55,5A50,50,0,1,1,5,55,50,50,0,0,1,55,5m0-5a55,55,0,1,0,55,55A55.06,55.06,0,0,0,55,0Z" style="fill:#28292d"/><path d="M59.8,54h-.33v1.15h.37a.64.64,0,0,0,.24-.08.58.58,0,0,0,.25-.5A.56.56,0,0,0,59.8,54Zm0,0h-.33v1.15h.37a.64.64,0,0,0,.24-.08.58.58,0,0,0,.25-.5A.56.56,0,0,0,59.8,54Zm0,0h-.33v1.15h.37a.64.64,0,0,0,.24-.08.58.58,0,0,0,.25-.5A.56.56,0,0,0,59.8,54Zm0,0h-.33v1.15h.37a.64.64,0,0,0,.24-.08.58.58,0,0,0,.25-.5A.56.56,0,0,0,59.8,54Zm0,0h-.33v1.15h.37a.64.64,0,0,0,.24-.08.58.58,0,0,0,.25-.5A.56.56,0,0,0,59.8,54Zm0,0h-.33v1.15h.37a.64.64,0,0,0,.24-.08.58.58,0,0,0,.25-.5A.56.56,0,0,0,59.8,54Zm-4.61-10.8A11.66,11.66,0,1,0,66.85,54.89,11.65,11.65,0,0,0,55.19,43.23ZM47.52,56h-.63v.78H46v-3.5h1.59a1.29,1.29,0,0,1,.59.17,1.27,1.27,0,0,1,.6,1.19A1.31,1.31,0,0,1,47.52,56Zm4.4.78h-.87V55.35h-1v1.41h-.93V53.29h.91v1.27h1V53.29h.88Zm1.74,0h-.88V53.28h.88Zm2.69,0H54.52V53.29h.88v2.65h1Zm1.34,0h-.87V53.28h.87ZM60.14,56h-.67v.78h-.93v-3.5h1.61a1.47,1.47,0,0,1,.59.2,1.27,1.27,0,0,1,.58,1.16A1.4,1.4,0,0,1,60.14,56Zm2.36.81a4.37,4.37,0,0,1-.59-.08l-.15,0v-.82s.14.11.75.11.6-.22.6-.25.15-.18-.65-.39a1,1,0,0,1-.8-1c0-1,.85-1.13,1.33-1.13a5.26,5.26,0,0,1,.66,0v.85s0-.07-.57-.08-.54.27-.54.27.06.2.56.32A1.08,1.08,0,0,1,64,55.67C64,56.51,63.29,56.85,62.5,56.79ZM59.8,54h-.33v1.15h.37a.64.64,0,0,0,.24-.08.58.58,0,0,0,.25-.5A.56.56,0,0,0,59.8,54ZM47.22,54h-.33v1.15h.37a.64.64,0,0,0,.24-.08A.59.59,0,0,0,47.22,54ZM59.8,54h-.33v1.15h.37a.64.64,0,0,0,.24-.08.58.58,0,0,0,.25-.5A.56.56,0,0,0,59.8,54Zm0,0h-.33v1.15h.37a.64.64,0,0,0,.24-.08.58.58,0,0,0,.25-.5A.56.56,0,0,0,59.8,54Zm0,0h-.33v1.15h.37a.64.64,0,0,0,.24-.08.58.58,0,0,0,.25-.5A.56.56,0,0,0,59.8,54Zm0,0h-.33v1.15h.37a.64.64,0,0,0,.24-.08.58.58,0,0,0,.25-.5A.56.56,0,0,0,59.8,54Zm0,0h-.33v1.15h.37a.64.64,0,0,0,.24-.08.58.58,0,0,0,.25-.5A.56.56,0,0,0,59.8,54Zm0,0h-.33v1.15h.37a.64.64,0,0,0,.24-.08.58.58,0,0,0,.25-.5A.56.56,0,0,0,59.8,54Zm0,0h-.33v1.15h.37a.64.64,0,0,0,.24-.08.58.58,0,0,0,.25-.5A.56.56,0,0,0,59.8,54Zm0,0h-.33v1.15h.37a.64.64,0,0,0,.24-.08.58.58,0,0,0,.25-.5A.56.56,0,0,0,59.8,54Zm0,0h-.33v1.15h.37a.64.64,0,0,0,.24-.08.58.58,0,0,0,.25-.5A.56.56,0,0,0,59.8,54Zm0,0h-.33v1.15h.37a.64.64,0,0,0,.24-.08.58.58,0,0,0,.25-.5A.56.56,0,0,0,59.8,54Zm-4.61-10.8A11.66,11.66,0,1,0,66.85,54.89,11.65,11.65,0,0,0,55.19,43.23ZM47.52,56h-.63v.78H46v-3.5h1.59a1.29,1.29,0,0,1,.59.17,1.27,1.27,0,0,1,.6,1.19A1.31,1.31,0,0,1,47.52,56Zm4.4.78h-.87V55.35h-1v1.41h-.93V53.29h.91v1.27h1V53.29h.88Zm1.74,0h-.88V53.28h.88Zm2.69,0H54.52V53.29h.88v2.65h1Zm1.34,0h-.87V53.28h.87ZM60.14,56h-.67v.78h-.93v-3.5h1.61a1.47,1.47,0,0,1,.59.2,1.27,1.27,0,0,1,.58,1.16A1.4,1.4,0,0,1,60.14,56Zm2.36.81a4.37,4.37,0,0,1-.59-.08l-.15,0v-.82s.14.11.75.11.6-.22.6-.25.15-.18-.65-.39a1,1,0,0,1-.8-1c0-1,.85-1.13,1.33-1.13a5.26,5.26,0,0,1,.66,0v.85s0-.07-.57-.08-.54.27-.54.27.06.2.56.32A1.08,1.08,0,0,1,64,55.67C64,56.51,63.29,56.85,62.5,56.79ZM59.8,54h-.33v1.15h.37a.64.64,0,0,0,.24-.08.58.58,0,0,0,.25-.5A.56.56,0,0,0,59.8,54ZM47.22,54h-.33v1.15h.37a.64.64,0,0,0,.24-.08A.59.59,0,0,0,47.22,54ZM59.8,54h-.33v1.15h.37a.64.64,0,0,0,.24-.08.58.58,0,0,0,.25-.5A.56.56,0,0,0,59.8,54Zm0,0h-.33v1.15h.37a.64.64,0,0,0,.24-.08.58.58,0,0,0,.25-.5A.56.56,0,0,0,59.8,54Zm0,0h-.33v1.15h.37a.64.64,0,0,0,.24-.08.58.58,0,0,0,.25-.5A.56.56,0,0,0,59.8,54Zm0,0h-.33v1.15h.37a.64.64,0,0,0,.24-.08.58.58,0,0,0,.25-.5A.56.56,0,0,0,59.8,54ZM56,30.72v.58h.83v-.58Zm-2.18,0v.58h.8v-.58Zm11.62-.31c-.17,0-.33.05-.5.07a1.15,1.15,0,0,0,.59.5A5.62,5.62,0,0,1,65.42,30.41Zm1,0a4.17,4.17,0,0,1-.08.59,1.1,1.1,0,0,0,.58-.5A2.75,2.75,0,0,0,66.38,30.4Zm-.78,0a4.87,4.87,0,0,0,.1.65l.21,0,.19,0a5.13,5.13,0,0,0,.1-.65Q65.9,30.38,65.6,30.39Zm.59-.73a3.88,3.88,0,0,1-.59,0,5.23,5.23,0,0,0,0,.56q.3,0,.6,0A3.37,3.37,0,0,0,66.19,29.66Zm.77-.1a3.88,3.88,0,0,1-.58.09c0,.19,0,.38,0,.57a3.75,3.75,0,0,1,.57.09,1,1,0,0,0,.07-.38A.94.94,0,0,0,67,29.56Zm-1.54.08-.57-.09a1.07,1.07,0,0,0,0,.76l.56-.08C65.41,30,65.41,29.83,65.42,29.64Zm-.5-.26.51.08c0-.2.06-.39.1-.59A1.13,1.13,0,0,0,64.92,29.38Zm1.35-.51a5.77,5.77,0,0,1,.09.6,3.08,3.08,0,0,0,.53-.08A1.07,1.07,0,0,0,66.27,28.87Zm-21.81-.05A1.13,1.13,0,1,0,45.58,30,1.13,1.13,0,0,0,44.46,28.82Zm.17,1.71h-.37v-1.2h.37Zm21.45-1.71-.17,0-.19,0c0,.22-.08.43-.1.65a5.19,5.19,0,0,0,.56,0C66.15,29.26,66.12,29,66.08,28.82Zm-11.19,0v.58h.82v-.58ZM56,30.72v.58h.83v-.58Zm-1.09-1.94v.58h.82v-.58ZM53.8,30.72v.58h.8v-.58Zm-9.34-1.9A1.13,1.13,0,1,0,45.58,30,1.13,1.13,0,0,0,44.46,28.82Zm.17,1.71h-.37v-1.2h.37Zm22.33-1a3.88,3.88,0,0,1-.58.09c0,.19,0,.38,0,.57a3.75,3.75,0,0,1,.57.09,1,1,0,0,0,.07-.38A.94.94,0,0,0,67,29.56Zm-.69-.69a5.77,5.77,0,0,1,.09.6,3.08,3.08,0,0,0,.53-.08A1.07,1.07,0,0,0,66.27,28.87Zm.11,1.53a4.17,4.17,0,0,1-.08.59,1.1,1.1,0,0,0,.58-.5A2.75,2.75,0,0,0,66.38,30.4Zm-.19-.74a3.88,3.88,0,0,1-.59,0,5.23,5.23,0,0,0,0,.56q.3,0,.6,0A3.37,3.37,0,0,0,66.19,29.66Zm-.59.73a4.87,4.87,0,0,0,.1.65l.21,0,.19,0a5.13,5.13,0,0,0,.1-.65Q65.9,30.38,65.6,30.39Zm.48-1.57-.17,0-.19,0c0,.22-.08.43-.1.65a5.19,5.19,0,0,0,.56,0C66.15,29.26,66.12,29,66.08,28.82Zm-1.16.56.51.08c0-.2.06-.39.1-.59A1.13,1.13,0,0,0,64.92,29.38Zm.5,1c-.17,0-.33.05-.5.07a1.15,1.15,0,0,0,.59.5A5.62,5.62,0,0,1,65.42,30.41Zm0-.77-.57-.09a1.07,1.07,0,0,0,0,.76l.56-.08C65.41,30,65.41,29.83,65.42,29.64Zm-21-.82A1.13,1.13,0,1,0,45.58,30,1.13,1.13,0,0,0,44.46,28.82Zm.17,1.71h-.37v-1.2h.37Zm9.17.19v.58h.8v-.58Zm1.09-1.94v.58h.82v-.58ZM56,30.72v.58h.83v-.58ZM59.8,54h-.33v1.15h.37a.64.64,0,0,0,.24-.08.58.58,0,0,0,.25-.5A.56.56,0,0,0,59.8,54Zm0,0h-.33v1.15h.37a.64.64,0,0,0,.24-.08.58.58,0,0,0,.25-.5A.56.56,0,0,0,59.8,54Zm0,0h-.33v1.15h.37a.64.64,0,0,0,.24-.08.58.58,0,0,0,.25-.5A.56.56,0,0,0,59.8,54Zm0,0h-.33v1.15h.37a.64.64,0,0,0,.24-.08.58.58,0,0,0,.25-.5A.56.56,0,0,0,59.8,54Zm0,0h-.33v1.15h.37a.64.64,0,0,0,.24-.08.58.58,0,0,0,.25-.5A.56.56,0,0,0,59.8,54Zm0,0h-.33v1.15h.37a.64.64,0,0,0,.24-.08.58.58,0,0,0,.25-.5A.56.56,0,0,0,59.8,54Zm-4.61-10.8A11.66,11.66,0,1,0,66.85,54.89,11.65,11.65,0,0,0,55.19,43.23ZM47.52,56h-.63v.78H46v-3.5h1.59a1.29,1.29,0,0,1,.59.17,1.27,1.27,0,0,1,.6,1.19A1.31,1.31,0,0,1,47.52,56Zm4.4.78h-.87V55.35h-1v1.41h-.93V53.29h.91v1.27h1V53.29h.88Zm1.74,0h-.88V53.28h.88Zm2.69,0H54.52V53.29h.88v2.65h1Zm1.34,0h-.87V53.28h.87ZM60.14,56h-.67v.78h-.93v-3.5h1.61a1.47,1.47,0,0,1,.59.2,1.27,1.27,0,0,1,.58,1.16A1.4,1.4,0,0,1,60.14,56Zm2.36.81a4.37,4.37,0,0,1-.59-.08l-.15,0v-.82s.14.11.75.11.6-.22.6-.25.15-.18-.65-.39a1,1,0,0,1-.8-1c0-1,.85-1.13,1.33-1.13a5.26,5.26,0,0,1,.66,0v.85s0-.07-.57-.08-.54.27-.54.27.06.2.56.32A1.08,1.08,0,0,1,64,55.67C64,56.51,63.29,56.85,62.5,56.79ZM59.8,54h-.33v1.15h.37a.64.64,0,0,0,.24-.08.58.58,0,0,0,.25-.5A.56.56,0,0,0,59.8,54ZM47.22,54h-.33v1.15h.37a.64.64,0,0,0,.24-.08A.59.59,0,0,0,47.22,54ZM59.8,54h-.33v1.15h.37a.64.64,0,0,0,.24-.08.58.58,0,0,0,.25-.5A.56.56,0,0,0,59.8,54Zm0,0h-.33v1.15h.37a.64.64,0,0,0,.24-.08.58.58,0,0,0,.25-.5A.56.56,0,0,0,59.8,54Zm0,0h-.33v1.15h.37a.64.64,0,0,0,.24-.08.58.58,0,0,0,.25-.5A.56.56,0,0,0,59.8,54Zm0,0h-.33v1.15h.37a.64.64,0,0,0,.24-.08.58.58,0,0,0,.25-.5A.56.56,0,0,0,59.8,54Zm5.62-24.39-.57-.09a1.07,1.07,0,0,0,0,.76l.56-.08C65.41,30,65.41,29.83,65.42,29.64Zm0,.77c-.17,0-.33.05-.5.07a1.15,1.15,0,0,0,.59.5A5.62,5.62,0,0,1,65.42,30.41Zm-.5-1,.51.08c0-.2.06-.39.1-.59A1.13,1.13,0,0,0,64.92,29.38Zm1.16-.56-.17,0-.19,0c0,.22-.08.43-.1.65a5.19,5.19,0,0,0,.56,0C66.15,29.26,66.12,29,66.08,28.82Zm-.48,1.57a4.87,4.87,0,0,0,.1.65l.21,0,.19,0a5.13,5.13,0,0,0,.1-.65Q65.9,30.38,65.6,30.39Zm.59-.73a3.88,3.88,0,0,1-.59,0,5.23,5.23,0,0,0,0,.56q.3,0,.6,0A3.37,3.37,0,0,0,66.19,29.66Zm.19.74a4.17,4.17,0,0,1-.08.59,1.1,1.1,0,0,0,.58-.5A2.75,2.75,0,0,0,66.38,30.4Zm-.11-1.53a5.77,5.77,0,0,1,.09.6,3.08,3.08,0,0,0,.53-.08A1.07,1.07,0,0,0,66.27,28.87Zm.69.69a3.88,3.88,0,0,1-.58.09c0,.19,0,.38,0,.57a3.75,3.75,0,0,1,.57.09,1,1,0,0,0,.07-.38A.94.94,0,0,0,67,29.56ZM59.8,54h-.33v1.15h.37a.64.64,0,0,0,.24-.08.58.58,0,0,0,.25-.5A.56.56,0,0,0,59.8,54Zm0,0h-.33v1.15h.37a.64.64,0,0,0,.24-.08.58.58,0,0,0,.25-.5A.56.56,0,0,0,59.8,54Zm0,0h-.33v1.15h.37a.64.64,0,0,0,.24-.08.58.58,0,0,0,.25-.5A.56.56,0,0,0,59.8,54Zm0,0h-.33v1.15h.37a.64.64,0,0,0,.24-.08.58.58,0,0,0,.25-.5A.56.56,0,0,0,59.8,54Zm-4.61-10.8A11.66,11.66,0,1,0,66.85,54.89,11.65,11.65,0,0,0,55.19,43.23ZM47.52,56h-.63v.78H46v-3.5h1.59a1.29,1.29,0,0,1,.59.17,1.27,1.27,0,0,1,.6,1.19A1.31,1.31,0,0,1,47.52,56Zm4.4.78h-.87V55.35h-1v1.41h-.93V53.29h.91v1.27h1V53.29h.88Zm1.74,0h-.88V53.28h.88Zm2.69,0H54.52V53.29h.88v2.65h1Zm1.34,0h-.87V53.28h.87ZM60.14,56h-.67v.78h-.93v-3.5h1.61a1.47,1.47,0,0,1,.59.2,1.27,1.27,0,0,1,.58,1.16A1.4,1.4,0,0,1,60.14,56Zm2.36.81a4.37,4.37,0,0,1-.59-.08l-.15,0v-.82s.14.11.75.11.6-.22.6-.25.15-.18-.65-.39a1,1,0,0,1-.8-1c0-1,.85-1.13,1.33-1.13a5.26,5.26,0,0,1,.66,0v.85s0-.07-.57-.08-.54.27-.54.27.06.2.56.32A1.08,1.08,0,0,1,64,55.67C64,56.51,63.29,56.85,62.5,56.79ZM59.8,54h-.33v1.15h.37a.64.64,0,0,0,.24-.08.58.58,0,0,0,.25-.5A.56.56,0,0,0,59.8,54ZM47.22,54h-.33v1.15h.37a.64.64,0,0,0,.24-.08A.59.59,0,0,0,47.22,54ZM59.8,54h-.33v1.15h.37a.64.64,0,0,0,.24-.08.58.58,0,0,0,.25-.5A.56.56,0,0,0,59.8,54Zm0,0h-.33v1.15h.37a.64.64,0,0,0,.24-.08.58.58,0,0,0,.25-.5A.56.56,0,0,0,59.8,54Zm0,0h-.33v1.15h.37a.64.64,0,0,0,.24-.08.58.58,0,0,0,.25-.5A.56.56,0,0,0,59.8,54Zm0,0h-.33v1.15h.37a.64.64,0,0,0,.24-.08.58.58,0,0,0,.25-.5A.56.56,0,0,0,59.8,54ZM44.46,28.82A1.13,1.13,0,1,0,45.58,30,1.13,1.13,0,0,0,44.46,28.82Zm.17,1.71h-.37v-1.2h.37ZM56,30.72v.58h.83v-.58Zm-1.09-1.94v.58h.82v-.58ZM53.8,30.72v.58h.8v-.58ZM67,29.56a3.88,3.88,0,0,1-.58.09c0,.19,0,.38,0,.57a3.75,3.75,0,0,1,.57.09,1,1,0,0,0,.07-.38A.94.94,0,0,0,67,29.56Zm-.69-.69a5.77,5.77,0,0,1,.09.6,3.08,3.08,0,0,0,.53-.08A1.07,1.07,0,0,0,66.27,28.87Zm.11,1.53a4.17,4.17,0,0,1-.08.59,1.1,1.1,0,0,0,.58-.5A2.75,2.75,0,0,0,66.38,30.4Zm-.19-.74a3.88,3.88,0,0,1-.59,0,5.23,5.23,0,0,0,0,.56q.3,0,.6,0A3.37,3.37,0,0,0,66.19,29.66Zm-.59.73a4.87,4.87,0,0,0,.1.65l.21,0,.19,0a5.13,5.13,0,0,0,.1-.65Q65.9,30.38,65.6,30.39Zm.48-1.57-.17,0-.19,0c0,.22-.08.43-.1.65a5.19,5.19,0,0,0,.56,0C66.15,29.26,66.12,29,66.08,28.82Zm-1.16.56.51.08c0-.2.06-.39.1-.59A1.13,1.13,0,0,0,64.92,29.38Zm.5,1c-.17,0-.33.05-.5.07a1.15,1.15,0,0,0,.59.5A5.62,5.62,0,0,1,65.42,30.41Zm0-.77-.57-.09a1.07,1.07,0,0,0,0,.76l.56-.08C65.41,30,65.41,29.83,65.42,29.64Zm-21-.82A1.13,1.13,0,1,0,45.58,30,1.13,1.13,0,0,0,44.46,28.82Zm.17,1.71h-.37v-1.2h.37Zm9.17.19v.58h.8v-.58Zm1.09-1.94v.58h.82v-.58ZM56,30.72v.58h.83v-.58ZM59.8,54h-.33v1.15h.37a.64.64,0,0,0,.24-.08.58.58,0,0,0,.25-.5A.56.56,0,0,0,59.8,54Zm0,0h-.33v1.15h.37a.64.64,0,0,0,.24-.08.58.58,0,0,0,.25-.5A.56.56,0,0,0,59.8,54Zm0,0h-.33v1.15h.37a.64.64,0,0,0,.24-.08.58.58,0,0,0,.25-.5A.56.56,0,0,0,59.8,54Zm0,0h-.33v1.15h.37a.64.64,0,0,0,.24-.08.58.58,0,0,0,.25-.5A.56.56,0,0,0,59.8,54Zm-4.61-10.8A11.66,11.66,0,1,0,66.85,54.89,11.65,11.65,0,0,0,55.19,43.23ZM47.52,56h-.63v.78H46v-3.5h1.59a1.29,1.29,0,0,1,.59.17,1.27,1.27,0,0,1,.6,1.19A1.31,1.31,0,0,1,47.52,56Zm4.4.78h-.87V55.35h-1v1.41h-.93V53.29h.91v1.27h1V53.29h.88Zm1.74,0h-.88V53.28h.88Zm2.69,0H54.52V53.29h.88v2.65h1Zm1.34,0h-.87V53.28h.87ZM60.14,56h-.67v.78h-.93v-3.5h1.61a1.47,1.47,0,0,1,.59.2,1.27,1.27,0,0,1,.58,1.16A1.4,1.4,0,0,1,60.14,56Zm2.36.81a4.37,4.37,0,0,1-.59-.08l-.15,0v-.82s.14.11.75.11.6-.22.6-.25.15-.18-.65-.39a1,1,0,0,1-.8-1c0-1,.85-1.13,1.33-1.13a5.26,5.26,0,0,1,.66,0v.85s0-.07-.57-.08-.54.27-.54.27.06.2.56.32A1.08,1.08,0,0,1,64,55.67C64,56.51,63.29,56.85,62.5,56.79ZM59.8,54h-.33v1.15h.37a.64.64,0,0,0,.24-.08.58.58,0,0,0,.25-.5A.56.56,0,0,0,59.8,54ZM47.22,54h-.33v1.15h.37a.64.64,0,0,0,.24-.08A.59.59,0,0,0,47.22,54ZM59.8,54h-.33v1.15h.37a.64.64,0,0,0,.24-.08.58.58,0,0,0,.25-.5A.56.56,0,0,0,59.8,54Zm0,0h-.33v1.15h.37a.64.64,0,0,0,.24-.08.58.58,0,0,0,.25-.5A.56.56,0,0,0,59.8,54Zm5.62-24.39-.57-.09a1.07,1.07,0,0,0,0,.76l.56-.08C65.41,30,65.41,29.83,65.42,29.64Zm0,.77c-.17,0-.33.05-.5.07a1.15,1.15,0,0,0,.59.5A5.62,5.62,0,0,1,65.42,30.41Zm-.5-1,.51.08c0-.2.06-.39.1-.59A1.13,1.13,0,0,0,64.92,29.38Zm1.16-.56-.17,0-.19,0c0,.22-.08.43-.1.65a5.19,5.19,0,0,0,.56,0C66.15,29.26,66.12,29,66.08,28.82Zm-.48,1.57a4.87,4.87,0,0,0,.1.65l.21,0,.19,0a5.13,5.13,0,0,0,.1-.65Q65.9,30.38,65.6,30.39Zm.59-.73a3.88,3.88,0,0,1-.59,0,5.23,5.23,0,0,0,0,.56q.3,0,.6,0A3.37,3.37,0,0,0,66.19,29.66Zm.19.74a4.17,4.17,0,0,1-.08.59,1.1,1.1,0,0,0,.58-.5A2.75,2.75,0,0,0,66.38,30.4Zm-.11-1.53a5.77,5.77,0,0,1,.09.6,3.08,3.08,0,0,0,.53-.08A1.07,1.07,0,0,0,66.27,28.87Zm.69.69a3.88,3.88,0,0,1-.58.09c0,.19,0,.38,0,.57a3.75,3.75,0,0,1,.57.09,1,1,0,0,0,.07-.38A.94.94,0,0,0,67,29.56ZM59.8,54h-.33v1.15h.37a.64.64,0,0,0,.24-.08.58.58,0,0,0,.25-.5A.56.56,0,0,0,59.8,54Zm0,0h-.33v1.15h.37a.64.64,0,0,0,.24-.08.58.58,0,0,0,.25-.5A.56.56,0,0,0,59.8,54Zm-4.61-10.8A11.66,11.66,0,1,0,66.85,54.89,11.65,11.65,0,0,0,55.19,43.23ZM47.52,56h-.63v.78H46v-3.5h1.59a1.29,1.29,0,0,1,.59.17,1.27,1.27,0,0,1,.6,1.19A1.31,1.31,0,0,1,47.52,56Zm4.4.78h-.87V55.35h-1v1.41h-.93V53.29h.91v1.27h1V53.29h.88Zm1.74,0h-.88V53.28h.88Zm2.69,0H54.52V53.29h.88v2.65h1Zm1.34,0h-.87V53.28h.87ZM60.14,56h-.67v.78h-.93v-3.5h1.61a1.47,1.47,0,0,1,.59.2,1.27,1.27,0,0,1,.58,1.16A1.4,1.4,0,0,1,60.14,56Zm2.36.81a4.37,4.37,0,0,1-.59-.08l-.15,0v-.82s.14.11.75.11.6-.22.6-.25.15-.18-.65-.39a1,1,0,0,1-.8-1c0-1,.85-1.13,1.33-1.13a5.26,5.26,0,0,1,.66,0v.85s0-.07-.57-.08-.54.27-.54.27.06.2.56.32A1.08,1.08,0,0,1,64,55.67C64,56.51,63.29,56.85,62.5,56.79ZM59.8,54h-.33v1.15h.37a.64.64,0,0,0,.24-.08.58.58,0,0,0,.25-.5A.56.56,0,0,0,59.8,54ZM47.22,54h-.33v1.15h.37a.64.64,0,0,0,.24-.08A.59.59,0,0,0,47.22,54ZM59.8,54h-.33v1.15h.37a.64.64,0,0,0,.24-.08.58.58,0,0,0,.25-.5A.56.56,0,0,0,59.8,54Zm0,0h-.33v1.15h.37a.64.64,0,0,0,.24-.08.58.58,0,0,0,.25-.5A.56.56,0,0,0,59.8,54ZM44.46,28.82A1.13,1.13,0,1,0,45.58,30,1.13,1.13,0,0,0,44.46,28.82Zm.17,1.71h-.37v-1.2h.37ZM56,30.72v.58h.83v-.58Zm-1.09-1.94v.58h.82v-.58ZM53.8,30.72v.58h.8v-.58ZM67,29.56a3.88,3.88,0,0,1-.58.09c0,.19,0,.38,0,.57a3.75,3.75,0,0,1,.57.09,1,1,0,0,0,.07-.38A.94.94,0,0,0,67,29.56Zm-.69-.69a5.77,5.77,0,0,1,.09.6,3.08,3.08,0,0,0,.53-.08A1.07,1.07,0,0,0,66.27,28.87Zm.11,1.53a4.17,4.17,0,0,1-.08.59,1.1,1.1,0,0,0,.58-.5A2.75,2.75,0,0,0,66.38,30.4Zm-.19-.74a3.88,3.88,0,0,1-.59,0,5.23,5.23,0,0,0,0,.56q.3,0,.6,0A3.37,3.37,0,0,0,66.19,29.66Zm-.59.73a4.87,4.87,0,0,0,.1.65l.21,0,.19,0a5.13,5.13,0,0,0,.1-.65Q65.9,30.38,65.6,30.39Zm.48-1.57-.17,0-.19,0c0,.22-.08.43-.1.65a5.19,5.19,0,0,0,.56,0C66.15,29.26,66.12,29,66.08,28.82Zm-1.16.56.51.08c0-.2.06-.39.1-.59A1.13,1.13,0,0,0,64.92,29.38Zm.5,1c-.17,0-.33.05-.5.07a1.15,1.15,0,0,0,.59.5A5.62,5.62,0,0,1,65.42,30.41Zm0-.77-.57-.09a1.07,1.07,0,0,0,0,.76l.56-.08C65.41,30,65.41,29.83,65.42,29.64Zm-21-.82A1.13,1.13,0,1,0,45.58,30,1.13,1.13,0,0,0,44.46,28.82Zm.17,1.71h-.37v-1.2h.37Zm9.17.19v.58h.8v-.58Zm1.09-1.94v.58h.82v-.58ZM56,30.72v.58h.83v-.58ZM59.8,54h-.33v1.15h.37a.64.64,0,0,0,.24-.08.58.58,0,0,0,.25-.5A.56.56,0,0,0,59.8,54Zm0,0h-.33v1.15h.37a.64.64,0,0,0,.24-.08.58.58,0,0,0,.25-.5A.56.56,0,0,0,59.8,54Zm-4.61-10.8A11.66,11.66,0,1,0,66.85,54.89,11.65,11.65,0,0,0,55.19,43.23ZM47.52,56h-.63v.78H46v-3.5h1.59a1.29,1.29,0,0,1,.59.17,1.27,1.27,0,0,1,.6,1.19A1.31,1.31,0,0,1,47.52,56Zm4.4.78h-.87V55.35h-1v1.41h-.93V53.29h.91v1.27h1V53.29h.88Zm1.74,0h-.88V53.28h.88Zm2.69,0H54.52V53.29h.88v2.65h1Zm1.34,0h-.87V53.28h.87ZM60.14,56h-.67v.78h-.93v-3.5h1.61a1.47,1.47,0,0,1,.59.2,1.27,1.27,0,0,1,.58,1.16A1.4,1.4,0,0,1,60.14,56Zm2.36.81a4.37,4.37,0,0,1-.59-.08l-.15,0v-.82s.14.11.75.11.6-.22.6-.25.15-.18-.65-.39a1,1,0,0,1-.8-1c0-1,.85-1.13,1.33-1.13a5.26,5.26,0,0,1,.66,0v.85s0-.07-.57-.08-.54.27-.54.27.06.2.56.32A1.08,1.08,0,0,1,64,55.67C64,56.51,63.29,56.85,62.5,56.79ZM59.8,54h-.33v1.15h.37a.64.64,0,0,0,.24-.08.58.58,0,0,0,.25-.5A.56.56,0,0,0,59.8,54ZM47.22,54h-.33v1.15h.37a.64.64,0,0,0,.24-.08A.59.59,0,0,0,47.22,54Zm18.2-24.39-.57-.09a1.07,1.07,0,0,0,0,.76l.56-.08C65.41,30,65.41,29.83,65.42,29.64Zm0,.77c-.17,0-.33.05-.5.07a1.15,1.15,0,0,0,.59.5A5.62,5.62,0,0,1,65.42,30.41Zm-.5-1,.51.08c0-.2.06-.39.1-.59A1.13,1.13,0,0,0,64.92,29.38Zm1.16-.56-.17,0-.19,0c0,.22-.08.43-.1.65a5.19,5.19,0,0,0,.56,0C66.15,29.26,66.12,29,66.08,28.82Zm-.48,1.57a4.87,4.87,0,0,0,.1.65l.21,0,.19,0a5.13,5.13,0,0,0,.1-.65Q65.9,30.38,65.6,30.39Zm.59-.73a3.88,3.88,0,0,1-.59,0,5.23,5.23,0,0,0,0,.56q.3,0,.6,0A3.37,3.37,0,0,0,66.19,29.66Zm.19.74a4.17,4.17,0,0,1-.08.59,1.1,1.1,0,0,0,.58-.5A2.75,2.75,0,0,0,66.38,30.4Zm-.11-1.53a5.77,5.77,0,0,1,.09.6,3.08,3.08,0,0,0,.53-.08A1.07,1.07,0,0,0,66.27,28.87Zm.69.69a3.88,3.88,0,0,1-.58.09c0,.19,0,.38,0,.57a3.75,3.75,0,0,1,.57.09,1,1,0,0,0,.07-.38A.94.94,0,0,0,67,29.56ZM55.19,43.23A11.66,11.66,0,1,0,66.85,54.89,11.65,11.65,0,0,0,55.19,43.23ZM47.52,56h-.63v.78H46v-3.5h1.59a1.29,1.29,0,0,1,.59.17,1.27,1.27,0,0,1,.6,1.19A1.31,1.31,0,0,1,47.52,56Zm4.4.78h-.87V55.35h-1v1.41h-.93V53.29h.91v1.27h1V53.29h.88Zm1.74,0h-.88V53.28h.88Zm2.69,0H54.52V53.29h.88v2.65h1Zm1.34,0h-.87V53.28h.87ZM60.14,56h-.67v.78h-.93v-3.5h1.61a1.47,1.47,0,0,1,.59.2,1.27,1.27,0,0,1,.58,1.16A1.4,1.4,0,0,1,60.14,56Zm2.36.81a4.37,4.37,0,0,1-.59-.08l-.15,0v-.82s.14.11.75.11.6-.22.6-.25.15-.18-.65-.39a1,1,0,0,1-.8-1c0-1,.85-1.13,1.33-1.13a5.26,5.26,0,0,1,.66,0v.85s0-.07-.57-.08-.54.27-.54.27.06.2.56.32A1.08,1.08,0,0,1,64,55.67C64,56.51,63.29,56.85,62.5,56.79ZM59.8,54h-.33v1.15h.37a.64.64,0,0,0,.24-.08.58.58,0,0,0,.25-.5A.56.56,0,0,0,59.8,54ZM47.22,54h-.33v1.15h.37a.64.64,0,0,0,.24-.08A.59.59,0,0,0,47.22,54ZM44.46,28.82A1.13,1.13,0,1,0,45.58,30,1.13,1.13,0,0,0,44.46,28.82Zm.17,1.71h-.37v-1.2h.37ZM56,30.72v.58h.83v-.58Zm-1.09-1.36h.82v-.58h-.82ZM53.8,31.3h.8v-.58h-.8ZM67,29.56a3.88,3.88,0,0,1-.58.09c0,.19,0,.38,0,.57a3.75,3.75,0,0,1,.57.09,1,1,0,0,0,.07-.38A.94.94,0,0,0,67,29.56Zm-.07-.17a1.07,1.07,0,0,0-.62-.52,5.77,5.77,0,0,1,.09.6A3.08,3.08,0,0,0,66.89,29.39ZM66.3,31a1.1,1.1,0,0,0,.58-.5,2.75,2.75,0,0,0-.5-.09A4.17,4.17,0,0,1,66.3,31Zm-.7-1.34a5.23,5.23,0,0,0,0,.56q.3,0,.6,0a3.37,3.37,0,0,0,0-.55A3.88,3.88,0,0,1,65.6,29.65Zm0,.74a4.87,4.87,0,0,0,.1.65l.21,0,.19,0a5.13,5.13,0,0,0,.1-.65Q65.9,30.38,65.6,30.39Zm.48-1.57-.17,0-.19,0c0,.22-.08.43-.1.65a5.19,5.19,0,0,0,.56,0C66.15,29.26,66.12,29,66.08,28.82Zm-1.16.56.51.08c0-.2.06-.39.1-.59A1.13,1.13,0,0,0,64.92,29.38Zm0,1.1a1.15,1.15,0,0,0,.59.5,5.62,5.62,0,0,1-.09-.57C65.25,30.42,65.09,30.46,64.92,30.48Zm.5-.84-.57-.09a1.07,1.07,0,0,0,0,.76l.56-.08C65.41,30,65.41,29.83,65.42,29.64Zm7-6.67H37.54A14.5,14.5,0,0,0,23,37.5v35A14.5,14.5,0,0,0,37.54,87H72.46A14.5,14.5,0,0,0,87,72.5v-35A14.5,14.5,0,0,0,72.46,23Zm-6.55,5.46a1.5,1.5,0,1,1-1.5,1.5A1.5,1.5,0,0,1,65.91,28.43Zm.64,5.06A.52.52,0,1,1,66,33,.52.52,0,0,1,66.55,33.49Zm-13-3.64h1.71v-.26h-.59v-1h1.28v1h-.51v.26H57v.33h-.47v.3H57v1.05H55.75V30.48h.6v-.3H54.27v.3h.56v1.05H53.55V30.48h.54v-.3h-.55Zm2.23,3.64a.52.52,0,1,1-.52-.51A.52.52,0,0,1,55.77,33.49Zm-11.31-5A1.5,1.5,0,1,1,43,30,1.49,1.49,0,0,1,44.46,28.46Zm.53,5a.52.52,0,1,1-.52-.51A.52.52,0,0,1,45,33.49Zm10.2,33.77A12.37,12.37,0,1,1,67.56,54.89,12.38,12.38,0,0,1,55.19,67.26Zm11.2-37a3.75,3.75,0,0,1,.57.09,1,1,0,0,0,.07-.38.94.94,0,0,0-.07-.37,3.88,3.88,0,0,1-.58.09C66.39,29.84,66.39,30,66.39,30.22Zm.5-.83a1.07,1.07,0,0,0-.62-.52,5.77,5.77,0,0,1,.09.6A3.08,3.08,0,0,0,66.89,29.39ZM66.3,31a1.1,1.1,0,0,0,.58-.5,2.75,2.75,0,0,0-.5-.09A4.17,4.17,0,0,1,66.3,31Zm-.1-.78a3.37,3.37,0,0,0,0-.55,3.88,3.88,0,0,1-.59,0,5.23,5.23,0,0,0,0,.56Q65.9,30.2,66.2,30.21Zm-.6.18a4.87,4.87,0,0,0,.1.65l.21,0,.19,0a5.13,5.13,0,0,0,.1-.65Q65.9,30.38,65.6,30.39Zm.48-1.57-.17,0-.19,0c0,.22-.08.43-.1.65a5.19,5.19,0,0,0,.56,0C66.15,29.26,66.12,29,66.08,28.82Zm-.55.05a1.13,1.13,0,0,0-.61.51l.51.08C65.46,29.26,65.49,29.07,65.53,28.87Zm-.61,1.61a1.15,1.15,0,0,0,.59.5,5.62,5.62,0,0,1-.09-.57C65.25,30.42,65.09,30.46,64.92,30.48Zm.5-.84-.57-.09a1.07,1.07,0,0,0,0,.76l.56-.08C65.41,30,65.41,29.83,65.42,29.64ZM55.19,43.23A11.66,11.66,0,1,0,66.85,54.89,11.65,11.65,0,0,0,55.19,43.23ZM47.52,56h-.63v.78H46v-3.5h1.59a1.29,1.29,0,0,1,.59.17,1.27,1.27,0,0,1,.6,1.19A1.31,1.31,0,0,1,47.52,56Zm4.4.78h-.87V55.35h-1v1.41h-.93V53.29h.91v1.27h1V53.29h.88Zm1.74,0h-.88V53.28h.88Zm2.69,0H54.52V53.29h.88v2.65h1Zm1.34,0h-.87V53.28h.87ZM60.14,56h-.67v.78h-.93v-3.5h1.61a1.47,1.47,0,0,1,.59.2,1.27,1.27,0,0,1,.58,1.16A1.4,1.4,0,0,1,60.14,56Zm3.52-1.88s0-.07-.57-.08-.54.27-.54.27.06.2.56.32A1.08,1.08,0,0,1,64,55.67c0,.84-.75,1.18-1.54,1.12a4.37,4.37,0,0,1-.59-.08l-.15,0v-.82s.14.11.75.11.6-.22.6-.25.15-.18-.65-.39a1,1,0,0,1-.8-1c0-1,.85-1.13,1.33-1.13a5.26,5.26,0,0,1,.66,0ZM59.8,54h-.33v1.15h.37a.64.64,0,0,0,.24-.08.58.58,0,0,0,.25-.5A.56.56,0,0,0,59.8,54ZM56,31.3h.83v-.58H56Zm-.27-2.52h-.82v.58h.82ZM53.8,31.3h.8v-.58h-.8ZM47.22,54h-.33v1.15h.37a.64.64,0,0,0,.24-.08A.59.59,0,0,0,47.22,54Zm-2.76-23A1.13,1.13,0,1,0,43.33,30,1.12,1.12,0,0,0,44.46,31.08Zm-.2-1.75h.37v1.2h-.37Zm21.16.31-.57-.09a1.07,1.07,0,0,0,0,.76l.56-.08C65.41,30,65.41,29.83,65.42,29.64Zm0,.77c-.17,0-.33.05-.5.07a1.15,1.15,0,0,0,.59.5A5.62,5.62,0,0,1,65.42,30.41Zm-.5-1,.51.08c0-.2.06-.39.1-.59A1.13,1.13,0,0,0,64.92,29.38Zm1.16-.56-.17,0-.19,0c0,.22-.08.43-.1.65a5.19,5.19,0,0,0,.56,0C66.15,29.26,66.12,29,66.08,28.82Zm-.48,1.57a4.87,4.87,0,0,0,.1.65l.21,0,.19,0a5.13,5.13,0,0,0,.1-.65Q65.9,30.38,65.6,30.39Zm.59-.73a3.88,3.88,0,0,1-.59,0,5.23,5.23,0,0,0,0,.56q.3,0,.6,0A3.37,3.37,0,0,0,66.19,29.66Zm.19.74a4.17,4.17,0,0,1-.08.59,1.1,1.1,0,0,0,.58-.5A2.75,2.75,0,0,0,66.38,30.4Zm-.11-1.53a5.77,5.77,0,0,1,.09.6,3.08,3.08,0,0,0,.53-.08A1.07,1.07,0,0,0,66.27,28.87Zm.69.69a3.88,3.88,0,0,1-.58.09c0,.19,0,.38,0,.57a3.75,3.75,0,0,1,.57.09,1,1,0,0,0,.07-.38A.94.94,0,0,0,67,29.56ZM53.8,30.72v.58h.8v-.58Zm1.09-1.94v.58h.82v-.58ZM56,30.72v.58h.83v-.58Zm-11.52-1.9A1.13,1.13,0,1,0,45.58,30,1.13,1.13,0,0,0,44.46,28.82Zm.17,1.71h-.37v-1.2h.37ZM59.8,54h-.33v1.15h.37a.64.64,0,0,0,.24-.08.58.58,0,0,0,.25-.5A.56.56,0,0,0,59.8,54Zm0,0h-.33v1.15h.37a.64.64,0,0,0,.24-.08.58.58,0,0,0,.25-.5A.56.56,0,0,0,59.8,54Zm-4.61-10.8A11.66,11.66,0,1,0,66.85,54.89,11.65,11.65,0,0,0,55.19,43.23ZM47.52,56h-.63v.78H46v-3.5h1.59a1.29,1.29,0,0,1,.59.17,1.27,1.27,0,0,1,.6,1.19A1.31,1.31,0,0,1,47.52,56Zm4.4.78h-.87V55.35h-1v1.41h-.93V53.29h.91v1.27h1V53.29h.88Zm1.74,0h-.88V53.28h.88Zm2.69,0H54.52V53.29h.88v2.65h1Zm1.34,0h-.87V53.28h.87ZM60.14,56h-.67v.78h-.93v-3.5h1.61a1.47,1.47,0,0,1,.59.2,1.27,1.27,0,0,1,.58,1.16A1.4,1.4,0,0,1,60.14,56Zm2.36.81a4.37,4.37,0,0,1-.59-.08l-.15,0v-.82s.14.11.75.11.6-.22.6-.25.15-.18-.65-.39a1,1,0,0,1-.8-1c0-1,.85-1.13,1.33-1.13a5.26,5.26,0,0,1,.66,0v.85s0-.07-.57-.08-.54.27-.54.27.06.2.56.32A1.08,1.08,0,0,1,64,55.67C64,56.51,63.29,56.85,62.5,56.79ZM59.8,54h-.33v1.15h.37a.64.64,0,0,0,.24-.08.58.58,0,0,0,.25-.5A.56.56,0,0,0,59.8,54ZM47.22,54h-.33v1.15h.37a.64.64,0,0,0,.24-.08A.59.59,0,0,0,47.22,54ZM67,29.56a3.88,3.88,0,0,1-.58.09c0,.19,0,.38,0,.57a3.75,3.75,0,0,1,.57.09,1,1,0,0,0,.07-.38A.94.94,0,0,0,67,29.56Zm-.69-.69a5.77,5.77,0,0,1,.09.6,3.08,3.08,0,0,0,.53-.08A1.07,1.07,0,0,0,66.27,28.87Zm.11,1.53a4.17,4.17,0,0,1-.08.59,1.1,1.1,0,0,0,.58-.5A2.75,2.75,0,0,0,66.38,30.4Zm-.19-.74a3.88,3.88,0,0,1-.59,0,5.23,5.23,0,0,0,0,.56q.3,0,.6,0A3.37,3.37,0,0,0,66.19,29.66Zm-.59.73a4.87,4.87,0,0,0,.1.65l.21,0,.19,0a5.13,5.13,0,0,0,.1-.65Q65.9,30.38,65.6,30.39Zm.48-1.57-.17,0-.19,0c0,.22-.08.43-.1.65a5.19,5.19,0,0,0,.56,0C66.15,29.26,66.12,29,66.08,28.82Zm-1.16.56.51.08c0-.2.06-.39.1-.59A1.13,1.13,0,0,0,64.92,29.38Zm.5,1c-.17,0-.33.05-.5.07a1.15,1.15,0,0,0,.59.5A5.62,5.62,0,0,1,65.42,30.41Zm0-.77-.57-.09a1.07,1.07,0,0,0,0,.76l.56-.08C65.41,30,65.41,29.83,65.42,29.64ZM59.8,54h-.33v1.15h.37a.64.64,0,0,0,.24-.08.58.58,0,0,0,.25-.5A.56.56,0,0,0,59.8,54Zm0,0h-.33v1.15h.37a.64.64,0,0,0,.24-.08.58.58,0,0,0,.25-.5A.56.56,0,0,0,59.8,54Zm-4.61-10.8A11.66,11.66,0,1,0,66.85,54.89,11.65,11.65,0,0,0,55.19,43.23ZM47.52,56h-.63v.78H46v-3.5h1.59a1.29,1.29,0,0,1,.59.17,1.27,1.27,0,0,1,.6,1.19A1.31,1.31,0,0,1,47.52,56Zm4.4.78h-.87V55.35h-1v1.41h-.93V53.29h.91v1.27h1V53.29h.88Zm1.74,0h-.88V53.28h.88Zm2.69,0H54.52V53.29h.88v2.65h1Zm1.34,0h-.87V53.28h.87ZM60.14,56h-.67v.78h-.93v-3.5h1.61a1.47,1.47,0,0,1,.59.2,1.27,1.27,0,0,1,.58,1.16A1.4,1.4,0,0,1,60.14,56Zm2.36.81a4.37,4.37,0,0,1-.59-.08l-.15,0v-.82s.14.11.75.11.6-.22.6-.25.15-.18-.65-.39a1,1,0,0,1-.8-1c0-1,.85-1.13,1.33-1.13a5.26,5.26,0,0,1,.66,0v.85s0-.07-.57-.08-.54.27-.54.27.06.2.56.32A1.08,1.08,0,0,1,64,55.67C64,56.51,63.29,56.85,62.5,56.79ZM59.8,54h-.33v1.15h.37a.64.64,0,0,0,.24-.08.58.58,0,0,0,.25-.5A.56.56,0,0,0,59.8,54ZM47.22,54h-.33v1.15h.37a.64.64,0,0,0,.24-.08A.59.59,0,0,0,47.22,54ZM59.8,54h-.33v1.15h.37a.64.64,0,0,0,.24-.08.58.58,0,0,0,.25-.5A.56.56,0,0,0,59.8,54Zm0,0h-.33v1.15h.37a.64.64,0,0,0,.24-.08.58.58,0,0,0,.25-.5A.56.56,0,0,0,59.8,54ZM56,30.72v.58h.83v-.58Zm-1.09-1.94v.58h.82v-.58ZM53.8,30.72v.58h.8v-.58Zm-9.34-1.9A1.13,1.13,0,1,0,45.58,30,1.13,1.13,0,0,0,44.46,28.82Zm.17,1.71h-.37v-1.2h.37Zm20.79-.89-.57-.09a1.07,1.07,0,0,0,0,.76l.56-.08C65.41,30,65.41,29.83,65.42,29.64Zm0,.77c-.17,0-.33.05-.5.07a1.15,1.15,0,0,0,.59.5A5.62,5.62,0,0,1,65.42,30.41Zm-.5-1,.51.08c0-.2.06-.39.1-.59A1.13,1.13,0,0,0,64.92,29.38Zm1.16-.56-.17,0-.19,0c0,.22-.08.43-.1.65a5.19,5.19,0,0,0,.56,0C66.15,29.26,66.12,29,66.08,28.82Zm-.48,1.57a4.87,4.87,0,0,0,.1.65l.21,0,.19,0a5.13,5.13,0,0,0,.1-.65Q65.9,30.38,65.6,30.39Zm.59-.73a3.88,3.88,0,0,1-.59,0,5.23,5.23,0,0,0,0,.56q.3,0,.6,0A3.37,3.37,0,0,0,66.19,29.66Zm.19.74a4.17,4.17,0,0,1-.08.59,1.1,1.1,0,0,0,.58-.5A2.75,2.75,0,0,0,66.38,30.4Zm-.11-1.53a5.77,5.77,0,0,1,.09.6,3.08,3.08,0,0,0,.53-.08A1.07,1.07,0,0,0,66.27,28.87Zm.69.69a3.88,3.88,0,0,1-.58.09c0,.19,0,.38,0,.57a3.75,3.75,0,0,1,.57.09,1,1,0,0,0,.07-.38A.94.94,0,0,0,67,29.56ZM53.8,30.72v.58h.8v-.58Zm1.09-1.94v.58h.82v-.58ZM56,30.72v.58h.83v-.58Zm-11.52-1.9A1.13,1.13,0,1,0,45.58,30,1.13,1.13,0,0,0,44.46,28.82Zm.17,1.71h-.37v-1.2h.37ZM59.8,54h-.33v1.15h.37a.64.64,0,0,0,.24-.08.58.58,0,0,0,.25-.5A.56.56,0,0,0,59.8,54Zm0,0h-.33v1.15h.37a.64.64,0,0,0,.24-.08.58.58,0,0,0,.25-.5A.56.56,0,0,0,59.8,54Zm0,0h-.33v1.15h.37a.64.64,0,0,0,.24-.08.58.58,0,0,0,.25-.5A.56.56,0,0,0,59.8,54Zm0,0h-.33v1.15h.37a.64.64,0,0,0,.24-.08.58.58,0,0,0,.25-.5A.56.56,0,0,0,59.8,54Zm-4.61-10.8A11.66,11.66,0,1,0,66.85,54.89,11.65,11.65,0,0,0,55.19,43.23ZM47.52,56h-.63v.78H46v-3.5h1.59a1.29,1.29,0,0,1,.59.17,1.27,1.27,0,0,1,.6,1.19A1.31,1.31,0,0,1,47.52,56Zm4.4.78h-.87V55.35h-1v1.41h-.93V53.29h.91v1.27h1V53.29h.88Zm1.74,0h-.88V53.28h.88Zm2.69,0H54.52V53.29h.88v2.65h1Zm1.34,0h-.87V53.28h.87ZM60.14,56h-.67v.78h-.93v-3.5h1.61a1.47,1.47,0,0,1,.59.2,1.27,1.27,0,0,1,.58,1.16A1.4,1.4,0,0,1,60.14,56Zm2.36.81a4.37,4.37,0,0,1-.59-.08l-.15,0v-.82s.14.11.75.11.6-.22.6-.25.15-.18-.65-.39a1,1,0,0,1-.8-1c0-1,.85-1.13,1.33-1.13a5.26,5.26,0,0,1,.66,0v.85s0-.07-.57-.08-.54.27-.54.27.06.2.56.32A1.08,1.08,0,0,1,64,55.67C64,56.51,63.29,56.85,62.5,56.79ZM59.8,54h-.33v1.15h.37a.64.64,0,0,0,.24-.08.58.58,0,0,0,.25-.5A.56.56,0,0,0,59.8,54ZM47.22,54h-.33v1.15h.37a.64.64,0,0,0,.24-.08A.59.59,0,0,0,47.22,54ZM59.8,54h-.33v1.15h.37a.64.64,0,0,0,.24-.08.58.58,0,0,0,.25-.5A.56.56,0,0,0,59.8,54Zm0,0h-.33v1.15h.37a.64.64,0,0,0,.24-.08.58.58,0,0,0,.25-.5A.56.56,0,0,0,59.8,54ZM67,29.56a3.88,3.88,0,0,1-.58.09c0,.19,0,.38,0,.57a3.75,3.75,0,0,1,.57.09,1,1,0,0,0,.07-.38A.94.94,0,0,0,67,29.56Zm-.69-.69a5.77,5.77,0,0,1,.09.6,3.08,3.08,0,0,0,.53-.08A1.07,1.07,0,0,0,66.27,28.87Zm.11,1.53a4.17,4.17,0,0,1-.08.59,1.1,1.1,0,0,0,.58-.5A2.75,2.75,0,0,0,66.38,30.4Zm-.19-.74a3.88,3.88,0,0,1-.59,0,5.23,5.23,0,0,0,0,.56q.3,0,.6,0A3.37,3.37,0,0,0,66.19,29.66Zm-.59.73a4.87,4.87,0,0,0,.1.65l.21,0,.19,0a5.13,5.13,0,0,0,.1-.65Q65.9,30.38,65.6,30.39Zm.48-1.57-.17,0-.19,0c0,.22-.08.43-.1.65a5.19,5.19,0,0,0,.56,0C66.15,29.26,66.12,29,66.08,28.82Zm-1.16.56.51.08c0-.2.06-.39.1-.59A1.13,1.13,0,0,0,64.92,29.38Zm.5,1c-.17,0-.33.05-.5.07a1.15,1.15,0,0,0,.59.5A5.62,5.62,0,0,1,65.42,30.41Zm0-.77-.57-.09a1.07,1.07,0,0,0,0,.76l.56-.08C65.41,30,65.41,29.83,65.42,29.64ZM59.8,54h-.33v1.15h.37a.64.64,0,0,0,.24-.08.58.58,0,0,0,.25-.5A.56.56,0,0,0,59.8,54Zm0,0h-.33v1.15h.37a.64.64,0,0,0,.24-.08.58.58,0,0,0,.25-.5A.56.56,0,0,0,59.8,54Zm0,0h-.33v1.15h.37a.64.64,0,0,0,.24-.08.58.58,0,0,0,.25-.5A.56.56,0,0,0,59.8,54Zm0,0h-.33v1.15h.37a.64.64,0,0,0,.24-.08.58.58,0,0,0,.25-.5A.56.56,0,0,0,59.8,54Zm-4.61-10.8A11.66,11.66,0,1,0,66.85,54.89,11.65,11.65,0,0,0,55.19,43.23ZM47.52,56h-.63v.78H46v-3.5h1.59a1.29,1.29,0,0,1,.59.17,1.27,1.27,0,0,1,.6,1.19A1.31,1.31,0,0,1,47.52,56Zm4.4.78h-.87V55.35h-1v1.41h-.93V53.29h.91v1.27h1V53.29h.88Zm1.74,0h-.88V53.28h.88Zm2.69,0H54.52V53.29h.88v2.65h1Zm1.34,0h-.87V53.28h.87ZM60.14,56h-.67v.78h-.93v-3.5h1.61a1.47,1.47,0,0,1,.59.2,1.27,1.27,0,0,1,.58,1.16A1.4,1.4,0,0,1,60.14,56Zm2.36.81a4.37,4.37,0,0,1-.59-.08l-.15,0v-.82s.14.11.75.11.6-.22.6-.25.15-.18-.65-.39a1,1,0,0,1-.8-1c0-1,.85-1.13,1.33-1.13a5.26,5.26,0,0,1,.66,0v.85s0-.07-.57-.08-.54.27-.54.27.06.2.56.32A1.08,1.08,0,0,1,64,55.67C64,56.51,63.29,56.85,62.5,56.79ZM59.8,54h-.33v1.15h.37a.64.64,0,0,0,.24-.08.58.58,0,0,0,.25-.5A.56.56,0,0,0,59.8,54ZM47.22,54h-.33v1.15h.37a.64.64,0,0,0,.24-.08A.59.59,0,0,0,47.22,54ZM59.8,54h-.33v1.15h.37a.64.64,0,0,0,.24-.08.58.58,0,0,0,.25-.5A.56.56,0,0,0,59.8,54Zm0,0h-.33v1.15h.37a.64.64,0,0,0,.24-.08.58.58,0,0,0,.25-.5A.56.56,0,0,0,59.8,54Zm0,0h-.33v1.15h.37a.64.64,0,0,0,.24-.08.58.58,0,0,0,.25-.5A.56.56,0,0,0,59.8,54Zm0,0h-.33v1.15h.37a.64.64,0,0,0,.24-.08.58.58,0,0,0,.25-.5A.56.56,0,0,0,59.8,54ZM56,30.72v.58h.83v-.58Zm-1.09-1.94v.58h.82v-.58ZM53.8,30.72v.58h.8v-.58Zm-9.34-1.9A1.13,1.13,0,1,0,45.58,30,1.13,1.13,0,0,0,44.46,28.82Zm.17,1.71h-.37v-1.2h.37Zm20.79-.89-.57-.09a1.07,1.07,0,0,0,0,.76l.56-.08C65.41,30,65.41,29.83,65.42,29.64Zm0,.77c-.17,0-.33.05-.5.07a1.15,1.15,0,0,0,.59.5A5.62,5.62,0,0,1,65.42,30.41Zm-.5-1,.51.08c0-.2.06-.39.1-.59A1.13,1.13,0,0,0,64.92,29.38Zm1.16-.56-.17,0-.19,0c0,.22-.08.43-.1.65a5.19,5.19,0,0,0,.56,0C66.15,29.26,66.12,29,66.08,28.82Zm-.48,1.57a4.87,4.87,0,0,0,.1.65l.21,0,.19,0a5.13,5.13,0,0,0,.1-.65Q65.9,30.38,65.6,30.39Zm.59-.73a3.88,3.88,0,0,1-.59,0,5.23,5.23,0,0,0,0,.56q.3,0,.6,0A3.37,3.37,0,0,0,66.19,29.66Zm.19.74a4.17,4.17,0,0,1-.08.59,1.1,1.1,0,0,0,.58-.5A2.75,2.75,0,0,0,66.38,30.4Zm-.11-1.53a5.77,5.77,0,0,1,.09.6,3.08,3.08,0,0,0,.53-.08A1.07,1.07,0,0,0,66.27,28.87Zm.69.69a3.88,3.88,0,0,1-.58.09c0,.19,0,.38,0,.57a3.75,3.75,0,0,1,.57.09,1,1,0,0,0,.07-.38A.94.94,0,0,0,67,29.56ZM53.8,30.72v.58h.8v-.58Zm1.09-1.94v.58h.82v-.58ZM56,30.72v.58h.83v-.58Zm-11.52-1.9A1.13,1.13,0,1,0,45.58,30,1.13,1.13,0,0,0,44.46,28.82Zm.17,1.71h-.37v-1.2h.37ZM59.8,54h-.33v1.15h.37a.64.64,0,0,0,.24-.08.58.58,0,0,0,.25-.5A.56.56,0,0,0,59.8,54Zm0,0h-.33v1.15h.37a.64.64,0,0,0,.24-.08.58.58,0,0,0,.25-.5A.56.56,0,0,0,59.8,54Zm0,0h-.33v1.15h.37a.64.64,0,0,0,.24-.08.58.58,0,0,0,.25-.5A.56.56,0,0,0,59.8,54Zm0,0h-.33v1.15h.37a.64.64,0,0,0,.24-.08.58.58,0,0,0,.25-.5A.56.56,0,0,0,59.8,54Zm0,0h-.33v1.15h.37a.64.64,0,0,0,.24-.08.58.58,0,0,0,.25-.5A.56.56,0,0,0,59.8,54Zm0,0h-.33v1.15h.37a.64.64,0,0,0,.24-.08.58.58,0,0,0,.25-.5A.56.56,0,0,0,59.8,54Zm-4.61-10.8A11.66,11.66,0,1,0,66.85,54.89,11.65,11.65,0,0,0,55.19,43.23ZM47.52,56h-.63v.78H46v-3.5h1.59a1.29,1.29,0,0,1,.59.17,1.27,1.27,0,0,1,.6,1.19A1.31,1.31,0,0,1,47.52,56Zm4.4.78h-.87V55.35h-1v1.41h-.93V53.29h.91v1.27h1V53.29h.88Zm1.74,0h-.88V53.28h.88Zm2.69,0H54.52V53.29h.88v2.65h1Zm1.34,0h-.87V53.28h.87ZM60.14,56h-.67v.78h-.93v-3.5h1.61a1.47,1.47,0,0,1,.59.2,1.27,1.27,0,0,1,.58,1.16A1.4,1.4,0,0,1,60.14,56Zm2.36.81a4.37,4.37,0,0,1-.59-.08l-.15,0v-.82s.14.11.75.11.6-.22.6-.25.15-.18-.65-.39a1,1,0,0,1-.8-1c0-1,.85-1.13,1.33-1.13a5.26,5.26,0,0,1,.66,0v.85s0-.07-.57-.08-.54.27-.54.27.06.2.56.32A1.08,1.08,0,0,1,64,55.67C64,56.51,63.29,56.85,62.5,56.79ZM59.8,54h-.33v1.15h.37a.64.64,0,0,0,.24-.08.58.58,0,0,0,.25-.5A.56.56,0,0,0,59.8,54ZM47.22,54h-.33v1.15h.37a.64.64,0,0,0,.24-.08A.59.59,0,0,0,47.22,54ZM59.8,54h-.33v1.15h.37a.64.64,0,0,0,.24-.08.58.58,0,0,0,.25-.5A.56.56,0,0,0,59.8,54Zm0,0h-.33v1.15h.37a.64.64,0,0,0,.24-.08.58.58,0,0,0,.25-.5A.56.56,0,0,0,59.8,54Zm0,0h-.33v1.15h.37a.64.64,0,0,0,.24-.08.58.58,0,0,0,.25-.5A.56.56,0,0,0,59.8,54Zm0,0h-.33v1.15h.37a.64.64,0,0,0,.24-.08.58.58,0,0,0,.25-.5A.56.56,0,0,0,59.8,54ZM67,29.56a3.88,3.88,0,0,1-.58.09c0,.19,0,.38,0,.57a3.75,3.75,0,0,1,.57.09,1,1,0,0,0,.07-.38A.94.94,0,0,0,67,29.56Zm-.69-.69a5.77,5.77,0,0,1,.09.6,3.08,3.08,0,0,0,.53-.08A1.07,1.07,0,0,0,66.27,28.87Zm.11,1.53a4.17,4.17,0,0,1-.08.59,1.1,1.1,0,0,0,.58-.5A2.75,2.75,0,0,0,66.38,30.4Zm-.19-.74a3.88,3.88,0,0,1-.59,0,5.23,5.23,0,0,0,0,.56q.3,0,.6,0A3.37,3.37,0,0,0,66.19,29.66Zm-.59.73a4.87,4.87,0,0,0,.1.65l.21,0,.19,0a5.13,5.13,0,0,0,.1-.65Q65.9,30.38,65.6,30.39Zm.48-1.57-.17,0-.19,0c0,.22-.08.43-.1.65a5.19,5.19,0,0,0,.56,0C66.15,29.26,66.12,29,66.08,28.82Zm-1.16.56.51.08c0-.2.06-.39.1-.59A1.13,1.13,0,0,0,64.92,29.38Zm.5,1c-.17,0-.33.05-.5.07a1.15,1.15,0,0,0,.59.5A5.62,5.62,0,0,1,65.42,30.41Zm0-.77-.57-.09a1.07,1.07,0,0,0,0,.76l.56-.08C65.41,30,65.41,29.83,65.42,29.64ZM59.8,54h-.33v1.15h.37a.64.64,0,0,0,.24-.08.58.58,0,0,0,.25-.5A.56.56,0,0,0,59.8,54Zm0,0h-.33v1.15h.37a.64.64,0,0,0,.24-.08.58.58,0,0,0,.25-.5A.56.56,0,0,0,59.8,54Zm0,0h-.33v1.15h.37a.64.64,0,0,0,.24-.08.58.58,0,0,0,.25-.5A.56.56,0,0,0,59.8,54Zm0,0h-.33v1.15h.37a.64.64,0,0,0,.24-.08.58.58,0,0,0,.25-.5A.56.56,0,0,0,59.8,54Zm0,0h-.33v1.15h.37a.64.64,0,0,0,.24-.08.58.58,0,0,0,.25-.5A.56.56,0,0,0,59.8,54Zm0,0h-.33v1.15h.37a.64.64,0,0,0,.24-.08.58.58,0,0,0,.25-.5A.56.56,0,0,0,59.8,54Zm-4.61-10.8A11.66,11.66,0,1,0,66.85,54.89,11.65,11.65,0,0,0,55.19,43.23ZM47.52,56h-.63v.78H46v-3.5h1.59a1.29,1.29,0,0,1,.59.17,1.27,1.27,0,0,1,.6,1.19A1.31,1.31,0,0,1,47.52,56Zm4.4.78h-.87V55.35h-1v1.41h-.93V53.29h.91v1.27h1V53.29h.88Zm1.74,0h-.88V53.28h.88Zm2.69,0H54.52V53.29h.88v2.65h1Zm1.34,0h-.87V53.28h.87ZM60.14,56h-.67v.78h-.93v-3.5h1.61a1.47,1.47,0,0,1,.59.2,1.27,1.27,0,0,1,.58,1.16A1.4,1.4,0,0,1,60.14,56Zm2.36.81a4.37,4.37,0,0,1-.59-.08l-.15,0v-.82s.14.11.75.11.6-.22.6-.25.15-.18-.65-.39a1,1,0,0,1-.8-1c0-1,.85-1.13,1.33-1.13a5.26,5.26,0,0,1,.66,0v.85s0-.07-.57-.08-.54.27-.54.27.06.2.56.32A1.08,1.08,0,0,1,64,55.67C64,56.51,63.29,56.85,62.5,56.79ZM59.8,54h-.33v1.15h.37a.64.64,0,0,0,.24-.08.58.58,0,0,0,.25-.5A.56.56,0,0,0,59.8,54ZM47.22,54h-.33v1.15h.37a.64.64,0,0,0,.24-.08A.59.59,0,0,0,47.22,54ZM59.8,54h-.33v1.15h.37a.64.64,0,0,0,.24-.08.58.58,0,0,0,.25-.5A.56.56,0,0,0,59.8,54Zm0,0h-.33v1.15h.37a.64.64,0,0,0,.24-.08.58.58,0,0,0,.25-.5A.56.56,0,0,0,59.8,54Zm0,0h-.33v1.15h.37a.64.64,0,0,0,.24-.08.58.58,0,0,0,.25-.5A.56.56,0,0,0,59.8,54Zm0,0h-.33v1.15h.37a.64.64,0,0,0,.24-.08.58.58,0,0,0,.25-.5A.56.56,0,0,0,59.8,54ZM56,30.72v.58h.83v-.58Zm-1.09-1.94v.58h.82v-.58ZM53.8,30.72v.58h.8v-.58Zm-9.34-1.9A1.13,1.13,0,1,0,45.58,30,1.13,1.13,0,0,0,44.46,28.82Zm.17,1.71h-.37v-1.2h.37Z" style="fill:#18aceb"/></g></g></svg>