<svg xmlns="http://www.w3.org/2000/svg" viewBox="0 0 110 110"><title>NodeMCU</title><g id="3f6af99c-3942-4a99-9f66-7a9959492fe3" data-name="Layer 2"><g id="e90c029a-e1a9-4a3f-a93d-77a9c8f3aa2b" data-name="Layer 1"><circle cx="55" cy="55" r="52.5" style="fill:#44474e"/><path d="M55,5A50,50,0,1,1,5,55,50,50,0,0,1,55,5m0-5a55,55,0,1,0,55,55A55.06,55.06,0,0,0,55,0Z" style="fill:#28292d"/><g id="e8b1cd00-fc32-4dff-82d5-2bd782920234" data-name="&lt;Group&gt;"><path d="M43.52,21.31V28.2H42V21.31a.77.77,0,0,1,.77-.76A.76.76,0,0,1,43.52,21.31Z" style="fill:#25a9e0"/><path d="M52.7,22.85V28.2H45.05V22.85a.77.77,0,0,0,.76.76h6.13A.75.75,0,0,0,52.7,22.85Z" style="fill:#25a9e0"/><path d="M55.77,21.31V28.2H54.23V21.31a.77.77,0,0,1,.77-.76A.76.76,0,0,1,55.77,21.31Z" style="fill:#25a9e0"/><path d="M65,22.85V28.2H57.3V22.85a.77.77,0,0,0,.76.76h6.13A.75.75,0,0,0,65,22.85Z" style="fill:#25a9e0"/><path d="M68,21.31V28.2H66.48V21.31a.77.77,0,0,1,.77-.76A.76.76,0,0,1,68,21.31Z" style="fill:#25a9e0"/><path d="M88.69,42a.77.77,0,0,1,0,1.54H81.8V42Z" style="fill:#25a9e0"/><path d="M88.69,54.23a.77.77,0,0,1,0,1.54H81.8V54.23Z" style="fill:#25a9e0"/><path d="M88.69,66.48a.77.77,0,0,1,0,1.54H81.8V66.48Z" style="fill:#25a9e0"/><path d="M87.15,69.55v1.53a.76.76,0,0,0-.76.76V79.5a6.89,6.89,0,0,1-6.89,6.89H71.84a.77.77,0,0,0-.76.76H69.55V81.8h3.82a8.44,8.44,0,0,0,8.43-8.43V69.55Z" style="fill:#25a9e0"/><path d="M87.15,38.92v1.53H81.8V36.63a8.44,8.44,0,0,0-8.43-8.43H69.55V22.85h1.53a.77.77,0,0,0,.76.76H79.5a6.89,6.89,0,0,1,6.89,6.89v7.66A.76.76,0,0,0,87.15,38.92Z" style="fill:#25a9e0"/><path d="M81.8,45.05h5.35a.76.76,0,0,0-.76.76v6.13a.76.76,0,0,0,.76.76H81.8Z" style="fill:#25a9e0"/><path d="M81.8,57.3h5.35a.76.76,0,0,0-.76.76v6.13a.76.76,0,0,0,.76.76H81.8Z" style="fill:#25a9e0"/><path d="M80.26,68.78v4.59a6.88,6.88,0,0,1-6.89,6.89H36.63a6.9,6.9,0,0,1-6.89-6.89V36.63a6.9,6.9,0,0,1,6.89-6.89H73.37a6.88,6.88,0,0,1,6.89,6.89V68.78ZM77.2,42V37.39a4.59,4.59,0,0,0-4.59-4.59H68a.76.76,0,0,0-.77.76.77.77,0,0,0,.77.77h4.59a3.06,3.06,0,0,1,3.06,3.06V42a.77.77,0,0,0,.77.77A.76.76,0,0,0,77.2,42Zm-13.84-.45a.74.74,0,0,0-.24-.92.77.77,0,0,0-1,0L46.84,54.43a.78.78,0,0,0-.2.85.77.77,0,0,0,.7.49h4.95l-5.63,12.7a.76.76,0,0,0,.24.94.82.82,0,0,0,.44.14.79.79,0,0,0,.52-.2L63.18,55.57a.81.81,0,0,0,.2-.85.77.77,0,0,0-.72-.49H57.71Z" style="fill:#25a9e0"/><path d="M68,81.8v6.89a.76.76,0,0,1-.77.76.77.77,0,0,1-.77-.76V81.8Z" style="fill:#25a9e0"/><path d="M65,81.8v5.35a.75.75,0,0,0-.76-.76H58.06a.77.77,0,0,0-.76.76V81.8Z" style="fill:#25a9e0"/><path d="M60.67,55.77l-11.17,10,4.67-10.5a.69.69,0,0,0-.06-.72.76.76,0,0,0-.64-.36H49.35l11.15-10-4.66,10.5a.74.74,0,0,0,0,.72.78.78,0,0,0,.64.36Z" style="fill:#25a9e0"/><path d="M55.77,81.8v6.89a.76.76,0,0,1-.77.76.77.77,0,0,1-.77-.76V81.8Z" style="fill:#25a9e0"/><path d="M52.7,81.8v5.35a.75.75,0,0,0-.76-.76H45.81a.77.77,0,0,0-.76.76V81.8Z" style="fill:#25a9e0"/><path d="M43.52,81.8v6.89a.76.76,0,0,1-.77.76.77.77,0,0,1-.77-.76V81.8Z" style="fill:#25a9e0"/><path d="M40.45,81.8v5.35H38.92a.75.75,0,0,0-.76-.76H30.5a6.9,6.9,0,0,1-6.89-6.89V71.84a.75.75,0,0,0-.76-.76V69.55H28.2v3.82a8.45,8.45,0,0,0,8.43,8.43Z" style="fill:#25a9e0"/><path d="M40.45,22.85V28.2H36.63a8.45,8.45,0,0,0-8.43,8.43v3.82H22.85V38.92a.75.75,0,0,0,.76-.76V30.5a6.9,6.9,0,0,1,6.89-6.89h7.66a.75.75,0,0,0,.76-.76Z" style="fill:#25a9e0"/><path d="M28.2,66.48V68H21.31a.77.77,0,0,1,0-1.54Z" style="fill:#25a9e0"/><path d="M28.2,57.3V65H22.85a.75.75,0,0,0,.76-.76V58.06a.75.75,0,0,0-.76-.76Z" style="fill:#25a9e0"/><path d="M28.2,54.23v1.54H21.31a.77.77,0,0,1,0-1.54Z" style="fill:#25a9e0"/><path d="M28.2,45.05V52.7H22.85a.75.75,0,0,0,.76-.76V45.81a.75.75,0,0,0-.76-.76Z" style="fill:#25a9e0"/><path d="M28.2,42v1.54H21.31a.77.77,0,0,1,0-1.54Z" style="fill:#25a9e0"/></g></g></g></svg>