<svg xmlns="http://www.w3.org/2000/svg" viewBox="0 0 110 110"><title>Rachio</title><g id="4ee511fd-077e-4a79-9e01-7aa4da2ff5aa" data-name="Layer 2"><g id="624a36ae-b36a-4d3d-a9ff-3e8f088207df" data-name="Layer 1"><circle cx="55" cy="55" r="52.5" style="fill:#44474e"/><path d="M55,5A50,50,0,1,1,5,55,50,50,0,0,1,55,5m0-5a55,55,0,1,0,55,55A55.06,55.06,0,0,0,55,0Z" style="fill:#28292d"/><path d="M77.78,52.34V62.71H76.67A68.73,68.73,0,0,0,62.3,64.55c-2.09.43-3.58,1.78-3.58,3.59v36.73c-1.23.09-2.46.13-3.71.13a49.92,49.92,0,0,1-7.67-.58V49.29c0-1.83-1.52-2.26-3.64-2.69h.09a53.59,53.59,0,0,0-10.67-1.28h-.89V37s6.21-.59,17.25,2.39h.05V27.76c6.21-3,18.31-3.48,18.31-3.48v6.61h-.71a40.28,40.28,0,0,0-7.37.8c-2,.47-3.43,1.78-3.43,3.55V55.35C70,51.61,77.78,52.34,77.78,52.34Z" style="fill:#25a9e0"/></g></g></svg>