<svg xmlns="http://www.w3.org/2000/svg" viewBox="0 0 110 110"><title>RoomKiosk</title><g id="cb261682-858c-4b63-9df7-a04f1eeb49df" data-name="Layer 2"><g id="353f4ed6-5a7d-46da-b98a-45bd02af235e" data-name="Layer 1"><circle cx="55" cy="55" r="52.5" style="fill:#44474e"/><path d="M55,5A50,50,0,1,1,5,55,50,50,0,0,1,55,5m0-5a55,55,0,1,0,55,55A55.06,55.06,0,0,0,55,0Z" style="fill:#28292d"/><rect x="5.72" y="21.12" width="98.57" height="67.76" rx="3.57" ry="3.57" style="fill:#4e4e4e"/><path d="M103.72,84.78V25.27a3.65,3.65,0,0,0-3.64-3.64H9.92a3.65,3.65,0,0,0-3.64,3.64V84.73a3.65,3.65,0,0,0,3.64,3.64h90.21A3.61,3.61,0,0,0,103.72,84.78Z" style="fill:#28292d;fill-rule:evenodd"/><rect x="15" y="25.01" width="80.66" height="59.25" style="fill:#44474e"/><path id="7cb4301e-2b6f-4f12-a2e2-60dfa44fbd94" data-name="box" d="M36.63,39.52H19.05a1,1,0,0,1-.95-1V34.68a1,1,0,0,1,.95-1H36.62a1,1,0,0,1,1,1v3.81a1,1,0,0,1-.94,1Z" style="fill:#25a9e0"/><path d="M37.11,67.48h.15l0-1.36H37.1l0-1.23h0l-3.58,0-.07.07-.1-.1h0l.1-.11,3.64,0,0-3.11h.14V60.27h-.14v-.39H35.69V60l-4.4,0h0v1.11H31V60.07h0v1.11h-.12v0h.43v.2h-.7v.77h-.13V61.4H28V58h0l-2.66,0,0,4.89v0l2.38,0h0l0,1.07h0l2.72,0v-.79h.14V64l.25.23-.09.1,0,0-.23-.22H29.43l0,3.93,2,0h0l0-3,.08-.09,0,0,.92.85v0l0,0,.1.09,0,0V67h-.12v-.58h-.82v2.35h.83v-.37h.12v.44l4.48,0h0l0-1.27Zm-.81-3.79a.36.36,0,1,1,0,.71.36.36,0,1,1,0-.71Z" style="fill:#25a9e0"/><path id="061d0e4d-d927-484a-81b8-993409a01a71" data-name="path2578" d="M25.37,62.92v0l2.38,0H25.37Zm5.23.25h-.13V64l-2.7,0h0l2.72,0v-.79h.11Zm-.06.94h0l.24.22h0Zm.74-2.8v-.14h-.7v-.07H28.3V60H28V58h0V61.4h2.42v.77h.13v-.78h.7ZM28,60h.24v1.29H28Zm3.55,4.93,0,0-.09.1,0,3h0l0-3Zm.88,3.48v.33h0v-.33Zm.07-2.66h0v0Zm0,1.21v-.58h0V67h0Zm4.62.53h0l0,1.27h0Zm.09-5.88h-.15l0,3.11-3.64,0-.1.12h0l.1-.11,3.64,0,0-3.11h.14Zm-.1,4.5,0-1.23h0v1.24h0ZM37,59.88v.36h0v-.36ZM30.7,60v.08h.59V60Z" style="fill:#98999a"/><path d="M28,60V61.3h3.26V60Zm.25,1.31H28V60h.24ZM31,60.05v1.13h-.25V60.05ZM28.3,61.13V60h.25v1.13Zm.27,0V60h.25v1.12Zm.27,0V60h.25v1.12Zm.27,0V60h.25v1.12Zm.27,0V60h.25v1.12Zm.28,0V60h.25v1.12Zm.27,0V60h.25v1.12Zm.26,0V60h.24v1.11Zm.39.06v-.07h-.11V60h.23v0h0v1.13Zm.69,0H31V60.07h.25Z" style="fill:#25a9e0"/><path id="3603cfa4-38a3-4b25-bf5e-ee5f93f47909" data-name="path32" d="M31,60.05v0h0v0Zm0,0v0h0v0Zm0,0v0h0v0Zm0,0v0h0v0Zm0,0v0h0v0Zm0,0v0h0v0Zm0,0v0h0v0Zm0,0v0h0v0Zm0,0v0h0v0Zm0,0v0h0v0Zm0,0v0h0v0Zm0,0v0h0v0Zm0,0v0h0v0Zm0,0v0h0v0Zm0,0v0h0v0Zm0,0v0h0v0Zm0,0v0h0v0Zm0,0v0h0v0Zm0,0v0h0v0Zm0,0v0h0v0Zm0,0v0h0v0Zm0,0v0h0v0Zm0,0v0h0v0Zm0,0v0h0v0Zm0,0v0h0v0Zm0,0v0h0v0Zm0,0v0h0v0Zm0,0v0h0v0Zm0,0v0h0v0Zm0,0v0h0v0Zm0,0v0h0v0Zm0,0v0h0v0Zm0,0v0h0v0Zm0,0v0h0v0Zm0,0v0h0v0Zm0,0v1.13h0V60.05Zm0,0v1.13h0V60.05Zm0,0v1.13h0V60.05Zm0,0v1.13h0V60.05Zm0,0v1.13h0V60.05Zm0,0v1.13h0V60.05Zm0,0v1.13h0V60.05Zm0,0v1.13h0V60.05Zm0,0v1.13h0V60.05ZM28,60v1.34h3.29V60Zm3.27,1.32H31V60h.25ZM28.3,60h.25v1.29H28.3ZM31,61.29h-.25V60H31Zm-.27,0h-.25V60h.25ZM28.57,60h.25v1.29h-.25Zm.27,0h.25v1.29h-.25Zm.27,0h.25v1.29h-.25Zm.27,0h.25v1.29h-.25Zm.28,0h.25v1.29h-.25Zm.27,0h.25v1.29h-.25Zm.26,1.12V60h.24v1.29h-.25ZM28,60h.25v1.29H28Zm3,0v1.13h0V60.05Zm0,0v1.13h0V60.05Zm0,0v1.13h0V60.05Zm0,0v1.13h0V60.05Zm0,0v1.13h0V60.05Zm0,0v1.13h0V60.05Zm0,0v1.13h0V60.05Zm0,0v1.13h0V60.05Zm0,0v0h0v0Zm0,0v0h0v0Zm0,0v0h0v0Zm0,0v0h0v0Zm0,0v0h0v0Zm0,0v0h0v0Zm0,0v0h0v0Zm0,0v0h0v0Zm0,0v0h0v0Zm0,0v0h0v0Zm0,0v0h0v0Zm0,0v0h0v0Zm0,0v0h0v0Zm0,0v0h0v0Zm0,0v0h0v0Zm0,0v0h0v0Zm0,0v0h0v0Zm0,0v0h0v0Zm0,0v0h0v0Zm0,0v0h0v0Zm0,0v0h0v0Zm0,0v0h0v0Zm0,0v0h0v0Zm0,0v0h0v0Zm0,0v0h0v0Zm0,0v0h0v0Zm0,0v0h0v0Zm0,0v0h0v0Zm0,0v0h0v0Zm0,0v0h0v0Zm0,0v0h0v0Zm0,0v0h0v0Zm0,0v0h0v0Zm0,0v0h0v0Zm0,0v0h0v0Zm0,0v0h0v0Z" style="fill:#25a9e0"/><rect id="6fe08a88-f4ae-4839-8d20-893a71f148bb" data-name="sensor.dark sky minutely summary" x="18.96" y="57.31" width="5.72" height="4.59" style="fill:#25a9e0"/><path id="069c7094-1406-4346-aa92-b76ad4981426" data-name="Floor Plan BG" d="M65.47,46.17v-.79H61.19V46h-.91v.09h.41s0,0,0,0v0h4.78v0ZM39.26,59.64h0Zm.17-23.93v0h1.7v0Zm0,13.76v0H43v0Zm0,8.69h0ZM44.35,35.5v.21h0V35.5Zm1.46,13.33a.39.39,0,1,0,0,.77.39.39,0,1,0,0-.77Zm1.48,5.9h0l.16-.13Zm-.12.4h0Zm.6-13.24v3.72h0V41.89Zm.08-.24v.22h0v-.22ZM47,45.81v0h1.49v0ZM48,42.07v0h.47v0Zm.5,1.34H48.2c-.09,0-.15,0-.15,0V44s.06,0,.15,0h.34a.46.46,0,0,0,.16,0v-.59A.46.46,0,0,0,48.54,43.41Zm.17-5.73V39h0V37.68Zm-.27,22.14V58.17H45V58h0v.07H43.76v.06H45v.07h3.44v1.66h.43v0Zm.19-1.67h0Zm2.12.13v-.13h0v.14h0Zm0,1.31v0h0v0Zm.2,0h0Zm.07.59h0Zm1.15-22.53V39h0V37.68Zm.34-2.29v2.14h0V35.39Zm.23,10.2v0h5.65v0Zm3.8,14.62h0Zm1.66,0h0Zm2,1.92h0l.14-.15Zm-1-26.73v0l1.58,0ZM60.5,62.18h0Zm1.67,0h0Zm-.09-23.71a1.71,1.71,0,0,0,0,.39l.21.08A.58.58,0,0,0,62.08,38.47Zm-.44,2.07a.61.61,0,0,0,0,.14.35.35,0,0,0,.25.1h0a.43.43,0,0,0,0-.16Zm.25.27a.07.07,0,0,0-.07.08v.85a.09.09,0,0,0,.06.09c0-.27,0-.63,0-1Zm1.65-5.44v-.11l0,0h-.84l0,0v.11h-1.5v2.54h0V36.53h3.94v1.39h0V35.37Zm-2.38.23v-.19H65.1v.19Zm4,.88H61.17v-.4h3.94Zm0-.43H61.17v-.4h3.94Zm.77,9.12h0ZM75,36.36V33.82h-3.6v-.11s0,0,0,0h-.83s0,0,0,0v.11H66.88V35h0v1.38h0V35h8v1.39Zm0-1.43h-8v-.41h8Zm0-.45h-8v-.39h8Zm0-.43h-8v-.19h8ZM68.54,57.7h0Zm-.62.19a1.82,1.82,0,0,0,.33,0Zm.72-.18h0v.18h0Zm3.43-20.35h0v.26a.08.08,0,0,0,0,.07A1.78,1.78,0,0,0,72.07,37.36Zm.18,3.32a.6.6,0,0,0,0,.19h0a.47.47,0,0,0,.34-.12.16.16,0,0,0,0-.15ZM69.43,67.92v.16h0v-.16Zm-.2-10.22h0Zm-3.29-8v0h3.58v0Zm5.32,18.37v.21h0v-.21ZM69.72,45.17h3v2h0V45.17ZM73,47V45H67.7v0h5.24v2h0Zm2.92,12.39V65h0V59.38Zm0,5.81v2.89h0Zm0-15h0Zm-10.41-4v-.79H61.19V46h-.91v.09h.41s0,0,0,0v0h4.78v0Z" style="fill:#25a9e0"/><path d="M75.88,55.44V51.51h.21V50.2h-.21V47.44H72.45v-.21h.3v-2h-3v2h.1v.21h-.1v8h.22v.21h-.41V49.92H66.1v.24h-.16v-.45h3.58V45.18H67.69V45h0v0H73v2h2.53V33.9H75v-.21H71.37s0,0,0,0v.11H75v2.54h0V35h-8v1.38h0V35h0V33.82h3.63v-.11s0,0,0,0h-3.7v.21H66v1.52h-.87v-.21H61.09v.21H61v7.39a.46.46,0,0,1,.16,0h.33c.1,0,.16,0,.16,0v.59H61v.94h.48V45h4.82v.21h-.6v1.21h.42v2.14h-5.6v-2h-.63v-.92h.91V43.49a.4.4,0,0,1,0-.79V41.57a.38.38,0,0,1-.38-.39.38.38,0,0,1,.38-.39V39.66a.4.4,0,0,1-.38-.4.39.39,0,0,1,.38-.39V37.73a.38.38,0,0,1-.38-.4.38.38,0,0,1,.38-.38V35.39l-1.58,0v-.22h-2v.2H56v-.2H54v.2H52.53v2.14h-.27v-.21H48.65v.21h-.19v.62h-.34v.18h-.21v.25h0V35.71H46.4V35.5h-2v.21H43.18V35.5h-2v.21h0v0h-1.7v9.88h8.34V41.89h0v0h.07v-.22h0v-.56h0v.53h.21v.18h.41v.27h0v0H48v3.51h.45v.2h0v0H47V58h3.95v.32h-.22v-.14H48.63v1.05l0,.42h.23v.19h0v0h-.43V58.18H45v-.07H43.76v-.06H45V58h.53V55.65h-.21v-.77h1.48v-4H44.67v-.2h2.12V48.45h-2v1.23h-.3v-.19h.09V48.25h2.18V45.81H39.44v3.66H43v0h0v.19H39.25v2.49h.21V58h3.7v.19H39.47v1.47h-.21V61h.2v4.1h-.2v1.31h.21v1h7.35v.21h1.31v-.21h.24v.21h1.31v-.21h1.09v-1H51V63.24h-.2V59.82h-.21v-.21h.18v0h.2v0H51v.58h1.13v.21h4.39v-.22h2l.82.83-.15.15.91.93.15-.14.19.2h.36v.22h1.31v-.22h1.19l1.42-1.43v-3.1h.68v.21h1.35v-.21h.89V56.09c0-.33,0-.58,0-.59H65.93V51.4h.17v4.06h2.69v.19l0,0,0,.05,0,0h0v0h-.2v.56a.39.39,0,0,1,0,.77v.55h.21l0,.18h-.41a1.82,1.82,0,0,1-.33,0H67.7v2.23h0l-.77.76h-.4v-.21H65.21v.21H65l-1.51,1.51h-.61v5.68h2v.21h1.31v-.21h3v-.15h.21v.16h1.83v.21h1.42v-.21h3.19V65.19h-2v-.06H69.43v1.48h-.2V57.7h.29v.21h-.09v7h6.44V59.38h.21V58.06h-.21V55.65H73.64v2.26H71.31V57.7h2.14V55.65H71.68v-.21ZM72.25,40.68l.36-.08a.16.16,0,0,1,0,.15.47.47,0,0,1-.34.12h0A.6.6,0,0,1,72.25,40.68Zm-.19-3.32h0a1.78,1.78,0,0,1,0,.33.08.08,0,0,1,0-.07ZM61.88,41.83a.09.09,0,0,1-.06-.09v-.85a.07.07,0,0,1,.07-.08h0C61.89,41.2,61.89,41.56,61.88,41.83Zm0-1h0a.35.35,0,0,1-.25-.1.61.61,0,0,1,0-.14l.27.08A.43.43,0,0,1,61.91,40.78Zm.14-1.92a1.71,1.71,0,0,1,0-.39.58.58,0,0,1,.18.47Zm3.09-.94h0V36.53H61.17v1.38h0V35.37h1.5v-.11l0,0h.84l0,0v.11h1.6Zm-18,17.22h0Zm.12-.4h0l.16-.12Zm.16-.89a.09.09,0,0,1-.1.09h-.19a.09.09,0,0,1-.09-.09v-3.7a.1.1,0,0,1,.09-.1h.19a.1.1,0,0,1,.1.1ZM48.7,44a.46.46,0,0,1-.16,0H48.2c-.09,0-.15,0-.15,0v-.59s.06,0,.15,0h.34a.46.46,0,0,1,.16,0Zm.06-5h0V37.68h0Zm-2.95,9.87a.39.39,0,1,1,0,.77.39.39,0,1,1,0-.77Zm6.35-11.15h0V39h0ZM58.38,55.5h-.19V45.81H51.66v-.2h1.07v0h5.65Zm7.35-.44a.12.12,0,0,1-.12.12h-.14a.12.12,0,0,1-.12-.12v-4.9a.14.14,0,0,1,.12-.13h.14a.13.13,0,0,1,.13.13Z" style="fill:#25a9e0"/><path id="203728bd-a819-4c51-bbd1-148d326417f3" data-name="Floor Plan Outline" d="M62.17,62.18h0Zm6.35-6.36h0Zm7.36-5.63h0ZM73,47V45H67.7v0h5.24v2h0Zm-3.23-1.82h3v2h0V45.17Zm-3.78,4.54v0h3.58v0Zm-.06-4.54h0Zm-6.69-9.78v0l1.58,0Zm1.3,10.78v.36h.2v-.36Zm.16-.05h0ZM52.5,35.39v2.14h0V35.39Zm-8.15.11v.21h0V35.5Zm4.28,22.65h0Zm2.12.13v-.13h0v.14h0Zm-2.31,1.54V58.17H45v-.06h.13v-.06H45V58h0v.2h3.44v1.66h.43v0ZM48,42.07v0h.47v0ZM47,45.81v0h1.49v0Zm.87-4.16v.22h0v-.22Zm-.08.24v3.72h0V41.89Zm-8.33,7.58v0H43v0Zm0-13.76v0h1.7v0Zm13.3,9.88v0h5.65v0Zm8.16,2.53v.08h4.59v-.08ZM39.26,59.64h0Zm.21-1.48h0Zm29.76-.46h0Zm6.64,1.68V65h0V59.38Zm0,5.81v2.89h0Zm-25.14-5.6v0h0v0Zm.2,0h0Zm.07.59h0Zm5.52,0h0Zm1.66,0h0Zm2,1.92h0l.14-.15Zm.34.06h0ZM48.13,67.42v.41h.24v-.41Zm23.13.66v.21h0v-.21Zm-1.83-.16v.16h0v-.16Z" style="fill:#98999a"/><polygon points="65.48 46.19 65.48 46.57 65.47 46.57 65.47 46.16 65.48 46.16 65.48 46.19 65.48 46.19" style="fill:#98999a"/><rect x="65.47" y="45.37" width="0.01" height="0.01" style="fill:#98999a"/><rect x="65.48" y="45.18" width="0.01" height="0.2" style="fill:#98999a"/><rect x="48.71" y="37.68" width="0.05" height="1.28" style="fill:#25a9e0"/><rect x="52.16" y="37.68" width="0.03" height="1.28" style="fill:#25a9e0"/><path d="M68.64,55.8v0h0Z" style="fill:none"/><path d="M68,57.65h0Z" style="fill:#98999a"/><polygon points="68.63 57.71 68.43 57.71 68.43 57.7 68.54 57.7 68.63 57.71" style="fill:#98999a"/><path d="M68.25,57.89a1.82,1.82,0,0,1-.33,0Z" style="fill:#98999a"/><polygon points="68.66 57.89 68.63 57.89 68.63 57.71 68.64 57.71 68.66 57.89" style="fill:#98999a"/><path d="M60.5,46.18v2h5v-2Zm.39,1.94v0h-.36V46.52h.16V46.2h.21v1.92Zm0,0V46.2h.37v1.92Zm.41,0V46.2h.37v1.92Zm.42,0V46.2h.37v1.92Zm.4,0V46.2h.37v1.92Zm.42,0V46.2H63v1.92Zm.41,0V46.2h.37v1.92Zm.41,0V46.2h.37v1.92Zm.42,0V46.2h.37v1.92Zm.41,0V46.2h.37v1.92Zm.41,0V46.2H65v1.92Zm.42,0V46.2h.37v1.92Z" style="fill:#25a9e0"/><path id="407e4529-4a0b-4689-a3a3-72ca5575f947" data-name="path133" d="M60.49,46.17v2h5v-2Zm4.95,2h-.37v-2h.37Zm-4.91-2h.37v2h-.37Zm4.49,2h-.36v-2H65Zm-.41,0h-.37v-2h.37Zm-.4,0h-.38v-2h.38Zm-.42,0h-.37v-2h.37Zm-.42,0H63v-2h.37Zm-.4,0H62.6v-2H63Zm-.42,0h-.37v-2h.37Zm-.41,0h-.37v-2h.37Zm-.42,0h-.37v-2h.37Zm-.41,0h-.37v-2h.37Z" style="fill:#25a9e0"/><path d="M66.89,33.82V35H75V33.82ZM75,34.93h-8v-.41h8Zm0-.45h-8v-.39h8Zm0-.43h-8v-.19h8Z" style="fill:#929292"/><path id="779c73e8-d6f8-421a-b4cd-9e7418b3a0bf" data-name="path140" d="M75,36.36V33.82h-3.6v-.11s0,0,0,0h-.83s0,0,0,0v.11H66.88V35h0v1.38h0V35h8v1.39Zm-4.46-2.64h.82v.1h-.82ZM75,34.93h-8v-.41h8Zm0-.45h-8v-.39h8Zm0-.43h-8v-.19h8Z" style="fill:#25a9e0"/><path d="M72.09,37.69a.08.08,0,0,1,0-.07v-.26h0A1.78,1.78,0,0,1,72.09,37.69Z" style="fill:#25a9e0"/><path d="M72.61,40.6a.16.16,0,0,1,0,.15.47.47,0,0,1-.34.12h0a.6.6,0,0,1,0-.19Z" style="fill:#25a9e0"/><path d="M72.09,37.69a.08.08,0,0,1,0-.07v-.26h0A1.78,1.78,0,0,1,72.09,37.69Z" style="fill:#25a9e0"/><path d="M72.26,40.87h0a.6.6,0,0,1,0-.19C72.25,40.75,72.26,40.81,72.26,40.87Z" style="fill:#25a9e0"/><path d="M72.09,37.69a.08.08,0,0,1,0-.07v-.26h0A1.78,1.78,0,0,1,72.09,37.69Z" style="fill:#25a9e0"/><path d="M65.11,35.65v-.28h-4v1.16h4v-.05H61.17v-.4h3.94v0H61.17v-.4Zm-4,0v-.19H65.1v.19Z" style="fill:#929292"/><path id="c12489b4-08d1-4402-aa5e-f024717ee28e" data-name="path165" d="M63.54,35.37v-.11l0,0h-.84l0,0v.11H61.16v0H65.1v.19H61.16v2.31h0V36.53h3.94v1.39h0V35.37Zm-.85,0v-.09h.81v.09Zm2.42,1.11H61.17v-.4h3.94Zm0-.43H61.17v-.4h3.94Z" style="fill:#25a9e0"/><path d="M61.9,40.81c0,.39,0,.75,0,1a.09.09,0,0,1-.06-.09v-.85a.07.07,0,0,1,.07-.08Z" style="fill:#25a9e0"/><path d="M61.91,40.62a.43.43,0,0,1,0,.16h0a.35.35,0,0,1-.25-.1.61.61,0,0,1,0-.14Z" style="fill:#25a9e0"/><path d="M61.91,40.62a.43.43,0,0,1,0,.16h0A.86.86,0,0,0,61.91,40.62Z" style="fill:#25a9e0"/><path d="M62.26,38.94l-.21-.08a1.71,1.71,0,0,1,0-.39A.58.58,0,0,1,62.26,38.94Z" style="fill:#25a9e0"/><path d="M62.26,38.94l-.21-.08a1.71,1.71,0,0,1,0-.39A.58.58,0,0,1,62.26,38.94Z" style="fill:#25a9e0"/><rect x="43.76" y="58.05" width="1.38" height="0.06" style="fill:#25a9e0"/><path id="72b040c5-2fcf-4ba9-935c-63d3606deee0" data-name="rect267" d="M19.17,74.12h9.74a1.38,1.38,0,0,1,1.38,1.38h0a1.38,1.38,0,0,1-1.38,1.38H19.17a1.44,1.44,0,0,1-1.44-1.38h0A1.44,1.44,0,0,1,19.17,74.12Z" style="fill:#25a9e0"/><path id="1badbcc3-10d9-4420-b21e-b4430b46249a" data-name="rect320" d="M36.63,50.28H19.05a1,1,0,0,1-.95-1V45.8a1,1,0,0,1,.95-.95H36.62a.94.94,0,0,1,1,.95v3.53a.93.93,0,0,1-.94,1Z" style="fill:#25a9e0"/><path id="0a38f304-69a8-43e2-b2ac-5b6d80eaa5f4" data-name="rect326" d="M36.7,56.38H19.12a1,1,0,0,1-.95-1V51.89a1,1,0,0,1,.95-1H36.69a1,1,0,0,1,1,1v3.54a1,1,0,0,1-.94,1Z" style="fill:#25a9e0"/><path id="b1310cc8-b5a3-46a6-8b7d-efb1154fdf58" data-name="rect339" d="M18.63,40.18H27.1c.29,0,.52.3.52.68v2.45a.62.62,0,0,1-.52.68H18.63c-.29,0-.52-.3-.52-.68V40.85A.61.61,0,0,1,18.63,40.18Z" style="fill:#25a9e0"/><path id="3b561575-bb56-40d8-88c5-7c8543afe7be" data-name="rect348" d="M28.59,40.19h8.46c.29,0,.52.37.52.75v2.45a.54.54,0,0,1-.52.61H28.59c-.29,0-.52-.3-.52-.68V40.87C28.07,40.49,28.3,40.19,28.59,40.19Z" style="fill:#25a9e0"/><line id="38e56ee5-6311-42ea-ba17-bc2bccb3269e" data-name="edge camera bottom" x1="78.83" y1="41.87" x2="93.52" y2="41.87" style="fill:none;stroke:#fff;stroke-miterlimit:10;stroke-width:0.07732097295192711px"/><line id="976855e3-6166-47da-b5c6-fa2f3d5cf958" data-name="edge camera top" x1="78.83" y1="33.6" x2="93.52" y2="33.6" style="fill:none;stroke:#fff;stroke-miterlimit:10;stroke-width:0.07732097295192711px"/><rect id="575e0600-f0a8-4870-ab49-e022a7bf6971" data-name="camera.stone door" x="78.79" y="33.69" width="14.69" height="8.12" style="fill:#25a9e0"/><g id="a6688d9f-ab79-4298-875e-5bae0283da85" data-name="poweredby"><path d="M81.69,74.94a.38.38,0,0,0-.13-.18.31.31,0,0,0-.21-.05.29.29,0,0,0-.16,0l-.11.11v-.13h-.15v.09H80.2a.14.14,0,0,0-.14-.12.14.14,0,0,0,0,.28.15.15,0,0,0,.14-.13h.73v.59h-.51a.15.15,0,0,0-.14-.13.14.14,0,0,0-.14.14.14.14,0,0,0,.14.14.13.13,0,0,0,.13-.12h.52V76h.16v-.47a.22.22,0,0,0,.1.09.4.4,0,0,0,.15,0,.36.36,0,0,0,.2-.06.35.35,0,0,0,.15-.17.6.6,0,0,0,0-.26.53.53,0,0,0,0-.25m-1.63,0a.11.11,0,1,1,.11-.11.11.11,0,0,1-.11.11m.22.61a.11.11,0,0,1-.11-.11.1.1,0,0,1,.11-.1.09.09,0,0,1,.1.1.1.1,0,0,1-.1.11m1.23-.07h0a.23.23,0,0,1-.36,0,.5.5,0,0,1-.08-.27.36.36,0,0,1,.08-.27.24.24,0,0,1,.19-.1.2.2,0,0,1,.17.09.38.38,0,0,1,.08.27.4.4,0,0,1-.08.28" style="fill:#25a9e0"/><path d="M82.64,74.83a.42.42,0,0,0-.32-.13.48.48,0,0,0-.3.11.5.5,0,0,0-.14.39.47.47,0,0,0,.13.36.39.39,0,0,0,.32.13.4.4,0,0,0,.22-.06.49.49,0,0,0,.16-.16.72.72,0,0,0,.06-.29.49.49,0,0,0-.13-.35Zm-.12.64a.24.24,0,0,1-.2.08.23.23,0,0,1-.2-.08A.45.45,0,0,1,82,75.2a.34.34,0,0,1,.08-.26.27.27,0,0,1,.2-.09.25.25,0,0,1,.2.09.45.45,0,0,1,.08.26.53.53,0,0,1-.08.27Z" style="fill:#25a9e0"/><path d="M83.12,75.67l-.29-.94H83l.14.54.06.21s0-.08,0-.2l.15-.55h.16l.15.54,0,.19.06-.19.17-.54h.15l-.29.94h-.16l-.15-.56,0-.16-.19.72Z" style="fill:#25a9e0"/><path d="M85.08,75.18a.52.52,0,0,0-.12-.36.4.4,0,0,0-.31-.13.45.45,0,0,0-.32.14.62.62,0,0,0,0,.72.42.42,0,0,0,.33.13.5.5,0,0,0,.27-.08.48.48,0,0,0,.15-.22l-.17,0a.17.17,0,0,1-.1.13.27.27,0,0,1-.15.05.25.25,0,0,1-.19-.09.39.39,0,0,1-.09-.23h.71Zm-.7-.07a.23.23,0,0,1,.09-.19.25.25,0,0,1,.38,0,.41.41,0,0,1,.05.18Z" style="fill:#25a9e0"/><path d="M85.27,75.67v-.94h.15v.14a.42.42,0,0,1,.09-.14.23.23,0,0,1,.11,0,.43.43,0,0,1,.16,0l0,.15a.27.27,0,0,0-.12,0,.19.19,0,0,0-.1,0,.16.16,0,0,0-.06.08,1.11,1.11,0,0,0,0,.19v.49h-.16Z" style="fill:#25a9e0"/><path d="M86.69,75.18a.52.52,0,0,0-.11-.36.42.42,0,0,0-.31-.13.43.43,0,0,0-.32.14.58.58,0,0,0,0,.72.4.4,0,0,0,.33.13.53.53,0,0,0,.27-.08.4.4,0,0,0,.14-.22l-.16,0a.16.16,0,0,1-.11.13.24.24,0,0,1-.14.05.25.25,0,0,1-.2-.09.38.38,0,0,1-.08-.23h.7ZM86,75.11a.27.27,0,0,1,.27-.27.25.25,0,0,1,.19.09.64.64,0,0,1,.06.18Z" style="fill:#25a9e0"/><path d="M87.49,74.38v.47a.24.24,0,0,0-.1-.1.29.29,0,0,0-.16,0,.42.42,0,0,0-.21.06.24.24,0,0,0-.13.17.58.58,0,0,0,0,.26.45.45,0,0,0,0,.25.33.33,0,0,0,.14.17.36.36,0,0,0,.2.06.26.26,0,0,0,.26-.14v.14h.16v-1.3Zm-.06,1.09c-.11.12-.44.19-.44-.27a.41.41,0,0,1,.08-.27.23.23,0,0,1,.36,0,.46.46,0,0,1,.08.28.5.5,0,0,1-.08.26Z" style="fill:#25a9e0"/><path d="M89.19,75a1.09,1.09,0,0,0-.08-.15.41.41,0,0,0-.13-.1.42.42,0,0,0-.16,0,.33.33,0,0,0-.26.13v-.47H88.4v1.31h.15v-.11a.3.3,0,0,0,.26.14.37.37,0,0,0,.29-.14.54.54,0,0,0,.11-.37.46.46,0,0,0,0-.2Zm-.21.48a.23.23,0,0,1-.18.08.23.23,0,0,1-.2-.12.42.42,0,0,1,0-.24.34.34,0,0,1,.08-.26.21.21,0,0,1,.18-.09.23.23,0,0,1,.18.09.5.5,0,0,1,.08.27.46.46,0,0,1-.09.27" style="fill:#25a9e0"/><path d="M89.4,76l0-.15h.09a.11.11,0,0,0,.08,0,.12.12,0,0,0,0-.05.37.37,0,0,0,.05-.11s0,0,0,0l-.36-.94h.18l.19.54a2,2,0,0,1,.07.23,1.41,1.41,0,0,1,.06-.22l.21-.55h.15l-.36,1a1.8,1.8,0,0,1-.08.21.4.4,0,0,1-.1.12.23.23,0,0,1-.14,0s0,0-.08,0Z" style="fill:#25a9e0"/><path d="M79.69,74.89a.13.13,0,0,0-.14.13h-.39v0h.39a.13.13,0,0,0,.14.12.14.14,0,0,0,0-.28m0,.25a.11.11,0,0,1,0-.22.11.11,0,0,1,0,.22" style="fill:#25a9e0"/><path d="M80.59,75.62a.14.14,0,0,0-.14.12H80l-.14-.14h-.65v0h.63l.15.14h.51a.15.15,0,0,0,.14.13.14.14,0,0,0,.14-.14.14.14,0,0,0-.14-.14m0,.24a.1.1,0,0,1-.11-.1.11.11,0,0,1,.22,0,.1.1,0,0,1-.11.1" style="fill:#25a9e0"/><path d="M80.59,75a.14.14,0,0,0-.14.12H80l-.25.26h-.64v0h.66l.25-.26h.4a.15.15,0,0,0,.14.12.14.14,0,0,0,.14-.14.14.14,0,0,0-.14-.14m0,.24a.1.1,0,0,1-.11-.1.11.11,0,0,1,.22,0,.1.1,0,0,1-.11.1" style="fill:#25a9e0"/><path d="M91.59,74.74a.05.05,0,0,1,0,0s0,0,0,0a0,0,0,0,1,0,0A0,0,0,0,1,91.59,74.74Z" style="fill:#25a9e0"/><path d="M91.62,75.06a0,0,0,0,1,0,0s0,0,0,0a0,0,0,0,1,0,0A0,0,0,0,1,91.62,75.06Z" style="fill:#25a9e0"/><path d="M91.62,74.2a0,0,0,0,1,0,0s0,0,0,0a0,0,0,0,1,0,0A0,0,0,0,1,91.62,74.2Z" style="fill:#25a9e0"/><path d="M91.67,75.39s0,0,0,0a0,0,0,0,1,0,0,0,0,0,0,1,0,0A0,0,0,0,1,91.67,75.39Z" style="fill:#25a9e0"/><path d="M91.88,74.45s0,0,0,0a0,0,0,0,1,0,0,0,0,0,0,1,0,0S91.88,74.42,91.88,74.45Z" style="fill:#25a9e0"/><path d="M92,74.06a0,0,0,1,1-.08,0,0,0,0,1,1,.08,0Z" style="fill:#25a9e0"/><path d="M92,75.11a0,0,0,0,1,0,0s-.05,0-.05,0a0,0,0,0,1,.05,0A0,0,0,0,1,92,75.11Z" style="fill:#25a9e0"/><circle cx="92.34" cy="74.06" r="0.04" style="fill:#25a9e0"/><path d="M92.39,74.78a0,0,0,1,1-.08,0,0,0,0,1,1,.08,0Z" style="fill:#25a9e0"/><path d="M92.43,74.46a0,0,0,0,1,0,0,0,0,0,0,1,0,0s0,0,0,0S92.43,74.44,92.43,74.46Z" style="fill:#25a9e0"/><path d="M92.64,74.21a0,0,0,0,1,0,0,0,0,0,0,1,0,0,0,0,0,0,1,0,0A0,0,0,0,1,92.64,74.21Z" style="fill:#25a9e0"/><path d="M92.67,75.41a0,0,0,0,1,0,0,0,0,0,0,1,0,0,0,0,0,0,1,0,0S92.67,75.38,92.67,75.41Z" style="fill:#25a9e0"/><circle cx="92.8" cy="75.08" r="0.04" style="fill:#25a9e0"/><path d="M92.85,74.46a0,0,0,0,1,0,0,0,0,0,0,1,0,0,.05.05,0,0,1,0,0S92.85,74.44,92.85,74.46Z" style="fill:#25a9e0"/><path d="M93.45,74.62a0,0,0,0,1,0,0h-.25v.89a.08.08,0,0,1-.08.07h-.92l.21-.19h.19a.08.08,0,0,0,.08.07.1.1,0,0,0,.09-.09.09.09,0,0,0-.09-.09.1.1,0,0,0-.08.05h-.22l-.17.16v-.22l.21-.2h.35a.08.08,0,0,0,.08,0,.09.09,0,0,0,.09-.08A.09.09,0,0,0,92.8,75a.08.08,0,0,0-.08.06h-.29l.19-.19v-.2l.14-.13h0a.08.08,0,0,0,.08-.08.09.09,0,0,0-.08-.09.09.09,0,0,0-.09.09v0l-.1.1v-.3a.09.09,0,0,0,.06-.08.09.09,0,0,0-.08-.09.09.09,0,0,0-.09.09.09.09,0,0,0,.06.08v.3l-.1-.09a.08.08,0,0,0,0,0,.09.09,0,1,0-.18,0,.08.08,0,0,0,.09.08h0l.14.12v.18l-.18.16v-.13a.08.08,0,0,0,.06-.09.09.09,0,0,0-.09-.08.08.08,0,0,0-.08.08.08.08,0,0,0,.06.09v.19l-.17.17v-.94l.15-.15h0a.08.08,0,0,0,.09-.08.09.09,0,0,0-.18,0,0,0,0,0,0,0,0l-.14.13L92,74.09s0,0,0,0a.09.09,0,0,0-.18,0,.08.08,0,0,0,.09.08h0l.14.15v.65l-.24-.23v-.18a.08.08,0,0,0,.06-.08.09.09,0,0,0-.09-.09.08.08,0,0,0-.08.09.08.08,0,0,0,.06.08v.13l-.2-.19v-.18a.11.11,0,0,0,.06-.09.09.09,0,0,0-.18,0,.11.11,0,0,0,.06.09v.2l.22.22h-.14a.1.1,0,0,0-.09-.06c-.05,0-.08,0-.08.09a.08.08,0,0,0,.08.08.1.1,0,0,0,.09-.06h.2l.27.27v.5L92,75.38V75.2a.11.11,0,0,0,.06-.09.09.09,0,0,0-.08-.09.09.09,0,0,0-.09.09.1.1,0,0,0,.06.09v.13l-.24-.24a0,0,0,0,0,0,0,.09.09,0,0,0-.18,0,.09.09,0,0,0,.09.09h0l.22.23h-.13a.1.1,0,0,0-.09-.06.09.09,0,0,0-.09.08.09.09,0,0,0,.09.09.1.1,0,0,0,.09-.06h.19l.2.2h-.92a.07.07,0,0,1-.07-.07v-.89h-.28s0,0,0,0,0,0,0,0l1.26-1.26s.05,0,.06,0l.66.65v-.12a0,0,0,0,1,.05,0h.2a0,0,0,0,1,.05,0v.38s0,0,0,0l.32.32A.05.05,0,0,1,93.45,74.62Z" style="fill:#25a9e0"/></g><path d="M46.2,49.21a.39.39,0,0,1-.39.39.39.39,0,1,1,0-.77A.39.39,0,0,1,46.2,49.21Z" style="fill:#25a9e0"/><circle id="40f80638-8466-4e42-bb78-bde39a5c61e9" data-name="light.outdoor foyer" cx="50.28" cy="35.99" r="0.39" style="fill:#25a9e0"/><path d="M48.86,35.88a.59.59,0,0,1-.59.58V35.29A.59.59,0,0,1,48.86,35.88Z" style="fill:#25a9e0"/><path d="M48.7,43.42V44a.46.46,0,0,1-.16,0H48.2c-.09,0-.15,0-.15,0v-.59s.06,0,.15,0h.34A.46.46,0,0,1,48.7,43.42Z" style="fill:#25a9e0"/><path id="2e49108a-7a2c-4648-bc67-3a3847ee0d4c" data-name="light.led outdoor den" d="M46.29,35.05H41.11c-.1,0-.18,0-.18-.12v-.06c0-.07.08-.13.18-.13h5.18c.1,0,.18.06.18.13v.06C46.47,35,46.39,35.05,46.29,35.05Z" style="fill:#25a9e0"/><path id="35dafa17-6497-40d7-a08b-0f5dbe6aa087" data-name="path1991-0" d="M40.07,35.1a.5.5,0,0,0,.5-.48v-.33s0-.06-.06,0l-.63.64v-.48s0,0,0,0A.44.44,0,0,0,40.3,34a.86.86,0,0,0-.1-.41s0,0,0,0h0l-.13.22s0,0,0,0l-.13-.22,0,0,0,0-.13.22s0,0,0,0l-.13-.22,0,0s0,0,0,0a.87.87,0,0,0-.11.41.44.44,0,0,0,.39.44,0,0,0,0,1,0,0v.68Z" style="fill:#25a9e0"/><path id="86572c42-e2d5-423d-8b7f-890b091abb24" data-name="path1993-9" d="M39.1,34.25s-.06,0-.06,0v.33a.48.48,0,0,0,.48.49h.13v-.28c-.1-.1-.53-.55-.56-.57Z" style="fill:#25a9e0"/><line id="53b646c1-c86e-420a-8dbc-fc1ed349ee29" data-name="edge camera bottom" x1="78.81" y1="50.71" x2="93.5" y2="50.71" style="fill:none;stroke:#fff;stroke-miterlimit:10;stroke-width:0.07732097295192711px"/><line id="e0d24f54-3f96-4572-8189-318e0ca4a46b" data-name="edge camera top" x1="78.81" y1="42.44" x2="93.5" y2="42.44" style="fill:none;stroke:#fff;stroke-miterlimit:10;stroke-width:0.07732097295192711px"/><rect id="e3cd2223-74e5-4c1c-82cd-70b72747c4da" data-name="camera.camera3" x="78.77" y="42.52" width="14.69" height="8.12" style="fill:#25a9e0"/><line id="2efd9ea2-e1df-4dae-adc1-9c9e8321a60e" data-name="edge camera bottom" x1="78.79" y1="59.49" x2="93.49" y2="59.49" style="fill:none;stroke:#fff;stroke-miterlimit:10;stroke-width:0.07732097295192711px"/><line id="8be29a41-01b2-43e3-a2cd-cddaac65dcfc" data-name="edge camera top" x1="78.79" y1="51.22" x2="93.49" y2="51.22" style="fill:none;stroke:#fff;stroke-miterlimit:10;stroke-width:0.07732097295192711px"/><rect id="534929f3-ed97-4638-a43c-05625db1a1eb" data-name="camera.camera2" x="78.76" y="51.3" width="14.69" height="8.12" style="fill:#25a9e0"/><line id="475b43cd-47f9-49cd-8be5-1aa079bc44fd" data-name="edge camera bottom" x1="78.77" y1="68.29" x2="93.47" y2="68.29" style="fill:none;stroke:#fff;stroke-miterlimit:10;stroke-width:0.07732097295192711px"/><line id="c74f6c80-32ba-44ad-8ae5-f40a4f61e4b3" data-name="edge camera top" x1="78.77" y1="60.02" x2="93.47" y2="60.02" style="fill:none;stroke:#fff;stroke-miterlimit:10;stroke-width:0.07732097295192711px"/><rect id="94452554-3b2d-42ff-aa72-f0df12e2bc90" data-name="camera.camera1" x="78.74" y="60.1" width="14.69" height="8.12" style="fill:#25a9e0"/></g></g></svg>