<svg xmlns="http://www.w3.org/2000/svg" viewBox="0 0 110 110"><title>SolarPower</title><g id="8972e6e9-e667-4f54-888b-e18540c3eda1" data-name="Layer 2"><g id="b0625f20-b5b7-49a2-aa64-68c80e9797c1" data-name="Layer 1"><circle cx="55" cy="55" r="52.5" style="fill:#44474e"/><path d="M55,5A50,50,0,1,1,5,55,50,50,0,0,1,55,5m0-5a55,55,0,1,0,55,55A55.06,55.06,0,0,0,55,0Z" style="fill:#28292d"/><path d="M33.35,47.06h6.18a.62.62,0,0,0,.62-.62.61.61,0,0,0-.62-.62H33.35a.61.61,0,0,0-.62.62A.62.62,0,0,0,33.35,47.06Z" style="fill:#18aceb"/><path d="M87.05,70.69,84,56.44a2.5,2.5,0,0,0-2.43-2H28.42a2.46,2.46,0,0,0-2.41,2L22.93,70.81l-3,14.09a2.46,2.46,0,0,0,2.41,3H87.68a2.46,2.46,0,0,0,2.41-3ZM85.32,71.8H73.71l3,14a.61.61,0,0,1-.47.73l-.14,0a.63.63,0,0,1-.61-.49L72.44,71.8H55.62V86a.62.62,0,0,1-1.24,0V71.8H37.56L34.5,86.11a.63.63,0,0,1-.61.49h-.14a.63.63,0,0,1-.47-.74l3-14H24.68a.62.62,0,0,1-.62-.61.3.3,0,0,1,0-.13.62.62,0,0,1,.6-.49H36.55l3.07-14.31a.63.63,0,0,1,.61-.49h.13a.61.61,0,0,1,.47.74l-3,14H54.38V56.39a.62.62,0,0,1,1.24,0V70.57H72.18l-3-14a.61.61,0,0,1,.47-.74h.13a.63.63,0,0,1,.61.49l3.07,14.31H85.32a.61.61,0,0,1,.57.37.66.66,0,0,1,0,.25A.62.62,0,0,1,85.32,71.8Z" style="fill:#18aceb"/><polygon points="76.13 41.42 85.78 31.77 80.95 31.77 84.18 22.11 74.52 31.77 79.35 31.77 76.13 41.42" style="fill:#18aceb"/><path d="M70.47,45.82a.61.61,0,0,0-.62.62.62.62,0,0,0,.62.62h6.18a.62.62,0,0,0,.62-.62.61.61,0,0,0-.62-.62Z" style="fill:#18aceb"/><path d="M66.37,35.93l4.38-4.37a.62.62,0,0,0,0-.87.59.59,0,0,0-.43-.19.63.63,0,0,0-.45.19l-4.36,4.38a.59.59,0,0,0,0,.86A.6.6,0,0,0,66.37,35.93Z" style="fill:#18aceb"/><path d="M55,31.59a.62.62,0,0,0,.62-.62V24.78a.62.62,0,1,0-1.24,0V31A.62.62,0,0,0,55,31.59Z" style="fill:#18aceb"/><path d="M43.63,35.93a.62.62,0,0,0,.88-.86l-4.38-4.38a.62.62,0,0,0-.44-.19.59.59,0,0,0-.44.19.62.62,0,0,0,0,.87Z" style="fill:#18aceb"/><path d="M45.21,52s0,0,0,0H64.78s0,0,0,0a10.88,10.88,0,0,0-2.35-13l-.13-.11h0a10.92,10.92,0,0,0-14.6,0h0l-.13.11a10.88,10.88,0,0,0-2.35,13ZM55,38.39a8.06,8.06,0,0,1,8,8,.62.62,0,1,1-1.23,0A6.82,6.82,0,0,0,55,39.63a.62.62,0,0,1,0-1.24Z" style="fill:#18aceb"/></g></g></svg>