<svg xmlns="http://www.w3.org/2000/svg" viewBox="0 0 110 110"><title>Twitter</title><g id="8f20f301-2628-41ae-b023-6d3c4046be3e" data-name="Layer 2"><g id="95aa6a79-860b-4bc0-ba22-7bb2dc0df19b" data-name="Layer 1"><circle cx="55" cy="55" r="52.5" style="fill:#44474e"/><path d="M55,5A50,50,0,1,1,5,55,50,50,0,0,1,55,5m0-5a55,55,0,1,0,55,55A55.06,55.06,0,0,0,55,0Z" style="fill:#28292d"/><path d="M83.85,40.2c.94,20.94-14.67,44.28-42.31,44.28a42,42,0,0,1-22.81-6.69,30,30,0,0,0,22-6.16,14.89,14.89,0,0,1-13.9-10.34A14.85,14.85,0,0,0,33.58,61,14.91,14.91,0,0,1,21.64,46.25a14.67,14.67,0,0,0,6.74,1.86,14.89,14.89,0,0,1-4.6-19.87A42.23,42.23,0,0,0,54.45,43.79,14.9,14.9,0,0,1,79.82,30.22a30,30,0,0,0,9.45-3.61,14.93,14.93,0,0,1-6.54,8.23,29.75,29.75,0,0,0,8.54-2.34A29.86,29.86,0,0,1,83.85,40.2Z" style="fill:#25a9e0;fill-rule:evenodd"/></g></g></svg>