<svg xmlns="http://www.w3.org/2000/svg" viewBox="0 0 110 110"><title>UniFi</title><g id="665289c8-15ae-472d-89e9-05f230b445aa" data-name="Layer 2"><g id="334abefa-2d11-4f88-b456-61cadb15b717" data-name="Layer 1"><circle cx="55" cy="55" r="52.5" style="fill:#44474e"/><path d="M55,5A50,50,0,1,1,5,55,50,50,0,0,1,55,5m0-5a55,55,0,1,0,55,55A55.06,55.06,0,0,0,55,0Z" style="fill:#28292d"/><circle cx="55" cy="55" r="38.76" style="fill:#18aceb"/><circle cx="55" cy="55" r="16.12" style="fill:#2e3191"/><circle cx="55" cy="55" r="16.11" style="fill:#2e3292"/><circle cx="55" cy="55" r="16.09" style="fill:#2e3393"/><circle cx="55" cy="55" r="16.08" style="fill:#2d3594"/><circle cx="55" cy="55" r="16.07" style="fill:#2d3695"/><circle cx="55" cy="55" r="16.05" style="fill:#2d3795"/><circle cx="55" cy="55" r="16.04" style="fill:#2d3896"/><circle cx="55" cy="55" r="16.02" style="fill:#2c3a97"/><circle cx="55" cy="55" r="16.01" style="fill:#2c3b98"/><circle cx="55" cy="55" r="16" style="fill:#2c3c99"/><circle cx="55" cy="55" r="15.98" style="fill:#2c3d9a"/><circle cx="55" cy="55" r="15.97" style="fill:#2c3e9b"/><circle cx="55" cy="55" r="15.95" style="fill:#2b409c"/><circle cx="55" cy="55" r="15.94" style="fill:#2b419d"/><circle cx="55" cy="55" r="15.93" style="fill:#2b429d"/><circle cx="55" cy="55" r="15.91" style="fill:#2b439e"/><circle cx="55" cy="55" r="15.9" style="fill:#2b449f"/><circle cx="55" cy="55" r="15.88" style="fill:#2a46a0"/><circle cx="55" cy="55" r="15.87" style="fill:#2a47a1"/><circle cx="55" cy="55" r="15.86" style="fill:#2a48a2"/><circle cx="55" cy="55" r="15.84" style="fill:#2a49a3"/><circle cx="55" cy="55" r="15.83" style="fill:#294ba4"/><circle cx="55" cy="55" r="15.81" style="fill:#294ca5"/><circle cx="55" cy="55" r="15.8" style="fill:#294da5"/><circle cx="55" cy="55" r="15.79" style="fill:#294ea6"/><circle cx="55" cy="55" r="15.77" style="fill:#294fa7"/><circle cx="55" cy="55" r="15.76" style="fill:#2851a8"/><circle cx="55" cy="55" r="15.74" style="fill:#2852a9"/><circle cx="55" cy="55" r="15.73" style="fill:#2853aa"/><circle cx="55" cy="55" r="15.72" style="fill:#2854ab"/><circle cx="55" cy="55" r="15.7" style="fill:#2756ac"/><circle cx="55" cy="55" r="15.69" style="fill:#2757ad"/><circle cx="55" cy="55" r="15.67" style="fill:#2758ae"/><circle cx="55" cy="55" r="15.66" style="fill:#2759ae"/><circle cx="55" cy="55" r="15.65" style="fill:#275aaf"/><circle cx="55" cy="55" r="15.63" style="fill:#265cb0"/><circle cx="55" cy="55" r="15.62" style="fill:#265db1"/><circle cx="55" cy="55" r="15.6" style="fill:#265eb2"/><circle cx="55" cy="55" r="15.59" style="fill:#265fb3"/><circle cx="55" cy="55" r="15.58" style="fill:#2660b4"/><circle cx="55" cy="55" r="15.56" style="fill:#2562b5"/><circle cx="55" cy="55" r="15.55" style="fill:#2563b6"/><circle cx="55" cy="55" r="15.53" style="fill:#2564b6"/><circle cx="55" cy="55" r="15.52" style="fill:#2565b7"/><circle cx="55" cy="55" r="15.51" style="fill:#2467b8"/><circle cx="55" cy="55" r="15.49" style="fill:#2468b9"/><circle cx="55" cy="55" r="15.48" style="fill:#2469ba"/><circle cx="55" cy="55" r="15.46" style="fill:#246abb"/><circle cx="55" cy="55" r="15.45" style="fill:#246bbc"/><circle cx="55" cy="55" r="15.43" style="fill:#236dbd"/><circle cx="55" cy="55" r="15.42" style="fill:#236ebe"/><circle cx="55" cy="55" r="15.41" style="fill:#236fbe"/><circle cx="55" cy="55" r="15.39" style="fill:#2370bf"/><circle cx="55" cy="55" r="15.38" style="fill:#2272c0"/><circle cx="55" cy="55" r="15.36" style="fill:#2273c1"/><circle cx="55" cy="55" r="15.35" style="fill:#2274c2"/><circle cx="55" cy="55" r="15.34" style="fill:#2275c3"/><circle cx="55" cy="55" r="15.32" style="fill:#2276c4"/><circle cx="55" cy="55" r="15.31" style="fill:#2178c5"/><circle cx="55" cy="55" r="15.29" style="fill:#2179c6"/><circle cx="55" cy="55" r="15.28" style="fill:#217ac6"/><circle cx="55" cy="55" r="15.27" style="fill:#217bc7"/><circle cx="55" cy="55" r="15.25" style="fill:#207dc8"/><circle cx="55" cy="55" r="15.24" style="fill:#207ec9"/><circle cx="55" cy="55" r="15.22" style="fill:#207fca"/><circle cx="55" cy="55" r="15.21" style="fill:#2080cb"/><circle cx="55" cy="55" r="15.2" style="fill:#2081cc"/><circle cx="55" cy="55" r="15.18" style="fill:#1f83cd"/><circle cx="55" cy="55" r="15.17" style="fill:#1f84ce"/><circle cx="55" cy="55" r="15.15" style="fill:#1f85ce"/><circle cx="55" cy="55" r="15.14" style="fill:#1f86cf"/><circle cx="55" cy="55" r="15.13" style="fill:#1f87d0"/><circle cx="55" cy="55" r="15.11" style="fill:#1e89d1"/><circle cx="55" cy="55" r="15.1" style="fill:#1e8ad2"/><circle cx="55" cy="55" r="15.08" style="fill:#1e8bd3"/><circle cx="55" cy="55" r="15.07" style="fill:#1e8cd4"/><circle cx="55" cy="55" r="15.06" style="fill:#1d8ed5"/><circle cx="55" cy="55" r="15.04" style="fill:#1d8fd6"/><circle cx="55" cy="55" r="15.03" style="fill:#1d90d7"/><circle cx="55" cy="55" r="15.01" style="fill:#1d91d7"/><circle cx="55" cy="55" r="15" style="fill:#1d92d8"/><circle cx="55" cy="55" r="14.99" style="fill:#1c94d9"/><circle cx="55" cy="55" r="14.97" style="fill:#1c95da"/><circle cx="55" cy="55" r="14.96" style="fill:#1c96db"/><circle cx="55" cy="55" r="14.94" style="fill:#1c97dc"/><circle cx="55" cy="55" r="14.93" style="fill:#1b99dd"/><circle cx="55" cy="55" r="14.92" style="fill:#1b9ade"/><circle cx="55" cy="55" r="14.9" style="fill:#1b9bdf"/><circle cx="55" cy="55" r="14.89" style="fill:#1b9cdf"/><circle cx="55" cy="55" r="14.87" style="fill:#1b9de0"/><circle cx="55" cy="55" r="14.86" style="fill:#1a9fe1"/><circle cx="55" cy="55" r="14.85" style="fill:#1aa0e2"/><circle cx="55" cy="55" r="14.83" style="fill:#1aa1e3"/><circle cx="55" cy="55" r="14.82" style="fill:#1aa2e4"/><circle cx="55" cy="55" r="14.8" style="fill:#1aa3e5"/><circle cx="55" cy="55" r="14.79" style="fill:#19a5e6"/><circle cx="55" cy="55" r="14.78" style="fill:#19a6e7"/><circle cx="55" cy="55" r="14.76" style="fill:#19a7e7"/><circle cx="55" cy="55" r="14.75" style="fill:#19a8e8"/><circle cx="55" cy="55" r="14.73" style="fill:#18aae9"/><circle cx="55" cy="55" r="14.72" style="fill:#18abea"/><circle cx="55" cy="55" r="14.71" style="fill:#18aceb"/><circle cx="55" cy="55" r="14.71" style="fill:#18aceb"/><path d="M57.87,55.35l.15-.47V51.64c-1.7,0-1.87.65-1.87,1.27v3.55a2.76,2.76,0,0,1-.06.57,2.18,2.18,0,0,0,1.78-1.68" style="fill:#fff"/><rect x="53.16" y="52.01" width="0.37" height="0.37" style="fill:#fff"/><rect x="53.54" y="52.57" width="0.37" height="0.37" style="fill:#fff"/><rect x="53.17" y="53.03" width="0.37" height="0.37" style="fill:#fff"/><rect x="52.79" y="53.59" width="0.37" height="0.37" style="fill:#fff"/><rect x="52.04" y="51.64" width="0.37" height="0.37" style="fill:#fff"/><path d="M52.79,54.33h.37v.82h.38V53.77h.37v2.69A2.3,2.3,0,0,0,55,58.36a2.68,2.68,0,0,1-3-2.66v-3h.38v2h.37Z" style="fill:#fff"/><path d="M55.29,57.23a2.32,2.32,0,0,1-1.18-.33,2.25,2.25,0,0,0,1,1.33l.22.12A2.63,2.63,0,0,0,58,55.7v-.31a2.45,2.45,0,0,1-2.73,1.84" style="fill:#fff"/><rect x="52.79" y="52.38" width="0.37" height="0.37" style="fill:#fff"/></g></g></svg>