<?xml version="1.0" encoding="utf-8"?>
<!-- Generator: Adobe Illustrator 22.0.1, SVG Export Plug-In . SVG Version: 6.00 Build 0)  -->
<svg version="1.1" id="Layer_1" xmlns="http://www.w3.org/2000/svg" xmlns:xlink="http://www.w3.org/1999/xlink" x="0px" y="0px"
	 viewBox="0 0 250 156" style="enable-background:new 0 0 250 156;" xml:space="preserve">
<style type="text/css">
	.wst0{fill:#DFEFF1;}
</style>
<path class="wst0" d="M247.6,127.1c-6.2,17.3-22.7,28.9-41.1,28.9h-179c-7.7-0.3-14.7-3.5-19.9-9c-5.2-5.5-7.8-12.7-7.5-20.3
	c0.6-15,12.7-27.1,27.4-27.4l1.5,0l0.2-1.5c2.3-22.3,20.8-39.1,43.1-39.1h1.5l0.2-1.5c5-35.9,38.2-61.3,74-56.6
	c27,3.7,48.7,23,55.3,49.3c1.6,6.4,2.8,14.2,2.2,15.6l0.5,0.3c-19.2,0.3-37,12.3-43.7,31.4l1.6,0.5l1.6,0.5c0.3-0.8,0.6-1.6,0.9-2.3
	c6.5-15.7,21.5-25.8,37.9-26.7c5.5-0.3,11.2,0.4,16.8,2.4C243.5,79.4,255.5,104.3,247.6,127.1z"/>
</svg>
