<?xml version="1.0" encoding="utf-8"?>
<!-- Generator: Adobe Illustrator 22.0.1, SVG Export Plug-In . SVG Version: 6.00 Build 0)  -->
<svg version="1.1" id="Layer_1" xmlns="http://www.w3.org/2000/svg" xmlns:xlink="http://www.w3.org/1999/xlink" x="0px" y="0px"
	 viewBox="0 0 150.2 150" style="enable-background:new 0 0 150.2 150;" xml:space="preserve">
<style type="text/css">
	.st0{fill:#DFEFF1;}
	.st1{fill:none;stroke:#FFFFFF;stroke-linecap:round;stroke-linejoin:round;}
</style>
<title>Weather_Icons_1B</title>
<g id="Solid">
	<path class="st0" d="M99.1,62.1c0.4-1.9-0.6-5.2-0.6-5.2c-2.6-10.6-13.3-17-23.9-14.4c-7.9,1.9-13.8,8.5-14.8,16.6
		c-6.8,0-12.5,5.1-13.2,11.9c-4.9,0.2-8.7,4.2-8.5,9.1c0.2,4.6,3.9,8.4,8.5,8.5h52.4c7.3,0,13.2-5.9,13.2-13.2S106.4,62.1,99.1,62.1
		c-5.6,0-10.6,3.5-12.5,8.8"/>
	<path class="st1" d="M86.6,70.9c2.4-6.9,10-10.5,16.9-8.1c6.9,2.4,10.5,10,8.1,16.9c-1.9,5.3-6.9,8.8-12.5,8.8H46.7
		c-4.9-0.2-8.7-4.2-8.5-9.1c0.2-4.6,3.9-8.4,8.5-8.5C47.4,64.1,53,59,59.8,59C61.3,48.2,71.2,40.6,82,42c8,1.1,14.6,6.9,16.6,14.8
		c0,0,1,4.1,0.6,4.9"/>
</g>
</svg>
