<?xml version="1.0" encoding="utf-8"?>
<!-- Generator: Adobe Illustrator 22.0.1, SVG Export Plug-In . SVG Version: 6.00 Build 0)  -->
<svg version="1.1" id="Layer_1" xmlns="http://www.w3.org/2000/svg" xmlns:xlink="http://www.w3.org/1999/xlink" x="0px" y="0px"
	 viewBox="0 0 250 144.2" style="enable-background:new 0 0 250 144.2;" xml:space="preserve">
<style type="text/css">
	.wst0{fill:#F7F5BC;}
	.st1{fill:#DFEFF1;}
	.st2{fill:#BAB783;}
</style>
<g id="Solid">
	<path class="wst0" d="M99.9,40.3v58.8H41.1v1.2l-3.8-1.1C10.6,92-5.4,64.2,1.7,37.4c3.4-13,11.8-23.9,23.5-30.6
		C37,0,50.6-1.8,63.6,1.8c18.1,4.7,32,19.2,36.2,37.8L99.9,40.3z"/>
	<path class="st1" d="M247.8,118.5c-5.5,15.4-20.2,25.7-36.5,25.7H52.2c-6.8-0.3-13.1-3.1-17.7-8c-4.6-4.9-6.9-11.3-6.7-18
		c0.5-13.3,11.3-24.1,24.4-24.4h1.3l0.2-1.3c2-19.8,18.5-34.8,38.3-34.8h1.3l0.2-1.3C98,24.4,127.5,1.8,159.3,6
		c24,3.3,43.3,20.4,49.2,43.8c1.4,5.7,2.5,12.6,2,13.9l0.4,0.3C193.8,64.3,178,74.9,172,91.9l1.4,0.4l1.4,0.4c0.3-0.7,0.5-1.4,0.8-2
		c5.8-14,19.1-22.9,33.7-23.7c4.9-0.3,10,0.4,14.9,2.1C244.2,76.1,254.9,98.2,247.8,118.5z"/>
	<rect x="57.6" y="53" class="st2" width="11.5" height="3"/>
	<rect x="26" y="24" class="st2" width="19.9" height="3"/>
	<rect x="17.5" y="36.4" class="st2" width="13.6" height="3"/>
</g>
</svg>
