<?xml version="1.0" encoding="utf-8"?>
<!-- Generator: Adobe Illustrator 22.0.1, SVG Export Plug-In . SVG Version: 6.00 Build 0)  -->
<svg version="1.1" id="Layer_1" xmlns="http://www.w3.org/2000/svg" xmlns:xlink="http://www.w3.org/1999/xlink" x="0px" y="0px"
	 viewBox="0 0 250 152.3" style="enable-background:new 0 0 250 152.3;" xml:space="preserve">
<style type="text/css">
	.wst0{fill:#FFD150;}
	.st1{fill:#DFEFF1;}
</style>
<g>
	<path class="wst0" d="M97,33.9c5.1,5.7,8.8,12.6,10.5,20.3v52.7H52.2v0.3c-7.1-1.9-13.4-5.4-18.5-10l-13.3,13.3l-2-2l13.3-13.3
		c-7.8-8-12.4-18.7-12.7-29.9H0v-2.9h19c0.1-3.3,0.6-6.6,1.5-10c2-7.1,5.5-13.4,10.2-18.6L17.2,20.4l2-2l13.5,13.4
		C40.6,24.1,51,19.4,62.2,19V0H65v19c3.4,0.1,6.8,0.6,10.3,1.5c7.6,2,14.4,6,19.8,11.3l13.5-13.2l2,2.1L97,33.9z"/>
	<path class="st1" d="M248,128c-5.2,14.5-19.1,24.3-34.5,24.3H62.9c-6.5-0.3-12.4-2.9-16.7-7.6s-6.6-10.7-6.3-17.1
		c0.5-12.6,10.7-22.8,23-23h1.3l0.2-1.3c1.9-18.7,17.5-32.9,36.2-32.9h1.3l0.2-1.3c4.2-30.2,32.1-51.5,62.2-47.6
		c22.7,3.1,40.9,19.3,46.5,41.4c1.3,5.4,2.4,11.9,1.8,13.1l0.4,0.3c-16.1,0.3-31.1,10.3-36.7,26.4l1.3,0.4l1.3,0.4
		c0.3-0.7,0.5-1.3,0.8-1.9c5.5-13.2,18.1-21.7,31.9-22.4c4.6-0.3,9.4,0.3,14.1,2C244.5,87.9,254.6,108.8,248,128z"/>
</g>
</svg>
