<?xml version="1.0" encoding="utf-8"?>
<!-- Generator: Adobe Illustrator 22.0.1, SVG Export Plug-In . SVG Version: 6.00 Build 0)  -->
<svg version="1.1" id="Layer_1" xmlns="http://www.w3.org/2000/svg" xmlns:xlink="http://www.w3.org/1999/xlink" x="0px" y="0px"
	 viewBox="0 0 150.2 150" style="enable-background:new 0 0 150.2 150;" xml:space="preserve">
<style type="text/css">
	.st0{fill:#F7F5BC;stroke:#F7F5BC;stroke-width:2;stroke-miterlimit:10;}
	.st1{fill:none; }
	.st2{fill:#DFEFF1;}
	.st3{fill:none; }
</style>
<title>Weather_Icons_1B</title>
<g id="Solid">
	<path class="st0" d="M45.6,72.4c-8.4-2.3-13.3-10.9-11.1-19.3S45.5,39.7,53.8,42c5.7,1.5,10,6.1,11.3,11.8v18.5H45.6z"/>
	<line class="st1" x1="43.3" y1="53" x2="38.8" y2="53"/>
	<line class="st1" x1="48.2" y1="48.9" x2="41.6" y2="48.9"/>
	<line class="st1" x1="55.9" y1="58.5" x2="52.1" y2="58.5"/>
	<path class="st2" d="M102.9,62.1c0.4-1.9-0.6-5.2-0.6-5.2c-2.6-10.6-13.3-17-23.9-14.4c-7.9,1.9-13.8,8.5-14.8,16.6
		c-6.8,0-12.5,5.1-13.1,11.9c-4.9,0.2-8.7,4.2-8.5,9.1c0.2,4.6,3.9,8.4,8.5,8.5h52.4c7.3,0,13.2-5.9,13.2-13.2
		S110.2,62.1,102.9,62.1c-5.6,0-10.6,3.5-12.5,8.8"/>
	<path class="st3" d="M90.4,70.9c2.4-6.9,10-10.5,16.9-8.1c6.9,2.4,10.5,10,8.1,16.9c-1.9,5.3-6.9,8.8-12.5,8.8H50.5
		c-4.9-0.2-8.7-4.2-8.5-9.1c0.2-4.6,3.9-8.4,8.5-8.5C51.2,64.1,56.9,59,63.7,59C65.1,48.2,75,40.6,85.8,42c8,1.1,14.6,6.9,16.6,14.8
		c0,0,1,4.1,0.6,4.9"/>
</g>
</svg>
