<?xml version="1.0" encoding="utf-8"?>
<!-- Generator: Adobe Illustrator 22.0.1, SVG Export Plug-In . SVG Version: 6.00 Build 0)  -->
<svg version="1.1" id="Layer_1" xmlns="http://www.w3.org/2000/svg" xmlns:xlink="http://www.w3.org/1999/xlink" x="0px" y="0px"
	 viewBox="0 0 250 144.2" style="enable-background:new 0 0 250 144.2;" xml:space="preserve">
<path style="fill:#DFEFF1;" d="M247.8,118.8c-5.8,16.1-21.2,27-38.4,27l-167.5,0c-7.2-0.3-13.7-3.3-18.6-8.4s-7.3-11.9-7-19
	c0.6-14,11.9-25.3,25.6-25.6h1.4l0.2-1.4c2.2-20.8,19.4-36.6,40.4-36.6h1.4l0.2-1.4c4.7-33.6,35.8-57.4,69.2-52.9
	c25.2,3.5,45.5,21.5,51.7,46.1c1.5,6,2.6,13.2,2.1,14.5l0.5,0.3c-17.9,0.3-34.6,11.5-40.8,29.4l1.5,0.5l1.5,0.5
	c0.3-0.8,0.6-1.5,0.8-2.2c6.1-14.6,20.1-24.1,35.5-25c5.2-0.3,10.5,0.4,15.7,2.3C243.9,74.2,255.1,97.5,247.8,118.8z"/>
<path style="fill:#F7F5BC;" d="M78.8,114.6c-3.8,0.8-7.7,1.3-11.8,1.3c-30.4,0-55-24.6-55-55c0-30.4,24.6-55,55-55
	c4,0,8,0.4,11.8,1.3c-24.7,5.4-43.2,27.4-43.2,53.8S54.1,109.2,78.8,114.6z"/>
</svg>
