<?xml version="1.0" encoding="utf-8"?>
<!-- Generator: Adobe Illustrator 22.0.1, SVG Export Plug-In . SVG Version: 6.00 Build 0)  -->
<svg version="1.1" id="Layer_1" xmlns="http://www.w3.org/2000/svg" xmlns:xlink="http://www.w3.org/1999/xlink" x="0px" y="0px"
	 viewBox="0 0 150.2 150" style="enable-background:new 0 0 150.2 150;" xml:space="preserve">
<style type="text/css">
	.st0{fill:#FFD150; }
	.st1{fill:none;}
	.st2{fill:#DFEFF1;}
	.st3{fill:none; }
</style>
<title>Weather_Icons_1B</title>
<g id="Solid">
	<path class="st0" d="M43.4,72.9c-5.5-6.7-4.6-16.6,2.1-22.2c5.7-4.7,14-4.8,19.8-0.2v22.4H43.4z"/>
	<line class="st1" x1="55.4" y1="47" x2="55.4" y2="40.4"/>
	<line class="st1" x1="44.2" y1="51.9" x2="39.6" y2="47.2"/>
	<line class="st1" x1="39.8" y1="62.8" x2="33.2" y2="62.8"/>
	<path class="st2" d="M101.3,62.1c0.4-1.9-0.6-5.2-0.6-5.2c-2.6-10.6-13.3-17-23.9-14.4C69,44.4,63.1,50.9,62.1,59
		c-6.8,0-12.5,5.1-13.2,11.9c-4.9-0.2-8.9,3.6-9.1,8.5c-0.2,4.9,3.6,8.9,8.5,9.1c0.2,0,0.4,0,0.6,0h52.4c7.3,0,13.2-5.9,13.2-13.2
		S108.6,62.1,101.3,62.1c-5.6,0-10.6,3.5-12.5,8.8"/>
	<path class="st3" d="M88.9,70.9c2.4-6.9,10-10.5,16.9-8.1c6.9,2.4,10.5,10,8.1,16.9c-1.9,5.3-6.9,8.8-12.5,8.8H48.9
		c-4.9,0.2-8.9-3.6-9.1-8.5c-0.2-4.9,3.6-8.9,8.5-9.1c0.2,0,0.4,0,0.6,0C49.6,64.1,55.3,59,62.1,59c1.4-10.8,11.3-18.4,22.1-17
		c8,1.1,14.6,6.9,16.6,14.8c0,0,1,4.1,0.6,4.9"/>
</g>
</svg>
