<?xml version="1.0" encoding="utf-8"?>
<!-- Generator: Adobe Illustrator 22.0.1, SVG Export Plug-In . SVG Version: 6.00 Build 0)  -->
<svg version="1.1" id="Layer_1" xmlns="http://www.w3.org/2000/svg" xmlns:xlink="http://www.w3.org/1999/xlink" x="0px" y="0px"
	 viewBox="0 0 150.2 150" style="enable-background:new 0 0 150.2 150;" xml:space="preserve">
<style type="text/css">
	.st0{fill:none;stroke:#FFD150;stroke-width:2;stroke-linecap:round;stroke-linejoin:round;}
	.st1{fill:#FFD150; }
	.st2{fill:#DFEFF1;}
	.st3{fill:none;stroke:#FFFFFF;stroke-linecap:round;stroke-linejoin:round;}
</style>
<title>Weather_Icons_1B</title>
<g id="Solid">
	<line class="st0" x1="53" y1="41.4" x2="53" y2="34.8"/>
	<line class="st0" x1="41.8" y1="46.3" x2="37.1" y2="41.6"/>
	<line class="st0" x1="37.3" y1="57.2" x2="30.7" y2="57.2"/>
	<line class="st0" x1="64.4" y1="46.3" x2="69.1" y2="41.7"/>
	<line class="st0" x1="37.5" y1="73.2" x2="42.2" y2="68.5"/>
	<path class="st1" d="M49,72.4c-8.4-2.2-13.4-10.9-11.1-19.2S48.7,39.7,57.1,42c5.7,1.5,10,6.1,11.3,11.8v18.5H49z"/>
	<path class="st2" d="M106.2,62.1c0.4-1.9-0.6-5.2-0.6-5.2c-2.6-10.6-13.3-17-23.9-14.4C73.9,44.4,68.1,51,67,59
		c-6.8,0-12.5,5.1-13.2,11.9c-4.9-0.2-8.9,3.6-9.1,8.5c-0.2,4.9,3.6,8.9,8.5,9.1c0.2,0,0.4,0,0.6,0h52.4c7.3,0,13.2-5.9,13.2-13.2
		S113.5,62.1,106.2,62.1c-5.6,0-10.6,3.5-12.5,8.8"/>
	<path class="st3" d="M93.8,70.9c2.4-6.9,10-10.5,16.9-8.1c6.9,2.4,10.5,10,8.1,16.9c-1.9,5.3-6.9,8.8-12.5,8.8H53.8
		c-4.9,0.2-8.9-3.6-9.1-8.5c-0.2-4.9,3.6-8.9,8.5-9.1c0.2,0,0.4,0,0.6,0C54.5,64.1,60.2,59,67,59c1.4-10.8,11.3-18.4,22.1-17
		c8,1.1,14.6,6.9,16.6,14.8c0,0,1,4.1,0.6,4.9"/>
</g>
</svg>
