<?xml version="1.0" encoding="utf-8"?>
<!-- Generator: Adobe Illustrator 22.0.1, SVG Export Plug-In . SVG Version: 6.00 Build 0)  -->
<svg version="1.1" id="Layer_1" xmlns="http://www.w3.org/2000/svg" xmlns:xlink="http://www.w3.org/1999/xlink" x="0px" y="0px"
	 viewBox="0 0 250 218.2" style="enable-background:new 0 0 250 218.2;" xml:space="preserve">
<style type="text/css">
	.wst0{fill:#91EAF9;}
	.st1{fill:#DFEFF1;}
</style>
<g>
	<path class="wst0" d="M79.5,161.6c-1.9,0-3.4-1.5-3.4-3.4v-38.7c0-1.9,1.5-3.4,3.4-3.4s3.4,1.5,3.4,3.4v38.7
		C82.9,160.1,81.4,161.6,79.5,161.6z"/>
	<path class="wst0" d="M79.5,192.5c-1.9,0-3.4-1.5-3.4-3.4v-17c0-1.9,1.5-3.4,3.4-3.4s3.4,1.5,3.4,3.4v17
		C82.9,190.9,81.4,192.5,79.5,192.5z"/>
	<path class="wst0" d="M109.1,218.2c-1.9,0-3.4-1.5-3.4-3.4v-60.4c0-1.9,1.5-3.4,3.4-3.4c1.9,0,3.4,1.5,3.4,3.4v60.4
		C112.4,216.7,110.9,218.2,109.1,218.2z"/>
	<path class="wst0" d="M168.4,177.9c-1.9,0-3.4-1.5-3.4-3.4v-55c0-1.9,1.5-3.4,3.4-3.4s3.4,1.5,3.4,3.4v55
		C171.8,176.3,170.3,177.9,168.4,177.9z"/>
	<path class="wst0" d="M168.4,209.8c-1.9,0-3.4-1.5-3.4-3.4v-18c0-1.9,1.5-3.4,3.4-3.4s3.4,1.5,3.4,3.4v18
		C171.8,208.2,170.3,209.8,168.4,209.8z"/>
	<path class="wst0" d="M138.9,197.2c-1.9,0-3.4-1.5-3.4-3.4v-27.5c0-1.9,1.5-3.4,3.4-3.4s3.4,1.5,3.4,3.4v27.5
		C142.3,195.7,140.8,197.2,138.9,197.2z"/>
	<path class="st1" d="M247.6,127.1c-6.2,17.3-22.7,28.9-41.1,28.9h-179c-7.7-0.3-14.7-3.5-19.9-9s-7.8-12.7-7.5-20.3
		c0.6-15,12.7-27.1,27.4-27.4h1.5l0.2-1.5c2.3-22.3,20.8-39.1,43.1-39.1h1.5l0.2-1.5c5-35.9,38.2-61.3,74-56.6
		c27,3.7,48.7,23,55.3,49.3c1.6,6.4,2.8,14.2,2.2,15.6l0.5,0.3c-19.2,0.3-37,12.3-43.7,31.4l1.6,0.5l1.6,0.5
		c0.3-0.8,0.6-1.6,0.9-2.3c6.5-15.7,21.5-25.8,37.9-26.7c5.5-0.3,11.2,0.4,16.8,2.4C243.5,79.4,255.5,104.3,247.6,127.1z"/>
</g>
</svg>
