<?xml version="1.0" encoding="utf-8"?>
<!-- Generator: Adobe Illustrator 22.0.1, SVG Export Plug-In . SVG Version: 6.00 Build 0)  -->
<svg version="1.1" id="Layer_1" xmlns="http://www.w3.org/2000/svg" xmlns:xlink="http://www.w3.org/1999/xlink" x="0px" y="0px"
	 viewBox="0 0 150.2 150" style="enable-background:new 0 0 150.2 150;" xml:space="preserve">
<style type="text/css">
	.st0{fill:#DFEFF1;}
	.st1{fill:none;stroke:#4EDD81;stroke-width:2;stroke-miterlimit:10;}
	.st2{fill:none;stroke:#AEA1EA;stroke-width:2;stroke-miterlimit:10;}
	.st3{fill:none;stroke:#F23B74;stroke-width:2;stroke-miterlimit:10;}
	.st4{fill:none;stroke:#91EAF9;stroke-width:2;stroke-linecap:round;stroke-linejoin:round;}
</style>
<title>Weather_Icons_1B</title>
<g id="Solid">
	<path class="st0" d="M107.2,68.3c0.8-17.7-12.9-32.6-30.5-33.4S44,47.8,43.2,65.5c0,1.1,0,2.1,0,3.2l19.1-0.2
		c0.2-7.1,6.1-12.8,13.2-12.6c6.8,0.1,12.4,5.6,12.6,12.5L107.2,68.3z"/>
	<path class="st1" d="M97.6,68.4C97.6,56,87.5,46,75.1,46S52.7,56.2,52.7,68.6l0,0"/>
	<path class="st2" d="M92.9,68.4c-0.1-9.8-8-17.7-17.8-17.6s-17.7,8-17.6,17.8"/>
	<path class="st3" d="M102.4,68.3c0.3-15-11.6-27.5-26.6-27.8S48.3,52.2,48,67.2c0,0.5,0,1,0,1.4"/>
	<line class="st4" x1="114.9" y1="68.3" x2="35.3" y2="68.7"/>
	<line class="st4" x1="69.8" y1="81" x2="50.3" y2="81.1"/>
	<line class="st4" x1="100.1" y1="80.8" x2="91.6" y2="80.9"/>
	<line class="st4" x1="66.5" y1="93.5" x2="58" y2="93.6"/>
	<line class="st4" x1="92.5" y1="93.4" x2="79.4" y2="93.4"/>
</g>
</svg>
