<?xml version="1.0" encoding="utf-8"?>
<!-- Generator: Adobe Illustrator 22.0.1, SVG Export Plug-In . SVG Version: 6.00 Build 0)  -->
<svg version="1.1" id="Layer_1" xmlns="http://www.w3.org/2000/svg" xmlns:xlink="http://www.w3.org/1999/xlink" x="0px" y="0px"
	 viewBox="0 0 150 150" style="enable-background:new 0 0 150 150;" xml:space="preserve">
<style type="text/css">
	.st0{fill:none;stroke:#CCFEFF;stroke-width:1.7;stroke-linecap:round;stroke-linejoin:round;}
	.st1{fill:#DFEFF1;}
	.st2{fill:none; }
</style>
<title>Weather_Icons_1B</title>
<g id="Solid">
	<line class="st0" x1="75" y1="89.5" x2="75" y2="103.2"/>
	<line class="st0" x1="88.6" y1="89.6" x2="61.4" y2="89.6"/>
	<line class="st0" x1="75" y1="89.5" x2="84.6" y2="99.2"/>
	<line class="st0" x1="75" y1="89.6" x2="65.4" y2="99.2"/>
	<polyline class="st0" points="81.5,99.2 81.5,96 84.6,96 	"/>
	<path class="st0" d="M68.5,96L68.5,96z"/>
	<line class="st0" x1="68.5" y1="96" x2="68.5" y2="99.2"/>
	<line class="st0" x1="86.4" y1="91.8" x2="84.2" y2="89.6"/>
	<polyline class="st0" points="72.8,100.9 75,98.7 77.2,100.9 	"/>
	<line class="st0" x1="65.8" y1="89.6" x2="63.6" y2="91.8"/>
	<path class="st1" d="M99,62.1c0.4-1.9-0.6-5.2-0.6-5.2c-2.6-10.6-13.3-17-23.9-14.4c-7.9,1.9-13.8,8.5-14.8,16.6
		c-6.8,0-12.5,5.1-13.2,11.9c-4.9-0.2-8.9,3.6-9.1,8.5c-0.2,4.9,3.6,8.9,8.5,9.1c0.2,0,0.4,0,0.6,0H99c7.3,0,13.2-5.9,13.2-13.2
		S106.3,62.1,99,62.1c-5.6,0-10.6,3.5-12.5,8.8"/>
	<path class="st2" d="M86.5,70.9c2.4-6.9,10-10.5,16.9-8.1c6.9,2.4,10.5,10,8.1,16.9c-1.9,5.3-6.9,8.8-12.5,8.8H46.6
		c-4.9,0.2-8.9-3.6-9.1-8.5c-0.2-4.9,3.6-8.9,8.5-9.1c0.2,0,0.4,0,0.6,0C47.3,64.1,52.9,59,59.7,59c1.4-10.8,11.3-18.4,22.1-17
		c8,1.1,14.6,6.9,16.6,14.8c0,0,1,4.1,0.6,4.9"/>
</g>
</svg>
