<?xml version="1.0" encoding="utf-8"?>
<!-- Generator: Adobe Illustrator 22.0.1, SVG Export Plug-In . SVG Version: 6.00 Build 0)  -->
<svg version="1.1" id="Layer_1" xmlns="http://www.w3.org/2000/svg" xmlns:xlink="http://www.w3.org/1999/xlink" x="0px" y="0px"
	 viewBox="0 0 250 250" style="enable-background:new 0 0 250 250;" xml:space="preserve">
<style type="text/css">
	.wst0{fill:#FFD150;}
</style>
<title>Weather_Icons_1B</title>
<path class="wst0" d="M246.2,121.2h-35.8c-0.9-20.1-8.7-38.3-21.1-52.5l25-25.4c1.5-1.5,1.5-3.9,0-5.4c-1.5-1.5-3.9-1.5-5.4,0
	l-24.9,25.2c-14.6-13.9-34.1-22.8-55.7-23.6c0,0,0-0.1,0-0.1V3.8c0-2.1-1.7-3.8-3.8-3.8s-3.8,1.7-3.8,3.8v35.7c0,0,0,0.1,0,0.1
	c-21.2,1-40.3,9.7-54.7,23.4L41.1,38c-1.5-1.5-3.9-1.5-5.4,0s-1.5,3.9,0,5.4l25.2,25.2C48.4,82.7,40.5,101,39.6,121.2H3.8
	c-2.1,0-3.8,1.7-3.8,3.8s1.7,3.8,3.8,3.8h35.8c0.9,21.4,9.8,40.8,23.6,55.3L38,209.3c-1.5,1.5-1.5,3.9,0,5.4
	c0.7,0.7,1.7,1.1,2.7,1.1c1,0,1.9-0.4,2.7-1.1l25.4-25.4c14.1,12.3,32.2,20.1,52.1,21.1c0,0,0,0.1,0,0.1v35.7c0,2.1,1.7,3.8,3.8,3.8
	s3.8-1.7,3.8-3.8v-35.7c0,0,0-0.1,0-0.1c20.9-0.8,39.9-9.1,54.3-22.3c0,0,0,0,0,0l25.5,25.5c0.7,0.7,1.7,1.1,2.7,1.1
	c1,0,1.9-0.4,2.7-1.1c1.5-1.5,1.5-3.9,0-5.4l-25.5-25.5c0,0,0,0,0,0c13.1-14.3,21.4-33.2,22.3-53.9h35.8c2.1,0,3.8-1.7,3.8-3.8
	S248.3,121.2,246.2,121.2z"/>
</svg>
