<?xml version="1.0" encoding="utf-8"?>
<!-- Generator: Adobe Illustrator 22.0.1, SVG Export Plug-In . SVG Version: 6.00 Build 0)  -->
<svg version="1.1" id="Layer_1" xmlns="http://www.w3.org/2000/svg" xmlns:xlink="http://www.w3.org/1999/xlink" x="0px" y="0px"
	 viewBox="0 0 252 133.6" style="enable-background:new 0 0 252 133.6;" xml:space="preserve">
<style type="text/css">
	.wst0{fill:#FFD150;}
	.st1{fill:#91EAF9;}
</style>
<g id="Solid">
	<path class="wst0" d="M215.9,40.5c-1.5-1.5-3.9-1.5-5.4,0l-22.6,22.6c-15.2-14.6-35.6-23.9-58.1-24.8V5.9c0-2.1-1.7-3.8-3.8-3.8
		s-3.8,1.7-3.8,3.8v32.5c-22.1,1-42.2,10.1-57.3,24.4L42.2,40.1c-1.5-1.5-3.9-1.5-5.4,0c-1.5,1.5-1.5,3.9,0,5.4l22.7,22.7
		c-14.1,15.8-22.7,36.7-22.7,59.5c0,2.1,1.7,3.8,3.8,3.8c2.1,0,3.8-1.7,3.8-3.8h163.4c0,2.1,1.7,3.8,3.8,3.8s3.8-1.7,3.8-3.8
		c0-22.7-8.4-43.4-22.3-59.1l22.7-22.7C217.4,44.4,217.4,42,215.9,40.5z"/>
	<g>
		<path class="st1" d="M247.1,131.6H4.9c-2.1,0-3.9-1.7-3.9-3.9c0-2.1,1.7-3.9,3.9-3.9h242.2c2.1,0,3.9,1.7,3.9,3.9
			C251,129.9,249.3,131.6,247.1,131.6z"/>
	</g>
</g>
</svg>
