<?xml version="1.0" encoding="utf-8"?>
<!-- Generator: Adobe Illustrator 22.0.1, SVG Export Plug-In . SVG Version: 6.00 Build 0)  -->
<svg version="1.1" id="Layer_1" xmlns="http://www.w3.org/2000/svg" xmlns:xlink="http://www.w3.org/1999/xlink" x="0px" y="0px"
	 viewBox="0 0 250 129.6" style="enable-background:new 0 0 250 129.6;" xml:space="preserve">
<style type="text/css">
	.wst0{fill:#FFD150;}
	.st1{fill:#91EAF9;}
</style>
<g id="Solid">
	<path class="wst0" d="M215,38.5c-1.5-1.5-3.9-1.5-5.4,0L187,61.1c-15.2-14.6-35.6-23.9-58.2-24.8V3.8c0-2.1-1.7-3.8-3.8-3.8
		s-3.8,1.7-3.8,3.8v32.5C99,37.3,79,46.5,63.9,60.8L41.2,38.1c-1.5-1.5-3.9-1.5-5.4,0c-1.5,1.5-1.5,3.9,0,5.4l22.8,22.8
		c-14.1,15.8-22.7,36.7-22.7,59.5c0,2.1,1.7,3.8,3.8,3.8s3.8-1.7,3.8-3.8h163.5c0,2.1,1.7,3.8,3.8,3.8c2.1,0,3.8-1.7,3.8-3.8
		c0-22.7-8.4-43.4-22.3-59.2L215,43.9C216.5,42.4,216.5,40,215,38.5z"/>
	<path class="st1" d="M246.2,129.6H3.8c-2.1,0-3.8-1.7-3.8-3.8s1.7-3.8,3.8-3.8h242.4c2.1,0,3.8,1.7,3.8,3.8
		S248.3,129.6,246.2,129.6z"/>
</g>
</svg>
