<?xml version="1.0" encoding="utf-8"?>
<!-- Generator: Adobe Illustrator 22.0.1, SVG Export Plug-In . SVG Version: 6.00 Build 0)  -->
<svg version="1.1" id="Layer_1" xmlns="http://www.w3.org/2000/svg" xmlns:xlink="http://www.w3.org/1999/xlink" x="0px" y="0px"
	 viewBox="0 0 250 215.3" style="enable-background:new 0 0 250 215.3;" xml:space="preserve">
<style type="text/css">
	.wst0{fill:#FFD150;}
	.st1{fill:#DFEFF1;}
</style>
<g>
	<path class="wst0" d="M151.3,158.7L116.7,214c-0.5,0.8-1.5,1.4-2.4,1.4c-0.3,0-0.6-0.1-0.9-0.2c-1.3-0.4-2.1-1.7-1.9-3.1l4.3-35.5
		H99.7c-1.1,0-2-0.6-2.5-1.5c-0.5-0.9-0.5-2,0.1-2.9l34.9-55.3c0.7-1.2,2.1-1.6,3.4-1.2c1.3,0.4,2,1.7,1.9,3.1l-4.3,35.5h15.7
		c1.1,0,2,0.6,2.5,1.5C151.9,156.7,151.8,157.8,151.3,158.7z"/>
	<path class="st1" d="M247.6,127.1c-6.2,17.3-22.7,28.9-41.1,28.9h-179c-7.7-0.3-14.7-3.5-19.9-9s-7.8-12.7-7.5-20.3
		c0.6-15,12.7-27.1,27.4-27.4h1.5l0.2-1.5c2.3-22.3,20.8-39.1,43.1-39.1h1.5l0.2-1.5c5-35.9,38.2-61.3,74-56.6
		c27,3.7,48.7,23,55.3,49.3c1.6,6.4,2.8,14.2,2.2,15.6l0.5,0.3c-19.2,0.3-37,12.3-43.7,31.4l1.6,0.5l1.6,0.5
		c0.3-0.8,0.6-1.6,0.9-2.3c6.5-15.7,21.5-25.8,37.9-26.7c5.5-0.3,11.2,0.4,16.8,2.4C243.5,79.4,255.5,104.3,247.6,127.1z"/>
</g>
</svg>
