<?xml version="1.0" encoding="utf-8"?>
<!-- Generator: Adobe Illustrator 22.0.1, SVG Export Plug-In . SVG Version: 6.00 Build 0)  -->
<svg version="1.1" id="Layer_1" xmlns="http://www.w3.org/2000/svg" xmlns:xlink="http://www.w3.org/1999/xlink" x="0px" y="0px"
	 viewBox="0 0 250 197" style="enable-background:new 0 0 250 197;" xml:space="preserve">
<style type="text/css">
	.wst0{fill:#DFEFF1;}
</style>
<g>
	<path class="wst0" d="M3.2,101.7c-1.8,0-3.2-1.4-3.2-3.2s1.4-3.2,3.2-3.2h203.5c20.6-0.3,36.8-16.6,36.8-37.1
		c-0.3-20.6-16.6-36.8-37.1-36.8c-20.6,0.3-36.8,16.6-36.8,37.1c0,1.8-1.4,3.2-3.2,3.2s-3.2-1.4-3.2-3.2c0-24.1,19-43.3,43.2-43.6
		c24.1,0,43.3,19,43.7,43.2c0,24.1-19,43.3-43.2,43.7H3.2z"/>
	<path class="wst0" d="M108.5,62H20.7c-1.8,0-3.2-1.4-3.2-3.2c0-1.8,1.4-3.2,3.2-3.2h87.9c13.8,0,24.5-10.8,24.5-24.5
		c0-13.5-11-24.5-24.5-24.5C95,6.5,84,17.5,84,31c0,1.8-1.4,3.2-3.2,3.2c-1.8,0-3.2-1.4-3.2-3.2c0-17.1,13.9-31,31-31s31,13.9,31,31
		C139.5,48.4,125.9,62,108.5,62z"/>
	<path class="wst0" d="M167,197c-17.1,0-31-13.9-31-31c0-1.8,1.4-3.2,3.2-3.2c1.8,0,3.2,1.4,3.2,3.2c0,13.5,11,24.5,24.5,24.5
		c13.8,0,24.5-10.8,24.5-24.5s-10.8-24.5-24.5-24.5H19.1c-1.8,0-3.2-1.4-3.2-3.2c0-1.8,1.4-3.2,3.2-3.2H167c17.4,0,31,13.6,31,31
		C198,183.4,184.4,197,167,197z"/>
</g>
</svg>
