<?xml version="1.0" encoding="utf-8"?>
<!-- Generator: Adobe Illustrator 22.0.1, SVG Export Plug-In . SVG Version: 6.00 Build 0)  -->
<svg version="1.1" id="Layer_1" xmlns="http://www.w3.org/2000/svg" xmlns:xlink="http://www.w3.org/1999/xlink" x="0px" y="0px"
	 viewBox="0 0 150.2 150" style="enable-background:new 0 0 150.2 150;" xml:space="preserve">
<style type="text/css">
	.st0{fill:none;stroke:#DFEFF1;stroke-width:2;stroke-linecap:round;stroke-linejoin:round;}
</style>
<title>Weather_Icons_1B</title>
<g id="Solid">
	<path class="st0" d="M87.9,52.6c0-6.9,5.5-12.4,12.4-12.5c6.9,0,12.4,5.5,12.5,12.4c0,6.9-5.5,12.4-12.4,12.5c0,0,0,0,0,0H37.4"/>
	<path class="st0" d="M61.4,44.1c0-4.7,3.8-8.6,8.6-8.6c4.7,0,8.6,3.8,8.6,8.6s-3.8,8.6-8.6,8.6c0,0,0,0,0,0H42.8"/>
	<path class="st0" d="M79.5,85.9c0,4.7,3.8,8.6,8.6,8.6s8.6-3.8,8.6-8.6s-3.8-8.6-8.6-8.6H42.3"/>
</g>
</svg>
