<svg id="b0333209-de45-4b0c-aef8-8249fcd2d14b" data-name="Layer 1" xmlns="http://www.w3.org/2000/svg" viewBox="0 0 16.59 14.75"><title>iconArtboard 31</title><path d="M16.59,7.49a1.82,1.82,0,0,0-3.08-1.25A8.75,8.75,0,0,0,8.72,4.71L9.52.82l2.67.56a1.24,1.24,0,1,0,.16-.76L9.3,0A.38.38,0,0,0,8.84.3h0L7.92,4.63A9,9,0,0,0,3.06,6.16,1.82,1.82,0,1,0,.57,8.81a1.76,1.76,0,0,0,.49.33,5,5,0,0,0,0,.55c0,2.79,3.25,5.06,7.26,5.06s7.26-2.27,7.26-5.06a2.53,2.53,0,0,0,0-.55A1.81,1.81,0,0,0,16.59,7.49ZM4.13,8.73A1.25,1.25,0,1,1,5.38,10,1.25,1.25,0,0,1,4.13,8.73Zm7.24,3.43a4.87,4.87,0,0,1-3.08,1,4.82,4.82,0,0,1-3.07-1,.34.34,0,0,1,.47-.48,4.08,4.08,0,0,0,2.59.79,4.08,4.08,0,0,0,2.6-.76.36.36,0,0,1,.5,0,.35.35,0,0,1,0,.49h0v-.05ZM11.15,10A1.25,1.25,0,1,1,12.4,8.78,1.26,1.26,0,0,1,11.15,10h-.06Z" style="fill:#fff"/></svg>