<?xml version="1.0" encoding="utf-8"?>
<!-- Generator: Adobe Illustrator 22.0.1, SVG Export Plug-In . SVG Version: 6.00 Build 0)  -->
<svg version="1.1"
	 id="clock_layer" inkscape:version="0.92.2 (5c3e80d, 2017-08-06)" sodipodi:docname="clock.svg" xmlns:cc="http://creativecommons.org/ns#" xmlns:dc="http://purl.org/dc/elements/1.1/" xmlns:inkscape="http://www.inkscape.org/namespaces/inkscape" xmlns:rdf="http://www.w3.org/1999/02/22-rdf-syntax-ns#" xmlns:sodipodi="http://sodipodi.sourceforge.net/DTD/sodipodi-0.dtd" xmlns:svg="http://www.w3.org/2000/svg"
	 xmlns="http://www.w3.org/2000/svg" xmlns:xlink="http://www.w3.org/1999/xlink" x="0px" y="0px" viewBox="0 0 1024 600"
	 style="enable-background:new 0 0 1024 600;" xml:space="preserve">
<pattern  y="600" width="5" height="5" patternUnits="userSpaceOnUse" id="rect57_1_" viewBox="0 -5 5 5" style="overflow:visible;">
	<g>
		<rect y="-5" style="fill:none;" width="5" height="5"/>
		<g>
			<rect y="-5" style="fill:none;" width="5" height="5"/>
			<g>
				<rect y="-5" style="fill:none;" width="5" height="5"/>
				<rect id="rect43_2_" y="-5" style="fill:none;" width="5" height="5"/>
				<g>
					<g>
						<g>
							<defs>
								<path id="SVGID_1_" d="M4.9-3C4.9-3,4.8-3,4.9-3H4.3v-1.7c0-0.1,0-0.1-0.1-0.1H0.8c-0.1,0-0.1,0-0.1,0.1V-3H0.2
									c0,0-0.1,0-0.1,0.1l0,0c0,0,0,0,0,0.1l0,0l2.3,2.2c0.1,0.1,0.1,0.1,0.2,0l1.1-1.1l0.1-0.1v0.2c0,0.1,0,0.1,0.1,0.1h0.3
									c0.1,0,0.1,0,0.1-0.1v-0.7v-0.1c0.2-0.1,0.3-0.3,0.4-0.4v-0.1C4.8-2.9,4.9-2.9,4.9-3z"/>
							</defs>
							<clipPath id="SVGID_2_">
								<use xlink:href="#SVGID_1_"  style="overflow:visible;"/>
							</clipPath>
							<g id="g47_2_" style="clip-path:url(#SVGID_2_);">
								
									<radialGradient id="rect45_3_" cx="-83566.7813" cy="-97872.6094" r="4.43" gradientTransform="matrix(0.56 0 0 0.56 46707.2891 54684.4805)" gradientUnits="userSpaceOnUse">
									<stop  offset="0" style="stop-color:#17426C"/>
									<stop  offset="1" style="stop-color:#050F1A"/>
								</radialGradient>
								<rect id="rect45_2_" y="-5" style="fill:url(#rect45_3_);" width="4.9" height="4.9"/>
							</g>
						</g>
					</g>
				</g>
				<path id="path367_2_" style="fill:#19476D;" d="M3.6-3.2c0.1,0,0.2,0.1,0.2,0.2l0,0c0,0.1-0.1,0.2-0.2,0.2l0,0
					C3.5-2.8,3.4-2.9,3.4-3l0,0l0,0C3.4-3.1,3.5-3.2,3.6-3.2z M1.4-3.2c0.1,0,0.2,0.1,0.2,0.2l0,0l0,0c0,0.1-0.1,0.2-0.2,0.2
					S1.2-2.9,1.2-3S1.3-3.2,1.4-3.2L1.4-3.2z M2.3-4.1L1.6-3.4C1.4-3.5,1.1-3.4,1-3.2s0,0.5,0.2,0.6c0.1,0.1,0.3,0.1,0.5,0
					c0.1,0,0.2-0.1,0.2-0.2c0-0.1,0-0.3,0-0.4l0.4-0.5v1.5C2.1-2.1,2-1.9,2-1.8s0,0.3,0.1,0.4c0.2,0.2,0.5,0.2,0.7,0l0,0l0,0
					C2.9-1.4,3-1.6,3-1.7C3-1.9,2.9-2,2.7-2.1c0-0.4,0-1.5,0-1.5l0.4,0.5c0,0.1,0.1,0.4,0.3,0.5s0.5,0,0.6-0.2
					c0.1-0.1,0.1-0.3,0-0.4C3.9-3.4,3.7-3.5,3.4-3.4L2.7-4.1v-0.6H2.3V-4.1z M2.7-1.7c0,0.1-0.1,0.2-0.2,0.2c-0.1,0-0.2-0.1-0.2-0.2
					l0,0c0-0.1,0.1-0.2,0.2-0.2C2.6-1.9,2.7-1.8,2.7-1.7z"/>
			</g>
		</g>
	</g>
</pattern>
<g id="BG" inkscape:label="#BG1">
	<rect id="rect55" y="-0.5" width="1024" height="600.5"/>
	<pattern  id="rect57_2_" xlink:href="#rect57_1_" patternTransform="matrix(1 0 0 -1 -3 -33192)">
	</pattern>
	<rect id="rect57" y="-0.5" style="fill:url(#rect57_2_);" width="1024" height="600"/>
	
		<radialGradient id="rect40_2_" cx="422.59" cy="1980.11" r="468.26" gradientTransform="matrix(1 0 0 0.5 0 -695.07)" gradientUnits="userSpaceOnUse">
		<stop  offset="0" style="stop-color:#000000;stop-opacity:0"/>
		<stop  offset="0.191" style="stop-color:#000000;stop-opacity:0"/>
		<stop  offset="0.4815" style="stop-color:#000000;stop-opacity:0"/>
		<stop  offset="1" style="stop-color:#000000"/>
	</radialGradient>
	<rect id="rect40_1_" style="fill:url(#rect40_2_);" width="1024" height="600"/>
</g>
<g id="right_side_layout">
	
		<line id="edge_doorbell_top" style="fill:none;stroke:#FFFFFF;stroke-miterlimit:10;" x1="819.6" y1="121.1" x2="1009.6" y2="121.1"/>
	
		<line id="edge_snooze_bottom" style="fill:none;stroke:#FFFFFF;stroke-miterlimit:10;" x1="819.6" y1="115.1" x2="1009.6" y2="115.1"/>
	<line id="edge_snooze_top" style="fill:none;stroke:#FFFFFF;stroke-miterlimit:10;" x1="819.6" y1="8.1" x2="1009.6" y2="8.1"/>
	
		<line id="edge_doorbell_bottom" style="fill:none;stroke:#FFFFFF;stroke-miterlimit:10;" x1="819.6" y1="228.1" x2="1009.6" y2="228.1"/>
	<line id="edge_doppler_top" style="fill:none;stroke:#FFFFFF;stroke-miterlimit:10;" x1="819.6" y1="234" x2="1009.6" y2="234"/>
	
		<line id="edge_doppler_bottom" style="fill:none;stroke:#FFFFFF;stroke-miterlimit:10;" x1="819.6" y1="341" x2="1009.6" y2="341"/>
	<line id="edge_radio_top" style="fill:none;stroke:#FFFFFF;stroke-miterlimit:10;" x1="818.7" y1="469" x2="1008.7" y2="469"/>
	<line id="edge_radio_bottom" style="fill:none;stroke:#FFFFFF;stroke-miterlimit:10;" x1="818.7" y1="556" x2="1008.7" y2="556"/>
</g>
<rect id="camera.front_door" x="819.6" y="122.1" inkscape:label="#rect140" style="fill:#333333;" width="190" height="105">
</rect>
<rect id="sensor.dark_sky_minutely_summary_icon" x="23.3" y="15" inkscape:label="#rect395" style="fill:#666666;" width="70.5" height="62.2">
</rect>
<rect id="input_boolean.school_mode" x="819.6" y="235" inkscape:label="#rect140" style="fill:#333333;" width="190" height="105">
</rect>
<rect id="media_player.alarm_clock" x="818.6" y="470.2" inkscape:label="#rect140" style="fill:#333333;" width="190" height="83.8">
</rect>
<rect id="input_boolean.clock_snooze" x="819.1" y="9.2" inkscape:label="#rect140" style="fill:#333333;" width="190" height="105">
</rect>
<text id="sensor.dark_sky_minutely_summary" transform="matrix(1 0 0 1 188.8361 58.1703)" style="fill:#808080; font-family:'Helvetica'; font-size:48px;">Hell Fire for the next 2 hours</text>
<text id="sensor.dark_sky_temperature" transform="matrix(1 0 0 1 112.8211 58.1696)" style="fill:#808080; font-family:'Helvetica'; font-size:48px;">72</text>
<g>
	<g id="powered_by_2_">
		<g id="powered_by-2_2_">
			<g id="text857_2_">
				<path style="fill:#00ADEE;" d="M852.4,582c-0.3-0.9-1-1.7-1.8-2.3c-0.8-0.5-1.8-0.8-2.8-0.8c-0.7,0-1.4,0.1-2.1,0.5
					c-0.6,0.4-1.1,0.8-1.5,1.4v-1.7h-1.9v1.1h-9.7c-0.1-0.9-0.9-1.6-1.8-1.6c-1,0-1.9,0.8-1.9,1.9s0.8,1.9,1.9,1.9
					c1,0,1.8-0.8,1.9-1.7h9.7v7.8h-6.8c-0.1-1-0.9-1.7-1.8-1.7c-1,0-1.9,0.8-1.9,1.9c0,1,0.8,1.9,1.9,1.9c0.9,0,1.7-0.7,1.8-1.6h6.8
					v7.4h2.1v-6.1c0.4,0.5,0.8,0.9,1.4,1.2c0.6,0.2,1.3,0.4,1.9,0.4c0.9,0,1.9-0.3,2.7-0.8c0.9-0.5,1.6-1.3,2-2.3
					c0.4-1.1,0.6-2.3,0.6-3.5C853,584.2,852.8,583.1,852.4,582z M830.8,582c-0.8,0-1.4-0.6-1.4-1.4c0-0.8,0.6-1.4,1.4-1.4
					c0.8,0,1.4,0.6,1.4,1.4C832.2,581.4,831.5,582,830.8,582z M833.6,590.2c-0.8,0-1.4-0.6-1.4-1.4c0-0.8,0.6-1.4,1.4-1.4
					c0.8,0,1.4,0.6,1.4,1.4C835.1,589.5,834.4,590.2,833.6,590.2z M850,589.2L850,589.2c-0.6,0.8-1.5,1.2-2.4,1.2
					c-0.9,0-1.8-0.4-2.3-1.2c-0.8-1-1.1-2.3-1.1-3.6c-0.1-1.3,0.2-2.6,1.1-3.6c0.6-0.8,1.5-1.2,2.4-1.3c0.9,0,1.8,0.4,2.3,1.2
					c0.7,1,1.1,2.3,1.1,3.6C851.1,586.8,850.7,588.1,850,589.2z"/>
				<path id="path1976_2_" inkscape:connector-curvature="0" style="fill:#00ADEE;" d="M865,580.6c-1.1-1.1-2.6-1.7-4.2-1.7
					c-1.5,0-2.9,0.5-4,1.4c-1.4,1.3-2.1,3.2-1.9,5.1c-0.1,1.8,0.5,3.6,1.8,4.9c1.1,1.2,2.6,1.8,4.2,1.7c1,0,2-0.3,2.9-0.8
					c0.9-0.5,1.6-1.3,2.1-2.2c0.6-1.2,0.8-2.5,0.8-3.8C866.7,583.5,866.1,581.9,865,580.6L865,580.6z M863.3,589
					c-0.6,0.8-1.6,1.2-2.6,1.2c-1,0.1-2-0.4-2.7-1.2c-0.7-1-1.1-2.3-1.1-3.6c-0.1-1.2,0.3-2.5,1.1-3.5c0.7-0.7,1.7-1.2,2.7-1.2
					c1,0,1.9,0.4,2.6,1.2c0.7,1,1.1,2.2,1.1,3.5C864.4,586.7,864,588,863.3,589L863.3,589z"/>
				<path id="path1978_2_" inkscape:connector-curvature="0" style="fill:#00ADEE;" d="M871.4,591.7l-3.8-12.4h2.2l1.9,7.2l0.8,2.7
					c0-0.1,0.3-1.1,0.6-2.6l1.9-7.3h2.2l1.9,7.2l0.6,2.4l0.8-2.4l2.2-7.2h2l-3.8,12.4h-2.2l-1.9-7.4l-0.5-2.2l-2.6,9.6L871.4,591.7z
					"/>
				<path id="path1980_2_" inkscape:connector-curvature="0" style="fill:#00ADEE;" d="M897.2,585.2c0.1-1.7-0.4-3.4-1.5-4.7
					c-1.1-1.1-2.6-1.7-4.1-1.7c-1.6,0-3.1,0.6-4.2,1.8c-1.2,1.3-1.8,3.1-1.7,4.9c-0.1,1.7,0.4,3.4,1.5,4.7c1.1,1.2,2.7,1.8,4.3,1.7
					c1.3,0,2.5-0.4,3.6-1.1c0.9-0.7,1.6-1.8,1.9-2.9l-2.2-0.3c-0.2,0.8-0.7,1.4-1.4,1.8c-0.6,0.4-1.2,0.6-1.9,0.6
					c-1,0-1.9-0.4-2.6-1.2c-0.7-0.9-1.1-2-1.2-3.2h9.3L897.2,585.2z M888,584.3c0-1,0.4-1.9,1.2-2.6c0.6-0.7,1.5-1.1,2.4-1.1
					c1,0,1.9,0.5,2.6,1.3c0.5,0.7,0.7,1.5,0.8,2.3L888,584.3z"/>
				<path id="path1982_2_" inkscape:connector-curvature="0" style="fill:#00ADEE;" d="M899.8,591.7v-12.4h1.9v1.8
					c0.3-0.7,0.8-1.3,1.3-1.8c0.4-0.3,0.9-0.4,1.4-0.4c0.8,0,1.5,0.3,2.2,0.6l-0.8,1.9c-0.5-0.2-1-0.4-1.5-0.4
					c-0.5,0-0.9,0.1-1.3,0.4c-0.4,0.3-0.7,0.7-0.8,1.2c-0.3,0.8-0.4,1.6-0.4,2.4v6.5h-2.1V591.7z"/>
				<path id="path1984_2_" inkscape:connector-curvature="0" style="fill:#00ADEE;" d="M918.6,585.2c0.1-1.7-0.4-3.4-1.5-4.7
					c-1.1-1.1-2.5-1.7-4.1-1.7c-1.6-0.1-3.2,0.6-4.2,1.8c-1.2,1.3-1.8,3.1-1.7,4.9c-0.1,1.7,0.4,3.4,1.5,4.7
					c1.1,1.2,2.7,1.8,4.4,1.7c1.3,0,2.5-0.4,3.6-1.1c0.9-0.7,1.6-1.8,1.9-2.9l-2.2-0.3c-0.2,0.8-0.7,1.4-1.4,1.8
					c-0.5,0.4-1.2,0.7-1.9,0.6c-1,0-1.9-0.4-2.6-1.2c-0.7-0.9-1.1-2-1.2-3.2h9.3V585.2z M909.4,584.3c0-1,0.4-1.9,1.2-2.6
					c0.6-0.7,1.5-1.1,2.4-1.1c1,0,1.9,0.5,2.6,1.3c0.4,0.7,0.7,1.5,0.8,2.3L909.4,584.3z"/>
				<path id="path1986_2_" inkscape:connector-curvature="0" style="fill:#00ADEE;" d="M929.2,574.7v6.1c-0.3-0.6-0.8-1-1.4-1.3
					c-0.6-0.4-1.3-0.5-2.1-0.5c-1,0-2,0.3-2.8,0.8c-0.9,0.5-1.5,1.3-1.8,2.3c-0.4,1.1-0.7,2.2-0.6,3.3c0,1.1,0.2,2.3,0.6,3.3
					c0.4,0.9,1.1,1.8,1.9,2.3c0.8,0.5,1.7,0.8,2.7,0.8c1.4,0.1,2.7-0.6,3.5-1.8v1.8h2.1v-17.1H929.2z M928.3,589
					c-1.4,1.7-5.8,2.6-5.8-3.6c-0.1-1.3,0.3-2.6,1.1-3.6c0.5-0.7,1.4-1.1,2.3-1.2c0.9,0,1.9,0.4,2.4,1.2c0.8,1.1,1.1,2.4,1.1,3.7
					C929.5,586.8,929.1,588,928.3,589L928.3,589z"/>
				<path id="path1988_2_" inkscape:connector-curvature="0" style="fill:#00ADEE;" d="M951.6,582.8c-0.3-0.7-0.6-1.4-1.1-2.1
					c-0.4-0.6-1-1-1.7-1.3c-0.6-0.4-1.4-0.5-2.1-0.5c-1.4,0-2.6,0.6-3.5,1.7v-6.1h-2.1v17.3h1.9v-1.4c0.8,1.1,2.1,1.8,3.5,1.8
					c1.5,0,2.9-0.7,3.8-1.8c1.1-1.4,1.7-3.2,1.5-5C952,584.4,951.9,583.6,951.6,582.8L951.6,582.8z M948.9,589
					c-0.6,0.7-1.5,1.1-2.4,1.2c-1.1,0-2.1-0.7-2.7-1.7c-0.5-1-0.7-2.1-0.6-3.2c-0.1-1.2,0.3-2.5,1.1-3.5c0.6-0.7,1.5-1.1,2.4-1.2
					c0.9,0,1.7,0.4,2.3,1.2c0.8,1,1.1,2.3,1.1,3.6C950,586.7,949.7,588,948.9,589z"/>
				<path id="path1990_2_" inkscape:connector-curvature="0" style="fill:#00ADEE;" d="M954.4,596.4l-0.3-1.9
					c0.4,0.1,0.8,0.1,1.2,0.1c0.4,0,0.8-0.1,1.2-0.3c0.3-0.2,0.5-0.4,0.6-0.6c0.3-0.5,0.5-1,0.6-1.5c0-0.1,0.1-0.3,0.1-0.5
					l-4.7-12.4h2.3l2.6,7.2c0.4,1,0.7,1.9,0.9,2.9c0.2-1,0.5-1.9,0.9-2.8l2.7-7.3h2l-4.7,12.7c-0.3,1-0.7,1.9-1.1,2.8
					c-0.3,0.6-0.8,1.1-1.3,1.5c-0.5,0.4-1.1,0.6-1.8,0.5C955.4,596.7,955,596.7,954.4,596.4L954.4,596.4z"/>
			</g>
		</g>
	</g>
	<g>
		<path style="fill:#00ADEE;" d="M825.8,581.4c-1,0-1.8,0.8-1.8,1.7h-5.1v0.4h5.1c0.1,0.9,0.9,1.6,1.8,1.6c1,0,1.9-0.8,1.9-1.9
			C827.7,582.2,826.8,581.4,825.8,581.4z M825.8,584.6c-0.8,0-1.4-0.6-1.4-1.4c0-0.8,0.6-1.4,1.4-1.4s1.4,0.6,1.4,1.4
			C827.2,584,826.6,584.6,825.8,584.6z"/>
	</g>
	<g>
		<path style="fill:#00ADEE;" d="M837.8,591c-1,0-1.7,0.7-1.8,1.6h-6.6l-1.9-1.9h-8.5v0.4h8.4l1.9,1.9h6.8c0.1,0.9,0.9,1.6,1.8,1.6
			c1,0,1.9-0.8,1.9-1.9C839.6,591.8,838.8,591,837.8,591z M837.8,594.3c-0.8,0-1.4-0.6-1.4-1.4c0-0.8,0.6-1.4,1.4-1.4
			c0.8,0,1.4,0.6,1.4,1.4C839.2,593.6,838.6,594.3,837.8,594.3z"/>
	</g>
	<g>
		<path style="fill:#00ADEE;" d="M837.8,582.8c-1,0-1.8,0.7-1.8,1.7h-5.5l-3.3,3.5h-8.5v0.4h8.7l3.3-3.5h5.3
			c0.1,0.9,0.9,1.6,1.8,1.6c1,0,1.9-0.8,1.9-1.9C839.6,583.6,838.8,582.8,837.8,582.8z M837.8,586.1c-0.8,0-1.4-0.6-1.4-1.4
			c0-0.8,0.6-1.4,1.4-1.4c0.8,0,1.4,0.6,1.4,1.4C839.2,585.4,838.6,586.1,837.8,586.1z"/>
	</g>
	<g>
		<path style="fill:#FFF2DF;" d="M1008,577.8c0,0.3-0.3,0.7-0.7,0.7h-3.3v11.7c0,0.6-0.5,1-1,1h-24.8c-0.6,0-1-0.5-1-1v-11.7h-3.3
			c-0.2,0-0.3-0.1-0.5-0.2c-0.1-0.1-0.2-0.3-0.2-0.5c0-0.2,0.1-0.3,0.2-0.5l16.7-16.7c0.3-0.3,0.7-0.3,0.9,0l8.7,8.7v-1.7
			c0-0.3,0.3-0.6,0.6-0.6h2.8c0.3,0,0.6,0.3,0.6,0.6v5.1c0,0.1-0.1,0.3-0.1,0.4l4.2,4.2C1007.9,577.4,1008,577.6,1008,577.8z"/>
		<path style="fill:#00ADEE;" d="M999.5,582.7c-0.5,0-0.9,0.3-1.1,0.8h-3.9l2.6-2.5v-2.6l1.8-1.7c0.2,0.1,0.4,0.2,0.6,0.2
			c0.6,0,1.2-0.5,1.2-1.2c0-0.6-0.5-1.2-1.2-1.2s-1.2,0.5-1.2,1.2c0,0.2,0,0.3,0.1,0.4l-1.3,1.2v-3.9c0.5-0.2,0.8-0.6,0.8-1.1
			c0-0.6-0.5-1.2-1.2-1.2c-0.6,0-1.2,0.5-1.2,1.2c0,0.5,0.3,0.9,0.8,1.1v3.9l-1.2-1.2c0.1-0.2,0.1-0.3,0.1-0.5
			c0-0.6-0.5-1.2-1.2-1.2c-0.6,0-1.2,0.5-1.2,1.2c0,0.6,0.5,1.2,1.2,1.2c0.2,0,0.4,0,0.5-0.1l1.8,1.7v2.3l-2.4,2.3l-0.1-1.8
			c0.5-0.2,0.8-0.6,0.8-1.1c0-0.6-0.5-1.2-1.2-1.2c-0.6,0-1.2,0.5-1.2,1.2c0,0.5,0.3,0.9,0.8,1.1l0.1,2.5l-2.3,2.2v-12.5l2-2
			c0.1,0,0.3,0.1,0.4,0.1c0.6,0,1.2-0.5,1.2-1.2c0-0.6-0.5-1.2-1.2-1.2c-0.6,0-1.2,0.5-1.2,1.2c0,0.2,0.1,0.4,0.2,0.6l-1.8,1.8
			l-1.7-1.8c0.1-0.2,0.1-0.3,0.1-0.5c0-0.6-0.5-1.2-1.2-1.2c-0.6,0-1.2,0.5-1.2,1.2c0,0.6,0.5,1.2,1.2,1.2c0.2,0,0.4,0,0.5-0.1
			l1.9,2v8.7l-3.2-3.1v-2.5c0.5-0.2,0.8-0.6,0.8-1.1c0-0.6-0.5-1.2-1.2-1.2c-0.6,0-1.2,0.5-1.2,1.2c0,0.5,0.3,0.9,0.8,1.1v1.7
			l-2.6-2.5v-2.4c0.5-0.2,0.8-0.6,0.8-1.1c0-0.6-0.5-1.2-1.2-1.2c-0.6,0-1.2,0.5-1.2,1.2c0,0.5,0.3,0.9,0.8,1.1v2.7l2.9,2.8h-1.9
			c-0.2-0.5-0.6-0.8-1.1-0.8c-0.6,0-1.2,0.5-1.2,1.2c0,0.6,0.5,1.2,1.2,1.2c0.5,0,0.9-0.3,1.1-0.8h2.7l3.6,3.5v6.7l-1.9-1.9v-2.5
			c0.5-0.2,0.8-0.6,0.8-1.1c0-0.6-0.5-1.2-1.2-1.2c-0.6,0-1.2,0.5-1.2,1.2c0,0.5,0.3,0.9,0.8,1.1v1.8l-3.1-3.1
			c0-0.1,0.1-0.3,0.1-0.4c0-0.6-0.5-1.2-1.2-1.2c-0.6,0-1.2,0.5-1.2,1.2c0,0.6,0.5,1.2,1.2,1.2c0.2,0,0.4-0.1,0.6-0.2l3.1,3h-1.9
			c-0.2-0.5-0.6-0.8-1.1-0.8c-0.6,0-1.2,0.5-1.2,1.2c0,0.6,0.5,1.2,1.2,1.2c0.5,0,0.9-0.3,1.1-0.8h2.6l2.8,2.8l3-2.8h2.5
			c0.1,0.5,0.6,0.9,1.1,0.9c0.6,0,1.2-0.5,1.2-1.2c0-0.6-0.5-1.2-1.2-1.2c-0.5,0-0.9,0.3-1.1,0.7h-2.9l-2.4,2.2v-3l2.8-2.7h4.6
			c0.2,0.5,0.6,0.8,1.1,0.8c0.6,0,1.2-0.5,1.2-1.2C1000.6,583.2,1000.1,582.7,999.5,582.7z M999.5,575.1c0.3,0,0.6,0.3,0.6,0.6
			c0,0.3-0.3,0.6-0.6,0.6s-0.6-0.3-0.6-0.6C998.9,575.4,999.2,575.1,999.5,575.1z M994.1,576.2c-0.3,0-0.6-0.3-0.6-0.6
			c0-0.3,0.3-0.6,0.6-0.6s0.6,0.3,0.6,0.6C994.6,576,994.4,576.2,994.1,576.2z M996.2,572.3c0-0.3,0.3-0.6,0.6-0.6s0.6,0.3,0.6,0.6
			s-0.3,0.6-0.6,0.6S996.2,572.6,996.2,572.3z M993,580c0-0.3,0.3-0.6,0.6-0.6s0.6,0.3,0.6,0.6s-0.3,0.6-0.6,0.6S993,580.3,993,580z
			 M987.2,570.4c0-0.3,0.3-0.6,0.6-0.6c0.3,0,0.6,0.3,0.6,0.6s-0.3,0.6-0.6,0.6C987.5,570.9,987.2,570.7,987.2,570.4z M986.1,575.5
			c0-0.3,0.3-0.6,0.6-0.6s0.6,0.3,0.6,0.6c0,0.3-0.3,0.6-0.6,0.6S986.1,575.8,986.1,575.5z M982.7,572.3c0-0.3,0.3-0.6,0.6-0.6
			s0.6,0.3,0.6,0.6s-0.3,0.6-0.6,0.6S982.7,572.6,982.7,572.3z M982.8,579.9c-0.3,0-0.6-0.3-0.6-0.6s0.3-0.6,0.6-0.6
			c0.3,0,0.6,0.3,0.6,0.6S983.1,579.9,982.8,579.9z M987.3,584.3c0-0.3,0.3-0.6,0.6-0.6s0.6,0.3,0.6,0.6s-0.3,0.6-0.6,0.6
			S987.3,584.7,987.3,584.3z M984,588.7c-0.3,0-0.6-0.3-0.6-0.6s0.3-0.6,0.6-0.6s0.6,0.3,0.6,0.6S984.3,588.7,984,588.7z
			 M997.2,587.6c0.3,0,0.6,0.3,0.6,0.6c0,0.3-0.3,0.6-0.6,0.6s-0.6-0.3-0.6-0.6C996.7,587.9,996.9,587.6,997.2,587.6z M993.4,569.8
			c0.3,0,0.6,0.3,0.6,0.6s-0.3,0.6-0.6,0.6s-0.6-0.3-0.6-0.6S993,569.8,993.4,569.8z M983.3,584.3c-0.3,0-0.6-0.3-0.6-0.6
			s0.3-0.6,0.6-0.6s0.6,0.3,0.6,0.6S983.6,584.3,983.3,584.3z M999.5,584.4c-0.3,0-0.6-0.3-0.6-0.6s0.3-0.6,0.6-0.6s0.6,0.3,0.6,0.6
			S999.8,584.4,999.5,584.4z"/>
	</g>
</g>
<line id="edge_snooze_bottom_1_" style="fill:none;stroke:#FFFFFF;stroke-miterlimit:10;" x1="820.1" y1="454.6" x2="1010.1" y2="454.6"/>
<line id="edge_snooze_top_1_" style="fill:none;stroke:#FFFFFF;stroke-miterlimit:10;" x1="820.1" y1="347.6" x2="1010.1" y2="347.6"/>
<g id="floorplan.hours">
	<text transform="matrix(1 0 0 1 133.7388 344.7773)" style="fill:#00ADEE; font-family:'Helvetica'; font-size:215.1912px;">00</text>
</g>
<g id="floorplan.minutes">
	<text transform="matrix(1 0 0 1 430.9023 344.7764)" style="fill:#00ADEE; font-family:'Helvetica'; font-size:215.1912px;">00</text>
</g>
<g>
	<text transform="matrix(1 0 0 1 374.9932 327)" style="fill:#00ADEE; font-family:'Helvetica'; font-size:202.3689px;">:</text>
</g>
<path id="input_number.alarm_time_hours_up" inkscape:connector-curvature="0" inkscape:label="input_number.alarm_time_hours_up" style="fill:#62BB46;" d="
	M122.1,246.1l-0.6-0.6L76,198.8c-1.8-1.8-4.1-2.3-6.4-2.3c-2.3,0-4.7,1.2-6.4,2.3l-45.5,46.7l-0.6,0.6c-0.6,0.6-1.2,1.8-1.2,2.3
	c0,2.3,2.3,4.7,5.8,4.7l0,0h96.3l0,0c2.9,0,5.8-2.3,5.8-4.7C122.7,247.8,122.7,246.7,122.1,246.1L122.1,246.1z"/>
<path id="input_number.alarm_time_hours_down" inkscape:connector-curvature="0" inkscape:label="input_number.alarm_time_hours_down" style="fill:#6ABD45;" d="
	M17.7,299.5l0.6,0.6l45.5,46.7c1.8,1.8,4.1,2.3,6.4,2.3c2.3,0,4.7-1.2,6.4-2.3l45.5-46.7l0.6-0.6c0.6-0.6,1.2-1.8,1.2-2.3
	c0-2.3-2.3-4.7-5.8-4.7l0,0H21.7l0,0c-2.9,0-5.8,2.3-5.8,4.7C16.5,297.8,17.1,298.4,17.7,299.5L17.7,299.5z"/>
<path id="input_number.alarm_time_minutes_up" inkscape:connector-curvature="0" inkscape:label="input_number.alarm_time_minutes_up" style="fill:#6ABD45;" d="
	M794.4,246.1l-0.6-0.6l-45.5-46.7c-1.8-1.8-4.1-2.3-6.4-2.3c-2.3,0-4.7,1.2-6.4,2.3l-45.5,46.7l-0.6,0.6c-0.6,0.6-1.2,1.8-1.2,2.3
	c0,2.3,2.3,4.7,5.8,4.7l0,0h95.7l0,0c2.9,0,5.8-2.3,5.8-4.7C795.6,247.8,795,246.7,794.4,246.1L794.4,246.1z"/>
<path id="input_number.alarm_time_minutes_down" inkscape:connector-curvature="0" inkscape:label="input_number.alarm_time_minutes_down" style="fill:#6ABD45;" d="
	M689.6,299.5l0.6,0.6l45.5,46.7c1.8,1.8,4.1,2.3,6.4,2.3s4.7-1.2,6.4-2.3l45.5-46.7l0.6-0.6c0.6-0.6,1.2-1.8,1.2-2.3
	c0-2.3-2.3-4.7-5.8-4.7l0,0h-96.3l0,0c-2.9,0-5.8,2.3-5.8,4.7C688.5,298.4,689.1,299,689.6,299.5L689.6,299.5z"/>
<g id="floorplan.save_alarm_time_button" transform="translate(33.628717,-21.952464)" inkscape:label="input_datetime.alarm_time_set">
	<rect id="rect4595_1_" x="287" y="465.7" width="160.5" height="60.9"/>
	<text transform="matrix(1 0 0 1 334.6866 505.3866)" style="fill:#FFFFFF; font-family:'Helvetica'; font-size:28.5181px;">Save</text>
	
		<text transform="matrix(1 0 0 1 334.6866 505.3866)" style="fill:none;stroke:#000000;stroke-width:0.265; font-family:'Helvetica'; font-size:28.5181px;">Save</text>
</g>
<text id="sensor.clock_stacey_alarm_time" transform="matrix(1 0 0 1 840.7178 418.582)" style="fill:#00ADEE; font-family:'Helvetica'; font-size:59.6451px;">00:00</text>
<rect id="floorplan.clock_button" x="820.1" y="348.6" inkscape:label="#rect140" style="opacity:2.000000e-02;fill:#333333;" width="190" height="105">
</rect>
</svg>
