<?xml version="1.0" encoding="UTF-8" standalone="no"?>
<!-- Generator: Adobe Illustrator 21.1.0, SVG Export Plug-In . SVG Version: 6.00 Build 0)  -->

<svg
   xmlns:dc="http://purl.org/dc/elements/1.1/"
   xmlns:cc="http://creativecommons.org/ns#"
   xmlns:rdf="http://www.w3.org/1999/02/22-rdf-syntax-ns#"
   xmlns:svg="http://www.w3.org/2000/svg"
   xmlns="http://www.w3.org/2000/svg"
   xmlns:xlink="http://www.w3.org/1999/xlink"
   xmlns:sodipodi="http://sodipodi.sourceforge.net/DTD/sodipodi-0.dtd"
   xmlns:inkscape="http://www.inkscape.org/namespaces/inkscape"
   version="1.1"
   id="svg559"
   inkscape:version="0.92.2 (5c3e80d, 2017-08-06)"
   sodipodi:docname="clock.svg"
   x="0px"
   y="0px"
   viewBox="0 0 1024 600"
   style="enable-background:new 0 0 1024 600;"
   xml:space="preserve"><metadata
     id="metadata396"><rdf:RDF><cc:Work
         rdf:about=""><dc:format>image/svg+xml</dc:format><dc:type
           rdf:resource="http://purl.org/dc/dcmitype/StillImage" /></cc:Work></rdf:RDF></metadata><defs
     id="defs394"><style
       id="style4914"
       type="text/css">
   
    .str0 {stroke:black;stroke-width:6.94488;stroke-linecap:round;stroke-linejoin:round}
    .fil0 {fill:none}
   
  </style><style
       id="style5833"
       type="text/css">
   
    .str0 {stroke:black;stroke-width:6.94488;stroke-linecap:round;stroke-linejoin:round}
    .fil0 {fill:none}
   
  </style></defs><style
     type="text/css"
     id="style10">
	.st0{fill:#231F26;}
	.st1{fill:#3D3B3F;}
	.st2{fill:#FFFFA6;}
	.st3{font-family:'Helvetica-Bold';}
	.st4{font-size:17.93px;}
	.st5{font-size:37.7086px;}
	.st6{fill:#757575;}
	.st7{font-size:9.28px;}
	.st8{fill:#9A9A9B;}
	.st9{fill:#00ADEE;}
	.st10{fill:#616262;}
	.st11{fill:#29D9C2;}
	.st12{fill:#BDF271;}
	.st13{fill:#071010;}
	.st14{fill:#071011;}
	.st15{fill:none;}
	.st16{fill:#939393;}
	.st17{fill:#5B5A5B;}
	.st18{fill:#050405;}
	.st19{font-size:10.0628px;}
	.st20{font-size:22.1617px;}
	.st21{font-size:18.64px;}
	.st22{font-family:'Helvetica';}
	.st23{font-size:30px;}
	.st24{fill:#B7B7B7;}
	.st25{font-size:35.2242px;}
	.st26{fill:#E7376B;}
	.st27{fill:#A49A87;}
	.st28{font-family:'ArialMT';}
	.st29{font-size:12px;}
	.st30{fill:#E7376B;enable-background:new    ;}
	.st31{font-size:26px;}
	.st32{fill:#BDF271;enable-background:new    ;}
	.st33{font-family:'HelveticaNeue-Bold';}
	.st34{font-size:15.0304px;}
	.st35{enable-background:new    ;}
	.st36{fill:#DFDEE0;}
	.st37{fill:#1E1E1E;}
</style><sodipodi:namedview
     bordercolor="#666666"
     borderopacity="1"
     gridtolerance="10"
     guidetolerance="10"
     id="namedview1002"
     inkscape:current-layer="Floor_Plan"
     inkscape:cx="534.52758"
     inkscape:cy="357.36772"
     inkscape:guide-bbox="true"
     inkscape:pageopacity="0"
     inkscape:pageshadow="2"
     inkscape:window-height="1051"
     inkscape:window-maximized="1"
     inkscape:window-width="1920"
     inkscape:window-x="1015"
     inkscape:window-y="1071"
     inkscape:zoom="0.99999999"
     objecttolerance="10"
     pagecolor="#ffffff"
     showgrid="false"
     showguides="true"><sodipodi:guide
       position="959.89746,509.82399"
       orientation="1,0"
       inkscape:locked="false"
       id="guide4796" /><sodipodi:guide
       position="954.94771,570.28162"
       orientation="1,0"
       id="guide4798"
       inkscape:locked="false" /></sodipodi:namedview><title
     id="title598">Artboard 2</title><g
     id="Floor_Plan"
     transform="translate(0,2.0698958e-5)"><rect
       id="Background"
       y="-0.52952033"
       class="st0"
       width="1024"
       height="600"
       x="0.18308891"
       style="fill:#231f26" /><g
       id="Date_and_Time"
       transform="matrix(3.0532059,0,0,6.6785244,-55.124827,-178.85903)"><path
         id="box"
         inkscape:connector-curvature="0"
         class="st1"
         d="M 269.06372,114.34547 H 35.259304 c -6.994588,0 -12.651976,-6.62164 -12.651976,-14.926748 V 44.088736 c 0,-8.192879 5.657388,-14.926751 12.651976,-14.926751 H 268.96086 c 6.99458,0 12.65197,6.621641 12.65197,14.926751 v 55.329986 c 0.10286,8.305108 -5.55453,14.926748 -12.54911,14.926748 z"
         style="fill:#3d3b3f;stroke-width:1.07444322" /><g
         id="sensor.floorplan_date"
         transform="matrix(1.1781337,0,0,0.47857086,-21.498804,10.530108)"><text
           id="text4522"
           class="st2 st3 st4"
           style="font-size:19.93433952px;font-family:Helvetica-Bold;fill:#ffffa6;stroke-width:1.11178696"
           x="45.016022"
           y="66.10437"
           transform="scale(0.89945292,1.1117869)">Thursday, November 30</text>
</g><g
         id="sensor.floorplan_time"
         transform="matrix(1.389856,0,0,1.6291852,8.0105531,-56.667432)"><text
           id="text4525"
           class="st2 st3 st5"
           style="font-size:40.93658066px;font-family:Helvetica-Bold;fill:#ffffa6;stroke-width:1.08560336"
           x="12.101768"
           y="93.489441"
           transform="scale(0.92997114,1.0753022)">10:36 PM</text>
</g></g><g
       id="Second_Floor"
       transform="matrix(1,0,0,1.0817751,25.670008,-10.090676)"><rect
         style="opacity:1;fill:#cccccc;fill-opacity:1;stroke:none;stroke-width:1.87996602;stroke-miterlimit:4;stroke-dasharray:none;stroke-dashoffset:0;stroke-opacity:0.44041449"
         id="sensor.dark_sky_minutely_summary"
         width="74.004662"
         height="76.805008"
         x="793.29565"
         y="334.37103"
         inkscape:label="#rect395" /><rect
         style="opacity:1;fill:#cccccc;fill-opacity:1;stroke:none;stroke-width:3.32028198;stroke-miterlimit:4;stroke-dasharray:none;stroke-dashoffset:0;stroke-opacity:0.44041449"
         id="camera.stone_door"
         width="189.00467"
         height="93.805008"
         x="792.62061"
         y="117.68805"
         inkscape:label="#rect395" /><rect
         style="opacity:1;fill:#cccccc;fill-opacity:1;stroke:none;stroke-width:3.44072437;stroke-miterlimit:4;stroke-dasharray:none;stroke-dashoffset:0;stroke-opacity:0.44041449"
         id="camera.wu_doppler_weather"
         width="189.00467"
         height="100.73394"
         x="792.12054"
         y="222.77383"
         inkscape:label="#rect396-camera.wu_doppler_weather" /></g><g
       id="First_Floor" /><a
       id="a4487"
       xlink:href="/"
       transform="translate(20,12)"><g
         id="powered_by_1_"><path
           id="path4311"
           inkscape:connector-curvature="0"
           class="st1"
           d="m 929.1,580 c -1,0 -2,-0.2 -3,-0.5 -1.9,-0.6 -3.2,-2.3 -3.5,-4.2 -0.7,0.2 -1.4,0.2 -2.2,0.2 -0.9,0 -1.7,-0.1 -2.5,-0.3 -0.3,0 -0.5,0.1 -0.8,0.1 h -1.9 c -2,0 -3.8,-1.1 -4.7,-2.8 -0.9,1.7 -2.7,2.8 -4.7,2.8 H 904 c -0.3,0 -0.5,0 -0.8,-0.1 -0.8,0.2 -1.6,0.3 -2.5,0.3 -2,0 -3.9,-0.6 -5.5,-1.7 -0.1,-0.1 -0.2,-0.1 -0.3,-0.2 -1.8,1.2 -3.9,1.8 -6.3,1.8 -2.9,0 -5.1,-0.9 -6.6,-2 -1,1.1 -2.4,1.8 -4,1.8 h -2 c -1,0 -2,-0.3 -2.8,-0.8 -1.5,0.7 -3.1,1 -4.9,1 -2.9,0 -5,-0.9 -6.5,-1.9 -1,1 -2.4,1.7 -3.9,1.7 H 856 c -0.8,0 -1.6,-0.2 -2.4,-0.5 -0.7,0.4 -1.5,0.5 -2.4,0.5 h -2.1 c -1.5,0 -2.8,-0.6 -3.8,-1.6 -0.3,0.2 -0.5,0.3 -0.8,0.5 -1.6,0.9 -3.5,1.4 -5.4,1.4 -2.4,0 -4.6,-0.7 -6.4,-1.9 -0.2,0.1 -0.4,0.2 -0.5,0.4 -1,0.6 -2.1,1.1 -3.2,1.3 -0.4,2.5 -2.6,4.5 -5.3,4.5 h -2 c -1.6,0 -3,-0.7 -4,-1.7 -0.1,0 -0.2,0 -0.3,0 -1.6,0 -3.1,-0.5 -4.3,-1.5 h -4 c -1.4,0 -2.8,-0.6 -3.8,-1.6 l -0.3,-0.3 h -5.4 c -1.7,0 -3.3,-0.8 -4.3,-2.1 -0.2,-0.3 -0.4,-0.5 -0.5,-0.8 -0.4,-0.8 -0.6,-1.7 -0.6,-2.6 0,-0.4 0.1,-0.9 0.2,-1.3 -0.1,-0.4 -0.2,-0.8 -0.2,-1.3 0,-0.5 0.1,-0.9 0.2,-1.4 v 0 c 0.1,-0.3 0.2,-0.6 0.3,-0.9 -0.3,-0.7 -0.5,-1.5 -0.5,-2.3 0,-3 2.5,-5.5 5.5,-5.5 h 2.2 c 1,-0.8 2.2,-1.3 3.5,-1.4 1.2,-1.6 3.1,-2.6 5.2,-2.7 0.1,0 0.3,0 0.3,0 1.7,0 3.2,0.6 4.4,1.6 h 3.1 c 0.9,-0.7 2.1,-1.1 3.3,-1.1 h 1.8 c 0.3,0 0.6,0 0.8,0.1 0.8,-0.2 1.7,-0.3 2.6,-0.3 2.1,0 4,0.6 5.6,1.7 0.1,0.1 0.2,0.1 0.3,0.2 1.8,-1.2 3.9,-1.9 6.3,-1.9 1.5,0 2.9,0.3 4.2,0.8 0.7,-0.3 1.5,-0.5 2.3,-0.5 h 2.1 c 0.9,0 1.8,0.2 2.5,0.6 0.8,-0.4 1.6,-0.6 2.5,-0.6 h 2.1 c 0.9,0 1.8,0.2 2.5,0.6 0.8,-0.4 1.6,-0.6 2.5,-0.6 h 1.9 c 0.8,0 1.6,0.2 2.3,0.5 1.3,-0.5 2.7,-0.8 4.2,-0.8 1.8,0 3.4,0.4 4.9,1.1 0.8,-0.5 1.8,-0.9 2.9,-0.9 h 1.8 c 0.2,0 0.3,0 0.5,0 0.7,-0.2 1.4,-0.3 2.1,-0.3 1.3,0 2.5,0.3 3.8,0.8 1.3,-0.6 2.8,-0.8 4.3,-0.8 2.3,0 4.4,0.6 6.1,1.9 0.1,-0.1 0.2,-0.2 0.4,-0.3 1.1,-0.7 2.3,-1.2 3.5,-1.4 0.4,-2.5 2.6,-4.4 5.3,-4.4 h 2 c 2,0 3.8,1.1 4.7,2.8 0.9,-1.7 2.7,-2.8 4.7,-2.8 h 2 c 2.6,0 4.8,1.9 5.3,4.4 0.7,0.1 1.3,0.3 1.9,0.6 0.7,-0.3 1.5,-0.5 2.3,-0.5 h 2.2 c 1.2,0 2.4,0.4 3.3,1.2 0.9,-0.7 2.1,-1.2 3.3,-1.2 h 2 c 1.3,0 2.5,0.5 3.5,1.3 0.1,-0.2 0.3,-0.5 0.5,-0.7 0.3,-0.4 0.6,-0.7 0.9,-1 l 15.3,-15.4 c 0.5,-0.5 2.1,-2.1 4.5,-2.1 2.4,0 4,1.5 4.5,2 l 4.4,4.4 c 0.1,0 0.2,0 0.3,0 0.1,0 0.2,0 0.2,0 h 2.3 c 3.7,0 6.2,2.4 6.2,6.1 v 3 c 0.6,0.6 2.2,2.2 2.2,2.2 1.8,1.8 2.3,4.4 1.3,6.7 -0.7,1.6 -2,2.7 -3.5,3.3 v 6.2 c 0,3.4 -2.5,6 -5.9,6.1 h -10.1 c -0.3,0 -0.6,0.1 -0.9,0.1 h -2.3 c -0.4,0 -0.8,0 -1.2,-0.1 h -9.3 c -3.5,0 -6.1,-2.6 -6.1,-6.1 v -6 c -0.9,-0.3 -1.7,-0.8 -2.4,-1.4 l -4,10.6 c -0.6,1.6 -1,2.6 -1.4,3.4 -0.8,1.4 -1.8,2.5 -3,3.3 -1,0.8 -2.7,1.2 -4.4,1.2 z"
           style="fill:#3d3b3f" /><g
           id="powered_by"
           transform="matrix(1.2105653,0,0,1.2105653,-109.17969,-98.757767)"><path
             id="path359"
             inkscape:connector-curvature="0"
             class="st9"
             d="m 750.7,545.8 c 0,0.1 0.1,0.1 0,0 v 0 l 4.1,0.1 c 0.1,0.7 0.7,1.3 1.5,1.2 0.8,-0.1 1.3,-0.7 1.2,-1.5 -0.1,-0.7 -0.7,-1.3 -1.5,-1.2 -0.6,0.1 -1.1,0.6 -1.2,1.2 h -4 c -0.1,0.1 -0.1,0.1 -0.1,0.2 z m 4.3,0 c 0,-0.2 0.1,-0.4 0.2,-0.6 l 0.1,-0.2 c 0.2,-0.2 0.5,-0.3 0.8,-0.3 0.6,0 1.1,0.5 1.1,1.1 0,0.6 -0.5,1.1 -1.1,1.1 -0.3,0 -0.6,-0.1 -0.8,-0.3 l -0.1,-0.2 c -0.1,-0.1 -0.2,-0.4 -0.2,-0.6 z m -4.3,3.8 c 0,0.1 0.1,0.1 0,0 v 0 l 6.5,0.1 2.7,-2.7 h 4.3 c 0.1,0.7 0.7,1.3 1.5,1.2 0.7,-0.1 1.3,-0.7 1.2,-1.5 -0.1,-0.7 -0.7,-1.3 -1.5,-1.2 -0.6,0.1 -1.1,0.6 -1.2,1.2 h -4.4 l -2.7,2.7 h -6.3 c -0.1,0.1 -0.2,0.2 -0.1,0.2 z m 13.7,-2.7 c 0,-0.6 0.5,-1.1 1.1,-1.1 0.6,0 1.1,0.5 1.1,1.1 0,0.6 -0.5,1.1 -1.1,1.1 v 0 c -0.6,0 -1.1,-0.5 -1.1,-1.1 z m -13.7,4.9 c 0,0.1 0.1,0.1 0,0 v 0 l 6.4,0.1 1.6,1.6 h 5.5 c 0.1,0.7 0.7,1.3 1.5,1.2 0.7,-0.1 1.3,-0.7 1.2,-1.5 -0.1,-0.7 -0.7,-1.3 -1.5,-1.2 -0.6,0.1 -1.1,0.6 -1.2,1.2 h -5.3 l -1.6,-1.6 h -6.5 c -0.1,0 -0.2,0.1 -0.1,0.2 -0.1,0 -0.1,0 0,0 z m 13.7,1.5 c 0,-0.6 0.5,-1.1 1.1,-1.1 0.6,0 1.1,0.5 1.1,1.1 0,0.6 -0.5,1.1 -1.1,1.1 v 0 c -0.6,0.1 -1.1,-0.4 -1.1,-1.1 z m -3.6,-3.2 c 0,0.8 0.6,1.4 1.3,1.4 0.8,0 1.4,-0.6 1.4,-1.3 h 6.6 c 0.1,0 0.1,-0.1 0.1,-0.1 0,-0.1 -0.1,-0.1 -0.1,-0.1 v 0 h -6.5 c 0,-0.8 -0.7,-1.3 -1.4,-1.3 -0.8,0 -1.4,0.6 -1.4,1.4 z m 0.3,0 c 0,-0.6 0.5,-1.1 1.1,-1.1 0.6,0 1.1,0.5 1.1,1.1 0,0.6 -0.5,1.1 -1.1,1.1 v 0 c -0.6,0 -1.1,-0.5 -1.1,-1.1 z m -2.4,-6.4 c 0,0.8 0.6,1.4 1.3,1.4 0.8,0 1.4,-0.6 1.4,-1.3 h 8.7 c 0.1,0 0.1,0 0.2,-0.1 0,-0.1 0,-0.1 -0.1,-0.2 h -0.1 -8.7 c 0,-0.8 -0.7,-1.3 -1.4,-1.3 -0.8,0.1 -1.4,0.7 -1.3,1.5 z m 0.2,0 c 0,-0.6 0.5,-1.1 1.1,-1.1 0.6,0 1.1,0.5 1.1,1.1 0,0.6 -0.5,1.1 -1.1,1.1 v 0 c -0.5,0 -1,-0.5 -1.1,-1.1 z"
             style="fill:#00adee" /><g
             id="powered_by-2"><g
               id="_Group_"><path
                 id="path4314"
                 inkscape:connector-curvature="0"
                 class="st24"
                 d="m 880.2,542 c 0,0.6 -0.5,1.2 -1.2,1.1 -0.6,0 -1.1,-0.5 -1.1,-1.1 0,-0.6 0.5,-1.1 1.2,-1.1 0.7,0 1.1,0.5 1.1,1.1 z"
                 style="fill:#b7b7b7" /><path
                 id="path4316"
                 inkscape:connector-curvature="0"
                 class="st24"
                 d="m 886.3,534.7 c 0,0.6 -0.5,1.1 -1.1,1.2 -0.7,0 -1.2,-0.5 -1.2,-1.2 0,-0.6 0.5,-1.1 1.1,-1.1 0.6,-0.1 1.2,0.4 1.2,1.1 z"
                 style="fill:#b7b7b7" /><circle
                 id="circle4318"
                 class="st24"
                 cx="891.20001"
                 cy="542"
                 r="1.4"
                 style="fill:#b7b7b7" /><path
                 id="path4320"
                 inkscape:connector-curvature="0"
                 class="st24"
                 d="m 898.7,541.9 c -0.1,0.2 -0.3,0.3 -0.5,0.3 h -2.6 c -0.2,0.2 -0.1,0.5 -0.1,0.7 v 8.6 c 0,0.4 -0.2,0.6 -0.6,0.6 H 886 V 549 c 0,-0.2 0.1,-0.5 0.2,-0.6 l 3.7,-3.7 h 0.1 c 1.7,0.3 2.8,-0.1 3.5,-1.2 0.7,-1.3 0.1,-2.9 -1.2,-3.6 -0.8,-0.4 -1.7,-0.4 -2.5,0 -1.2,0.7 -1.7,2.1 -1.2,3.4 l -2.5,2.5 c -0.2,-2.9 -0.2,-5.7 0,-8.6 1,-0.4 1.7,-1.2 1.8,-2.3 0.1,-0.7 -0.2,-1.5 -0.7,-2 -1,-1.1 -2.7,-1.2 -3.8,-0.2 l -0.1,0.2 c -0.6,0.6 -0.8,1.5 -0.6,2.4 0.2,0.8 0.8,1.5 1.5,1.9 v 8.7 l -2.5,-2.7 c 0.3,-0.7 0.3,-1.5 0,-2.2 -0.3,-0.5 -0.7,-1 -1.2,-1.2 -1.3,-0.7 -2.9,-0.3 -3.6,1 -0.5,0.8 -0.5,1.8 0,2.6 0.7,1.2 2.2,1.6 3.4,1.1 l 0.4,0.4 c 1.1,1.1 2.2,2.2 3.3,3.2 0.2,0.2 0.4,0.5 0.4,0.9 v 3 h -8.9 c -0.5,0 -0.6,-0.1 -0.6,-0.6 v -8.5 c -0.1,-0.2 -0.1,-0.4 -0.1,-0.6 H 872 c -0.3,0 -0.5,-0.2 -0.5,-0.5 0,-0.1 0,-0.3 0.1,-0.4 0.1,-0.1 0.2,-0.2 0.3,-0.3 l 12.7,-12.8 c 0.5,-0.5 0.7,-0.5 1.2,0 l 6,6 0.5,0.5 c 0,-0.3 0,-0.7 0,-1 0,-0.5 0.1,-0.6 0.6,-0.6 h 1.9 c 0.7,0 0.7,0.2 0.7,0.7 v 3.8 c 0,0.3 0.1,0.6 0.3,0.8 0.8,0.8 1.7,1.6 2.5,2.5 l 0.3,0.3 c 0.2,0.1 0.2,0.4 0.1,0.6 z"
                 style="fill:#b7b7b7" /><path
                 id="path367"
                 inkscape:connector-curvature="0"
                 class="st9"
                 d="m 891.3,543.2 c 0.6,0 1.1,-0.5 1.1,-1.1 v 0 0 c 0,-0.6 -0.5,-1.2 -1.2,-1.2 -0.7,0 -1.2,0.5 -1.2,1.2 v 0 c 0.1,0.6 0.6,1.1 1.3,1.1 -0.1,0 -0.1,0 0,0 z m -12.3,0 c 0.6,0 1.1,-0.5 1.1,-1.1 v 0 0 c -0.1,-0.7 -0.7,-1.1 -1.3,-1.1 -0.6,0.1 -1,0.5 -1.1,1.1 0.1,0.6 0.6,1.2 1.3,1.1 -0.1,0.1 -0.1,0.1 0,0 z m 5.2,5.9 c 0,-0.3 -0.1,-0.6 -0.4,-0.9 -1.1,-1.1 -2.2,-2.2 -3.3,-3.3 l -0.4,-0.4 c -1.3,0.5 -2.7,0 -3.4,-1.1 -0.7,-1.3 -0.2,-2.9 1,-3.6 0.8,-0.4 1.8,-0.4 2.6,0 0.5,0.3 0.9,0.7 1.2,1.2 0.3,0.7 0.3,1.5 0,2.2 l 2.5,2.7 v -8.7 c -0.8,-0.4 -1.3,-1.1 -1.5,-1.9 -0.2,-0.8 0.1,-1.7 0.6,-2.4 1,-1.1 2.7,-1.2 3.8,-0.2 v 0 l 0.1,0.1 c 0.5,0.5 0.8,1.2 0.7,2 -0.1,1 -0.7,1.9 -1.6,2.3 -0.1,2 0,8.2 0,8.6 l 2.5,-2.5 c -0.5,-1.3 0.1,-2.7 1.2,-3.4 1.3,-0.7 2.9,-0.2 3.6,1.1 0.4,0.8 0.4,1.7 0,2.4 -0.6,1.2 -1.7,1.6 -3.5,1.2 h -0.1 l -3.7,3.7 c -0.2,0.2 -0.3,0.4 -0.2,0.6 v 3.1 H 884 v -1.8 c 0.1,-0.2 0.1,-0.6 0.2,-1 z m 2.1,-14.4 c -0.1,-0.6 -0.6,-1.1 -1.2,-1.1 -0.6,0 -1.1,0.5 -1.1,1.1 0,0.7 0.6,1.2 1.2,1.2 0.6,0 1.1,-0.6 1.1,-1.2 z"
                 style="fill:#00adee" /></g><g
               id="text857"
               transform="translate(826.12,515.09)"><path
                 id="path1974"
                 inkscape:connector-curvature="0"
                 class="st9"
                 d="M -57.1,41 V 27.5 h 1.5 v 1.3 c 0.4,-0.5 0.8,-0.9 1.2,-1.1 0.4,-0.3 1,-0.4 1.6,-0.4 0.8,0 1.6,0.2 2.2,0.6 0.6,0.4 1.1,1 1.4,1.8 0.3,0.8 0.5,1.6 0.5,2.6 0,1 -0.2,1.9 -0.5,2.7 -0.4,0.8 -0.9,1.4 -1.6,1.8 -0.7,0.4 -1.4,0.6 -2.1,0.6 -0.5,0 -1,-0.1 -1.5,-0.3 -0.4,-0.2 -0.8,-0.5 -1.1,-0.9 V 41 Z m 1.5,-8.5 c 0,1.3 0.3,2.2 0.8,2.8 0.5,0.6 1.1,0.9 1.8,0.9 0.7,0 1.4,-0.3 1.9,-0.9 0.5,-0.6 0.8,-1.6 0.8,-2.9 0,-1.2 -0.3,-2.2 -0.8,-2.8 -0.5,-0.6 -1.1,-0.9 -1.8,-0.9 -0.7,0 -1.3,0.3 -1.9,1 -0.6,0.6 -0.8,1.5 -0.8,2.8 z"
                 style="fill:#00adee" /><path
                 id="path1976"
                 inkscape:connector-curvature="0"
                 class="st9"
                 d="m -47.3,32.4 c 0,-1.8 0.5,-3.1 1.5,-4 0.8,-0.7 1.9,-1.1 3.1,-1.1 1.3,0 2.4,0.4 3.3,1.3 0.8,0.9 1.3,2.1 1.3,3.6 0,1.3 -0.2,2.2 -0.6,3 -0.4,0.7 -0.9,1.3 -1.6,1.7 -0.7,0.4 -1.5,0.6 -2.3,0.6 -1.4,0 -2.5,-0.4 -3.3,-1.3 -1,-0.9 -1.4,-2.2 -1.4,-3.8 z m 1.7,0 c 0,1.2 0.3,2.2 0.8,2.8 0.5,0.6 1.2,0.9 2.1,0.9 0.8,0 1.5,-0.3 2,-0.9 0.5,-0.6 0.8,-1.6 0.8,-2.8 0,-1.2 -0.3,-2.1 -0.8,-2.7 -0.5,-0.6 -1.2,-0.9 -2,-0.9 -0.8,0 -1.5,0.3 -2.1,0.9 -0.5,0.5 -0.8,1.5 -0.8,2.7 z"
                 style="fill:#00adee" /><path
                 id="path1978"
                 inkscape:connector-curvature="0"
                 class="st9"
                 d="m -34.4,37.3 -3,-9.7 h 1.7 l 1.5,5.6 0.6,2.1 c 0,-0.1 0.2,-0.8 0.5,-2 l 1.5,-5.7 h 1.7 l 1.5,5.6 0.5,1.9 0.6,-1.9 1.7,-5.6 h 1.6 l -3,9.7 h -1.7 l -1.5,-5.8 -0.4,-1.7 -2,7.5 z"
                 style="fill:#00adee" /><path
                 id="path1980"
                 inkscape:connector-curvature="0"
                 class="st9"
                 d="m -16,34.1 1.7,0.2 c -0.3,1 -0.8,1.8 -1.5,2.3 -0.7,0.5 -1.7,0.8 -2.8,0.8 -1.4,0 -2.6,-0.4 -3.4,-1.3 -0.8,-0.9 -1.2,-2.1 -1.2,-3.7 0,-1.6 0.4,-2.9 1.3,-3.8 0.9,-0.9 1.9,-1.4 3.3,-1.4 1.3,0 2.4,0.4 3.2,1.3 0.8,0.9 1.2,2.1 1.2,3.7 0,0.1 0,0.2 0,0.4 h -7.3 c 0.1,1.1 0.4,1.9 0.9,2.5 0.5,0.6 1.2,0.9 2,0.9 0.6,0 1.1,-0.2 1.5,-0.5 0.5,-0.2 0.9,-0.7 1.1,-1.4 z m -5.4,-2.6 h 5.4 c -0.1,-0.8 -0.3,-1.4 -0.6,-1.8 -0.5,-0.6 -1.2,-1 -2,-1 -0.8,0 -1.4,0.3 -1.9,0.8 -0.6,0.4 -0.8,1.1 -0.9,2 z"
                 style="fill:#00adee" /><path
                 id="path1982"
                 inkscape:connector-curvature="0"
                 class="st9"
                 d="m -12.2,37.3 v -9.7 h 1.5 V 29 c 0.4,-0.7 0.7,-1.1 1,-1.4 0.3,-0.2 0.7,-0.3 1.1,-0.3 0.6,0 1.1,0.2 1.7,0.5 l -0.6,1.5 C -7.9,29.1 -8.3,29 -8.7,29 c -0.4,0 -0.7,0.1 -1,0.3 -0.3,0.2 -0.5,0.5 -0.6,0.9 -0.2,0.6 -0.3,1.2 -0.3,1.9 v 5.1 h -1.6 z"
                 style="fill:#00adee" /><path
                 id="path1984"
                 inkscape:connector-curvature="0"
                 class="st9"
                 d="m 0.7,34.1 1.7,0.2 c -0.3,1 -0.8,1.8 -1.5,2.3 -0.7,0.5 -1.7,0.8 -2.8,0.8 -1.4,0 -2.6,-0.4 -3.4,-1.3 -0.8,-0.9 -1.2,-2.1 -1.2,-3.7 0,-1.6 0.4,-2.9 1.3,-3.8 0.8,-0.9 1.9,-1.4 3.3,-1.4 1.3,0 2.4,0.4 3.2,1.3 0.8,0.9 1.2,2.1 1.2,3.7 0,0.1 0,0.2 0,0.4 h -7.3 c 0.1,1.1 0.4,1.9 0.9,2.5 0.5,0.6 1.2,0.9 2,0.9 0.6,0 1.1,-0.2 1.5,-0.5 0.5,-0.2 0.9,-0.7 1.1,-1.4 z M -4.7,31.5 H 0.7 C 0.6,30.7 0.4,30.1 0.1,29.7 c -0.5,-0.6 -1.2,-1 -2,-1 -0.8,0 -1.4,0.3 -1.9,0.8 -0.5,0.4 -0.8,1.1 -0.9,2 z"
                 style="fill:#00adee" /><path
                 id="path1986"
                 inkscape:connector-curvature="0"
                 class="st9"
                 d="M 10.8,37.3 V 36 C 10.2,37 9.3,37.4 8.1,37.4 7.3,37.4 6.6,37.2 6,36.8 5.4,36.4 4.8,35.8 4.5,35 4.1,34.2 4,33.3 4,32.4 4,31.4 4.2,30.5 4.5,29.8 4.7,29 5.2,28.4 5.9,28 c 0.7,-0.4 1.4,-0.6 2.2,-0.6 0.6,0 1.1,0.1 1.6,0.4 0.5,0.2 0.8,0.6 1.1,1 V 24 h 1.6 V 37.4 H 10.8 Z M 5.6,32.4 c 0,4.8 3.4,4.1 4.5,2.8 0.5,-0.6 0.8,-1.5 0.8,-2.7 0,-1.3 -0.3,-2.3 -0.8,-2.9 C 9.6,29 9,28.7 8.2,28.7 7.5,28.7 6.9,29 6.4,29.6 5.9,30.2 5.6,31.1 5.6,32.4 Z"
                 style="fill:#00adee" /><path
                 id="path1988"
                 inkscape:connector-curvature="0"
                 class="st9"
                 d="M 21.7,37.3 H 20.2 V 23.8 h 1.6 v 4.8 c 0.7,-0.9 1.6,-1.3 2.7,-1.3 0.6,0 1.2,0.1 1.7,0.4 0.5,0.2 1,0.6 1.3,1 0.3,0.4 0.6,1 0.8,1.6 0.2,0.6 0.3,1.3 0.3,2 0,1.7 -0.4,3 -1.2,3.9 -0.8,0.9 -1.8,1.4 -3,1.4 -1.1,0 -2,-0.5 -2.7,-1.4 z m 0,-5 c 0,1.2 0.2,2 0.5,2.5 0.5,0.8 1.2,1.3 2.1,1.3 0.7,0 1.3,-0.3 1.9,-0.9 0.5,-0.6 0.8,-1.6 0.8,-2.8 0,-1.3 -0.3,-2.2 -0.8,-2.8 -0.5,-0.6 -1.1,-0.9 -1.8,-0.9 -0.7,0 -1.3,0.3 -1.9,0.9 -0.6,0.6 -0.8,1.5 -0.8,2.7 z"
                 style="fill:#00adee" /><path
                 id="path1990"
                 inkscape:connector-curvature="0"
                 class="st9"
                 d="m 30.5,41 -0.2,-1.5 c 0.4,0.1 0.7,0.1 0.9,0.1 0.4,0 0.7,-0.1 0.9,-0.2 0.2,-0.1 0.4,-0.3 0.5,-0.5 0.1,-0.2 0.3,-0.6 0.5,-1.2 0,-0.1 0.1,-0.2 0.1,-0.4 l -3.7,-9.7 h 1.8 l 2,5.6 c 0.3,0.7 0.5,1.5 0.7,2.3 0.2,-0.8 0.4,-1.5 0.7,-2.2 l 2.1,-5.7 h 1.6 l -3.7,9.9 c -0.4,1.1 -0.7,1.8 -0.9,2.2 -0.3,0.5 -0.6,0.9 -1,1.2 -0.4,0.3 -0.8,0.4 -1.4,0.4 -0.1,-0.1 -0.5,-0.1 -0.9,-0.3 z"
                 style="fill:#00adee" /></g></g></g></g></a><g
       id="Date_and_Time-8"
       transform="matrix(0.72894331,0,0,1.0553687,803.11987,-16.226655)"><path
         id="box-4"
         inkscape:connector-curvature="0"
         class="st1"
         d="M 269.06372,114.34547 H 35.259304 c -6.994588,0 -12.651976,-6.62164 -12.651976,-14.926748 V 44.088736 c 0,-8.192879 5.657388,-14.926751 12.651976,-14.926751 H 268.96086 c 6.99458,0 12.65197,6.621641 12.65197,14.926751 v 55.329986 c 0.10286,8.305108 -5.55453,14.926748 -12.54911,14.926748 z"
         style="fill:#3d3b3f;stroke-width:1.07444322" /><g
         id="sensor.floorplan_time-3"
         transform="matrix(1.389856,0,0,1.6291852,8.0105531,-56.667432)"><text
           id="text4525-1"
           class="st2 st3 st5"
           style="font-size:40.93658066px;font-family:Helvetica-Bold;fill:#ffffa6;stroke-width:1.08560336"
           x="22.715471"
           y="87.586624"
           transform="scale(0.92997113,1.0753022)">SNOOZE</text>
</g></g><g
       id="Date_and_Time-8-3"
       transform="matrix(0.72894331,0,0,1.03189,803.11988,351.59838)"><path
         id="box-4-8"
         inkscape:connector-curvature="0"
         class="st1"
         d="M 264.94817,181.56159 H 31.143758 c -6.994588,0 -12.651976,-6.62164 -12.651976,-14.92674 v -55.32999 c 0,-8.19288 5.657388,-14.92675 12.651976,-14.92675 H 264.84531 c 6.99458,0 12.65197,6.62164 12.65197,14.92675 v 55.32999 c 0.10286,8.3051 -5.55453,14.92674 -12.54911,14.92674 z"
         style="fill:#3d3b3f;stroke-width:1.07444322" /><g
         id="sensor.floorplan_time-3-8"
         transform="matrix(1.389856,0,0,1.6291852,47.794169,10.548693)"><text
           id="text4525-1-9"
           class="st2 st3 st5"
           style="font-size:40.93658066px;font-family:Helvetica-Bold;fill:#ffffa6;stroke-width:1.08560336"
           x="22.715471"
           y="87.586624"
           transform="scale(0.92997113,1.0753022)">STOP</text>
</g></g></g><g
     id="moved_switch.master_bathroom_accents"
     inkscape:label="#switch.master_bathroom_accents" /></svg>