<?xml version="1.0" encoding="utf-8"?>
<!-- Generator: Adobe Illustrator 22.0.1, SVG Export Plug-In . SVG Version: 6.00 Build 0)  -->
<svg version="1.1"
	 id="Layer_2_1_" inkscape:version="0.92.2 (5c3e80d, 2017-08-06)" sodipodi:docname="clock.svg" xmlns:cc="http://creativecommons.org/ns#" xmlns:dc="http://purl.org/dc/elements/1.1/" xmlns:inkscape="http://www.inkscape.org/namespaces/inkscape" xmlns:rdf="http://www.w3.org/1999/02/22-rdf-syntax-ns#" xmlns:sodipodi="http://sodipodi.sourceforge.net/DTD/sodipodi-0.dtd" xmlns:svg="http://www.w3.org/2000/svg"
	 xmlns="http://www.w3.org/2000/svg" xmlns:xlink="http://www.w3.org/1999/xlink" x="0px" y="0px" viewBox="0 0 1024 600"
	 style="enable-background:new 0 0 1024 600;" xml:space="preserve">
<style type="text/css">
	.st0{fill:none;}
	.st1{clip-path:url(#SVGID_2_);}
	.st2{fill:url(#rect45_2_);}
	.st3{fill:#19476D;}
	.st4{fill:url(#rect40_2_);filter:url(#Adobe_OpacityMaskFilter);}
	.st5{mask:url(#mask_1_);}
	.st6{fill:url(#rect57_1_);}
	.st7{fill:#00ADEE;}
	.st8{fill:#B7B7B7;}
	.st9{fill:#00ADEE;enable-background:new    ;}
	.st10{font-family:'Rockwell-ExtraBold';}
	.st11{font-size:290.3859px;}
	.st12{fill:#808080;}
	.st13{font-family:'HelveticaNeue-Thin';}
	.st14{font-size:61.9433px;}
	.st15{fill:#808080;enable-background:new    ;}
	.st16{fill:none;stroke:#FFFFFF;stroke-miterlimit:10;}
	.st17{opacity:0.2;}
	.st18{font-size:50px;}
	.st19{font-family:'Helvetica-Light';}
	.st20{font-size:48px;}
	.st21{fill:#333333;}
	.st22{fill:#666666;}
	.st23{font-size:47.57px;}
</style>
<pattern  y="600" width="5" height="5" patternUnits="userSpaceOnUse" id="New_Pattern_2" viewBox="0 -5 5 5" style="overflow:visible;">
	<g>
		<rect y="-5" class="st0" width="5" height="5"/>
		<rect id="rect43_1_" y="-5" class="st0" width="5" height="5"/>
		<g>
			<defs>
				<path id="SVGID_1_" d="M4.9-3C4.9-3,4.8-3,4.9-3H4.3v-1.7c0-0.1,0-0.1-0.1-0.1H0.8c-0.1,0-0.1,0-0.1,0.1V-3H0.2
					c0,0-0.1,0-0.1,0.1c0,0,0,0,0,0c0,0,0,0,0,0.1v0l2.3,2.2c0.1,0.1,0.1,0.1,0.2,0l1.1-1.1l0.1-0.1v0.2c0,0.1,0,0.1,0.1,0.1h0.3
					c0.1,0,0.1,0,0.1-0.1v-0.7c0,0,0-0.1,0-0.1c0.2-0.1,0.3-0.3,0.4-0.4v-0.1C4.8-2.9,4.9-2.9,4.9-3z"/>
			</defs>
			<clipPath id="SVGID_2_">
				<use xlink:href="#SVGID_1_"  style="overflow:visible;"/>
			</clipPath>
			<g id="g47_1_" class="st1">
				
					<radialGradient id="rect45_2_" cx="-71174.5" cy="-80951.1797" r="4.43" gradientTransform="matrix(0.56 0 0 0.56 39767.6094 45208.4805)" gradientUnits="userSpaceOnUse">
					<stop  offset="0" style="stop-color:#17426C"/>
					<stop  offset="1" style="stop-color:#050F1A"/>
				</radialGradient>
				<rect id="rect45_1_" x="0" y="-5" class="st2" width="4.9" height="4.9"/>
			</g>
		</g>
		<path id="path367_1_" class="st3" d="M3.6-3.2c0.1,0,0.2,0.1,0.2,0.2l0,0c0,0.1-0.1,0.2-0.2,0.2l0,0C3.5-2.8,3.4-2.9,3.4-3
			c0,0,0,0,0,0l0,0C3.4-3.1,3.5-3.2,3.6-3.2z M1.4-3.2c0.1,0,0.2,0.1,0.2,0.2v0l0,0c0,0.1-0.1,0.2-0.2,0.2C1.3-2.8,1.2-2.9,1.2-3
			C1.2-3.1,1.3-3.2,1.4-3.2C1.4-3.2,1.4-3.2,1.4-3.2z M2.3-4.1L1.6-3.4C1.4-3.5,1.1-3.4,1-3.2C0.9-3,1-2.7,1.2-2.6
			c0.1,0.1,0.3,0.1,0.5,0c0.1,0,0.2-0.1,0.2-0.2c0-0.1,0-0.3,0-0.4l0.4-0.5v1.5C2.1-2.1,2-1.9,2-1.8c0,0.1,0,0.3,0.1,0.4
			c0.2,0.2,0.5,0.2,0.7,0l0,0l0,0C2.9-1.4,3-1.6,3-1.7C3-1.9,2.9-2,2.7-2.1c0-0.4,0-1.5,0-1.5l0.4,0.5C3.1-3,3.2-2.7,3.4-2.6
			c0.2,0.1,0.5,0,0.6-0.2c0.1-0.1,0.1-0.3,0-0.4C3.9-3.4,3.7-3.5,3.4-3.4L2.7-4.1v-0.6H2.3L2.3-4.1z M2.7-1.7c0,0.1-0.1,0.2-0.2,0.2
			c-0.1,0-0.2-0.1-0.2-0.2l0,0c0-0.1,0.1-0.2,0.2-0.2C2.6-1.9,2.7-1.8,2.7-1.7z"/>
	</g>
</pattern>
<sodipodi:namedview  bordercolor="#666666" borderopacity="1" gridtolerance="10" guidetolerance="10" id="namedview143" inkscape:current-layer="Layer_2" inkscape:cx="528.48831" inkscape:cy="246.709" inkscape:pageopacity="0" inkscape:pageshadow="2" inkscape:window-height="1051" inkscape:window-maximized="1" inkscape:window-width="1920" inkscape:window-x="1015" inkscape:window-y="1071" inkscape:zoom="1" objecttolerance="10" pagecolor="#ffffff" showgrid="false">
	</sodipodi:namedview>
<title  id="title53">Artboard 1</title>
<g id="BG" inkscape:label="#BG1">
	<rect id="rect55" y="-0.5" width="1024" height="600.5"/>
	<defs>
		<filter id="Adobe_OpacityMaskFilter" filterUnits="userSpaceOnUse" x="0" y="-0.5" width="1024" height="600">
			<feColorMatrix  type="matrix" values="1 0 0 0 0  0 1 0 0 0  0 0 1 0 0  0 0 0 1 0"/>
		</filter>
	</defs>
	<mask maskUnits="userSpaceOnUse" x="0" y="-0.5" width="1024" height="600" id="mask_1_">
		
			<radialGradient id="rect40_2_" cx="422.59" cy="-121.11" r="468.26" gradientTransform="matrix(1 0 0 -0.5 0 234.43)" gradientUnits="userSpaceOnUse">
			<stop  offset="0" style="stop-color:#FFFFFF"/>
			<stop  offset="9.000000e-02" style="stop-color:#F4F4F4"/>
			<stop  offset="0.24" style="stop-color:#D7D7D7"/>
			<stop  offset="0.43" style="stop-color:#A8A8A8"/>
			<stop  offset="0.67" style="stop-color:#676767"/>
			<stop  offset="0.94" style="stop-color:#141414"/>
			<stop  offset="1" style="stop-color:#000000"/>
		</radialGradient>
		<rect id="rect40_1_" y="0" class="st4" width="1024" height="600"/>
	</mask>
	<g id="g59" class="st5">
		<pattern  id="rect57_1_" xlink:href="#New_Pattern_2" patternTransform="matrix(1 0 0 -1 -1 -15548)">
		</pattern>
		<rect id="rect57" y="-0.5" class="st6" width="1024" height="600"/>
	</g>
	<g id="powered_by">
		<path id="path359" inkscape:connector-curvature="0" class="st7" d="M813.3,573.2C813.3,573.3,813.4,573.3,813.3,573.2z
			 M821.5,572.9c-0.1-0.9-0.9-1.5-1.8-1.5c-0.7,0.1-1.3,0.7-1.5,1.5h-4.8c-0.1,0.1-0.1,0.1-0.1,0.2l5,0.1c0.1,0.9,0.9,1.5,1.8,1.5
			c0.9-0.1,1.5-0.8,1.4-1.7C821.5,573,821.5,573,821.5,572.9L821.5,572.9z M819.8,574.5c-0.4,0-0.7-0.1-1-0.4l-0.1-0.2
			c-0.2-0.2-0.2-0.5-0.2-0.7c0-0.3,0.1-0.5,0.2-0.7l0.1-0.2c0.3-0.3,0.6-0.4,1-0.4c0.7-0.1,1.4,0.5,1.5,1.2s-0.5,1.4-1.2,1.5
			C819.9,574.5,819.9,574.5,819.8,574.5L819.8,574.5z M813.3,577.8C813.3,577.9,813.4,577.9,813.3,577.8z M832.9,574.3
			c-0.1-0.9-0.9-1.5-1.8-1.5c-0.7,0.1-1.3,0.7-1.5,1.5h-5.3l-3.3,3.3h-7.6c-0.1,0.1-0.2,0.2-0.1,0.2l7.9,0.1l3.3-3.3h5.2
			c0,0.9,0.8,1.6,1.7,1.6c0.9,0,1.6-0.8,1.6-1.7C832.9,574.4,832.9,574.4,832.9,574.3z M831.2,575.9c-0.7,0-1.3-0.6-1.3-1.3
			c0-0.7,0.6-1.3,1.3-1.3c0.7,0,1.3,0.6,1.3,1.3C832.5,575.3,831.9,575.8,831.2,575.9z M813.3,580.5
			C813.3,580.6,813.4,580.6,813.3,580.5z M832.9,582.1c-0.1-0.9-0.9-1.5-1.8-1.5c-0.7,0.1-1.3,0.7-1.5,1.5h-6.4l-1.9-1.9h-7.9
			c-0.1,0-0.2,0.1-0.1,0.2l7.7,0.1l1.9,1.9h6.7c0,0.9,0.8,1.6,1.7,1.6c0.9,0,1.6-0.8,1.6-1.7C832.9,582.3,832.9,582.2,832.9,582.1z
			 M831.2,583.6H831c-0.7-0.1-1.2-0.7-1.2-1.3c0,0,0,0,0,0c0-0.7,0.6-1.3,1.3-1.3c0.7,0,1.3,0.6,1.3,1.3
			C832.5,583,831.9,583.6,831.2,583.6C831.2,583.6,831.2,583.6,831.2,583.6L831.2,583.6z M836.7,578.3h-7.9c0-0.9-0.8-1.6-1.7-1.6
			c0,0,0,0,0,0c-0.9,0-1.7,0.8-1.6,1.8c0,0.8,0.7,1.5,1.5,1.6c0.9,0,1.7-0.7,1.7-1.6c0,0,0,0,0,0h8c0.1,0,0.1-0.1,0.1-0.1
			C836.9,578.3,836.8,578.3,836.7,578.3L836.7,578.3z M827.2,579.7c-0.7,0-1.3-0.6-1.3-1.3c0-0.7,0.6-1.3,1.3-1.3
			c0.7,0,1.3,0.6,1.3,1.3C828.5,579.1,827.9,579.7,827.2,579.7z M836.9,570.4h-10.7c0-0.9-0.8-1.6-1.7-1.6c0,0,0,0,0,0
			c-1,0.1-1.7,0.9-1.6,1.9c0.1,0.9,0.8,1.6,1.6,1.6c0.9,0,1.7-0.7,1.7-1.6h10.5c0.1,0,0.1,0,0.2-0.1S837,570.5,836.9,570.4z
			 M824.5,572c-0.7-0.1-1.3-0.6-1.3-1.3c0-0.7,0.6-1.3,1.3-1.3c0.7,0,1.3,0.6,1.3,1.3S825.3,572,824.5,572
			C824.5,572,824.5,572,824.5,572z"/>
		<g id="powered_by-2">
			<g id="_Group_">
				<path id="path72" inkscape:connector-curvature="0" class="st8" d="M992.4,568.5c-0.1,0.2-0.3,0.4-0.6,0.4h-3.3v11.3
					c0,0.5-0.2,0.6-0.7,0.6h-23.5c-0.6,0-0.7-0.1-0.7-0.7v-11h-3.5c-0.3,0-0.6-0.2-0.6-0.5c0,0,0,0,0-0.1c0-0.2,0-0.3,0.1-0.5
					l0.4-0.4l15.4-15.5c0.6-0.6,0.8-0.6,1.5,0l7.3,7.3l0.6,0.6v-1.2c0-0.6,0.1-0.7,0.7-0.7h2.3c0.8,0,0.8,0.2,0.8,0.8v4.6
					c0,0.4,0.1,0.7,0.4,1c1,1,2.1,1.9,3,3l0.4,0.4C992.5,567.9,992.5,568.2,992.4,568.5z"/>
				<path id="path74" inkscape:connector-curvature="0" class="st7" d="M986,567.2c-0.8-1.6-2.8-2.2-4.3-1.3c0,0,0,0,0,0
					c-1.4,0.9-2,2.6-1.5,4.1l-3,3c0-0.5-0.1-8,0-10.4c1.1-0.5,1.8-1.6,1.9-2.8c0.1-0.9-0.2-1.8-0.8-2.4l-0.1-0.1
					c-1.3-1.2-3.4-1.1-4.6,0.2c-0.6,0.8-0.9,1.9-0.7,2.9c0.2,1,0.9,1.8,1.8,2.3V573l-3-3c0.4-0.9,0.4-1.8,0-2.7
					c-0.4-0.6-0.9-1.1-1.5-1.5c-1-0.5-2.2-0.5-3.2,0c-1.5,0.9-2,2.8-1.2,4.4c0.9,1.4,2.6,1.9,4.1,1.3l4.7,4.8v4.2h2.3v-4.2l4.9-4.8
					c2.2,0.5,3.5,0,4.2-1.5C986.6,569.2,986.5,568.1,986,567.2z M970,568.9c0,0.1,0,0.1-0.1,0.2l0,0c0,0.1,0,0.1-0.1,0.2
					c0,0.1-0.1,0.2-0.2,0.3c-0.2,0.3-0.6,0.5-1,0.5h-0.2c0,0-0.1,0-0.1,0c-0.1,0-0.2-0.1-0.3-0.1c-0.1,0-0.1-0.1-0.2-0.1l-0.2-0.1
					l-0.1-0.2c-0.1-0.1-0.2-0.2-0.2-0.4c0-0.1-0.1-0.1-0.1-0.2c0-0.2,0-0.4,0-0.6c0-0.1,0-0.2,0.1-0.3c0.2-0.5,0.7-0.8,1.3-0.8
					c0.2,0,0.4,0.1,0.6,0.2c0.1,0,0.1,0.1,0.2,0.1c0.1,0.1,0.2,0.1,0.2,0.2c0,0,0.1,0.1,0.1,0.1c0.1,0.1,0.1,0.2,0.1,0.2
					c0.1,0.2,0.1,0.4,0.1,0.5C970,568.7,970,568.8,970,568.9z M976,561.1c-0.7,0-1.3-0.5-1.4-1.2c0,0,0-0.1,0-0.1c0,0,0-0.1,0-0.1
					c0,0,0,0,0,0c0-0.8,0.6-1.4,1.4-1.4s1.4,0.6,1.4,1.4c0,0,0,0,0,0c0,0,0,0.1,0,0.1c0,0,0,0.1,0,0.1c0,0.1,0,0.1,0,0.2
					C977.2,560.7,976.6,561.1,976,561.1L976,561.1z M983.3,570c-0.8,0-1.4-0.6-1.4-1.4c0-0.8,0.6-1.4,1.4-1.4s1.4,0.6,1.4,1.4
					c0,0,0,0,0,0C984.7,569.4,984.1,570,983.3,570L983.3,570z"/>
			</g>
			<g id="text857">
				<path id="path1974" inkscape:connector-curvature="0" class="st7" d="M845,572c-0.3-0.9-0.9-1.6-1.7-2.2
					c-0.8-0.5-1.7-0.7-2.7-0.7c-0.7,0-1.4,0.1-1.9,0.5c-0.6,0.3-1.1,0.8-1.5,1.3v-1.6h-1.8v16.3h1.9v-5.8c0.4,0.5,0.8,0.8,1.3,1.1
					c0.6,0.2,1.2,0.4,1.8,0.4c0.9,0,1.8-0.3,2.5-0.7c0.9-0.5,1.5-1.3,1.9-2.2c0.4-1,0.6-2.2,0.6-3.3C845.6,574,845.4,573,845,572z
					 M842.7,578.8c-0.6,0.7-1.4,1.1-2.3,1.1c-0.9,0-1.7-0.4-2.2-1.1c-0.7-1-1.1-2.2-1-3.4c-0.1-1.2,0.2-2.4,1-3.4
					c0.5-0.7,1.4-1.2,2.3-1.2c0.9,0,1.7,0.4,2.2,1.1c0.7,1,1.1,2.2,1,3.4C843.8,576.5,843.4,577.7,842.7,578.8L842.7,578.8z"/>
				<path id="path1976" inkscape:connector-curvature="0" class="st7" d="M856.9,570.6c-1.1-1.1-2.5-1.6-4-1.6
					c-1.4,0-2.7,0.4-3.8,1.3c-1.3,1.3-2,3-1.8,4.8c-0.1,1.7,0.5,3.4,1.7,4.6c1,1.1,2.5,1.7,4,1.6c1,0,1.9-0.3,2.8-0.7
					c0.8-0.5,1.5-1.2,1.9-2.1c0.5-1.1,0.8-2.4,0.7-3.6C858.5,573.4,857.9,571.8,856.9,570.6L856.9,570.6z M855.3,578.6
					c-0.6,0.7-1.5,1.1-2.4,1.1c-1,0.1-1.9-0.4-2.5-1.1c-0.7-1-1.1-2.2-1-3.4c-0.1-1.2,0.3-2.3,1-3.3c0.7-0.7,1.6-1.1,2.5-1.1
					c0.9,0,1.8,0.4,2.4,1.1c0.7,0.9,1.1,2.1,1,3.3C856.3,576.4,856,577.6,855.3,578.6L855.3,578.6z"/>
				<path id="path1978" inkscape:connector-curvature="0" class="st7" d="M862.9,581.2l-3.6-11.7h2.1l1.8,6.8l0.7,2.5
					c0-0.1,0.2-1,0.6-2.4l1.8-6.9h2.1l1.8,6.8l0.6,2.3l0.7-2.3l2.1-6.8h1.9l-3.6,11.7h-2.1l-1.8-7l-0.5-2.1l-2.4,9.1L862.9,581.2z"
					/>
				<path id="path1980" inkscape:connector-curvature="0" class="st7" d="M887.4,575c0.1-1.6-0.4-3.2-1.5-4.5
					c-1-1.1-2.4-1.6-3.9-1.6c-1.5,0-3,0.6-4,1.7c-1.1,1.3-1.7,2.9-1.6,4.6c-0.1,1.6,0.4,3.2,1.5,4.5c1.1,1.1,2.6,1.7,4.1,1.6
					c1.2,0,2.4-0.3,3.4-1c0.9-0.7,1.5-1.7,1.8-2.8l-2.1-0.2c-0.2,0.7-0.6,1.4-1.3,1.7c-0.5,0.4-1.2,0.6-1.8,0.6
					c-0.9,0-1.8-0.4-2.4-1.1c-0.7-0.9-1-1.9-1.1-3h8.8L887.4,575z M878.7,574.2c0-0.9,0.4-1.8,1.1-2.4c0.6-0.6,1.4-1,2.3-1
					c0.9,0,1.8,0.5,2.4,1.2c0.4,0.7,0.7,1.4,0.7,2.2L878.7,574.2z"/>
				<path id="path1982" inkscape:connector-curvature="0" class="st7" d="M889.8,581.2v-11.7h1.8v1.7c0.3-0.6,0.7-1.2,1.2-1.7
					c0.4-0.2,0.9-0.4,1.3-0.4c0.7,0,1.4,0.2,2.1,0.6l-0.7,1.8c-0.4-0.2-0.9-0.4-1.5-0.4c-0.4,0-0.9,0.1-1.2,0.4
					c-0.4,0.3-0.6,0.6-0.7,1.1c-0.2,0.7-0.4,1.5-0.4,2.3v6.1h-1.9V581.2z"/>
				<path id="path1984" inkscape:connector-curvature="0" class="st7" d="M907.6,575c0.1-1.6-0.4-3.2-1.5-4.5
					c-1-1.1-2.4-1.6-3.9-1.6c-1.5-0.1-3,0.6-4,1.7c-1.1,1.3-1.7,2.9-1.6,4.6c-0.1,1.6,0.4,3.2,1.5,4.5c1.1,1.1,2.6,1.7,4.1,1.6
					c1.2,0,2.4-0.3,3.4-1c0.9-0.7,1.5-1.7,1.8-2.8l-2-0.2c-0.2,0.7-0.7,1.4-1.3,1.7c-0.5,0.4-1.2,0.6-1.8,0.6
					c-0.9,0-1.8-0.4-2.4-1.1c-0.7-0.9-1-1.9-1.1-3h8.8V575z M898.9,574.2c0-0.9,0.4-1.8,1.1-2.4c0.6-0.6,1.4-1,2.3-1
					c0.9,0,1.8,0.5,2.4,1.2c0.4,0.7,0.7,1.4,0.7,2.2L898.9,574.2z"/>
				<path id="path1986" inkscape:connector-curvature="0" class="st7" d="M917.6,565.1v5.8c-0.3-0.5-0.8-0.9-1.3-1.2
					c-0.6-0.3-1.3-0.5-1.9-0.5c-0.9,0-1.9,0.2-2.7,0.7c-0.8,0.5-1.5,1.2-1.7,2.2c-0.4,1-0.6,2.1-0.6,3.2c0,1.1,0.2,2.2,0.6,3.2
					c0.4,0.9,1,1.7,1.8,2.2c0.8,0.5,1.6,0.7,2.5,0.7c1.3,0.1,2.6-0.5,3.3-1.7v1.7h1.9v-16.2H917.6z M916.8,578.6
					c-1.3,1.6-5.4,2.4-5.4-3.4c-0.1-1.2,0.3-2.4,1-3.4c0.5-0.7,1.3-1.1,2.2-1.1c0.9,0,1.8,0.4,2.3,1.1c0.7,1,1.1,2.3,1,3.5
					C917.9,576.5,917.5,577.7,916.8,578.6L916.8,578.6z"/>
				<path id="path1988" inkscape:connector-curvature="0" class="st7" d="M938.8,572.7c-0.2-0.7-0.6-1.3-1-1.9
					c-0.4-0.5-1-0.9-1.6-1.2c-0.6-0.3-1.3-0.5-2-0.5c-1.3,0-2.5,0.5-3.3,1.6v-5.8h-2v16.3h1.8v-1.3c0.7,1.1,2,1.7,3.3,1.7
					c1.4,0,2.7-0.6,3.6-1.7c1.1-1.3,1.6-3,1.5-4.7C939.2,574.3,939.1,573.5,938.8,572.7L938.8,572.7z M936.3,578.6
					c-0.6,0.7-1.4,1.1-2.3,1.1c-1.1,0-2-0.6-2.5-1.6c-0.5-0.9-0.7-2-0.6-3c-0.1-1.2,0.2-2.4,1-3.3c0.6-0.7,1.4-1.1,2.3-1.1
					c0.9,0,1.7,0.4,2.2,1.1c0.7,1,1.1,2.2,1,3.4C937.3,576.5,937,577.6,936.3,578.6z"/>
				<path id="path1990" inkscape:connector-curvature="0" class="st7" d="M941.5,585.6l-0.2-1.8c0.4,0.1,0.7,0.1,1.1,0.1
					c0.4,0,0.7-0.1,1.1-0.2c0.3-0.1,0.5-0.4,0.6-0.6c0.2-0.5,0.4-1,0.6-1.5c0-0.1,0.1-0.2,0.1-0.5l-4.5-11.7h2.2l2.4,6.8
					c0.4,0.9,0.6,1.8,0.8,2.8c0.2-0.9,0.5-1.8,0.8-2.7l2.5-6.9h1.9l-4.5,12c-0.3,0.9-0.7,1.8-1.1,2.7c-0.3,0.6-0.7,1.1-1.2,1.5
					c-0.5,0.4-1.1,0.5-1.7,0.5C942.5,585.9,942,585.9,941.5,585.6L941.5,585.6z"/>
			</g>
		</g>
	</g>
</g>
<text id="sensor.clock_time" inkscape:label="#text92" transform="matrix(0.8191 0 0 1 25.1747 383.8574)" class="st9 st10 st11">10:36</text>
<g id="sensor.clock_day" inkscape:label="#text99">
	<text transform="matrix(1.2003 0 0 1 43.342 520.5864)" class="st12 st13 st14">NedNesDay</text>
</g>
<text id="sensor.clock_date" inkscape:label="#text99" transform="matrix(1.2003 0 0 1 43.342 583.3306)" class="st15 st13 st14">November 33</text>
<line id="line102" class="st16" x1="808.6" y1="127.1" x2="998.6" y2="127.1"/>
<line id="line104" class="st16" x1="808.6" y1="121.1" x2="998.6" y2="121.1"/>
<line id="line106" class="st16" x1="808.6" y1="14.1" x2="998.6" y2="14.1"/>
<line id="line108" class="st16" x1="808.6" y1="234.1" x2="998.6" y2="234.1"/>
<line id="line110" class="st16" x1="808.6" y1="240" x2="998.6" y2="240"/>
<line id="line112" class="st16" x1="808.6" y1="347" x2="998.6" y2="347"/>
<line id="line114" class="st16" x1="808.7" y1="445" x2="998.7" y2="445"/>
<line id="line116" class="st16" x1="808.7" y1="533" x2="998.7" y2="533"/>
<g id="g132" class="st17">
</g>
<g id="sensor.clock_am_pm" inkscape:label="#text134">
	<text transform="matrix(0.8191 0 0 1 692.0439 150.08)" class="st7 st10 st18">XX</text>
</g>
<text id="sensor.dark_sky_temperature" inkscape:label="#text136" transform="matrix(1 0 0 1 162.3973 64.2673)" class="st15 st19 st20">72</text>
<rect id="camera.stone_door" x="808.6" y="128.1" inkscape:label="#rect140" class="st21" width="190" height="105">
</rect>
<rect id="sensor.dark_sky_minutely_summary_icon" x="43.3" y="15" inkscape:label="#rect395" class="st22" width="70.5" height="62.2">
</rect>
<rect id="camera.wu_doppler_weather" x="808.6" y="241" inkscape:label="#rect140" class="st21" width="190" height="105">
</rect>
<text id="sensor.dark_sky_minutely_summary" inkscape:label="#text136" transform="matrix(1 0 0 1 220.6276 63.3239)" class="st15 st19 st20">Hell Fire for the next hour</text>
<text id="climate.downstairs" inkscape:label="#text136" transform="matrix(1 0 0 1 736.5502 530.4459)" class="st15 st19 st23">72</text>
<text id="climate.upstairs" inkscape:label="#text136" transform="matrix(1 0 0 1 736.5506 586.0173)" class="st15 st19 st23">72</text>
<text id="sensor.dark_sky_temperature-4-0" inkscape:label="#text136" transform="matrix(0.92 0 0 1 552.4951 529.1865)" class="st15 st19 st23">1st Floor</text>
<text id="sensor.dark_sky_temperature-4-0-5" inkscape:label="#text136" transform="matrix(0.92 0 0 1 552.4951 586.0171)" class="st15 st19 st23">2ndFloor</text>
<rect id="input_boolean.clock_snooze" x="808.6" y="15.1" inkscape:label="#rect140" class="st21" width="190" height="105">
</rect>
</svg>
