<?xml version="1.0" encoding="utf-8"?>
<!-- Generator: Adobe Illustrator 22.0.1, SVG Export Plug-In . SVG Version: 6.00 Build 0)  -->
<svg version="1.1"
	 id="clock_layer" inkscape:version="0.92.2 (5c3e80d, 2017-08-06)" sodipodi:docname="clock.svg" xmlns:cc="http://creativecommons.org/ns#" xmlns:dc="http://purl.org/dc/elements/1.1/" xmlns:inkscape="http://www.inkscape.org/namespaces/inkscape" xmlns:rdf="http://www.w3.org/1999/02/22-rdf-syntax-ns#" xmlns:sodipodi="http://sodipodi.sourceforge.net/DTD/sodipodi-0.dtd" xmlns:svg="http://www.w3.org/2000/svg"
	 xmlns="http://www.w3.org/2000/svg" xmlns:xlink="http://www.w3.org/1999/xlink" x="0px" y="0px" viewBox="0 0 1024 600"
	 style="enable-background:new 0 0 1024 600;" xml:space="preserve">
<style type="text/css">
	.st0{fill:none;}
	.st1{clip-path:url(#SVGID_2_);}
	.st2{fill:url(#rect45_3_);}
	.st3{fill:#19476D;}
	.st4{fill:url(#rect57_2_);}
	.st5{fill:url(#rect40_2_);}
	.st6{fill:#00ADEE;}
	.st7{fill:#B7B7B7;}
	.st8{fill:#00ADEE;enable-background:new    ;}
	.st9{font-family:'Rockwell-ExtraBold';}
	.st10{font-size:290.3859px;}
	.st11{fill:#808080;}
	.st12{font-family:'ArialMT';}
	.st13{font-size:61.9433px;}
	.st14{fill:#808080;enable-background:new    ;}
	.st15{fill:none;stroke:#FFFFFF;stroke-miterlimit:10;}
	.st16{font-size:50px;}
	.st17{fill:#333333;}
	.st18{fill:#666666;}
	.st19{font-size:47.57px;}
	.st20{font-size:48px;}
</style>
<pattern  y="600" width="5" height="5" patternUnits="userSpaceOnUse" id="rect57_1_" viewBox="0 -5 5 5" style="overflow:visible;">
	<g>
		<rect y="-5" class="st0" width="5" height="5"/>
		<g>
			<rect y="-5" class="st0" width="5" height="5"/>
			<g>
				<rect y="-5" class="st0" width="5" height="5"/>
				<rect id="rect43_2_" y="-5" class="st0" width="5" height="5"/>
				<g>
					<g>
						<g>
							<defs>
								<path id="SVGID_1_" d="M4.9-3C4.9-3,4.8-3,4.9-3H4.3v-1.7c0-0.1,0-0.1-0.1-0.1H0.8c-0.1,0-0.1,0-0.1,0.1V-3H0.2
									c0,0-0.1,0-0.1,0.1l0,0c0,0,0,0,0,0.1l0,0l2.3,2.2c0.1,0.1,0.1,0.1,0.2,0l1.1-1.1l0.1-0.1v0.2c0,0.1,0,0.1,0.1,0.1h0.3
									c0.1,0,0.1,0,0.1-0.1v-0.7v-0.1c0.2-0.1,0.3-0.3,0.4-0.4v-0.1C4.8-2.9,4.9-2.9,4.9-3z"/>
							</defs>
							<clipPath id="SVGID_2_">
								<use xlink:href="#SVGID_1_"  style="overflow:visible;"/>
							</clipPath>
							<g id="g47_2_" class="st1">
								
									<radialGradient id="rect45_3_" cx="-83566.7813" cy="-97872.6094" r="4.43" gradientTransform="matrix(0.56 0 0 0.56 46707.2891 54684.4805)" gradientUnits="userSpaceOnUse">
									<stop  offset="0" style="stop-color:#17426C"/>
									<stop  offset="1" style="stop-color:#050F1A"/>
								</radialGradient>
								<rect id="rect45_2_" y="-5" class="st2" width="4.9" height="4.9"/>
							</g>
						</g>
					</g>
				</g>
				<path id="path367_2_" class="st3" d="M3.6-3.2c0.1,0,0.2,0.1,0.2,0.2l0,0c0,0.1-0.1,0.2-0.2,0.2l0,0C3.5-2.8,3.4-2.9,3.4-3l0,0
					l0,0C3.4-3.1,3.5-3.2,3.6-3.2z M1.4-3.2c0.1,0,0.2,0.1,0.2,0.2l0,0l0,0c0,0.1-0.1,0.2-0.2,0.2S1.2-2.9,1.2-3S1.3-3.2,1.4-3.2
					L1.4-3.2z M2.3-4.1L1.6-3.4C1.4-3.5,1.1-3.4,1-3.2s0,0.5,0.2,0.6c0.1,0.1,0.3,0.1,0.5,0c0.1,0,0.2-0.1,0.2-0.2
					c0-0.1,0-0.3,0-0.4l0.4-0.5v1.5C2.1-2.1,2-1.9,2-1.8s0,0.3,0.1,0.4c0.2,0.2,0.5,0.2,0.7,0l0,0l0,0C2.9-1.4,3-1.6,3-1.7
					C3-1.9,2.9-2,2.7-2.1c0-0.4,0-1.5,0-1.5l0.4,0.5c0,0.1,0.1,0.4,0.3,0.5s0.5,0,0.6-0.2c0.1-0.1,0.1-0.3,0-0.4
					C3.9-3.4,3.7-3.5,3.4-3.4L2.7-4.1v-0.6H2.3V-4.1z M2.7-1.7c0,0.1-0.1,0.2-0.2,0.2c-0.1,0-0.2-0.1-0.2-0.2l0,0
					c0-0.1,0.1-0.2,0.2-0.2C2.6-1.9,2.7-1.8,2.7-1.7z"/>
			</g>
		</g>
	</g>
</pattern>
<g id="BG" inkscape:label="#BG1">
	<rect id="rect55" y="-0.5" width="1024" height="600.5"/>
	<pattern  id="rect57_2_" xlink:href="#rect57_1_" patternTransform="matrix(1 0 0 -1 -3 -33192)">
	</pattern>
	<rect id="rect57" y="-0.5" class="st4" width="1024" height="600"/>
	
		<radialGradient id="rect40_2_" cx="422.59" cy="1980.11" r="468.26" gradientTransform="matrix(1 0 0 0.5 0 -695.07)" gradientUnits="userSpaceOnUse">
		<stop  offset="0" style="stop-color:#000000;stop-opacity:0"/>
		<stop  offset="0.191" style="stop-color:#000000;stop-opacity:0"/>
		<stop  offset="0.4815" style="stop-color:#000000;stop-opacity:0"/>
		<stop  offset="1" style="stop-color:#000000"/>
	</radialGradient>
	<rect id="rect40_1_" class="st5" width="1024" height="600"/>
	<g id="powered_by">
		<path id="path359" inkscape:connector-curvature="0" class="st6" d="M831.5,581.9c-0.1-0.9-0.9-1.5-1.8-1.5
			c-0.7,0.1-1.3,0.7-1.5,1.5h-4.8c-0.1,0.1-0.1,0.1-0.1,0.2l5,0.1c0.1,0.9,0.9,1.5,1.8,1.5C831,583.6,831.6,582.9,831.5,581.9
			C831.5,582,831.5,582,831.5,581.9L831.5,581.9z M829.8,583.5c-0.4,0-0.7-0.1-1-0.4l-0.1-0.2c-0.2-0.2-0.2-0.5-0.2-0.7
			c0-0.3,0.1-0.5,0.2-0.7l0.1-0.2c0.3-0.3,0.6-0.4,1-0.4c0.7-0.1,1.4,0.5,1.5,1.2s-0.5,1.4-1.2,1.5
			C829.9,583.5,829.9,583.5,829.8,583.5L829.8,583.5z M842.9,583.3c-0.1-0.9-0.9-1.5-1.8-1.5c-0.7,0.1-1.3,0.7-1.5,1.5h-5.3
			l-3.3,3.3h-7.6c-0.1,0.1-0.2,0.2-0.1,0.2l7.9,0.1l3.3-3.3h5.2c0,0.9,0.8,1.6,1.7,1.6s1.6-0.8,1.6-1.7
			C842.9,583.4,842.9,583.4,842.9,583.3z M841.2,584.9c-0.7,0-1.3-0.6-1.3-1.3s0.6-1.3,1.3-1.3s1.3,0.6,1.3,1.3
			C842.5,584.3,841.9,584.8,841.2,584.9z M842.9,591.1c-0.1-0.9-0.9-1.5-1.8-1.5c-0.7,0.1-1.3,0.7-1.5,1.5h-6.4l-1.9-1.9h-7.9
			c-0.1,0-0.2,0.1-0.1,0.2l7.7,0.1l1.9,1.9h6.7c0,0.9,0.8,1.6,1.7,1.6s1.6-0.8,1.6-1.7C842.9,591.3,842.9,591.2,842.9,591.1z
			 M841.2,592.6H841c-0.7-0.1-1.2-0.7-1.2-1.3l0,0c0-0.7,0.6-1.3,1.3-1.3s1.3,0.6,1.3,1.3C842.5,592,841.9,592.6,841.2,592.6
			L841.2,592.6L841.2,592.6z M846.7,587.3h-7.9c0-0.9-0.8-1.6-1.7-1.6l0,0c-0.9,0-1.7,0.8-1.6,1.8c0,0.8,0.7,1.5,1.5,1.6
			c0.9,0,1.7-0.7,1.7-1.6l0,0h8c0.1,0,0.1-0.1,0.1-0.1C846.9,587.3,846.8,587.3,846.7,587.3L846.7,587.3z M837.2,588.7
			c-0.7,0-1.3-0.6-1.3-1.3s0.6-1.3,1.3-1.3s1.3,0.6,1.3,1.3C838.5,588.1,837.9,588.7,837.2,588.7z M846.9,579.4h-10.7
			c0-0.9-0.8-1.6-1.7-1.6l0,0c-1,0.1-1.7,0.9-1.6,1.9c0.1,0.9,0.8,1.6,1.6,1.6c0.9,0,1.7-0.7,1.7-1.6h10.5c0.1,0,0.1,0,0.2-0.1
			S847,579.5,846.9,579.4z M834.5,581c-0.7-0.1-1.3-0.6-1.3-1.3s0.6-1.3,1.3-1.3s1.3,0.6,1.3,1.3S835.3,581,834.5,581L834.5,581z"/>
		<g id="powered_by-2">
			<g id="_Group_">
				<path id="path72" inkscape:connector-curvature="0" class="st7" d="M1002.4,577.5c-0.1,0.2-0.3,0.4-0.6,0.4h-3.3v11.3
					c0,0.5-0.2,0.6-0.7,0.6h-23.5c-0.6,0-0.7-0.1-0.7-0.7v-11h-3.5c-0.3,0-0.6-0.2-0.6-0.5c0,0,0,0,0-0.1c0-0.2,0-0.3,0.1-0.5
					l0.4-0.4l15.4-15.5c0.6-0.6,0.8-0.6,1.5,0l7.3,7.3l0.6,0.6v-1.2c0-0.6,0.1-0.7,0.7-0.7h2.3c0.8,0,0.8,0.2,0.8,0.8v4.6
					c0,0.4,0.1,0.7,0.4,1c1,1,2.1,1.9,3,3l0.4,0.4C1002.5,576.9,1002.5,577.2,1002.4,577.5z"/>
				<path id="path74" inkscape:connector-curvature="0" class="st6" d="M996,576.2c-0.8-1.6-2.8-2.2-4.3-1.3l0,0
					c-1.4,0.9-2,2.6-1.5,4.1l-3,3c0-0.5-0.1-8,0-10.4c1.1-0.5,1.8-1.6,1.9-2.8c0.1-0.9-0.2-1.8-0.8-2.4l-0.1-0.1
					c-1.3-1.2-3.4-1.1-4.6,0.2c-0.6,0.8-0.9,1.9-0.7,2.9s0.9,1.8,1.8,2.3V582l-3-3c0.4-0.9,0.4-1.8,0-2.7c-0.4-0.6-0.9-1.1-1.5-1.5
					c-1-0.5-2.2-0.5-3.2,0c-1.5,0.9-2,2.8-1.2,4.4c0.9,1.4,2.6,1.9,4.1,1.3l4.7,4.8v4.2h2.3v-4.2l4.9-4.8c2.2,0.5,3.5,0,4.2-1.5
					C996.6,578.2,996.5,577.1,996,576.2z M980,577.9c0,0.1,0,0.1-0.1,0.2l0,0c0,0.1,0,0.1-0.1,0.2c0,0.1-0.1,0.2-0.2,0.3
					c-0.2,0.3-0.6,0.5-1,0.5h-0.2h-0.1c-0.1,0-0.2-0.1-0.3-0.1s-0.1-0.1-0.2-0.1l-0.2-0.1l-0.1-0.2c-0.1-0.1-0.2-0.2-0.2-0.4
					c0-0.1-0.1-0.1-0.1-0.2c0-0.2,0-0.4,0-0.6c0-0.1,0-0.2,0.1-0.3c0.2-0.5,0.7-0.8,1.3-0.8c0.2,0,0.4,0.1,0.6,0.2
					c0.1,0,0.1,0.1,0.2,0.1c0.1,0.1,0.2,0.1,0.2,0.2l0.1,0.1c0.1,0.1,0.1,0.2,0.1,0.2c0.1,0.2,0.1,0.4,0.1,0.5
					C980,577.7,980,577.8,980,577.9z M986,570.1c-0.7,0-1.3-0.5-1.4-1.2v-0.1v-0.1l0,0c0-0.8,0.6-1.4,1.4-1.4s1.4,0.6,1.4,1.4l0,0
					v0.1v0.1c0,0.1,0,0.1,0,0.2C987.2,569.7,986.6,570.1,986,570.1L986,570.1z M993.3,579c-0.8,0-1.4-0.6-1.4-1.4
					c0-0.8,0.6-1.4,1.4-1.4s1.4,0.6,1.4,1.4l0,0C994.7,578.4,994.1,579,993.3,579L993.3,579z"/>
			</g>
			<g id="text857">
				<path id="path1974" inkscape:connector-curvature="0" class="st6" d="M855,581c-0.3-0.9-0.9-1.6-1.7-2.2
					c-0.8-0.5-1.7-0.7-2.7-0.7c-0.7,0-1.4,0.1-1.9,0.5c-0.6,0.3-1.1,0.8-1.5,1.3v-1.6h-1.8v16.3h1.9v-5.8c0.4,0.5,0.8,0.8,1.3,1.1
					c0.6,0.2,1.2,0.4,1.8,0.4c0.9,0,1.8-0.3,2.5-0.7c0.9-0.5,1.5-1.3,1.9-2.2c0.4-1,0.6-2.2,0.6-3.3C855.6,583,855.4,582,855,581z
					 M852.7,587.8c-0.6,0.7-1.4,1.1-2.3,1.1c-0.9,0-1.7-0.4-2.2-1.1c-0.7-1-1.1-2.2-1-3.4c-0.1-1.2,0.2-2.4,1-3.4
					c0.5-0.7,1.4-1.2,2.3-1.2c0.9,0,1.7,0.4,2.2,1.1c0.7,1,1.1,2.2,1,3.4C853.8,585.5,853.4,586.7,852.7,587.8L852.7,587.8z"/>
				<path id="path1976" inkscape:connector-curvature="0" class="st6" d="M866.9,579.6c-1.1-1.1-2.5-1.6-4-1.6
					c-1.4,0-2.7,0.4-3.8,1.3c-1.3,1.3-2,3-1.8,4.8c-0.1,1.7,0.5,3.4,1.7,4.6c1,1.1,2.5,1.7,4,1.6c1,0,1.9-0.3,2.8-0.7
					c0.8-0.5,1.5-1.2,1.9-2.1c0.5-1.1,0.8-2.4,0.7-3.6C868.5,582.4,867.9,580.8,866.9,579.6L866.9,579.6z M865.3,587.6
					c-0.6,0.7-1.5,1.1-2.4,1.1c-1,0.1-1.9-0.4-2.5-1.1c-0.7-1-1.1-2.2-1-3.4c-0.1-1.2,0.3-2.3,1-3.3c0.7-0.7,1.6-1.1,2.5-1.1
					s1.8,0.4,2.4,1.1c0.7,0.9,1.1,2.1,1,3.3C866.3,585.4,866,586.6,865.3,587.6L865.3,587.6z"/>
				<path id="path1978" inkscape:connector-curvature="0" class="st6" d="M872.9,590.2l-3.6-11.7h2.1l1.8,6.8l0.7,2.5
					c0-0.1,0.2-1,0.6-2.4l1.8-6.9h2.1l1.8,6.8l0.6,2.3l0.7-2.3l2.1-6.8h1.9l-3.6,11.7h-2.1l-1.8-7l-0.5-2.1l-2.4,9.1L872.9,590.2z"
					/>
				<path id="path1980" inkscape:connector-curvature="0" class="st6" d="M897.4,584c0.1-1.6-0.4-3.2-1.5-4.5
					c-1-1.1-2.4-1.6-3.9-1.6s-3,0.6-4,1.7c-1.1,1.3-1.7,2.9-1.6,4.6c-0.1,1.6,0.4,3.2,1.5,4.5c1.1,1.1,2.6,1.7,4.1,1.6
					c1.2,0,2.4-0.3,3.4-1c0.9-0.7,1.5-1.7,1.8-2.8l-2.1-0.2c-0.2,0.7-0.6,1.4-1.3,1.7c-0.5,0.4-1.2,0.6-1.8,0.6
					c-0.9,0-1.8-0.4-2.4-1.1c-0.7-0.9-1-1.9-1.1-3h8.8L897.4,584z M888.7,583.2c0-0.9,0.4-1.8,1.1-2.4c0.6-0.6,1.4-1,2.3-1
					c0.9,0,1.8,0.5,2.4,1.2c0.4,0.7,0.7,1.4,0.7,2.2H888.7z"/>
				<path id="path1982" inkscape:connector-curvature="0" class="st6" d="M899.8,590.2v-11.7h1.8v1.7c0.3-0.6,0.7-1.2,1.2-1.7
					c0.4-0.2,0.9-0.4,1.3-0.4c0.7,0,1.4,0.2,2.1,0.6l-0.7,1.8c-0.4-0.2-0.9-0.4-1.5-0.4c-0.4,0-0.9,0.1-1.2,0.4
					c-0.4,0.3-0.6,0.6-0.7,1.1c-0.2,0.7-0.4,1.5-0.4,2.3v6.1h-1.9L899.8,590.2L899.8,590.2z"/>
				<path id="path1984" inkscape:connector-curvature="0" class="st6" d="M917.6,584c0.1-1.6-0.4-3.2-1.5-4.5
					c-1-1.1-2.4-1.6-3.9-1.6c-1.5-0.1-3,0.6-4,1.7c-1.1,1.3-1.7,2.9-1.6,4.6c-0.1,1.6,0.4,3.2,1.5,4.5c1.1,1.1,2.6,1.7,4.1,1.6
					c1.2,0,2.4-0.3,3.4-1c0.9-0.7,1.5-1.7,1.8-2.8l-2-0.2c-0.2,0.7-0.7,1.4-1.3,1.7c-0.5,0.4-1.2,0.6-1.8,0.6
					c-0.9,0-1.8-0.4-2.4-1.1c-0.7-0.9-1-1.9-1.1-3h8.8V584z M908.9,583.2c0-0.9,0.4-1.8,1.1-2.4c0.6-0.6,1.4-1,2.3-1
					c0.9,0,1.8,0.5,2.4,1.2c0.4,0.7,0.7,1.4,0.7,2.2H908.9z"/>
				<path id="path1986" inkscape:connector-curvature="0" class="st6" d="M927.6,574.1v5.8c-0.3-0.5-0.8-0.9-1.3-1.2
					c-0.6-0.3-1.3-0.5-1.9-0.5c-0.9,0-1.9,0.2-2.7,0.7s-1.5,1.2-1.7,2.2c-0.4,1-0.6,2.1-0.6,3.2c0,1.1,0.2,2.2,0.6,3.2
					c0.4,0.9,1,1.7,1.8,2.2s1.6,0.7,2.5,0.7c1.3,0.1,2.6-0.5,3.3-1.7v1.7h1.9v-16.2h-1.9L927.6,574.1L927.6,574.1z M926.8,587.6
					c-1.3,1.6-5.4,2.4-5.4-3.4c-0.1-1.2,0.3-2.4,1-3.4c0.5-0.7,1.3-1.1,2.2-1.1s1.8,0.4,2.3,1.1c0.7,1,1.1,2.3,1,3.5
					C927.9,585.5,927.5,586.7,926.8,587.6L926.8,587.6z"/>
				<path id="path1988" inkscape:connector-curvature="0" class="st6" d="M948.8,581.7c-0.2-0.7-0.6-1.3-1-1.9
					c-0.4-0.5-1-0.9-1.6-1.2s-1.3-0.5-2-0.5c-1.3,0-2.5,0.5-3.3,1.6v-5.8h-2v16.3h1.8v-1.3c0.7,1.1,2,1.7,3.3,1.7
					c1.4,0,2.7-0.6,3.6-1.7c1.1-1.3,1.6-3,1.5-4.7C949.2,583.3,949.1,582.5,948.8,581.7L948.8,581.7z M946.3,587.6
					c-0.6,0.7-1.4,1.1-2.3,1.1c-1.1,0-2-0.6-2.5-1.6c-0.5-0.9-0.7-2-0.6-3c-0.1-1.2,0.2-2.4,1-3.3c0.6-0.7,1.4-1.1,2.3-1.1
					c0.9,0,1.7,0.4,2.2,1.1c0.7,1,1.1,2.2,1,3.4C947.3,585.5,947,586.6,946.3,587.6z"/>
				<path id="path1990" inkscape:connector-curvature="0" class="st6" d="M951.5,594.6l-0.2-1.8c0.4,0.1,0.7,0.1,1.1,0.1
					c0.4,0,0.7-0.1,1.1-0.2c0.3-0.1,0.5-0.4,0.6-0.6c0.2-0.5,0.4-1,0.6-1.5c0-0.1,0.1-0.2,0.1-0.5l-4.5-11.7h2.2l2.4,6.8
					c0.4,0.9,0.6,1.8,0.8,2.8c0.2-0.9,0.5-1.8,0.8-2.7l2.5-6.9h1.9l-4.5,12c-0.3,0.9-0.7,1.8-1.1,2.7c-0.3,0.6-0.7,1.1-1.2,1.5
					s-1.1,0.5-1.7,0.5C952.5,594.9,952,594.9,951.5,594.6L951.5,594.6z"/>
			</g>
		</g>
	</g>
</g>
<text id="sensor.clock_time" inkscape:label="#text92" transform="matrix(0.8191 0 0 1 25.1748 383.8574)" class="st8 st9 st10">10:36</text>
<text id="sensor.clock_day" transform="matrix(1.2003 0 0 1 18.3418 520.5859)" class="st11 st12 st13">NedNesDay</text>
<text id="sensor.clock_date" inkscape:label="#text99" transform="matrix(1.2003 0 0 1 18.3418 583.3311)" class="st14 st12 st13">November 33</text>
<g id="right_side_layout">
	<line id="edge_doorbell_top" class="st15" x1="819.6" y1="121.1" x2="1009.6" y2="121.1"/>
	<line id="edge_snooze_bottom" class="st15" x1="819.6" y1="115.1" x2="1009.6" y2="115.1"/>
	<line id="edge_snooze_top" class="st15" x1="819.6" y1="8.1" x2="1009.6" y2="8.1"/>
	<line id="edge_doorbell_bottom" class="st15" x1="819.6" y1="228.1" x2="1009.6" y2="228.1"/>
	<line id="edge_doppler_top" class="st15" x1="819.6" y1="234" x2="1009.6" y2="234"/>
	<line id="edge_doppler_bottom" class="st15" x1="819.6" y1="341" x2="1009.6" y2="341"/>
	<line id="edge_radio_top" class="st15" x1="818.7" y1="449" x2="1008.7" y2="449"/>
	<line id="edge_radio_bottom" class="st15" x1="818.7" y1="556" x2="1008.7" y2="556"/>
</g>
<text id="sensor.clock_am_pm" transform="matrix(0.8191 0 0 1 692.0439 150.0801)" class="st6 st9 st16">XX</text>
<rect id="camera.stone_door" x="819.6" y="122.1" inkscape:label="#rect140" class="st17" width="190" height="105">
</rect>
<rect id="sensor.dark_sky_minutely_summary_icon" x="43.3" y="15" inkscape:label="#rect395" class="st18" width="70.5" height="62.2">
</rect>
<rect id="input_boolean.school_mode" x="819.6" y="235" inkscape:label="#rect140" class="st17" width="190" height="105">
</rect>
<text id="climate.downstairs" inkscape:label="#text136" transform="matrix(1 0 0 1 736.5502 530.4459)" class="st14 st12 st19">72</text>
<text id="climate.upstairs" inkscape:label="#text136" transform="matrix(1 0 0 1 736.5506 586.0173)" class="st14 st12 st19">72</text>
<text id="first_floor" inkscape:label="#text136" transform="matrix(0.92 0 0 1 552.4951 529.1865)" class="st14 st12 st19">1st Floor</text>
<text id="second_floor" inkscape:label="#text136" transform="matrix(0.92 0 0 1 552.4951 586.0176)" class="st14 st12 st19">2ndFloor</text>
<rect id="media_player.alarm_clock" x="819.6" y="449" inkscape:label="#rect140" class="st17" width="190" height="105">
</rect>
<rect id="input_boolean.clock_snooze" x="819.1" y="9.2" inkscape:label="#rect140" class="st17" width="190" height="105">
</rect>
<text id="sensor.dark_sky_minutely_summary" transform="matrix(1 0 0 1 229.8361 58.1703)" class="st11 st12 st20">Hell Fire for the next 2 hours</text>
<text id="sensor.dark_sky_temperature" transform="matrix(1 0 0 1 153.8211 58.1696)" class="st11 st12 st20">72</text>
</svg>
