<?xml version="1.0" encoding="UTF-8" standalone="no"?>
<svg
   xmlns:dc="http://purl.org/dc/elements/1.1/"
   xmlns:cc="http://creativecommons.org/ns#"
   xmlns:rdf="http://www.w3.org/1999/02/22-rdf-syntax-ns#"
   xmlns:svg="http://www.w3.org/2000/svg"
   xmlns="http://www.w3.org/2000/svg"
   xmlns:sodipodi="http://sodipodi.sourceforge.net/DTD/sodipodi-0.dtd"
   xmlns:inkscape="http://www.inkscape.org/namespaces/inkscape"
   id="Layer_2"
   data-name="Layer 2"
   viewBox="0 0 1024 600"
   version="1.1"
   sodipodi:docname="clock.svg"
   inkscape:version="0.92.2 (5c3e80d, 2017-08-06)">
  <metadata
     id="metadata145">
    <rdf:RDF>
      <cc:Work
         rdf:about="">
        <dc:format>image/svg+xml</dc:format>
        <dc:type
           rdf:resource="http://purl.org/dc/dcmitype/StillImage" />
      </cc:Work>
    </rdf:RDF>
  </metadata>
  <sodipodi:namedview
     pagecolor="#ffffff"
     bordercolor="#666666"
     borderopacity="1"
     objecttolerance="10"
     gridtolerance="10"
     guidetolerance="10"
     inkscape:pageopacity="0"
     inkscape:pageshadow="2"
     inkscape:window-width="1920"
     inkscape:window-height="1051"
     id="namedview143"
     showgrid="false"
     inkscape:zoom="0.99298784"
     inkscape:cx="342.41808"
     inkscape:cy="384.46079"
     inkscape:window-x="1016"
     inkscape:window-y="-9"
     inkscape:window-maximized="1"
     inkscape:current-layer="Layer_2" />
  <defs
     id="defs51">
    <style
       id="style10">.cls-1{fill:url(#radial-gradient);filter:url(#luminosity-noclip);}.cls-17,.cls-2{fill:none;}.cls-3{clip-path:url(#clip-path);}.cls-4{fill:url(#radial-gradient-2);}.cls-5{fill:#19476d;}.cls-6{mask:url(#mask);}.cls-7{fill:url(#New_Pattern_2);}.cls-8{opacity:0.05;}.cls-14,.cls-9{font-size:379.56px;}.cls-9{fill:#43a7f8;}.cls-10,.cls-14,.cls-20,.cls-9{font-family:DigitalDismay, Digital Dismay;}.cls-10,.cls-20{font-size:59.36px;}.cls-11{opacity:0.2;}.cls-12,.cls-14,.cls-20{fill:#00adee;}.cls-13{fill:#b7b7b7;}.cls-15{isolation:isolate;font-size:74.35px;}.cls-15,.cls-21,.cls-22{fill:gray;}.cls-15,.cls-18{font-family:HelveticaNeue-Thin, Helvetica Neue;}.cls-16{letter-spacing:-0.06em;}.cls-17{stroke:#fff;stroke-miterlimit:10;}.cls-18{font-size:53.07px;fill:#e6e6e6;}.cls-19{letter-spacing:-0.02em;}.cls-21{font-size:47.57px;font-family:Helvetica-Light, Helvetica;}.cls-23{fill:#333;}</style>
    <radialGradient
       id="radial-gradient"
       cx="422.59"
       cy="304.11"
       r="468.26"
       gradientTransform="translate(0 142.93) scale(1 0.5)"
       gradientUnits="userSpaceOnUse">
      <stop
         offset="0"
         stop-color="#fff"
         id="stop12" />
      <stop
         offset="0.09"
         stop-color="#f4f4f4"
         id="stop14" />
      <stop
         offset="0.24"
         stop-color="#d7d7d7"
         id="stop16" />
      <stop
         offset="0.43"
         stop-color="#a8a8a8"
         id="stop18" />
      <stop
         offset="0.67"
         stop-color="#676767"
         id="stop20" />
      <stop
         offset="0.94"
         stop-color="#141414"
         id="stop22" />
      <stop
         offset="1"
         id="stop24" />
    </radialGradient>
    <clipPath
       id="clip-path">
      <path
         class="cls-2"
         d="M4.9,3A.11.11,0,0,1,4.81,3H4.33V4.66c0,.07,0,.09-.11.09H.79c-.09,0-.11,0-.11-.11V3H.17a.08.08,0,0,1-.09-.09.11.11,0,0,1,0-.07l0-.05L2.4.55c.09-.08.12-.08.21,0L3.68,1.62l.08.09V1.53c0-.09,0-.11.11-.11h.34c.12,0,.12,0,.12.13v.67a.22.22,0,0,0,0,.14c.15.14.3.28.45.44l0,.06S4.91,2.93,4.9,3Z"
         id="path27" />
    </clipPath>
    <radialGradient
       id="radial-gradient-2"
       cx="-64978.36"
       cy="-85382.04"
       r="4.43"
       gradientTransform="matrix(0.56, 0, 0, -0.56, 36297.77, -47689.76)"
       gradientUnits="userSpaceOnUse">
      <stop
         offset="0"
         stop-color="#17426c"
         id="stop30" />
      <stop
         offset="1"
         stop-color="#050f1a"
         id="stop32" />
    </radialGradient>
    <filter
       id="luminosity-noclip"
       x="0"
       y="-0.53"
       width="1024"
       height="600.51"
       filterUnits="userSpaceOnUse"
       color-interpolation-filters="sRGB">
      <feFlood
         flood-color="#fff"
         result="bg"
         id="feFlood35" />
      <feBlend
         in="SourceGraphic"
         in2="bg"
         id="feBlend37" />
    </filter>
    <mask
       id="mask"
       x="0"
       y="-0.53"
       width="1024"
       height="600.51"
       maskUnits="userSpaceOnUse">
      <rect
         class="cls-1"
         y="-0.01"
         width="1024"
         height="600"
         id="rect40" />
    </mask>
    <pattern
       id="New_Pattern_2"
       data-name="New Pattern 2"
       width="5"
       height="5"
       patternUnits="userSpaceOnUse"
       viewBox="0 0 5 5">
      <rect
         class="cls-2"
         width="5"
         height="5"
         id="rect43" />
      <g
         class="cls-3"
         clip-path="url(#clip-path)"
         id="g47">
        <rect
           class="cls-4"
           x="0.02"
           y="0.02"
           width="4.95"
           height="4.95"
           id="rect45" />
      </g>
      <path
         id="path367"
         class="cls-5"
         d="M3.59,3.19A.2.2,0,0,0,3.78,3h0a.21.21,0,0,0-.21-.21A.2.2,0,0,0,3.36,3h0a.22.22,0,0,0,.23.19Zm-2.18,0A.19.19,0,0,0,1.6,3h0a.22.22,0,0,0-.23-.2.23.23,0,0,0-.19.2.21.21,0,0,0,.23.19Zm.89.94-.7-.71A.5.5,0,0,1,1,3.23a.49.49,0,0,1,.18-.64.53.53,0,0,1,.46,0,.53.53,0,0,1,.21.21.53.53,0,0,1,0,.39l.44.48V2.13A.47.47,0,0,1,2,1.79a.53.53,0,0,1,.1-.42.49.49,0,0,1,.68,0h0l0,0A.44.44,0,0,1,3,1.71a.49.49,0,0,1-.28.4c0,.36,0,1.45,0,1.53l.44-.45a.5.5,0,0,1,.21-.6.48.48,0,0,1,.64.2.45.45,0,0,1,0,.42c-.11.21-.3.28-.62.21l-.72.71v.6H2.29Zm.4-2.44a.22.22,0,0,0-.21-.2.2.2,0,0,0-.2.2.22.22,0,0,0,.22.21A.22.22,0,0,0,2.7,1.69Z" />
    </pattern>
  </defs>
  <title
     id="title53">Artboard 1</title>
  <g
     id="BG">
    <rect
       y="-0.52999997"
       width="1024"
       height="600.53003"
       id="rect55"
       x="0" />
    <g
       class="cls-6"
       mask="url(#mask)"
       id="g59">
      <rect
         class="cls-7"
         y="-0.52999997"
         width="1024"
         height="600"
         id="rect57"
         x="0"
         style="fill:url(#New_Pattern_2)" />
    </g>
    <text
       class="cls-10"
       transform="matrix(0.92,0,0,1,601.49,134.45)"
       id="text65"
       style="font-size:59.36000061px;font-family:DigitalDismay, 'Digital Dismay'">aM</text>
    <g
       class="cls-11"
       id="g69"
       style="opacity:0.2">
      <text
         class="cls-10"
         transform="matrix(0.92,0,0,1,695.83,134.45)"
         id="text67"
         style="font-size:59.36000061px;font-family:DigitalDismay, 'Digital Dismay'">pM</text>
    </g>
    <g
       id="powered_by"
       data-name="powered by">
      <path
         id="path359"
         class="cls-12"
         d="m 822.26,579.19 c 0,0.12 0.12,0.12 0,0 z m 8.23,-0.25 a 1.65,1.65 0 0 0 -1.82,-1.45 1.81,1.81 0 0 0 -1.45,1.45 h -4.84 c -0.12,0.12 -0.12,0.12 -0.12,0.25 l 5,0.12 a 1.65,1.65 0 0 0 1.82,1.45 1.57,1.57 0 0 0 1.41,-1.82 z m -1.7,1.58 a 1.33,1.33 0 0 1 -1,-0.37 l -0.13,-0.24 a 1.29,1.29 0 0 1 -0.24,-0.72 1.7,1.7 0 0 1 0.24,-0.73 l 0.13,-0.24 a 1.33,1.33 0 0 1 1,-0.37 1.34,1.34 0 1 1 0,2.67 z m -6.53,3.27 c 0,0.12 0.12,0.12 0,0 z m 19.61,-3.52 a 1.65,1.65 0 0 0 -1.82,-1.45 1.81,1.81 0 0 0 -1.45,1.45 h -5.33 l -3.27,3.27 h -7.62 c -0.12,0.12 -0.24,0.25 -0.12,0.25 l 7.87,0.12 3.26,-3.27 h 5.21 a 1.65,1.65 0 1 0 3.27,-0.37 z m -1.7,1.58 a 1.33,1.33 0 1 1 1.34,-1.33 1.35,1.35 0 0 1 -1.34,1.33 z m -17.91,4.6 c 0,0.12 0.12,0.12 0,0 z m 19.61,1.69 a 1.65,1.65 0 0 0 -1.82,-1.45 1.81,1.81 0 0 0 -1.45,1.45 h -6.42 l -1.93,-1.93 h -7.87 c -0.12,0 -0.24,0.12 -0.12,0.24 l 7.74,0.12 1.94,1.94 h 6.66 a 1.65,1.65 0 1 0 3.27,-0.37 z m -1.7,1.46 h -0.18 a 1.25,1.25 0 0 1 -1.15,-1.36 1.34,1.34 0 1 1 1.33,1.34 z m 5.57,-5.33 h -7.87 a 1.62,1.62 0 0 0 -1.69,-1.57 1.7,1.7 0 0 0 -0.12,3.39 1.63,1.63 0 0 0 1.69,-1.58 h 8 a 0.12,0.12 0 0 0 0,-0.24 z m -9.56,1.45 a 1.33,1.33 0 1 1 1.33,-1.33 1.34,1.34 0 0 1 -1.33,1.33 z m 9.68,-9.32 h -10.65 a 1.62,1.62 0 0 0 -1.69,-1.57 1.76,1.76 0 0 0 0,3.51 1.64,1.64 0 0 0 1.69,-1.58 h 10.53 c 0.12,0 0.12,0 0.24,-0.12 0.12,-0.12 0.02,-0.12 -0.12,-0.24 z m -12.34,1.6 a 1.53,1.53 0 0 1 -1.34,-1.33 1.34,1.34 0 1 1 1.34,1.33 z"
         inkscape:connector-curvature="0"
         style="fill:#00adee" />
      <g
         id="powered_by-2"
         data-name="powered by-2">
        <g
           id="_Group_"
           data-name=" Group ">
          <path
             class="cls-13"
             d="m 1001.42,574.46 a 0.65,0.65 0 0 1 -0.6,0.37 h -3.27 v 11.26 c 0,0.48 -0.25,0.6 -0.73,0.6 h -23.48 c -0.61,0 -0.73,-0.12 -0.73,-0.73 V 575 h -3.51 a 0.58,0.58 0 0 1 -0.61,-0.61 0.72,0.72 0 0 1 0.12,-0.48 l 0.37,-0.36 15.37,-15.55 c 0.61,-0.6 0.85,-0.6 1.45,0 l 7.27,7.26 0.6,0.61 v -1.21 c 0,-0.61 0.12,-0.73 0.73,-0.73 h 2.3 c 0.85,0 0.85,0.24 0.85,0.85 v 4.6 a 1.39,1.39 0 0 0 0.36,1 c 1,1 2.06,1.94 3,3 l 0.36,0.37 c 0.27,0.11 0.27,0.47 0.15,0.71 z"
             id="path72"
             inkscape:connector-curvature="0"
             style="fill:#b7b7b7" />
          <path
             class="cls-12"
             d="m 995,573.25 a 3.2,3.2 0 0 0 -4.35,-1.33 3.46,3.46 0 0 0 -1.46,4.12 l -3,3 c 0,-0.48 -0.12,-8 0,-10.41 a 3.37,3.37 0 0 0 1.93,-2.78 2.85,2.85 0 0 0 -0.84,-2.42 l -0.12,-0.12 a 3.26,3.26 0 0 0 -4.6,0.24 3.66,3.66 0 0 0 -0.73,2.9 3.43,3.43 0 0 0 1.82,2.3 v 10.29 l -3,-3 a 3.44,3.44 0 0 0 0,-2.67 4.28,4.28 0 0 0 -1.45,-1.45 3.63,3.63 0 0 0 -3.15,0 3.28,3.28 0 0 0 -1.21,4.36 3.4,3.4 0 0 0 4.11,1.33 l 4.74,4.84 v 4.24 h 2.3 v -4.24 l 4.89,-4.84 c 2.18,0.49 3.51,0 4.23,-1.45 A 3.06,3.06 0 0 0 995,573.25 Z m -16,1.62 a 0.6,0.6 0 0 1 -0.06,0.19 c 0,0 0,0 0,0 a 0.34,0.34 0 0 1 -0.07,0.15 0.76,0.76 0 0 1 -0.2,0.28 1.32,1.32 0 0 1 -1,0.47 h -0.22 a 0.58,0.58 0 0 1 -0.14,0 1,1 0 0 1 -0.28,-0.11 0.54,0.54 0 0 1 -0.16,-0.1 l -0.16,-0.13 -0.14,-0.15 a 1,1 0 0 1 -0.2,-0.37 0.86,0.86 0 0 1 -0.07,-0.21 1.32,1.32 0 0 1 0,-0.56 1.22,1.22 0 0 1 0.09,-0.27 1.37,1.37 0 0 1 1.28,-0.84 1.19,1.19 0 0 1 0.62,0.16 0.56,0.56 0 0 1 0.17,0.09 1.64,1.64 0 0 1 0.25,0.21 0.32,0.32 0 0 1 0.1,0.13 0.69,0.69 0 0 1 0.14,0.25 1.42,1.42 0 0 1 0.11,0.55 1.27,1.27 0 0 1 -0.06,0.26 z m 6,-7.79 a 1.38,1.38 0 0 1 -1.37,-1.17 0.24,0.24 0 0 1 0,-0.08 0.61,0.61 0 0 1 0,-0.14 0.09,0.09 0 0 1 0,-0.05 1.39,1.39 0 0 1 2.78,0 0.09,0.09 0 0 1 0,0.05 0.61,0.61 0 0 1 0,0.14 0.5,0.5 0 0 1 0,0.12 1.05,1.05 0 0 1 0,0.19 1.4,1.4 0 0 1 -1.41,0.94 z m 7.33,8.91 a 1.4,1.4 0 1 1 1.39,-1.4 1.4,1.4 0 0 1 -1.37,1.41 z"
             id="path74"
             inkscape:connector-curvature="0"
             style="fill:#00adee" />
        </g>
        <g
           id="text857">
          <path
             id="path1974"
             class="cls-12"
             d="m 854,578 a 4.5,4.5 0 0 0 -1.7,-2.18 4.88,4.88 0 0 0 -2.66,-0.72 3.34,3.34 0 0 0 -1.94,0.48 4.87,4.87 0 0 0 -1.45,1.33 v -1.61 h -1.82 v 16.34 h 1.94 v -5.81 a 3.71,3.71 0 0 0 1.33,1.09 4.92,4.92 0 0 0 1.82,0.36 5.11,5.11 0 0 0 2.54,-0.72 4.93,4.93 0 0 0 1.94,-2.18 9.33,9.33 0 0 0 0.6,-3.27 A 8.66,8.66 0 0 0 854,578 Z m -2.3,6.78 a 3,3 0 0 1 -2.3,1.09 2.73,2.73 0 0 1 -2.18,-1.09 5.1,5.1 0 0 1 -1,-3.39 4.55,4.55 0 0 1 1,-3.39 3,3 0 0 1 2.3,-1.21 2.77,2.77 0 0 1 2.18,1.09 5.43,5.43 0 0 1 1,3.39 5.55,5.55 0 0 1 -1,3.47 z"
             inkscape:connector-curvature="0"
             style="fill:#00adee" />
          <path
             id="path1976"
             class="cls-12"
             d="m 865.86,576.63 a 5.37,5.37 0 0 0 -4,-1.57 5.67,5.67 0 0 0 -3.76,1.33 6.12,6.12 0 0 0 -1.81,4.84 5.85,5.85 0 0 0 1.69,4.6 5,5 0 0 0 4,1.58 5.66,5.66 0 0 0 2.78,-0.73 5.34,5.34 0 0 0 1.94,-2.06 7.8,7.8 0 0 0 0.73,-3.63 6.37,6.37 0 0 0 -1.57,-4.36 z m -1.57,8 a 3,3 0 0 1 -2.42,1.09 3.14,3.14 0 0 1 -2.55,-1.09 5.43,5.43 0 0 1 -1,-3.39 4.83,4.83 0 0 1 1,-3.27 3.53,3.53 0 0 1 2.55,-1.09 3.07,3.07 0 0 1 2.42,1.09 5.06,5.06 0 0 1 1,3.27 5.43,5.43 0 0 1 -1,3.38 z"
             inkscape:connector-curvature="0"
             style="fill:#00adee" />
          <path
             id="path1978"
             class="cls-12"
             d="m 871.91,587.16 -3.63,-11.74 h 2.06 l 1.82,6.78 0.72,2.54 c 0,-0.12 0.25,-1 0.61,-2.42 l 1.81,-6.9 h 2.06 l 1.82,6.78 0.6,2.3 0.73,-2.3 2.06,-6.78 h 1.93 l -3.63,11.74 h -2.06 l -1.81,-7 -0.49,-2.06 -2.42,9.08 z"
             inkscape:connector-curvature="0"
             style="fill:#00adee" />
          <path
             id="path1980"
             class="cls-12"
             d="m 896.37,581 a 6.47,6.47 0 0 0 -1.45,-4.48 4.94,4.94 0 0 0 -3.88,-1.57 5.29,5.29 0 0 0 -4,1.69 6.25,6.25 0 0 0 -1.58,4.6 6.43,6.43 0 0 0 1.46,4.48 5.27,5.27 0 0 0 4.11,1.57 6,6 0 0 0 3.39,-1 5.19,5.19 0 0 0 1.82,-2.79 l -2.06,-0.24 a 2.44,2.44 0 0 1 -1.33,1.69 3,3 0 0 1 -1.82,0.61 3,3 0 0 1 -2.42,-1.09 5.29,5.29 0 0 1 -1.09,-3 h 8.84 z m -8.72,-0.85 a 3,3 0 0 1 1.09,-2.42 3.13,3.13 0 0 1 2.3,-1 3.17,3.17 0 0 1 2.42,1.21 4.53,4.53 0 0 1 0.73,2.18 z"
             inkscape:connector-curvature="0"
             style="fill:#00adee" />
          <path
             id="path1982"
             class="cls-12"
             d="m 898.79,587.16 v -11.74 h 1.81 v 1.7 a 7.57,7.57 0 0 1 1.22,-1.7 2.43,2.43 0 0 1 1.33,-0.36 4.53,4.53 0 0 1 2.06,0.6 l -0.73,1.82 a 3.27,3.27 0 0 0 -1.45,-0.36 2,2 0 0 0 -1.21,0.36 1.72,1.72 0 0 0 -0.73,1.09 7.07,7.07 0 0 0 -0.36,2.3 V 587 h -1.94 z"
             inkscape:connector-curvature="0"
             style="fill:#00adee" />
          <path
             id="path1984"
             class="cls-12"
             d="m 916.58,581 a 6.42,6.42 0 0 0 -1.45,-4.48 4.93,4.93 0 0 0 -3.87,-1.57 5.11,5.11 0 0 0 -4,1.69 6.25,6.25 0 0 0 -1.57,4.6 6.42,6.42 0 0 0 1.45,4.48 5.3,5.3 0 0 0 4.12,1.57 6,6 0 0 0 3.39,-1 5.18,5.18 0 0 0 1.81,-2.79 l -2.05,-0.24 a 2.45,2.45 0 0 1 -1.34,1.69 2.92,2.92 0 0 1 -1.81,0.61 3,3 0 0 1 -2.42,-1.09 5.29,5.29 0 0 1 -1.09,-3 h 8.83 z m -8.71,-0.85 a 3.47,3.47 0 0 1 1.09,-2.42 3.11,3.11 0 0 1 2.3,-1 3.18,3.18 0 0 1 2.42,1.21 4.75,4.75 0 0 1 0.73,2.18 z"
             inkscape:connector-curvature="0"
             style="fill:#00adee" />
          <path
             id="path1986"
             class="cls-12"
             d="m 926.63,571.06 v 5.81 a 3.18,3.18 0 0 0 -1.33,-1.21 3.57,3.57 0 0 0 -1.94,-0.48 5.24,5.24 0 0 0 -2.66,0.72 3.44,3.44 0 0 0 -1.69,2.18 8,8 0 0 0 -0.61,3.15 6.9,6.9 0 0 0 0.61,3.15 4.63,4.63 0 0 0 1.81,2.18 4.52,4.52 0 0 0 2.54,0.72 3.46,3.46 0 0 0 3.27,-1.69 v 1.69 h 1.94 v -16.22 z m -0.85,13.56 c -1.33,1.57 -5.44,2.42 -5.44,-3.39 a 5.13,5.13 0 0 1 1,-3.39 2.76,2.76 0 0 1 2.17,-1.09 2.82,2.82 0 0 1 2.3,1.09 5.51,5.51 0 0 1 1,3.51 5,5 0 0 1 -1.03,3.27 z"
             inkscape:connector-curvature="0"
             style="fill:#00adee" />
          <path
             id="path1988"
             class="cls-12"
             d="m 947.82,578.69 a 7.64,7.64 0 0 0 -1,-1.94 3.92,3.92 0 0 0 -1.58,-1.21 4,4 0 0 0 -2,-0.48 3.91,3.91 0 0 0 -3.27,1.57 v -5.81 H 938 v 16.34 h 1.82 v -1.33 a 4,4 0 0 0 3.27,1.7 4.72,4.72 0 0 0 3.63,-1.7 6.87,6.87 0 0 0 1.45,-4.72 7.87,7.87 0 0 0 -0.35,-2.42 z m -2.55,5.93 a 3.14,3.14 0 0 1 -2.3,1.09 3,3 0 0 1 -2.54,-1.57 6.06,6.06 0 0 1 -0.6,-3 4.41,4.41 0 0 1 1,-3.27 3.18,3.18 0 0 1 2.3,-1.09 2.76,2.76 0 0 1 2.17,1.09 5.13,5.13 0 0 1 1,3.39 5.37,5.37 0 0 1 -1.03,3.36 z"
             inkscape:connector-curvature="0"
             style="fill:#00adee" />
          <path
             id="path1990"
             class="cls-12"
             d="m 950.48,591.64 -0.24,-1.81 a 4.2,4.2 0 0 0 1.09,0.12 2.48,2.48 0 0 0 1.09,-0.24 1.53,1.53 0 0 0 0.6,-0.61 10.34,10.34 0 0 0 0.61,-1.45 c 0,-0.12 0.12,-0.24 0.12,-0.49 l -4.48,-11.74 h 2.18 l 2.42,6.78 a 19.19,19.19 0 0 1 0.85,2.78 17.6,17.6 0 0 1 0.84,-2.66 l 2.55,-6.9 H 960 l -4.48,12 a 27.85,27.85 0 0 1 -1.08,2.66 4.9,4.9 0 0 1 -1.22,1.45 2.55,2.55 0 0 1 -1.69,0.49 c -0.08,-0.14 -0.53,-0.14 -1.05,-0.38 z"
             inkscape:connector-curvature="0"
             style="fill:#00adee" />
        </g>
      </g>
    </g>
  </g>
  <text
     style="font-size:364.06115723px;font-family:DigitalDismay, 'Digital Dismay';fill:#00adee;stroke-width:0.95916629"
     inkscape:label="#text92"
     id="sensor.clock_time"
     transform="scale(0.9591663,1.0425721)"
     class="cls-14"
     x="35.353619"
     y="395.32999">10:36</text>
  <text
     y="625.85303"
     x="-218.47479"
     style="font-size:59.7784729px;font-family:HelveticaNeue-Thin, 'Helvetica Neue';isolation:isolate;fill:#808080;stroke-width:0.80401444"
     inkscape:label="#text99"
     id="sensor.clock_day"
     transform="scale(1.2221995,0.81819703)"
     class="cls-15">
    <tspan
       style="stroke-width:0.80401444"
       id="tspan97"
       y="625.85303"
       x="5.7568088">WedNesDay</tspan>
  </text>
  <text
     y="564.97296"
     x="-209.47984"
     style="font-size:59.20783234px;font-family:HelveticaNeue-Thin, 'Helvetica Neue';isolation:isolate;fill:#808080;stroke-width:0.79633939"
     inkscape:label="#text99"
     id="sensor.clock_date"
     transform="scale(0.97617632,1.0244051)"
     class="cls-15">
    <tspan
       style="stroke-width:0.79633939"
       id="tspan97-2"
       y="564.97296"
       x="12.611246">November 33</tspan>
  </text>
  <line
     class="cls-17"
     x1="817.6"
     y1="117.22"
     x2="1007.8"
     y2="117.22"
     id="line102" />
  <line
     class="cls-17"
     x1="817.6"
     y1="104.45"
     x2="1007.8"
     y2="104.45"
     id="line104" />
  <line
     class="cls-17"
     x1="817.6"
     y1="14.55"
     x2="1007.8"
     y2="14.55"
     id="line106" />
  <line
     class="cls-17"
     x1="817.6"
     y1="218.7"
     x2="1007.8"
     y2="218.7"
     id="line108" />
  <line
     class="cls-17"
     x1="817.6"
     y1="230.9"
     x2="1007.8"
     y2="230.9"
     id="line110" />
  <line
     class="cls-17"
     x1="817.6"
     y1="339.87"
     x2="1007.8"
     y2="339.87"
     id="line112" />
  <line
     class="cls-17"
     x1="817.6"
     y1="451.05"
     x2="1007.8"
     y2="451.05"
     id="line114" />
  <line
     class="cls-17"
     x1="817.6"
     y1="538.95"
     x2="1007.8"
     y2="538.95"
     id="line116" />
  <rect
     class="cls-2"
     x="817.6"
     y="14.55"
     width="190.2"
     height="89.9"
     id="rect118" />
  <rect
     class="cls-2"
     x="817.6"
     y="118.05"
     width="189.7"
     height="99.77"
     id="rect120" />
  <rect
     class="cls-2"
     x="817.6"
     y="231.41"
     width="189.7"
     height="107.91"
     id="rect122" />
  <text
     class="cls-18"
     transform="translate(818.84 73.86) scale(0.92 1)"
     id="text128">SNO<tspan
   class="cls-19"
   x="108.74"
   y="0"
   id="tspan124">O</tspan>
<tspan
   x="146.79"
   y="0"
   id="tspan126">ZE</tspan>
</text>
  <g
     class="cls-11"
     id="g132" />
  <text
     class="cls-20"
     transform="translate(695.83 134.45) scale(0.92 1)"
     id="sensor.clock_am_pm"
     inkscape:label="#text134">pM</text>
  <text
     inkscape:label="#text136"
     style="font-size:45.62754059px;font-family:Helvetica-Light, Helvetica;fill:#808080;stroke-width:0.95916629"
     id="sensor.dark_sky_temperature"
     transform="scale(0.9591663,1.0425721)"
     class="cls-21"
     x="110.77328"
     y="70.267387">72</text>
  <rect
     class="cls-23"
     x="817.09998"
     y="118.05"
     width="190.2"
     height="99.770012"
     id="camera.stone_door"
     style="fill:#333333;stroke-width:1.07180333"
     inkscape:label="#rect140" />
  <rect
     style="opacity:1;fill:#cccccc;fill-opacity:1;stroke:none;stroke-width:1.82640147;stroke-miterlimit:4;stroke-dasharray:none;stroke-dashoffset:0;stroke-opacity:0.44041449"
     id="sensor.dark_sky_minutely_summary_icon"
     width="78.032913"
     height="68.748512"
     x="12.343694"
     y="8.7206402"
     inkscape:label="#rect395" />
  <rect
     class="cls-23"
     x="817.59998"
     y="230.89999"
     width="190.2"
     height="99.770012"
     id="camera.wu_doppler_weather"
     style="fill:#333333;stroke-width:1.07180333"
     inkscape:label="#rect140" />
  <text
     inkscape:label="#text136"
     style="font-size:45.62754059px;font-family:Helvetica-Light, Helvetica;fill:#808080;stroke-width:0.95916629"
     id="sensor.dark_sky_minutely_summary"
     transform="scale(0.95916628,1.0425721)"
     class="cls-21"
     x="199.62764"
     y="69.323845">Hell Fire for the next hour</text>
</svg>
