<?xml version="1.0" encoding="UTF-8" standalone="no"?>
<svg
   xmlns:dc="http://purl.org/dc/elements/1.1/"
   xmlns:cc="http://creativecommons.org/ns#"
   xmlns:rdf="http://www.w3.org/1999/02/22-rdf-syntax-ns#"
   xmlns:svg="http://www.w3.org/2000/svg"
   xmlns="http://www.w3.org/2000/svg"
   xmlns:sodipodi="http://sodipodi.sourceforge.net/DTD/sodipodi-0.dtd"
   xmlns:inkscape="http://www.inkscape.org/namespaces/inkscape"
   viewBox="0 0 1024 600"
   version="1.1"
   id="svg559"
   sodipodi:docname="floorplan.svg"
   inkscape:version="0.92.1 r15371">
  <metadata
     id="metadata563">
    <rdf:RDF>
      <cc:Work
         rdf:about="">
        <dc:format>image/svg+xml</dc:format>
        <dc:type
           rdf:resource="http://purl.org/dc/dcmitype/StillImage" />
      </cc:Work>
    </rdf:RDF>
  </metadata>
  <sodipodi:namedview
     pagecolor="#ffffff"
     bordercolor="#666666"
     borderopacity="1"
     objecttolerance="10"
     gridtolerance="10"
     guidetolerance="10"
     inkscape:pageopacity="0"
     inkscape:pageshadow="2"
     inkscape:window-width="1600"
     inkscape:window-height="867"
     id="namedview561"
     showgrid="false"
     inkscape:zoom="1.0712891"
     inkscape:cx="512"
     inkscape:cy="300"
     inkscape:window-x="1122"
     inkscape:window-y="1071"
     inkscape:window-maximized="1"
     inkscape:current-layer="Automation" />
  <defs
     id="defs12">
    <style
       id="style10">.cls-1{fill:#231f26;}.cls-2,.cls-24{fill:#3d3b3f;}.cls-3{fill:#9a9a9b;}.cls-4{isolation:isolate;}.cls-17,.cls-4{font-size:10px;fill:#757575;}.cls-17,.cls-20,.cls-21,.cls-24,.cls-28,.cls-33,.cls-34,.cls-4{font-family:Helvetica-Bold, Helvetica;}.cls-17,.cls-20,.cls-21,.cls-24,.cls-28,.cls-29,.cls-33,.cls-34,.cls-4{font-weight:700;}.cls-27,.cls-5{fill:#00adee;}.cls-6{fill:#616262;}.cls-7{fill:#fff;}.cls-8{fill:#071010;}.cls-9{fill:#979797;}.cls-10{fill:#071011;}.cls-11{fill:none;}.cls-12{fill:#939393;}.cls-13,.cls-25,.cls-29,.cls-35{fill:#ffffa6;}.cls-14{fill:#5b5a5b;}.cls-15{fill:#050405;}.cls-16{fill:#c4c4c4;}.cls-18{letter-spacing:-0.02em;}.cls-19{letter-spacing:-0.07em;}.cls-20{font-size:28px;}.cls-20,.cls-32{fill:#29d9c2;}.cls-21,.cls-24{font-size:20.08px;}.cls-21,.cls-23,.cls-28,.cls-34{fill:#bdf271;}.cls-22{letter-spacing:-0.02em;}.cls-25{font-size:19.32px;}.cls-25,.cls-35{font-family:Helvetica, Helvetica;}.cls-26{fill:#6d6d6d;}.cls-27{font-size:15.13px;font-family:Helvetica-Light, Helvetica;}.cls-28{font-size:31.24px;letter-spacing:0em;}.cls-29{font-size:25.55px;font-family:HelveticaNeue-CondensedBold, Helvetica Neue;}.cls-30,.cls-33{fill:#e7376b;}.cls-31{fill:#a49a87;}.cls-33,.cls-34{font-size:20.33px;}.cls-35{font-size:14px;}.cls-36{letter-spacing:-0.05em;}.cls-37{letter-spacing:0em;}.cls-38{letter-spacing:-0.02em;}.cls-39{letter-spacing:-0.02em;}.cls-40{letter-spacing:-0.07em;}.cls-41{letter-spacing:-0.04em;}.cls-42{letter-spacing:-0.07em;}.cls-43{letter-spacing:-0.02em;}.cls-44{letter-spacing:-0.11em;}</style>
  </defs>
  <title
     id="title14">Artboard 1</title>
  <g
     id="Floor_Plan"
     data-name="Floor Plan">
    <rect
       id="Background"
       class="cls-1"
       width="1024"
       height="600" />
    <g
       id="Second_Floor"
       data-name="Second Floor">
      <g
         id="Scond_Floor_Plan"
         data-name="Scond Floor Plan">
        <path
           id="path2580"
           class="cls-2"
           d="M175.56,478l-33.81.26-.08-10.73-1.84,0,.1,10.71-9.76.08,0,2.84,6,0,.12,15.71L69,497.39l0,1.91-19,.15,0-5.39H48l-.15-18.93H49.8l-.34-43.26,50.74-.4,1.48-1.6-1.39-1.29-1,1L49.4,430l-.15-17.49H47.33l-.16-18.92,1.93,0-.16-18,62.83-.49,0,6.1h1.73l0-5.19,11.56-.09.24,33-11.55.09-.06-8.1H112l.12,14.93-.73.77,1.36,1.24.43-.46,13,12,1.29-1.39L127.08,386l28.82-.23.45,54.72-15.54.12-3.42-3.2-1.25,1.34,3.45,3.2.11,11.54h1.86l-.09-11,38-.3.12,15.08,33.23-.26.54,68.28-37.45.29L175.56,478" />
        <path
           id="path2578"
           class="cls-3"
           d="M130.29,478.49l9.75-.08-.1-10.75,1.84,0,.08,10.76,33.76-.26.37,47.74,37.39-.29-.54-68.51-33.18.26-.12-15.13-38,.3.09,11.05h-1.86L139.7,442l-3.44-3.21.06-.08,1.19-1.27,3.41,3.21,15.51-.12-.45-54.9-28.78.23.38,42.28,0,0,0,0-1.25,1.34-13-12.09-.43.46-1.36-1.25.73-.77-.12-15h1.72l.06,8.12,11.53-.09-.24-33.14-11.54.09,0,5.21H112l0-6.12-62.73.49.16,18-3.85,0-.19-21.85L129,371l.09,11,30.71-.24.46,56.75,23.1-.18.12,15.15,33.17-.26.6,76.16-45.06.35L171.82,482l-31.78.25v-1l-9.72.08,0-2.85M45.84,433.87l-.18-21.39,3.83,0L49.65,430l49.85-.44.94-1,0,0,1.36,1.25-1.47,1.61-50.67.4.34,43.4-3.88,0-.32-41.41m77.78-21.11-7.56.06,0,1.95,7.63,7.1-.09-9.11M46.37,501.6l-.06-7.33,3.88,0,.06,7.33-3.88,0m92-.72-69.11.54,0-3.83,69.11-.54,0,3.83" />
      </g>
      <g
         id="climate.downstairs-3-8-2-5">
        <text
           class="cls-4"
           transform="translate(49.97 518.86)"
           id="text20">SECOND FLOOR</text>
      </g>
      <g
         id="Doors">
        <path
           class="cls-5"
           d="M101.43,429.12A15.84,15.84,0,0,1,99,408l11.83,10.55,1.06-1.19-12-10.74a16,16,0,0,0,1.39,22.66Z"
           id="path23" />
        <path
           class="cls-5"
           d="M136.83,438a13.08,13.08,0,0,1-17.57,1.17l8.9-9.39-1-.92-9.05,9.55a13.28,13.28,0,0,0,18.82-.3Z"
           id="path25" />
        <path
           class="cls-5"
           d="M141,467.82a13.84,13.84,0,0,1-13.78-12.51H141v-1.41H127A14,14,0,0,0,141,468Z"
           id="path27" />
      </g>
      <g
         id="up_stairs"
         data-name="up stairs">
        <rect
           class="cls-6"
           x="130.44"
           y="479.6"
           width="45.41"
           height="18.32"
           id="rect30" />
        <path
           d="M172.24,479.42h-42v18.68H176V479.42ZM134,497.74h-3.4v-18H134Zm3.79,0h-3.4v-18h3.4Zm3.79,0h-3.4v-18h3.4Zm3.79,0H142v-18h3.4Zm3.79,0h-3.41v-18h3.41Zm3.79,0h-3.4v-18H153Zm3.79,0h-3.4v-18h3.4Zm3.79,0h-3.4v-18h3.4Zm3.79,0h-3.41v-18h3.41Zm3.79,0h-3.41v-18h3.41Zm3.79,0h-3.4v-18h3.4Zm3.79,0h-3.4v-18h3.4Z"
           id="path32" />
        <path
           class="cls-5"
           d="M167.51,488.75l4.14-2.26-.27,1.24h2.18v2.13h-2.11l.2,1.17Z"
           id="path34" />
      </g>
      <g
         id="US_bathroom_icon"
         data-name="US bathroom icon">
        <path
           class="cls-5"
           d="M140.11,403.54a2.4,2.4,0,1,0-2.4,2.41A2.4,2.4,0,0,0,140.11,403.54Z"
           id="path37" />
        <path
           class="cls-5"
           d="M145.09,403.54a2.4,2.4,0,1,0,2.4-2.4h0A2.41,2.41,0,0,0,145.09,403.54Z"
           id="path39" />
        <path
           class="cls-5"
           d="M143,417.43h0a9.49,9.49,0,0,0,2.63,1.14l.45,3.62a1,1,0,0,0,1,.93h.72a1,1,0,0,0,1-.93l.44-3.62a9.48,9.48,0,0,0,2.66-1.15,1.06,1.06,0,0,0,.45-1.24L150,408.85a2.46,2.46,0,0,0-2.34-1.69h-.39a2.46,2.46,0,0,0-2.34,1.69l-2.42,7.35A1.06,1.06,0,0,0,143,417.43Z"
           id="path41" />
        <path
           class="cls-5"
           d="M133.85,410.31l.06,3.56a1.24,1.24,0,0,0,.63,1.06l.72.4.86,7a.93.93,0,0,0,.92.82h1.33a.93.93,0,0,0,.92-.82l.86-7,.72-.4a1.24,1.24,0,0,0,.62-1.06l.06-3.56a3.11,3.11,0,0,0-3.06-3.16H137a3.11,3.11,0,0,0-3.11,3.11S133.85,410.3,133.85,410.31Z"
           id="path43" />
      </g>
      <g
         id="Closet_Doors"
         data-name="Closet Doors">
        <path
           class="cls-5"
           d="M112.57,399.69l-5.5-2.64,5.48-2.75-.3-1.16c-2,1-6.25,3-6.25,3v1.6l6.39,3.06Z"
           id="path46" />
        <path
           class="cls-5"
           d="M112.57,388.13l-5.5-2.64,5.48-2.75-.3-1.16c-2,1-6.25,3-6.25,3v1.6l6.39,3.06Z"
           id="path48" />
      </g>
    </g>
    <g
       id="First_Floor"
       data-name="First Floor">
      <g
         id="Floor_Plan-2"
         data-name="Floor Plan">
        <path
           id="Floor_Plan_BG"
           data-name="Floor Plan BG"
           class="cls-2"
           d="M748.53,294.43v-32h-2.65V187.92H698.35V185.4l47.43,0V166.29h2.62V149.36h-2.62l0-52.46h2.64V80h-2.64V66.49H651.39V63.85H634.47v2.64h-3.12V63.85H614.43v2.64H600.56V79.7h-2.64v40.54h2.64v43.91h2.61v2.61H600.8V167l-2.44,0v-.4h-.84v-7.55H582.93v-2.65l-56.41,0v2.65H505.16v.1h-5l-10.45-10.75,1.88-1.84-11.81-12.14-1.88,1.84-2.48-2.54h-4.57v-2.65H454v2.65H438.82L420.41,152.2l0,39.87h-8.78v-2.65H394.32v2.65H382.91c0,.32.11,27.31.11,27.63h22.64v52.72h-2.22V220.19H369v-2.52l2-2.09,2.64,0,0-24.3-2.65,0V189l12,0V160.41l9.92-9.84h5.21v2.64h16.93v-2.64h3.4l19.28-19.3h7.73V58.11H419.35V55.47l-16.93,0v2.65H363.23V60h-2.54v-2l-23.57,0V55.32l-18.37,0,0,2.64-41,0,.06,37.2,25.55-.09V96l57.32,0,0-19.07h2.54V191.28h-3.68v-2.54h1.14l0-90.59-82.87,0v71.72H275.2v16.93h2.64v31h28.72l0-29h29.94v2.54H309.1l0,26.37h22.71v2.65h1.86v.1H277.84v50.52H275.2v16.93h2.64v35.42h44v2.63H318v26.51l39,0,0-26.49H355.7v-2.63h1.2V220.4h-2.79v-2.64h-4v-.09h9.29v73.77h44v-3.15h2.22V294H359.49v58.4H383.1V355H315.62V329H282.9V497.44h5.88v2.64H394v-2.64H404.5v-19.6h11.19v2.64h52.19v-2.64h1.52V363.1h-6.09V355h-62v-2.58h5v-.14h5.08v-2.6h55.24v-8.21h11.61v-1.19l-2.65,0c-2.58-.06-2.65-.07-2.72-.51l-.06-.45H411.38V314.46H409v22.22H406.3v-.12h-2.65l0-27.47h2l70,0,0,25.82h8l0,9.33v2.59H471.92l0,131.2h20.29v2.65h26.18V478H532.7v2.65h26.22V478h19.4V450.54h3v2.64l46.47,0,0-2.64h2.45V442.6h4.32v-2.32h2.64v-3.22h.7V474h18.77v2.64h26.2V474H698v2.64h26.22V474h22l0-127.23-107.29,0v48.1h-1v10h-.68v-6.9h-2.64v-2.33h-5.27v-3.47h6.22V346.76h-5.73v-2.54h19.4l-.06-156.07-50.7,0v-4.1l2.43,0v1.73l27.15-.06.06-13.67-.38-5.4h-2.92v-2.5h5.59l0,21.25,44.23,0v2.52h-4v.23H668v29.61h2.64v9.9H651.69v52h27.19v2.56H651.69v28.1h25.54V294.43h3.83V297h-1.29v15.89h-28v31.32H746V297H700.6v-2.54ZM589,346.76H577.86l-2.65.09H502.67v-2.59l0-124.56h2.51v-2.64h0l0,127.18,83.84,0Z" />
        <path
           id="Floor_Plan_Outline"
           data-name="Floor Plan Outline"
           class="cls-3"
           d="M337.1,52.71l0,5.25,23.57,0v2h2.54v-1.9h39.19V52.71ZM631.35,61.2v5.29h3.12V61.2Zm-36.08,0V79.7h5.29V66.49h13.87V61.2Zm56.12,0v5.29h94.37V80h5.67V61.2ZM477.68,128.52h-6.8v5.29h4.57l2.48,2.54,3.79-3.69ZM751.45,96.9h-5.69l0,52.46,5.69,0Zm-249.14,57-8.78-9-3.79,3.68,10.45,10.75h5v-.1h21.36v-5.29Zm100.86,10.3h-2.61V120.24h-5.29v33.59H582.93v5.29h14.59v7.55h.84v.4l2.44,0v-.29h2.37l0-2.54h0ZM360.69,76.92l0,19.07-57.32,0v-.89l-25.55.09L277.78,58l41,0,0-5.27-46.26,0,.06,40.1v77h5.29V98.13l82.87,0,0,90.59h-1.14v2.54h3.68V76.92Zm385.09,89.37v19.09l-47.43,0v2.52h47.53v74.49h5.61V166.27ZM336.52,188.74H306.58l0,29H277.84v-31h-5.29v84.14h5.29V220.4h54v-2.75H309.12l0-26.37h27.42Zm66.92,36.15v47.53h2.22V224.89Zm67.06,84.22-64.84,0h-2l0,27.47h5.29l0-22.18,61.58,0Zm34.71,35.13,0-127.18h0v7.83h-2.51l0,119.27v2.69h72.65v-.09H589v-2.54Zm219,135h27.3l0-137.81v-47H700.6V297H746v47.21H651.73V312.86h28V297h1.29v-2.54h-3.83v15.89H651.69v-28.1h27.19v-2.56H651.69v-52h18.94v-9.9h-5.29v4.61H654.42l0-31.66,8.4,0v-2.54h7.83v-.23h4V185.4l-44.23,0,0-21.25h-5.59v2.5h2.92l.38,5.4L628,185.74l-27.15.06v-1.73l-2.43,0v4.1l50.7,0,.06,156.07h-19.4v2.54h5.73v45.33h-6.22v3.47h5.27v2.33h3.32v-3.07h1v-48.1l107.29,0,0,127.23h-22ZM682.86,474v5.29H698V474Zm-45,0V440.28h-3.34v2.32h-4.32v7.92h-2.45l0,5.29h4.8v23.45h24.06V474Zm-60-23.43V478H558.92v5.29h21.69V455.83h.72v-5.29ZM518.41,478v5.29H532.7V478Zm-46.47,0,0-131.2h11.74v-2.69l0-9.23H473v5.29h5.33v1.33H466.63v8.17H411.48v2.71H401.3V355h62v8.09h6.09V477.84h-1.52v5.5h24.35V478Zm-67.44-.21v19.6H394v5.29h15.83V483.34h5.9v-5.5ZM405.66,294v-5.74h-2.22v3.15h-44V217.67h-5.31v2.73h2.79V323.27h-1.2v2.63h1.37l0,26.49-39,0V325.9h3.81v-2.63h-44V287.85h-5.29v40.71h5.06V502.73h11.17v-5.29H282.9V329h32.72v26H383.1v-2.58H359.49V294ZM383,220.19H369v-1.25c0-1.22,0-1.27,1-2.3s1.07-1.05,2.3-1.05h1.29V212c4.69,0,9.36-5.84,9.36-5.84ZM454,128.52v5.29H438.82L420.41,152.2l0,39.87h-8.78v-5.29h3.49V182.9H388.31v3.88h6v5.29H378.87v-.77l.58.38v-2.32L383,189V160.41l9.92-9.84h5.21v5.29h-3l-6.81,6.75v17.75h26.83l0-24.5h0v-5.29h3.4l19.28-19.3h7.73V58.11H419.35V52.69h31.43v75.83Z" />
      </g>
      <g
         id="Sliding_Glass_Doors"
         data-name="Sliding Glass Doors">
        <path
           id="path13662"
           class="cls-6"
           d="M526.68,157.81c0,.25,0,.51,0,.76l28.2,0c0-.26,0-.51,0-.76l-28.2,0Z" />
        <path
           id="path13666"
           class="cls-5"
           d="M530.06,157.81c0,.25,0,.51,0,.76l21.44,0c0-.25,0-.51,0-.76H530.06Z" />
        <path
           id="path13664"
           class="cls-6"
           d="M583.09,157l-28.2,0c0,.26,0,.51,0,.76l28.2,0C583.09,157.52,583.09,157.27,583.09,157Z" />
        <path
           id="path13668"
           class="cls-5"
           d="M558.27,157c0,.25,0,.51,0,.76l21.43,0c0-.25,0-.51,0-.76Z" />
        <path
           id="path13726"
           class="cls-6"
           d="M599.25,120.16H600q0-10.15,0-20.29h-.76q0,10.14,0,20.29Z" />
        <path
           id="path13730"
           class="cls-5"
           d="M599.25,117.72H600q0-7.71,0-15.42h-.76Q599.26,110,599.25,117.72Z" />
        <path
           id="path13728"
           class="cls-6"
           d="M598.46,79.58q0,10.15,0,20.29h.76q0-10.15,0-20.29h-.76Z" />
        <path
           id="path13732"
           class="cls-5"
           d="M598.46,97.43h.76q0-7.71,0-15.42h-.76q0,7.71,0,15.42Z" />
      </g>
      <g
         id="Doors-2"
         data-name="Doors">
        <g
           id="Front_Doors"
           data-name="Front Doors">
          <g
             id="path13766">
            <path
               class="cls-5"
               d="M626.66,432.1q0-1.7,0-3.41"
               id="path64" />
            <rect
               class="cls-5"
               x="626.41"
               y="428.69"
               width="0.5"
               height="3.41"
               transform="translate(-1.35 1.98) rotate(-0.18)"
               id="rect66" />
          </g>
          <g
             id="path13768">
            <path
               class="cls-5"
               d="M604,451.92a23.21,23.21,0,0,1,6.94-16.61,23.68,23.68,0,0,1,16.77-6.88v.5a23.18,23.18,0,0,0-16.42,6.74,22.71,22.71,0,0,0-6.8,16.25Z"
               id="path69" />
          </g>
          <g
             id="path13770">
            <path
               class="cls-5"
               d="M604,451.92a22.89,22.89,0,0,0-22.75-23h0v-.5h0a23.39,23.39,0,0,1,23.25,23.48Z"
               id="path72" />
          </g>
          <g
             id="path13772">
            <path
               class="cls-5"
               d="M626.67,451.85q0-1.7,0-3.41"
               id="path75" />
            <rect
               class="cls-5"
               x="626.41"
               y="448.44"
               width="0.5"
               height="3.41"
               transform="translate(-1.41 1.98) rotate(-0.18)"
               id="rect77" />
          </g>
          <g
             id="path13774">
            <path
               class="cls-5"
               d="M582.41,432.11q0-1.7,0-3.41"
               id="path80" />
            <rect
               class="cls-5"
               x="582.15"
               y="428.7"
               width="0.5"
               height="3.41"
               transform="translate(-1.35 1.84) rotate(-0.18)"
               id="rect82" />
          </g>
          <g
             id="path13776">
            <path
               class="cls-5"
               d="M582.42,451.85q0-1.7,0-3.41"
               id="path85" />
            <rect
               class="cls-5"
               x="582.16"
               y="448.45"
               width="0.5"
               height="3.41"
               transform="translate(-1.42 1.84) rotate(-0.18)"
               id="rect87" />
          </g>
          <g
             id="path13778">
            <path
               class="cls-7"
               d="M626.67,432.17l0,16.49"
               id="path90" />
            <polygon
               class="cls-8"
               points="626.9 448.67 626.4 448.67 626.42 432.17 626.92 432.17 626.9 448.67"
               id="polygon92" />
          </g>
          <g
             id="path13780">
            <path
               class="cls-9"
               d="M582.42,432.18q0,8.25,0,16.49"
               id="path95" />
            <polygon
               class="cls-10"
               points="582.64 448.68 582.14 448.68 582.17 432.18 582.67 432.18 582.64 448.68"
               id="polygon97" />
          </g>
        </g>
        <path
           class="cls-5"
           d="M701.41,294.82a20.22,20.22,0,0,1-18.14,20.23l0-20.21h-2l0,20.56a20.45,20.45,0,0,0,20.43-20.58Z"
           id="path101" />
        <path
           class="cls-5"
           d="M624.39,164.4a20.22,20.22,0,0,0-18.14-20.23l0,20.21h-2l0-20.56a20.45,20.45,0,0,1,20.43,20.58Z"
           id="path103" />
        <path
           class="cls-5"
           d="M405.36,336a16.64,16.64,0,0,0-16.81,16.48h15q0,.88,0,1.75h1.82V336ZM389.8,350.86a15.23,15.23,0,0,1,13.73-13.54q0,6.77,0,13.54Z"
           id="path105" />
        <path
           class="cls-5"
           d="M382.43,353.82a20.22,20.22,0,0,0,18.14,20.23l0-20.21h2l0,20.56a20.45,20.45,0,0,1-20.43-20.58Z"
           id="path107" />
        <path
           class="cls-5"
           d="M405,309.8a15.74,15.74,0,0,1-15.63-14.29l15.62,0v-1.61l-15.88,0A16,16,0,0,0,405,310Z"
           id="path109" />
        <path
           class="cls-11"
           d="M371,215.59h1.29c-1.23,0-1.25,0-2.3,1.05Z"
           id="path111" />
        <path
           class="cls-11"
           d="M382.39,207.18l.38-.68-.31.62a7.57,7.57,0,0,1-2,2.41A8.77,8.77,0,0,0,382.39,207.18Z"
           id="path113" />
        <path
           class="cls-11"
           d="M383,206.08v5.46a4.84,4.84,0,0,1,0,.53c0-1.63,0-3.59,0-5.92Z"
           id="path115" />
        <path
           id="path5058"
           class="cls-3"
           d="M382.4,199.68a9.43,9.43,0,0,0-7.5-4.8l-1.15-.14v-3.34l-1.35-.06-1.35-.06-.06-1.15-.06-1.15,5.26,0a32.94,32.94,0,0,1,4.21.11l-1.05.07v1.11c0,.91-.06,1.09-.3,1s-.3,0-.3.38,0,.49,2.1.49H383v4.2c0,2.31,0,4.2-.06,4.2a5.22,5.22,0,0,1-.5-.9Z" />
        <path
           class="cls-5"
           d="M339.39,58.4a20.22,20.22,0,0,0-18.14-20.23l0,20.21h-2l0-20.56A20.45,20.45,0,0,1,339.64,58.4Z"
           id="path118" />
        <path
           class="cls-5"
           d="M364.71,57.15a20.22,20.22,0,0,0-20.23,18.14l20.21,0v2l-20.56,0A20.45,20.45,0,0,1,364.71,56.9Z"
           id="path120" />
        <path
           class="cls-5"
           d="M384.39,187.4a20.22,20.22,0,0,0-18.14-20.23l0,20.21h-2l0-20.56a20.45,20.45,0,0,1,20.43,20.58Z"
           id="path122" />
        <path
           class="cls-5"
           d="M339.43,187.4a20.22,20.22,0,0,1,18.14-20.23l0,20.21h2l0-20.56a20.45,20.45,0,0,0-20.43,20.58Z"
           id="path124" />
        <path
           class="cls-5"
           d="M351.39,218.82a20.22,20.22,0,0,1-18.14,20.23l0-20.21h-2l0,20.56a20.45,20.45,0,0,0,20.43-20.58Z"
           id="path126" />
        <path
           class="cls-5"
           d="M379.39,218.82a20.22,20.22,0,0,1-18.14,20.23l0-20.21h-2l0,20.56a20.45,20.45,0,0,0,20.43-20.58Z"
           id="path128" />
      </g>
      <g
         id="Down_Stairs"
         data-name="Down Stairs">
        <rect
           class="cls-6"
           x="411.78"
           y="313.7"
           width="63.59"
           height="25.65"
           id="rect131" />
        <path
           d="M470.31,313.45H411.53v26.15h64.09V313.45Zm-53.52,25.65H412V314h4.77Zm5.3,0h-4.77V314h4.77Zm5.3,0h-4.77V314h4.77Zm5.3,0h-4.77V314h4.77Zm5.3,0h-4.77V314H438Zm5.3,0h-4.77V314h4.77Zm5.3,0h-4.77V314h4.77Zm5.3,0h-4.77V314h4.77Zm5.3,0h-4.77V314h4.77Zm5.3,0h-4.77V314h4.77Zm5.3,0H465V314h4.77Zm5.3,0h-4.77V314h4.77Z"
           id="path133" />
        <path
           class="cls-5"
           d="M463.68,326.51l5.79-3.16-.38,1.73h3v3h-3l.29,1.65Z"
           id="path135" />
      </g>
      <g
         id="Garage_Doors"
         data-name="Garage Doors">
        <g
           id="Garage_Door_One"
           data-name="Garage Door One">
          <rect
             class="cls-12"
             x="289.73"
             y="483.43"
             width="103.67"
             height="14.8"
             id="rect138" />
          <path
             class="cls-6"
             d="M393.36,483.43l0-17.74h-.5l0,17.74H289.73l0-17.91h-.5l.06,26.64v6.07h46.24v1.35a.34.34,0,0,0,.34.34h10.71a.34.34,0,0,0,.34-.34v-1.37h46.52v-14.8Zm-.48,11.3H289.76v-5.08H392.88v5.08Zm0-10.8v5.22H289.76v-5.23Zm-46.49,15.5H336v-1.19h10.39Zm-56.61-1.71v-2.49H392.88v2.49Z"
             id="path140" />
          <g
             id="big_car"
             data-name="big car">
            <path
               id="path14066"
               d="M325.6,448.17a1.27,1.27,0,0,1,1.33,1.19v12.16a1.34,1.34,0,0,1-2.67,0V449.37A1.27,1.27,0,0,1,325.6,448.17Z" />
            <path
               id="path14068"
               d="M324.47,392.87a1.27,1.27,0,0,1,1.33,1.19v12.16a1.34,1.34,0,0,1-2.67,0V394.07A1.27,1.27,0,0,1,324.47,392.87Z" />
            <path
               id="path14070"
               d="M366.82,448.17a1.27,1.27,0,0,1,1.34,1.19v12.16a1.34,1.34,0,0,1-2.67,0V449.37A1.27,1.27,0,0,1,366.82,448.17Z" />
            <path
               id="path14072"
               d="M367.8,392.87a1.27,1.27,0,0,1,1.34,1.19v12.16a1.34,1.34,0,0,1-2.67,0V394.07A1.27,1.27,0,0,1,367.8,392.87Z" />
            <path
               id="path14062"
               class="cls-1"
               d="M372.15,411a3.43,3.43,0,0,0-.17-1.89c-.45-.74-3.15-1.74-4.5-1.51a11.36,11.36,0,0,0,0,2.38C368.84,410.35,372.15,411,372.15,411Z" />
            <path
               id="path14064"
               class="cls-1"
               d="M319.81,411a3.45,3.45,0,0,1,.17-1.89c.45-.74,3.15-1.74,4.5-1.51a11.25,11.25,0,0,1,0,2.38C323.13,410.35,319.81,411,319.81,411Z" />
            <path
               id="path14074"
               class="cls-1"
               d="M323.79,386c0-2.18,8.76-8.32,12-8.32h20c5.25,0,12.61,6.71,12.36,8.72,0,1.58-1.86,75.95-1.94,78.39-1.33,5.35-10.52,8.13-20.16,8.13-10.67,0-19.63-3.17-20.16-8.23C325.81,461.38,323.83,388.18,323.79,386Z" />
            <path
               id="path14082"
               class="cls-13"
               d="M325.62,384.84c.57-1.54,4.5-5.1,8.72-6.38-1.25,1-.57.79-1.85,1.54-2.55,1.05-5.81,4.52-5.81,4.52A2.88,2.88,0,0,1,325.62,384.84Z" />
            <path
               id="path14084"
               class="cls-13"
               d="M366.47,384.84c-.57-1.54-4.5-5.1-8.72-6.38,1.25,1,.57.79,1.85,1.54,2.55,1.05,5.81,4.52,5.81,4.52A2.88,2.88,0,0,0,366.47,384.84Z" />
            <path
               id="path14086"
               class="cls-14"
               d="M331.48,461a58.74,58.74,0,0,0,15.5,2.11c6.07,0,9.93-.88,13.41-2.5,2.15,3.28,2.48,6,.88,7.84-4.52,3.18-10.87,3.63-14,3.72s-12.58-.2-16.66-4.26C329.5,465.88,329.55,464.06,331.48,461Z" />
            <path
               id="path14088"
               class="cls-14"
               d="M337.54,418.06h16.88a1.36,1.36,0,0,1,1.43,1.27v8a1.36,1.36,0,0,1-1.43,1.27H337.54a1.36,1.36,0,0,1-1.43-1.27v-8A1.36,1.36,0,0,1,337.54,418.06Z" />
            <path
               id="path14090"
               class="cls-14"
               d="M327.5,403.84c4.07-1.59,12.41-3.06,18.89-3s10.42.92,18.27,2.82c-1.78,4.84-4.26,8.52-4.88,12.19-.69,1-7-.74-12.7-.74a104.47,104.47,0,0,0-14.42,1.1C331.28,411.26,328.12,407.34,327.5,403.84Z" />
            <path
               id="path14092"
               class="cls-14"
               d="M366.47,409.54c0,3.55-1,21.38-1,21.38l-3.71,1.22s-.28-12.07.07-15.93A10,10,0,0,1,366.47,409.54Z" />
            <path
               id="path14094"
               class="cls-14"
               d="M325.62,409.54c0,3.55,1,21.38,1,21.38l3.71,1.22s.28-12.07-.07-15.93A10,10,0,0,0,325.62,409.54Z" />
            <path
               id="path14096"
               class="cls-14"
               d="M361.26,433.53s3.83-1.55,4.2-1.37.34,19-.31,20.56c-1.28.66-3.76-.69-3.76-.69Q361.33,442.78,361.26,433.53Z" />
            <path
               id="path14098"
               class="cls-14"
               d="M330.37,433.53s-3.44-1.55-3.77-1.37-.31,19,.28,20.56c1.15.66,3.37-.69,3.37-.69Q330.31,442.78,330.37,433.53Z" />
            <path
               id="path14100"
               class="cls-14"
               d="M361.26,454a18.43,18.43,0,0,1,3.35,1.12,21,21,0,0,1-.36,5.45C361.8,459.35,361,455.83,361.26,454Z" />
            <path
               id="path14102"
               class="cls-14"
               d="M330.37,454a18.39,18.39,0,0,0-3.35,1.12,21,21,0,0,0,.36,5.45C329.83,459.35,330.61,455.83,330.37,454Z" />
            <path
               id="path14076"
               class="cls-15"
               d="M327.43,402.85c-.3-2.71-1.56-13.06-1.18-16,1.07-1.83,5.16-6.41,9.12-6.94,3.76-.36,16.75-.33,21,0,4.2,1,8.08,4,9.5,7.61-.34,5.55-1,12.18-1.28,15.39C351.85,398.52,340.06,398.17,327.43,402.85Z" />
          </g>
        </g>
        <g
           id="Garage_Door_Two"
           data-name="Garage Door Two">
          <rect
             class="cls-12"
             x="416.27"
             y="463.43"
             width="50.91"
             height="14.8"
             id="rect163" />
          <path
             class="cls-6"
             d="M467.16,463.43l0-17.74h-.33l0,17.74H416.27l0-17.91h-.38l0,26.64v6.07h20.58v1.35a.34.34,0,0,0,.34.34h10.71a.34.34,0,0,0,.34-.34v-1.37h19.31v-14.8Zm-.31,11.3H416.3v-5.08h50.55v5.08Zm0-10.8v5.22H416.3v-5.23Zm-19.46,15.5H437v-1.19h10.39Zm-31.07-1.71v-2.49h50.55v2.49Z"
             id="path165" />
          <g
             id="little_car"
             data-name="little car">
            <path
               id="path14026"
               d="M425.55,434.9a1.13,1.13,0,0,1,1,1.21v12.33a1,1,0,1,1-2,0V436.11A1.13,1.13,0,0,1,425.55,434.9Z" />
            <path
               id="path14028"
               d="M424.65,395.29a1.05,1.05,0,0,1,1,1.08v11a1,1,0,1,1-2,0v-11A1,1,0,0,1,424.65,395.29Z" />
            <path
               id="path14030"
               d="M456.65,434.9a1.13,1.13,0,0,1,1,1.21v12.33a1,1,0,1,1-2,0V436.11A1.13,1.13,0,0,1,456.65,434.9Z" />
            <path
               id="path14032"
               d="M457.55,395.29a1.05,1.05,0,0,1,1,1.08v11a1,1,0,1,1-2,0v-11A1,1,0,0,1,457.55,395.29Z" />
            <path
               id="path14022"
               class="cls-1"
               d="M460.86,411.77a3.68,3.68,0,0,0-.13-1.71,4.4,4.4,0,0,0-3.41-1.37,12.44,12.44,0,0,0,0,2.16C458.34,411.14,460.86,411.77,460.86,411.77Z" />
            <path
               id="path14024"
               class="cls-1"
               d="M421.12,411.77a3.69,3.69,0,0,1,.13-1.71,4.4,4.4,0,0,1,3.41-1.37,12.29,12.29,0,0,1,0,2.16C423.64,411.14,421.12,411.77,421.12,411.77Z" />
            <path
               id="path14034"
               class="cls-1"
               d="M424.14,388c0-1.69,6.65-6.44,9.11-6.44h15.18c4,0,9.57,5.19,9.38,6.75,0,1.22-1.41,58.8-1.47,60.68-1,4.14-8.09,6-15.41,6-8.1,0-14.79-2.12-15.2-6C425.67,446.32,424.17,389.65,424.14,388Z" />
            <path
               id="path14042"
               class="cls-13"
               d="M425.53,388c.43-1.4,3.41-4.63,6.62-5.79-.95.92-.43.72-1.4,1.4-1.93,1-4.41,4.1-4.41,4.1A1.94,1.94,0,0,1,425.53,388Z" />
            <path
               id="path14044"
               class="cls-13"
               d="M456.54,388c-.43-1.4-3.41-4.63-6.62-5.79,1,.92.43.72,1.4,1.4,1.93,1,4.41,4.1,4.41,4.1A1.94,1.94,0,0,0,456.54,388Z" />
            <path
               id="path14046"
               class="cls-14"
               d="M430,443.95a37.83,37.83,0,0,0,11.77,1.91c4.61,0,7.54-.8,10.18-2.26,1.63,3,1.88,5.42.67,7.11-3.43,2.88-8.25,3.29-10.64,3.38s-9.55-.18-12.65-3.86C428.47,448.39,428.52,446.75,430,443.95Z" />
            <path
               id="path14048"
               class="cls-14"
               d="M427,405.24a39.24,39.24,0,0,1,14.34-2.72c4.92.06,7.91.83,13.87,2.55-1.35,4.39-3.23,7.72-3.71,11.05-.52.89-5.29-.67-9.64-.67a66.69,66.69,0,0,0-10.95,1C429.83,412,427.43,408.4,427,405.24Z" />
            <path
               id="path14050"
               class="cls-14"
               d="M456.54,410.4c0,3.22-.64,21.19-.64,21.19L453,430.9s-.21-10.94.05-14.44A9.16,9.16,0,0,1,456.54,410.4Z" />
            <path
               id="path14052"
               class="cls-14"
               d="M425.53,410.4c0,3.22.75,21.19.75,21.19l2.81-.69s.21-10.94-.05-14.44A9.16,9.16,0,0,0,425.53,410.4Z" />
            <path
               id="path14054"
               class="cls-14"
               d="M452.93,432.45a12.51,12.51,0,0,1,2.54,1,22.68,22.68,0,0,1-.27,4.94C453.34,437.29,452.75,434.1,452.93,432.45Z" />
            <path
               id="path14056"
               class="cls-14"
               d="M429.14,432.45a12.5,12.5,0,0,0-2.54,1,22.68,22.68,0,0,0,.27,4.94C428.73,437.29,429.32,434.1,429.14,432.45Z" />
            <path
               id="path14036"
               class="cls-15"
               d="M426.9,404.34c-.23-2.46-1.18-11.84-.89-14.54.81-1.66,3.92-5.81,6.92-6.3a133.24,133.24,0,0,1,15.91,0,11.08,11.08,0,0,1,7.21,6.9c-.26,5-.72,11-1,14C445.44,400.41,436.49,400.1,426.9,404.34Z" />
          </g>
        </g>
      </g>
      <g
         id="Closet_Doors-2"
         data-name="Closet Doors">
        <path
           class="cls-5"
           d="M415,151.38l-3.1-9.81H410l-3,9.82.95.45,3-9.81,3.1,9.81Z"
           id="path186" />
        <path
           class="cls-5"
           d="M398.86,190.92l-1.91,5-2-5-.6.24,2,5h1.21l1.91-5Z"
           id="path188" />
        <path
           class="cls-5"
           d="M410.86,190.92l-1.91,5-2-5-.6.24,2,5h1.21l1.91-5Z"
           id="path190" />
        <path
           class="cls-5"
           d="M327.95,201.45l-8.85-4.24,8.82-4.42-.48-1.87c-3.26,1.63-10.06,4.9-10.06,4.9v2.58l10.28,4.93Z"
           id="path192" />
        <path
           class="cls-5"
           d="M305.17,188.43l-4.24,8.85-4.42-8.82-1.87.48c1.63,3.26,4.9,10.06,4.9,10.06h2.58L307,188.72Z"
           id="path194" />
        <path
           class="cls-5"
           d="M288.17,188.43l-4.24,8.85-4.42-8.82-1.87.48c1.63,3.26,4.9,10.06,4.9,10.06h2.58L290,188.72Z"
           id="path196" />
        <path
           class="cls-5"
           d="M353.17,324.43l-4.24,8.85-4.42-8.82-1.87.48c1.63,3.26,4.9,10.06,4.9,10.06h2.58L355,324.72Z"
           id="path198" />
        <path
           class="cls-5"
           d="M332.17,324.43l-4.24,8.85-4.42-8.82-1.87.48c1.63,3.26,4.9,10.06,4.9,10.06h2.58L334,324.72Z"
           id="path200" />
        <path
           id="path13944"
           class="cls-6"
           d="M674.59,186.21V187h17.7v-.76h-17.7Z" />
        <path
           class="cls-5"
           d="M669.43,189.89l8.85,4.24-8.82,4.42.48,1.87c3.26-1.63,10.06-4.9,10.06-4.9v-2.58L669.72,188Z"
           id="path203" />
        <path
           class="cls-5"
           d="M669.43,206.89l8.85,4.24-8.82,4.42.48,1.87c3.26-1.63,10.06-4.9,10.06-4.9v-2.58L669.72,205Z"
           id="path205" />
      </g>
      <g
         id="Bed">
        <path
           class="cls-1"
           d="M742.83,146.62a3.57,3.57,0,1,1-6.83-1.41,6.42,6.42,0,0,1-4.63,2l-8.27.06a1.71,1.71,0,0,1-1.29.59l-6.28,0a1.78,1.78,0,0,1-1.3-.58l-26.83.19a6.47,6.47,0,0,1-4.66-2,3.38,3.38,0,0,1-6.47-1.36L676,106.08a3.39,3.39,0,0,1,6.46-1.45,6.4,6.4,0,0,1,4.63-2l26.82-.19a1.73,1.73,0,0,1,1.3-.59l6.27,0a1.74,1.74,0,0,1,1.31.58l8.26-.06a6.48,6.48,0,0,1,4.66,1.94,3.66,3.66,0,0,1-.32-1.45,3.57,3.57,0,1,1,7.13,0Z"
           id="path208" />
        <path
           class="cls-3"
           d="M739.26,149.5a2.86,2.86,0,0,1-2.62-4l-1.15-.76a5.72,5.72,0,0,1-4.13,1.79l-8.58.06-.21.24a1,1,0,0,1-.78.36l-6.27,0a1,1,0,0,1-.78-.35l-.21-.23-27.14.19a5.75,5.75,0,0,1-4.15-1.73l-.72-.73-.42.93a2.69,2.69,0,0,1-5.14-1.08l-.27-38.13a2.69,2.69,0,0,1,2.67-2.71,2.71,2.71,0,0,1,2.45,1.55l.43.92.71-.74a5.71,5.71,0,0,1,4.13-1.79l27.14-.19.21-.24a1,1,0,0,1,.77-.36l6.27,0a1.05,1.05,0,0,1,.78.35l.21.23,8.58-.06a5.74,5.74,0,0,1,4.16,1.73l1.14-.78a2.86,2.86,0,0,1,2.59-4,2.87,2.87,0,0,1,2.88,2.84l.31,43.86a2.87,2.87,0,0,1-2.84,2.88Zm0-5a2.13,2.13,0,1,0,2.15,2.12,2.12,2.12,0,0,0-2.15-2.12h0Zm-24.34-41.24.3,43.22,6.9,0-.3-43.22Zm-35.27,39a2,2,0,1,0,2,1.94,2,2,0,0,0-2-1.94h0ZM687.1,104a5,5,0,0,0-5,5.07l.22,32a5,5,0,0,0,5,5l27.12-.19-.29-42Zm35.45-.25.29,42,8.52-.06a5,5,0,0,0,5-5.07l-.22-32a5,5,0,0,0-5-5h0Zm13.53,2.07a5.76,5.76,0,0,1,.79,2.87l.22,32a5.75,5.75,0,0,1-.75,2.88l1.07.88a2.85,2.85,0,0,1,1.84-.69h0a2.87,2.87,0,0,1,1.15.23l1,.43L741.1,105l-1,.44a2.84,2.84,0,0,1-1.15.25,2.88,2.88,0,0,1-1.85-.66Zm-58.39,36.22,1-.39a2.68,2.68,0,0,1,2,0l1,.38-.24-33.91-1,.39a2.66,2.66,0,0,1-1,.2h0a2.67,2.67,0,0,1-1-.18l-1-.38Zm1.69-38a2,2,0,1,0,2,1.94,1.95,1.95,0,0,0-2-1.94h0Zm59.57-3.46a2.13,2.13,0,1,0,2.15,2.12,2.14,2.14,0,0,0-2.15-2.12h0Z"
           id="path210" />
        <path
           class="cls-3"
           d="M727,122.18a2.22,2.22,0,0,1-2.21-2.19l-.07-10.5a2.21,2.21,0,0,1,2.19-2.22l4.35,0a2.22,2.22,0,0,1,2.22,2.19l.07,10.5a2.21,2.21,0,0,1-2.19,2.22ZM727,107.85a1.63,1.63,0,0,0-1.62,1.64l.07,10.5A1.64,1.64,0,0,0,727,121.6l4.36,0a1.63,1.63,0,0,0,1.62-1.64l-.07-10.5a1.64,1.64,0,0,0-1.63-1.62h0Z"
           id="path212" />
        <path
           class="cls-3"
           d="M727,142.18a2.22,2.22,0,0,1-2.21-2.19l-.07-10.5a2.21,2.21,0,0,1,2.19-2.22l4.35,0a2.22,2.22,0,0,1,2.22,2.19l.07,10.5a2.21,2.21,0,0,1-2.19,2.22ZM727,127.85a1.63,1.63,0,0,0-1.62,1.64l.07,10.5A1.64,1.64,0,0,0,727,141.6l4.36,0a1.63,1.63,0,0,0,1.62-1.64l-.07-10.5a1.64,1.64,0,0,0-1.63-1.62h0Z"
           id="path214" />
        <path
           class="cls-3"
           d="M731.28,133.13a2.45,2.45,0,0,1-.22,3.53,1.89,1.89,0,0,1-1,.36v-1.1a1.5,1.5,0,0,0,.57-.27,1.19,1.19,0,0,0-.14-1.8,2.36,2.36,0,0,0-1.37-.34,2.07,2.07,0,0,0-1.32.36,1.12,1.12,0,0,0-.44.91,1,1,0,0,0,.38.86,1.66,1.66,0,0,0,.61.27V137a2.37,2.37,0,0,1-1.4-.72,2.1,2.1,0,0,1-.54-1.49,2.23,2.23,0,0,1,.73-1.76,2.93,2.93,0,0,1,2-.64A2.9,2.9,0,0,1,731.28,133.13Z"
           id="path216" />
        <path
           class="cls-3"
           d="M728.17,113.59a1.06,1.06,0,0,0-.53.2,1.16,1.16,0,0,0-.32.93,2,2,0,0,0,.08.64.61.61,0,0,0,.6.47.45.45,0,0,0,.4-.23,2.49,2.49,0,0,0,.24-.72l.12-.56a3.52,3.52,0,0,1,.4-1.14,1.27,1.27,0,0,1,1.13-.53,1.5,1.5,0,0,1,1.16.52,2.2,2.2,0,0,1,.46,1.51,2.33,2.33,0,0,1-.44,1.42,1.55,1.55,0,0,1-1.27.62v-1a.75.75,0,0,0,.67-.42,1.44,1.44,0,0,0,.13-.65,1.24,1.24,0,0,0-.17-.69.54.54,0,0,0-.47-.26.45.45,0,0,0-.42.25,3.2,3.2,0,0,0-.22.69l-.22.92a2.32,2.32,0,0,1-.38.9,1.27,1.27,0,0,1-1.06.47,1.5,1.5,0,0,1-1.19-.55,2.33,2.33,0,0,1-.47-1.56,2.55,2.55,0,0,1,.47-1.62,1.54,1.54,0,0,1,1.28-.59Z"
           id="path218" />
      </g>
      <g
         id="DS_bathroom_icon"
         data-name="DS bathroom icon">
        <path
           class="cls-5"
           d="M379.93,247.4a2.4,2.4,0,1,0-2.4,2.41A2.4,2.4,0,0,0,379.93,247.4Z"
           id="path226" />
        <path
           class="cls-5"
           d="M384.91,247.4a2.4,2.4,0,1,0,2.4-2.4h0A2.41,2.41,0,0,0,384.91,247.4Z"
           id="path228" />
        <path
           class="cls-5"
           d="M382.8,261.3h0a9.49,9.49,0,0,0,2.63,1.14l.45,3.62a1,1,0,0,0,1,.93h.72a1,1,0,0,0,1-.93l.44-3.62a9.48,9.48,0,0,0,2.66-1.15,1.06,1.06,0,0,0,.45-1.24l-2.42-7.35A2.46,2.46,0,0,0,387.5,251h-.39a2.46,2.46,0,0,0-2.34,1.69l-2.42,7.35A1.06,1.06,0,0,0,382.8,261.3Z"
           id="path230" />
        <path
           class="cls-5"
           d="M373.67,254.18l.06,3.56a1.24,1.24,0,0,0,.63,1.06l.72.4.86,7a.93.93,0,0,0,.92.82h1.33a.93.93,0,0,0,.92-.82l.86-7,.72-.4a1.24,1.24,0,0,0,.62-1.06l.06-3.56a3.11,3.11,0,0,0-3.06-3.16h-1.55a3.11,3.11,0,0,0-3.11,3.11S373.67,254.16,373.67,254.18Z"
           id="path232" />
      </g>
      <g
         id="Room_Titles"
         data-name="Room Titles">
        <text
           class="cls-17"
           transform="translate(624.89 83.25)"
           id="text235">MASTER BEDROOM</text>
        <text
           class="cls-17"
           transform="translate(540.78 271.25)"
           id="text237">LIVING ROOM</text>
        <text
           class="cls-17"
           transform="translate(428.11 192.25)"
           id="text239">DINING ROOM</text>
        <text
           class="cls-17"
           transform="translate(435.56 254.25)"
           id="text241">KITCHEN</text>
        <text
           class="cls-17"
           transform="translate(290.39 274.25)"
           id="text243">BEDROOM</text>
        <text
           class="cls-17"
           transform="translate(290.39 148.25)"
           id="text245">BEDROOM</text>
        <text
           class="cls-17"
           transform="translate(325.11 368.25)"
           id="text247">GARAGE</text>
        <text
           class="cls-17"
           transform="translate(490.11 417.25)"
           id="text249">DINING ROOM</text>
        <text
           class="cls-17"
           transform="translate(381.28 106.25)"
           id="text253">STUD<tspan
   class="cls-18"
   x="27.22"
   y="0"
   id="tspan251">Y</tspan>
</text>
        <text
           class="cls-17"
           transform="translate(676.28 417.25)"
           id="text257">STUD<tspan
   class="cls-18"
   x="27.22"
   y="0"
   id="tspan255">Y</tspan>
</text>
        <text
           class="cls-17"
           transform="translate(283.93 79.25)"
           id="text263">B<tspan
   class="cls-19"
   x="7.22"
   y="0"
   id="tspan259">A</tspan>
<tspan
   x="13.71"
   y="0"
   id="tspan261">THROOM</tspan>
</text>
      </g>
    </g>
    <g
       id="Buttons">
      <g
         id="Refresh_Button"
         data-name="Refresh Button"
         onclick="location.reload();">
        <rect
           class="cls-2"
           x="818.41"
           y="494"
           width="161"
           height="45"
           rx="22.46"
           ry="22.46"
           id="rect267" />
        <text
           class="cls-20"
           transform="translate(831.85 526.61)"
           id="text269">REFRESH</text>
      </g>
      <g
         id="input_boolean.meal_time"
         data-name="Meal TIme Button"
         inkscape:label="#Meal_TIme_Button">
        <rect
           class="cls-2"
           x="818.59"
           y="436.81"
           width="161"
           height="45"
           rx="22.46"
           ry="22.46"
           id="rect272" />
        <text
           class="cls-21"
           transform="translate(850.03 466.39)"
           id="text278">Meal <tspan
   class="cls-22"
   x="50.22"
   y="0"
   id="tspan274">T</tspan>
<tspan
   x="62.14"
   y="0"
   id="tspan276">ime</tspan>
</text>
      </g>
      <g
         id="input_boolean.sleepy_dog"
         data-name="Sleepy Dog Button"
         inkscape:label="#Sleepy_Dog_Button">
        <rect
           class="cls-2"
           x="818.59"
           y="379.75"
           width="161"
           height="45"
           rx="22.46"
           ry="22.46"
           id="rect281" />
        <text
           class="cls-21"
           transform="translate(844.65 407.5)"
           id="text283">Sleepy Dog</text>
      </g>
      <g
         id="input_boolean.tv_time"
         data-name="TV TIme Button"
         inkscape:label="#TV_TIme_Button">
        <rect
           class="cls-2"
           x="818.59"
           y="322.69"
           width="161"
           height="45"
           rx="22.46"
           ry="22.46"
           id="rect286" />
        <text
           class="cls-21"
           transform="translate(860.1 352.28)"
           id="text292">TV <tspan
   class="cls-22"
   x="31.24"
   y="0"
   id="tspan288">T</tspan>
<tspan
   x="43.15"
   y="0"
   id="tspan290">ime</tspan>
</text>
      </g>
      <g
         id="input_boolean.good_night"
         data-name="All Lights Off Button"
         inkscape:label="#All_Lights_Off_Button">
        <rect
           class="cls-2"
           x="818.59"
           y="265.63"
           width="161"
           height="45"
           rx="22.46"
           ry="22.46"
           id="rect295" />
        <text
           class="cls-21"
           transform="translate(835.97 293.39)"
           id="text297">All Lights Off</text>
      </g>
      <g
         id="group.living_room_lights"
         data-name="Living Room Button"
         inkscape:label="#Living_Room_Button">
        <rect
           class="cls-2"
           x="818.59"
           y="208.58"
           width="161"
           height="45"
           rx="22.46"
           ry="22.46"
           id="rect300" />
        <text
           class="cls-21"
           transform="translate(838.16 236.16)"
           id="text302">Living Room</text>
      </g>
      <g
         id="group.kitchen_lights"
         data-name="Kitchen Button"
         inkscape:label="#Kitchen_Button">
        <rect
           class="cls-23"
           x="818.59"
           y="151.52"
           width="161"
           height="45"
           rx="22.46"
           ry="22.46"
           id="rect305" />
        <text
           class="cls-24"
           transform="translate(862.13 181.11)"
           id="text307">Kitchen</text>
      </g>
      <g
         id="input_boolean.guest_mode"
         data-name="Guest Mode Button"
         inkscape:label="#Guest_Mode_Button">
        <rect
           class="cls-2"
           x="818.59"
           y="94.46"
           width="161"
           height="45"
           rx="22.46"
           ry="22.46"
           id="rect310" />
        <text
           class="cls-21"
           transform="translate(841.27 124.19)"
           id="text312">Guest Mode</text>
      </g>
      <g
         id="input_boolean.house_station"
         data-name="House Station Button"
         inkscape:label="#House_Station_Button">
        <rect
           class="cls-2"
           x="818.59"
           y="37.4"
           width="161"
           height="45"
           rx="22.46"
           ry="22.46"
           id="rect315" />
        <text
           class="cls-21"
           transform="translate(831.48 67.15)"
           id="text317">House Station</text>
      </g>
      <g
         id="Left_Buttons"
         data-name="Left Buttons">
        <rect
           class="cls-2"
           x="44.41"
           y="37.28"
           width="173"
           height="53"
           rx="9.44"
           ry="9.44"
           id="rect320" />
        <text
           class="cls-25"
           transform="translate(64.04 56.53)"
           id="text322">Carlo</text>
        <text
           class="cls-25"
           transform="translate(138.09 56.53)"
           id="text324">Stacey</text>
        <rect
           class="cls-2"
           x="44.41"
           y="297.28"
           width="173"
           height="53"
           rx="9.44"
           ry="9.44"
           id="rect326" />
        <text
           class="cls-25"
           transform="translate(75.77 316.53)"
           id="text328">Alarm Status</text>
        <rect
           class="cls-2"
           x="44.41"
           y="102.28"
           width="173"
           height="53"
           rx="9.44"
           ry="9.44"
           id="rect330" />
        <path
           class="cls-5"
           d="M130.62,132.21V136h-5.87v3h5.5v3.62h-5.5v7.29h-4.61V132.21Z"
           id="path332" />
        <path
           class="cls-5"
           d="M116.46,134.92a2.85,2.85,0,1,1,2.85-2.85A2.85,2.85,0,0,1,116.46,134.92Zm0-5a2.1,2.1,0,1,0,2.1,2.1A2.11,2.11,0,0,0,116.46,130Z"
           id="path334" />
        <text
           class="cls-25"
           transform="translate(67.93,121.53)"
           id="text336"
           style="font-size:19.31999969px;font-family:Helvetica, Helvetica;fill:#ffffa6">Oviedo Florida</text>
        <path
           id="path5264-8"
           class="cls-5"
           d="M180.93,131.73s-6.81,7.13-6.81,11.36a6.82,6.82,0,0,0,13.61,0c0-4.23-6.81-11.36-6.81-11.36m2.8,7.1,1.2,1.12-6.81,6.34-1.2-1.12m1.45-6.31a1.37,1.37,0,0,1,1.42,1.32h0a1.37,1.37,0,0,1-1.42,1.32h0a1.37,1.37,0,0,1-1.42-1.32h0a1.37,1.37,0,0,1,1.42-1.32h0m5.1,4.75a1.32,1.32,0,1,1-1.42,1.32h0a1.37,1.37,0,0,1,1.42-1.32Z" />
        <rect
           class="cls-2"
           x="44.41"
           y="167.28"
           width="173"
           height="53"
           rx="9.44"
           ry="9.44"
           id="rect339" />
        <text
           class="cls-25"
           transform="translate(86.73 186.53)"
           id="text341">First Floor</text>
        <path
           class="cls-5"
           d="M130.62,197.21V201h-5.87v3h5.5v3.62h-5.5v7.29h-4.61V197.21Z"
           id="path343" />
        <path
           class="cls-5"
           d="M116.46,199.92a2.85,2.85,0,1,1,2.85-2.85A2.85,2.85,0,0,1,116.46,199.92Zm0-5a2.1,2.1,0,1,0,2.1,2.1A2.11,2.11,0,0,0,116.46,195Z"
           id="path345" />
        <path
           id="path5264-8-2"
           data-name="path5264-8"
           class="cls-5"
           d="M180.93,196.73s-6.81,7.13-6.81,11.36a6.82,6.82,0,0,0,13.61,0c0-4.23-6.81-11.36-6.81-11.36m2.8,7.1,1.2,1.12-6.81,6.34-1.2-1.12m1.45-6.31a1.37,1.37,0,0,1,1.42,1.32h0a1.37,1.37,0,0,1-1.42,1.32h0a1.37,1.37,0,0,1-1.42-1.32h0a1.37,1.37,0,0,1,1.42-1.32h0m5.1,4.75a1.32,1.32,0,1,1-1.42,1.32h0a1.37,1.37,0,0,1,1.42-1.32Z" />
        <rect
           class="cls-2"
           x="44.41"
           y="232.28"
           width="173"
           height="53"
           rx="9.44"
           ry="9.44"
           id="rect348" />
        <text
           class="cls-25"
           transform="translate(73.11 251.53)"
           id="text350">Second Floor</text>
        <path
           class="cls-5"
           d="M130.62,262.21V266h-5.87v3h5.5v3.62h-5.5v7.29h-4.61V262.21Z"
           id="path352" />
        <path
           class="cls-5"
           d="M116.46,264.92a2.85,2.85,0,1,1,2.85-2.85A2.85,2.85,0,0,1,116.46,264.92Zm0-5a2.1,2.1,0,1,0,2.1,2.1A2.11,2.11,0,0,0,116.46,260Z"
           id="path354" />
        <path
           id="path5264-8-3"
           data-name="path5264-8"
           class="cls-5"
           d="M180.93,261.73s-6.81,7.13-6.81,11.36a6.82,6.82,0,0,0,13.61,0c0-4.23-6.81-11.36-6.81-11.36m2.8,7.1,1.2,1.12-6.81,6.34-1.2-1.12m1.45-6.31a1.37,1.37,0,0,1,1.42,1.32h0a1.37,1.37,0,0,1-1.42,1.32h0a1.37,1.37,0,0,1-1.42-1.32h0a1.37,1.37,0,0,1,1.42-1.32h0m5.1,4.75a1.32,1.32,0,1,1-1.42,1.32h0a1.37,1.37,0,0,1,1.42-1.32Z" />
      </g>
    </g>
    <g
       id="powered_by"
       data-name="powered by">
      <path
         class="cls-5"
         d="M839.29,572.07a.1.1,0,0,0,.1.1h3.23a1.11,1.11,0,1,0,0-.21h-3.23A.1.1,0,0,0,839.29,572.07Zm3.53,0a.91.91,0,0,1,.16-.51.85.85,0,0,1,.11-.13.9.9,0,0,1,.64-.27.91.91,0,1,1-.64,1.55l-.11-.14A.9.9,0,0,1,842.82,572.07Zm-3.53,3a.1.1,0,0,0,.1.1h5.09a.09.09,0,0,0,.07,0l2.18-2.17h3.44a1.11,1.11,0,1,0,0-.21h-3.49a.11.11,0,0,0-.07,0L844.44,575h-5.05A.1.1,0,0,0,839.29,575.11Zm11.09-2.2a.91.91,0,1,1,.91.9A.91.91,0,0,1,850.38,572.91Zm-11.09,3.93a.1.1,0,0,0,.1.1h5.08l1.25,1.25a.1.1,0,0,0,.07,0h4.38a1.11,1.11,0,1,0,0-.2h-4.34l-1.25-1.25a.1.1,0,0,0-.07,0h-5.13A.1.1,0,0,0,839.29,576.84Zm11.09,1.27a.91.91,0,1,1,.91.91A.91.91,0,0,1,850.38,578.11Zm-2.9-2.63a1.11,1.11,0,0,0,2.22.1H855a.1.1,0,0,0,0-.2H849.7a1.11,1.11,0,0,0-2.22.1Zm.21,0a.91.91,0,1,1,.91.9A.91.91,0,0,1,847.69,575.48Zm-1.93-5.15a1.11,1.11,0,0,0,2.21.1h7a.1.1,0,0,0,0-.21h-7a1.11,1.11,0,0,0-2.21.1Zm.2,0a.91.91,0,1,1,.91.91A.91.91,0,0,1,846,570.33Z"
         id="path359" />
      <g
         id="powered_by-2"
         data-name="powered by">
        <g
           id="_Group_"
           data-name="&lt;Group&gt;">
          <path
             class="cls-26"
             d="M953.56,569a.93.93,0,0,1-1.87,0,.93.93,0,0,1,1.87,0Z"
             id="path361" />
          <path
             class="cls-26"
             d="M947.65,562.18a1,1,0,0,1,1,.92.94.94,0,0,1-.87.94,1,1,0,0,1-1-.94A.94.94,0,0,1,947.65,562.18Z"
             id="path363" />
          <path
             class="cls-26"
             d="M943.7,569a.93.93,0,0,1-1.86,0,1,1,0,0,1,.91-.91A1,1,0,0,1,943.7,569Z"
             id="path365" />
          <path
             class="cls-5"
             d="M952.63,570a.92.92,0,0,0,.93-.92.93.93,0,0,0-1.87,0A.91.91,0,0,0,952.63,570Zm-9.86,0a.91.91,0,0,0,.93-.92,1,1,0,0,0-1-.91,1,1,0,0,0-.91.91A.92.92,0,0,0,942.77,570Zm4.15,4.74a.86.86,0,0,0-.3-.69c-.89-.87-1.76-1.75-2.63-2.63l-.33-.3a2.24,2.24,0,0,1-2.76-.92,2.15,2.15,0,0,1,2.94-2.92,2.22,2.22,0,0,1,.94,1,2.18,2.18,0,0,1,0,1.73l2,2.17v-7a2.32,2.32,0,0,1-1.24-1.53,2.11,2.11,0,0,1,.52-1.9,2.16,2.16,0,0,1,3.17,0,2,2,0,0,1,.58,1.58,2.12,2.12,0,0,1-1.31,1.83c-.1,1.62-.05,6.58.05,6.94l2-2.05c-.26-1.32.06-2.21,1-2.72a2.14,2.14,0,0,1,2.94,2.86c-.49,1-1.39,1.29-2.8,1a.33.33,0,0,0-.09,0l-3,3a.64.64,0,0,0-.18.52v2.49h-1.51v-1.42C946.92,575.4,946.92,575.05,946.92,574.7Zm1.7-11.59a1,1,0,0,0-1-.92.94.94,0,0,0-.89.92,1,1,0,0,0,1,.94A.94.94,0,0,0,948.63,563.1Z"
             id="path367" />
        </g>
        <path
           class="cls-26"
           d="M939.27,569.23h-1.84a3.78,3.78,0,0,1-.42,0,.41.41,0,0,1-.32-.68,2.19,2.19,0,0,1,.25-.27L947.18,558c.43-.43.56-.43,1,0l4.82,4.82.42.41a5.08,5.08,0,0,0,0-.81c0-.39.11-.5.51-.51s1,0,1.52,0,.57.13.58.56c0,.65,0,1.29,0,1.94,0,.37,0,.73,0,1.1a.78.78,0,0,0,.27.64c.68.66,1.34,1.33,2,2l.26.26a.46.46,0,0,1,.11.53.42.42,0,0,1-.43.24h-2.09c-.15.18-.09.38-.09.56q0,3.28,0,6.56c0,.12,0,.25,0,.37,0,.35-.14.47-.47.49h-6.82l-.34,0c0-.13,0-.25,0-.37,0-.7,0-1.4,0-2.1a.64.64,0,0,1,.18-.52l3-3a.31.31,0,0,1,.09,0c1.4.26,2.3-.07,2.8-1a2.15,2.15,0,0,0-2.95-2.86c-.94.51-1.26,1.4-1,2.72l-2,2c-.1-.36-.15-5.32,0-6.94a2.13,2.13,0,0,0,1.31-1.84,2,2,0,0,0-.58-1.58,2.16,2.16,0,0,0-3.17,0,2.12,2.12,0,0,0-.51,1.9,2.3,2.3,0,0,0,1.24,1.53v7l-2-2.17a2.16,2.16,0,0,0,0-1.73,2.21,2.21,0,0,0-.95-1,2.15,2.15,0,0,0-2.94,2.93,2.25,2.25,0,0,0,2.76.92l.33.31c.88.88,1.75,1.76,2.64,2.62a.87.87,0,0,1,.29.69c0,.8,0,1.6,0,2.44-.17,0-.31,0-.44,0h-6.71c-.38,0-.48-.11-.49-.51,0-.12,0-.24,0-.37q0-3.25,0-6.5C939.27,569.66,939.27,569.48,939.27,569.23Z"
           id="path370" />
        <text
           class="cls-27"
           transform="translate(853.08 577.35)"
           id="text372">powered by</text>
      </g>
    </g>
  </g>
  <g
     id="Automation">
    <text
       class="cls-28"
       transform="translate(102.68 344.87)"
       id="text377">OFF</text>
    <text
       class="cls-29"
       transform="translate(148.61 280.4)"
       id="sensor.upstairs_thermostat_humidity"
       inkscape:label="#text379"
       style="-inkscape-font-specification:'HelveticaNeue-CondensedBold, Helvetica Neue, Bold';font-family:HelveticaNeue-CondensedBold, 'Helvetica Neue';font-weight:bold;font-style:normal;font-stretch:normal;font-variant:normal;font-size:25.54933421px;text-anchor:start;text-align:start;writing-mode:lr;font-variant-ligatures:normal;font-variant-caps:normal;font-variant-numeric:normal;font-feature-settings:normal;">
      <tspan
         sodipodi:role="line"
         id="tspan577">XX</tspan>
    </text>
    <text
       class="cls-29"
       transform="translate(90.61 215.4)"
       id="climate.downstairs"
       inkscape:label="#text381"
       style="-inkscape-font-specification:'HelveticaNeue-CondensedBold, Helvetica Neue, Bold';font-family:HelveticaNeue-CondensedBold, 'Helvetica Neue';font-weight:bold;font-style:normal;font-stretch:normal;font-variant:normal;font-size:25.54933421px;text-anchor:start;text-align:start;writing-mode:lr;font-variant-ligatures:normal;font-variant-caps:normal;font-variant-numeric:normal;font-feature-settings:normal;">
      <tspan
         sodipodi:role="line"
         id="tspan571">XX</tspan>
    </text>
    <text
       class="cls-29"
       transform="translate(148.61 215.4)"
       id="sensor.downstairs_thermostat_humidity"
       inkscape:label="#text383"
       style="-inkscape-font-specification:'HelveticaNeue-CondensedBold, Helvetica Neue, Bold';font-family:HelveticaNeue-CondensedBold, 'Helvetica Neue';font-weight:bold;font-style:normal;font-stretch:normal;font-variant:normal;font-size:25.54933421px;text-anchor:start;text-align:start;writing-mode:lr;font-variant-ligatures:normal;font-variant-caps:normal;font-variant-numeric:normal;font-feature-settings:normal;">
      <tspan
         sodipodi:role="line"
         id="tspan573">XX</tspan>
    </text>
    <text
       class="cls-29"
       transform="translate(90.61 280.4)"
       id="climate.upstairs"
       inkscape:label="#text385"
       style="-inkscape-font-specification:'HelveticaNeue-CondensedBold, Helvetica Neue, Bold';font-family:HelveticaNeue-CondensedBold, 'Helvetica Neue';font-weight:bold;font-style:normal;font-stretch:normal;font-variant:normal;font-size:25.54933421px;text-anchor:start;text-align:start;writing-mode:lr;font-variant-ligatures:normal;font-variant-caps:normal;font-variant-numeric:normal;font-feature-settings:normal;">
      <tspan
         sodipodi:role="line"
         id="tspan575">XX</tspan>
    </text>
    <g
       id="binary_sensors"
       data-name="binary sensors">
      <rect
         id="binary_sensor.justins_room_nest_protect_online"
         data-name="binary sensor.justins room nest protect online"
         class="cls-23"
         x="327.24"
         y="178.71"
         width="9.63"
         height="10.42"
         rx="1.5"
         ry="1.5" />
      <rect
         id="binary_sensor.hallway_nest_protect_kids_hallway_online"
         data-name="binary sensor.hallway nest protect kids hallway online"
         class="cls-23"
         x="336.87"
         y="191.67"
         width="9.63"
         height="10.42"
         rx="1.5"
         ry="1.5" />
      <rect
         id="binary_sensor.paiges_room_nest_protect_paiges_room_online"
         data-name="binary sensor.paiges room nest protect paiges room online"
         class="cls-23"
         x="345.86"
         y="237.87"
         width="9.63"
         height="10.42"
         rx="1.5"
         ry="1.5" />
      <rect
         id="binary_sensor.office_nest_protect_online"
         data-name="binary sensor.office nest protect online"
         class="cls-23"
         x="364.41"
         y="155.77"
         width="9.63"
         height="10.42"
         rx="1.5"
         ry="1.5" />
      <rect
         id="binary_sensor.kitchen_nest_protect_online"
         data-name="binary sensor.kitchen nest protect online"
         class="cls-23"
         x="492.47"
         y="303.58"
         width="9.63"
         height="10.42"
         rx="1.5"
         ry="1.5" />
      <rect
         id="binary_sensor.master_hallway_nest_protect_online"
         data-name="binary sensor.master hallway nest protect online"
         class="cls-23"
         x="619.06"
         y="167"
         width="9.63"
         height="10.42"
         rx="1.5"
         ry="1.5" />
      <rect
         id="binary_sensor.master_bedroom_nest_protect_online"
         data-name="binary sensor.master bedroom nest protect online"
         class="cls-23"
         x="604.14"
         y="133.71"
         width="9.63"
         height="10.42"
         rx="1.5"
         ry="1.5" />
      <rect
         id="binary_sensor.upstairs_living_room_nest_protect_online"
         data-name="binary sensor.upstairs living room nest protect online"
         class="cls-23"
         x="101.45"
         y="432.72"
         width="9.82"
         height="10.63"
         rx="1.5"
         ry="1.5" />
      <rect
         id="binary_sensor.upstairs_bedroom_nest_protect_online"
         data-name="binary sensor.upstairs bedroom nest protect online"
         class="cls-23"
         x="83.43"
         y="415.53"
         width="9.82"
         height="10.63"
         rx="1.5"
         ry="1.5" />
      <path
         id="binary_sensor.sleepnumber_carlo_stacey_is_in_bed"
         data-name="binary sensor.sleepnumber carlo stacey is in bed"
         class="cls-23"
         d="M688,105h27.76a5.34,5.34,0,0,1,5.26,5.42v8.18a5.34,5.34,0,0,1-5.26,5.42H688a5.34,5.34,0,0,1-5.26-5.42v-8.18A5.34,5.34,0,0,1,688,105Z" />
      <path
         id="binary_sensor.sleepnumber_carlo_carlo_is_in_bed"
         data-name="binary sensor.sleepnumber carlo carlo is in bed"
         class="cls-30"
         d="M688.45,125.62h26.26a6.11,6.11,0,0,1,6,6.19v6.12a6.11,6.11,0,0,1-6,6.19H688.45a6.11,6.11,0,0,1-6-6.19v-6.12A6.11,6.11,0,0,1,688.45,125.62Z" />
    </g>
    <g
       id="Lights">
      <circle
         id="light.m1_back_right"
         data-name="light.m1 back right"
         class="cls-1"
         cx="538.72"
         cy="298.84"
         r="5" />
      <circle
         id="light.m1_back_left"
         data-name="light.m1 back left"
         class="cls-1"
         cx="538.72"
         cy="239.6"
         r="5" />
      <circle
         id="light.m1_slider"
         data-name="light.m1 slider"
         class="cls-1"
         cx="555.04"
         cy="175.74"
         r="5" />
      <circle
         id="light.m1_front_left"
         data-name="light.m1 front left"
         class="cls-1"
         cx="608.96"
         cy="239.6"
         r="5" />
      <circle
         id="light.m1_front_right"
         data-name="light.m1 front right"
         class="cls-1"
         cx="608.96"
         cy="298.49"
         r="5" />
      <circle
         id="light.bedroom_hallway"
         data-name="light.bedroom hallway"
         class="cls-1"
         cx="607.54"
         cy="175.03"
         r="5" />
      <circle
         id="light.sink"
         class="cls-1"
         cx="491.18"
         cy="216.18"
         r="5" />
      <circle
         id="light.kids_hallway"
         data-name="light.kids hallway"
         class="cls-1"
         cx="374.11"
         cy="203.41"
         r="5" />
      <circle
         id="light.f1"
         class="cls-1"
         cx="607.54"
         cy="370.15"
         r="5" />
      <circle
         id="light.f2"
         class="cls-1"
         cx="608.25"
         cy="415.56"
         r="5" />
      <circle
         id="light.office_lamp"
         data-name="light.office lamp"
         class="cls-1"
         cx="430.87"
         cy="73.57"
         r="5" />
      <circle
         id="light.den_lamp"
         data-name="light.den lamp"
         class="cls-13"
         cx="727.46"
         cy="367.31"
         r="5" />
      <rect
         id="light.tv_light"
         data-name="light.tv light"
         class="cls-1"
         x="643.13"
         y="239.7"
         width="4.9"
         height="49.86"
         rx="1.19"
         ry="1.19" />
      <circle
         id="light.bedroom"
         class="cls-1"
         cx="729.5"
         cy="79.62"
         r="5" />
      <circle
         id="light.master_toilet"
         data-name="light.master toilet"
         class="cls-1"
         cx="664.27"
         cy="300.38"
         r="5" />
      <circle
         id="light.justin_go"
         data-name="light.justin go"
         class="cls-1"
         cx="348.69"
         cy="111.73"
         r="5" />
      <circle
         id="light.paige_go"
         data-name="light.paige go"
         class="cls-1"
         cx="288.99"
         cy="232.14"
         r="5" />
      <circle
         id="light.outdoor_foyer"
         data-name="light.outdoor foyer"
         class="cls-1"
         cx="606.83"
         cy="470.2"
         r="5" />
      <circle
         id="light.garage_attic"
         data-name="light.garage attic"
         class="cls-1"
         cx="404.63"
         cy="385.52"
         r="5" />
      <circle
         id="light.k1"
         class="cls-13"
         cx="427.05"
         cy="223.4"
         r="5" />
      <circle
         id="light.k2"
         class="cls-13"
         cx="427.85"
         cy="253.42"
         r="5" />
      <circle
         id="light.fridge"
         class="cls-13"
         cx="427.85"
         cy="282.64"
         r="5" />
      <circle
         id="light.k3"
         class="cls-1"
         cx="450.27"
         cy="216.59"
         r="5" />
      <circle
         id="light.k4"
         class="cls-13"
         cx="471.48"
         cy="237.41"
         r="5" />
      <circle
         id="light.k5"
         class="cls-13"
         cx="472.28"
         cy="265.83"
         r="5" />
      <circle
         id="light.k6"
         class="cls-13"
         cx="472.68"
         cy="292.25"
         r="5" />
      <g
         id="switch.kitchen_accents"
         data-name="switch.kitchen accents">
        <path
           id="switch.kitchen_Accents-a"
           data-name="switch.kitchen Accents-a"
           class="cls-1"
           d="M411.45,289.85h-1.74a1.59,1.59,0,0,1-1.58-1.59l.06-63a1.57,1.57,0,0,1,1.58-1.57h1.74a1.59,1.59,0,0,1,1.58,1.59l-.06,63A1.57,1.57,0,0,1,411.45,289.85Z" />
        <path
           id="switch.kitchen_Accents-b"
           data-name="switch.kitchen Accents-b"
           class="cls-23"
           d="M498,291.41h-1.74a1.59,1.59,0,0,1-1.58-1.59l.06-63a1.57,1.57,0,0,1,1.58-1.57H498a1.59,1.59,0,0,1,1.58,1.59l-.06,63A1.57,1.57,0,0,1,498,291.41Z" />
      </g>
      <circle
         id="light.p1_back_left"
         data-name="light.p1 back left"
         class="cls-13"
         cx="495"
         cy="69"
         r="5" />
      <circle
         id="light.p1_back_right"
         data-name="light.p1 back right"
         class="cls-13"
         cx="567"
         cy="69"
         r="5" />
      <circle
         id="light.p1_front_right"
         data-name="light.p1 front right"
         class="cls-13"
         cx="567"
         cy="111"
         r="5" />
      <circle
         id="light.p1_front_left"
         data-name="light.p1 front left"
         class="cls-13"
         cx="496"
         cy="111"
         r="5" />
      <circle
         id="light.upstairs_lamp"
         data-name="light.upstairs lamp"
         class="cls-1"
         cx="60.42"
         cy="441.41"
         r="5" />
      <path
         id="light.d1"
         class="cls-1"
         d="M446.5,152a7.5,7.5,0,0,0,7.5,7.5v-15A7.5,7.5,0,0,0,446.5,152Z" />
      <path
         id="light.d2"
         class="cls-13"
         d="M455,144.5v15a7.5,7.5,0,0,0,0-15Z" />
      <path
         id="light.s2"
         class="cls-1"
         d="M477,403.67a5,5,0,0,1-5,5v-10A5,5,0,0,1,477,403.67Z" />
      <path
         id="light.s3"
         class="cls-1"
         d="M477,428.33a5,5,0,0,1-5,5v-10A5,5,0,0,1,477,428.33Z" />
      <path
         id="light.s4"
         class="cls-1"
         d="M477,453a5,5,0,0,1-5,5V448A5,5,0,0,1,477,453Z" />
      <path
         id="light.s1"
         class="cls-1"
         d="M472,374v10a5,5,0,0,0,0-10Z" />
      <rect
         id="light.led_garage_small"
         data-name="light.led garage small"
         class="cls-23"
         x="417"
         y="483"
         width="49"
         height="4"
         rx="1.58"
         ry="1.58" />
      <rect
         id="light.led_garage_large"
         data-name="light.led garage large"
         class="cls-31"
         x="292.74"
         y="503"
         width="96.26"
         height="4"
         rx="1.58"
         ry="1.58" />
      <path
         id="light.outdoor_sconce_1"
         data-name="light.outdoor sconce 1"
         class="cls-31"
         d="M478.53,488.57a5,5,0,0,1-5-5h10A5,5,0,0,1,478.53,488.57Z" />
      <path
         id="light.outdoor_sconce_2"
         data-name="light.outdoor sconce 2"
         class="cls-13"
         d="M404.53,509a5,5,0,0,1-5-5h10A5,5,0,0,1,404.53,509Z" />
      <path
         id="light.outdoor_sconce_3"
         data-name="light.outdoor sconce 3"
         class="cls-13"
         d="M282.53,509a5,5,0,0,1-5-5h10A5,5,0,0,1,282.53,509Z" />
      <path
         id="light.couch_1"
         data-name="light.couch 1"
         class="cls-13"
         d="M516,344H505V333A11,11,0,0,1,516,344Z" />
      <path
         id="light.outdoor_bathroom"
         data-name="light.outdoor bathroom"
         class="cls-13"
         d="M345.53,47a5,5,0,0,1,5,5h-10A5,5,0,0,1,345.53,47Z" />
    </g>
    <g
       id="Alarm_Senors"
       data-name="Alarm Senors">
      <rect
         class="cls-32"
         x="737.93"
         y="84.77"
         width="21.22"
         height="5.69"
         rx="2"
         ry="2"
         transform="matrix(0, 1, -1, 0, 836.16, -660.93)"
         id="rect447" />
      <rect
         class="cls-32"
         x="737.93"
         y="154.77"
         width="21.22"
         height="5.69"
         rx="2"
         ry="2"
         transform="matrix(0, 1, -1, 0, 906.16, -590.93)"
         id="rect449" />
      <rect
         class="cls-32"
         x="729.7"
         y="275"
         width="37.68"
         height="5.69"
         rx="2"
         ry="2"
         transform="translate(1026.39 -470.7) rotate(90)"
         id="rect451" />
      <rect
         class="cls-32"
         x="399.96"
         y="52.65"
         width="21.22"
         height="5.69"
         rx="2"
         ry="2"
         transform="translate(821.15 110.98) rotate(-180)"
         id="rect453" />
      <rect
         class="cls-32"
         x="264.78"
         y="175.24"
         width="21.22"
         height="5.69"
         rx="2"
         ry="2"
         transform="translate(453.48 -97.31) rotate(90)"
         id="rect455" />
      <rect
         class="cls-32"
         x="655"
         y="473.77"
         width="29"
         height="5.69"
         rx="2"
         ry="2"
         transform="translate(1339 953.22) rotate(-180)"
         id="rect457" />
      <rect
         class="cls-32"
         x="490"
         y="477.77"
         width="29"
         height="5.69"
         rx="2"
         ry="2"
         transform="translate(1009 961.22) rotate(-180)"
         id="rect459" />
      <rect
         class="cls-32"
         x="531"
         y="477.77"
         width="29"
         height="5.69"
         rx="2"
         ry="2"
         transform="translate(1091 961.22) rotate(-180)"
         id="rect461" />
      <rect
         class="cls-32"
         x="697"
         y="473.77"
         width="29"
         height="5.69"
         rx="2"
         ry="2"
         transform="translate(1423 953.22) rotate(-180)"
         id="rect463" />
      <rect
         class="cls-32"
         x="451.96"
         y="128.65"
         width="21.22"
         height="5.69"
         rx="2"
         ry="2"
         transform="translate(925.15 262.98) rotate(-180)"
         id="rect465" />
      <rect
         class="cls-32"
         x="474.49"
         y="137.29"
         width="21.22"
         height="5.69"
         rx="2"
         ry="2"
         transform="translate(721.24 586.46) rotate(-133.99)"
         id="rect467" />
      <rect
         class="cls-32"
         x="37.28"
         y="400.3"
         width="20.45"
         height="5"
         rx="2"
         ry="2"
         transform="translate(450.3 355.3) rotate(90)"
         id="rect469" />
      <rect
         class="cls-32"
         x="38.28"
         y="482.3"
         width="20.45"
         height="5"
         rx="2"
         ry="2"
         transform="translate(533.3 436.3) rotate(90)"
         id="rect471" />
      <rect
         class="cls-32"
         x="49.49"
         y="497.36"
         width="20.45"
         height="5"
         rx="2"
         ry="2"
         transform="translate(119.42 999.73) rotate(-180)"
         id="rect473" />
      <rect
         class="cls-30"
         x="613.18"
         y="61"
         width="39.32"
         height="5.5"
         rx="2"
         ry="2"
         id="rect475" />
      <rect
         class="cls-30"
         x="264.78"
         y="276.24"
         width="21.22"
         height="5.69"
         rx="2"
         ry="2"
         transform="translate(554.48 3.69) rotate(90)"
         id="rect477" />
    </g>
    <path
       id="lighting_bolt"
       data-name="lighting bolt"
       class="cls-13"
       d="M495.94,227.63v2.8h.76v2.29l1.78-3.05h-1l1-2Z" />
    <path
       id="lighting_bolt-2"
       data-name="lighting bolt"
       class="cls-13"
       d="M409.34,225.76v2.8h.76v2.29l1.78-3.05h-1l1-2Z" />
    <rect
       id="cover.large_garage"
       data-name="cover.large garage"
       class="cls-23"
       x="290"
       y="485"
       width="102"
       height="12"
       rx="2.8"
       ry="2.8" />
    <rect
       id="cover.small_garage"
       data-name="cover.small garage"
       class="cls-30"
       x="417"
       y="465"
       width="48"
       height="12"
       rx="2.8"
       ry="2.8" />
    <text
       class="cls-29"
       transform="translate(90.61 150.4)"
       id="sensor.dark_sky_temperature"
       inkscape:label="#text484"
       style="-inkscape-font-specification:'HelveticaNeue-CondensedBold, Helvetica Neue, Bold';font-family:HelveticaNeue-CondensedBold, 'Helvetica Neue';font-weight:bold;font-style:normal;font-stretch:normal;font-variant:normal;font-size:25.54933421px;text-anchor:start;text-align:start;writing-mode:lr;font-variant-ligatures:normal;font-variant-caps:normal;font-variant-numeric:normal;font-feature-settings:normal;">
      <tspan
         sodipodi:role="line"
         id="tspan569">XX</tspan>
    </text>
    <text
       class="cls-29"
       transform="translate(148.61 150.4)"
       id="sensor.dark_sky_humidity"
       inkscape:label="#text486"
       style="-inkscape-font-specification:'Helvetica-Bold, Helvetica, Bold';font-family:Helvetica-Bold, Helvetica;font-weight:bold;font-style:normal;font-stretch:normal;font-variant:normal;font-size:26.66666667px;text-anchor:start;text-align:start;writing-mode:lr;font-variant-ligatures:normal;font-variant-caps:normal;font-variant-numeric:normal;font-feature-settings:normal;">
      <tspan
         sodipodi:role="line"
         id="tspan565">XX</tspan>
    </text>
    <text
       class="cls-33"
       transform="translate(62.99 84.7)"
       id="device_tracker.carlo"
       inkscape:label="#text488">home</text>
    <text
       class="cls-34"
       transform="translate(143.84 84.7)"
       id="device_tracker.stacey"
       inkscape:label="#text490">home</text>
    <rect
       class="cls-2"
       x="48"
       y="551.79"
       width="737.5"
       height="36"
       rx="11.88"
       ry="11.88"
       id="rect492" />
    <text
       class="cls-35"
       transform="translate(68.88 574.98) scale(0.78 1)"
       id="sensor.last_message"
       inkscape:label="#text554"
       style="-inkscape-font-specification:'Helvetica, Helvetica, Normal';font-family:Helvetica, Helvetica;font-weight:normal;font-style:normal;font-stretch:normal;font-variant:normal;font-size:13.99992642px;text-anchor:start;text-align:start;writing-mode:lr;font-variant-ligatures:normal;font-variant-caps:normal;font-variant-numeric:normal;font-feature-settings:normal;">
      <tspan
         sodipodi:role="line"
         id="tspan567">THIS IS A LOT OF SAMPLETEXT - IT IS </tspan>
    </text>
    <path
       id="switch.back_landscaping"
       data-name="switch.back landscaping"
       class="cls-5"
       d="M739.21,54.72h-.47A6.75,6.75,0,0,1,732,48a.25.25,0,0,1,.25-.25h.22a6.74,6.74,0,0,1,3.11.76,6.82,6.82,0,0,1,2.35,2l.81,1.11V47l-.4,0a6.07,6.07,0,0,1-5.41-6V39.84a.25.25,0,0,1,.2-.25,6.07,6.07,0,0,1,2.59,0l.23.05.17-.16A6.8,6.8,0,0,1,738.77,38h.09a7,7,0,0,1,2.94,1.51l.17.15.23-.05a6.06,6.06,0,0,1,1.38-.16,6.18,6.18,0,0,1,1.26.13.25.25,0,0,1,.2.25v1.08a6.07,6.07,0,0,1-5.41,6l-.4,0v4.65l.81-1.11a6.82,6.82,0,0,1,2.35-2,6.73,6.73,0,0,1,3.11-.76h.15c.15,0,.31.14.31.25A6.75,6.75,0,0,1,739.21,54.72Zm5.7-6.46a6.25,6.25,0,0,0-5.61,5.43l-.07.55.55-.05a6.25,6.25,0,0,0,5.61-5.43l.07-.55Zm-12.36.5a6.25,6.25,0,0,0,5.61,5.43l.55.05-.07-.55A6.25,6.25,0,0,0,733,48.26l-.55-.05ZM734.36,40l-.54,0-.4,0v.88a5.56,5.56,0,1,0,11.11,0V40l-.4,0-.55,0a5.51,5.51,0,0,0-4.4,2.18.28.28,0,0,1-.4,0A5.5,5.5,0,0,0,734.38,40Zm4.33-1.58a6.55,6.55,0,0,0-1.79.9l-.62.44L737,40a6,6,0,0,1,1.68,1.19l.32.32.32-.32a6,6,0,0,1,1.63-1.17l.69-.34-.63-.43a6.8,6.8,0,0,0-2-.93l-.13,0Z" />
    <path
       id="switch.front_landscaping"
       data-name="switch.front landscaping"
       class="cls-5"
       d="M739.21,502.72h-.47A6.75,6.75,0,0,1,732,496a.25.25,0,0,1,.25-.25h.22a6.74,6.74,0,0,1,3.11.76,6.82,6.82,0,0,1,2.35,2l.81,1.11V495l-.4,0a6.07,6.07,0,0,1-5.41-6v-1.08a.25.25,0,0,1,.2-.25,6.07,6.07,0,0,1,2.59,0l.23.05.17-.16a6.8,6.8,0,0,1,2.67-1.49h.09a7,7,0,0,1,2.94,1.51l.17.15.23-.05a6.06,6.06,0,0,1,1.38-.16,6.18,6.18,0,0,1,1.26.13.25.25,0,0,1,.2.25v1.08a6.07,6.07,0,0,1-5.41,6l-.4,0v4.65l.81-1.11a6.82,6.82,0,0,1,2.35-2,6.73,6.73,0,0,1,3.11-.76h.15c.15,0,.31.14.31.25A6.75,6.75,0,0,1,739.21,502.72Zm5.7-6.46a6.25,6.25,0,0,0-5.61,5.43l-.07.55.55-.05a6.25,6.25,0,0,0,5.61-5.43l.07-.55Zm-12.36.5a6.25,6.25,0,0,0,5.61,5.43l.55.05-.07-.55a6.25,6.25,0,0,0-5.61-5.43l-.55-.05Zm1.81-8.79-.54,0-.4,0v.88a5.56,5.56,0,1,0,11.11,0V488l-.4,0-.55,0a5.51,5.51,0,0,0-4.4,2.18.28.28,0,0,1-.4,0,5.5,5.5,0,0,0-4.39-2.18Zm4.33-1.58a6.55,6.55,0,0,0-1.79.9l-.62.44.68.33a6,6,0,0,1,1.68,1.19l.32.32.32-.32a6,6,0,0,1,1.63-1.17l.69-.34-.63-.43a6.8,6.8,0,0,0-2-.93l-.13,0Z" />
    <rect
       id="light.led_outdoor_den"
       data-name="light.led garage small"
       class="cls-23"
       x="656.92206"
       y="488.78577"
       width="49"
       height="4"
       rx="1.58"
       ry="1.58"
       style="fill:#bdf271"
       inkscape:label="#light.led_garage_small-6" />
  </g>
</svg>
