<?xml version="1.0" encoding="utf-8"?>
<!-- Generator: Adobe Illustrator 22.0.1, SVG Export Plug-In . SVG Version: 6.00 Build 0)  -->
<svg version="1.1" id="Layer_1" xmlns="http://www.w3.org/2000/svg" xmlns:xlink="http://www.w3.org/1999/xlink" x="0px" y="0px"
	 viewBox="0 0 250 155.4" style="enable-background:new 0 0 250 155.4;" xml:space="preserve">
<style type="text/css">
	.wst0{fill:#FFD150;}
	.st1{fill:#DFEFF1;}
</style>
<g>
	<path class="wst0" d="M12,103.4C-6.4,81-3.4,47.8,19.1,29.1C38.1,13.4,65.9,13,85.3,28.4v75H12z"/>
	<path class="st1" d="M247.6,126.6c-6.2,17.2-22.6,28.8-40.9,28.8H28.3c-7.7-0.3-14.6-3.5-19.8-9S0.7,133.7,1,126.2
		c0.6-14.9,12.7-27,27.3-27.3h1.5l0.2-1.5C32.3,75.2,50.7,58.4,73,58.4h1.5l0.2-1.5c5-35.8,38.1-61.1,73.7-56.4
		c26.9,3.7,48.5,22.9,55.1,49.1c1.6,6.4,2.8,14.1,2.2,15.5l0.5,0.3c-19.1,0.3-36.9,12.3-43.5,31.3l1.6,0.5l1.6,0.5
		c0.3-0.8,0.6-1.6,0.9-2.3c6.5-15.6,21.4-25.7,37.8-26.6c5.5-0.3,11.2,0.4,16.7,2.4C243.5,79.1,255.4,103.9,247.6,126.6z"/>
</g>
</svg>
