<?xml version="1.0" encoding="utf-8"?>
<!-- Generator: Adobe Illustrator 22.0.1, SVG Export Plug-In . SVG Version: 6.00 Build 0)  -->
<svg version="1.1" id="Layer_1" xmlns="http://www.w3.org/2000/svg" xmlns:xlink="http://www.w3.org/1999/xlink" x="0px" y="0px"
	 viewBox="0 0 250 106.7" style="enable-background:new 0 0 250 106.7;" xml:space="preserve">
<style type="text/css">
	.wst0{fill:#DFEFF1;}
	.st1{fill:#4EDD81;}
	.st2{fill:#AEA1EA;}
	.st3{fill:#F23B74;}
	.st4{fill:#91EAF9;}
</style>
<g>
	<path class="wst0" d="M223.3,102.4c2.5-54.2-39.5-99.9-93.4-102.3S29.7,39.6,27.3,93.9c0,3.4,0,6.4,0,9.8l58.5-0.6
		c0.6-21.8,18.7-39.2,40.4-38.6c20.8,0.3,38,17.2,38.6,38.3L223.3,102.4z"/>
	<path class="st1" d="M59.4,103.3h-6.1C53.3,63.5,85.5,31,125,31c39.7,0,72,32.2,72,71.7h-6.1c0-36.2-29.5-65.6-65.9-65.6
		C88.8,37.2,59.4,66.9,59.4,103.3z"/>
	<path class="st2" d="M68,103.4c-0.2-15.3,5.7-29.7,16.5-40.6c10.7-10.8,25.1-16.9,40.5-17c0.2,0,0.4,0,0.6,0
		c31.2,0,56.7,25.4,57,57l-6.1,0.1c-0.3-28.3-23.3-51.2-51.4-50.9c-13.7,0.1-26.6,5.5-36.2,15.2c-9.6,9.7-14.8,22.6-14.7,36.2
		L68,103.4z"/>
	<path class="st3" d="M45,103.3h-6.1v-4.3c0.5-23.1,9.9-44.6,26.6-60.7c16.7-16.1,38.7-24.6,61.7-24.2c23,0.5,44.5,9.9,60.5,26.6
		c15.9,16.7,24.5,38.6,24,61.7l-6.1-0.1c0.4-21.4-7.5-41.8-22.3-57.3c-14.8-15.5-34.8-24.3-56.2-24.7c-21.4-0.5-41.8,7.6-57.3,22.5
		S45.5,77.7,45,99.1V103.3z"/>
	<path class="st4" d="M3.1,106.7c-1.7,0-3.1-1.4-3.1-3c0-1.7,1.4-3.1,3-3.1l243.9-1.2c0,0,0,0,0,0c1.7,0,3.1,1.4,3.1,3
		c0,1.7-1.4,3.1-3,3.1L3.1,106.7C3.1,106.7,3.1,106.7,3.1,106.7z"/>
</g>
</svg>
