<?xml version="1.0" encoding="utf-8"?>
<!-- Generator: Adobe Illustrator 22.0.1, SVG Export Plug-In . SVG Version: 6.00 Build 0)  -->
<svg version="1.1" id="Layer_1" xmlns="http://www.w3.org/2000/svg" xmlns:xlink="http://www.w3.org/1999/xlink" x="0px" y="0px"
	 viewBox="0 0 250 206.2" style="enable-background:new 0 0 250 206.2;" xml:space="preserve">
<style type="text/css">
	.wst0{fill:#CCFEFF;}
	.st1{fill:#DFEFF1;}
</style>
<g>
	<path class="wst0" d="M174,157.2c0,1.6-1.3,2.9-2.9,2.9h-8l2.5,2.5c1.1,1.1,1.1,3,0,4.1c-0.5,0.6-1.3,0.8-2,0.8
		c-0.7,0-1.5-0.3-2-0.8l-6.6-6.6h-22.8L148,176h9.5c1.6,0,2.9,1.3,2.9,2.9c0,1.6-1.3,2.9-2.9,2.9h-3.8l5.9,5.9c1.1,1.2,1.1,3,0,4.1
		c-0.6,0.6-1.3,0.8-2,0.8c-0.7,0-1.5-0.3-2-0.8l-5.6-5.7v3.6c0,1.6-1.3,2.9-2.9,2.9c-1.6,0-2.9-1.3-2.9-2.9v-9.4l-16.3-16.5v23
		l6.6,6.6c1.1,1.1,1.1,3,0,4.1c-0.5,0.6-1.3,0.8-2,0.8c-0.7,0-1.5-0.3-2-0.8l-2.5-2.5v8.3c0,1.6-1.3,2.9-2.9,2.9s-2.9-1.3-2.9-2.9
		V195l-2.5,2.5c-1.1,1.1-3,1.1-4.1,0s-1.1-3,0-4.1l6.6-6.6v-22.7l-16.3,16.3v9.3c0,1.6-1.3,2.9-2.9,2.9s-2.9-1.3-2.9-2.9v-3.6
		l-5.6,5.6c-0.6,0.6-1.3,0.8-2,0.8c-0.7,0-1.5-0.3-2-0.8c-1.1-1.1-1.1-3,0-4.1l11.5-11.5l16.2-16.2H95l-6.6,6.6
		c-0.5,0.6-1.3,0.8-2,0.8c-0.7,0-1.5-0.3-2-0.8c-1.1-1.1-1.1-3,0-4.1l2.5-2.5h-8c-1.6,0-2.9-1.3-2.9-2.9c0-1.6,1.3-2.9,2.9-2.9h92.3
		C172.7,154.3,174,155.6,174,157.2z"/>
	<path class="st1" d="M247.6,127.1c-6.2,17.3-22.7,28.9-41.1,28.9h-179c-7.7-0.3-14.7-3.5-19.9-9s-7.8-12.7-7.5-20.3
		c0.6-15,12.7-27.1,27.4-27.4h1.5l0.2-1.5c2.3-22.3,20.8-39.1,43.1-39.1h1.5l0.2-1.5c5-35.9,38.2-61.3,74-56.6
		c27,3.7,48.7,23,55.3,49.3c1.6,6.4,2.8,14.2,2.2,15.6l0.5,0.3c-19.2,0.3-37,12.3-43.7,31.4l1.6,0.5l1.6,0.5
		c0.3-0.8,0.6-1.6,0.9-2.3c6.5-15.7,21.5-25.8,37.9-26.7c5.5-0.3,11.2,0.4,16.8,2.4C243.5,79.4,255.5,104.3,247.6,127.1z"/>
</g>
</svg>
