<?xml version="1.0" encoding="utf-8"?>
<!-- Generator: Adobe Illustrator 22.0.1, SVG Export Plug-In . SVG Version: 6.00 Build 0)  -->
<svg version="1.1" id="Layer_2_1_" xmlns="http://www.w3.org/2000/svg" xmlns:xlink="http://www.w3.org/1999/xlink" x="0px" y="0px"
	 viewBox="0 0 206.4 105.5" style="enable-background:new 0 0 206.4 105.5;" xml:space="preserve">
<title>Radio Green</title>
<rect width="206.4" height="105.7"/>
<g>
	<g style="enable-background:new    ;">
		<path style="fill:#BDF271;" d="M39.1,29.3h14.5c1.5,0,3,0.2,4.3,0.5c1.3,0.3,2.5,0.9,3.5,1.6c1,0.8,1.8,1.8,2.4,3s0.9,2.8,0.9,4.6
			c0,2.5-0.7,4.7-2,6.4c-1.3,1.8-3.1,2.8-5.5,3.3v0.1c1.6,0.2,2.9,0.7,3.8,1.4s1.6,1.6,2.1,2.6s0.7,2.2,0.9,3.4
			c0.1,1.2,0.2,2.5,0.2,3.7c0,0.7,0,1.5,0,2.2s0,1.4,0.1,2c0.1,0.6,0.2,1.2,0.3,1.7s0.3,1,0.6,1.3h-2.4c-0.5-0.9-0.7-1.9-0.8-3.1
			c0-1.2-0.1-2.4-0.1-3.7s0-2.5-0.1-3.8s-0.4-2.4-0.9-3.4s-1.3-1.8-2.5-2.4c-1.1-0.4-2.7-0.7-4.8-0.7H41.2v17.2h-2.1
			C39.1,67.2,39.1,29.3,39.1,29.3z M53.6,47.9c1.3,0,2.4-0.2,3.5-0.5s2-0.9,2.8-1.6c0.8-0.7,1.4-1.6,1.9-2.7
			c0.5-1.1,0.7-2.4,0.7-3.9c0-1.4-0.2-2.6-0.7-3.6s-1.1-1.8-2-2.5C59,32.5,58,32,57,31.7c-1.1-0.3-2.2-0.4-3.4-0.4H41.2v16.6H53.6z"
			/>
		<path style="fill:#BDF271;" d="M82.2,29.3h2.3l13.8,37.9H96L91.6,55H74.9l-4.4,12.2h-2.3L82.2,29.3z M90.9,53l-7.5-21.4h-0.1
			L75.6,53H90.9z"/>
		<path style="fill:#BDF271;" d="M102.8,29.3h11.4c3.1,0,5.7,0.5,7.8,1.6c2.1,1.1,3.7,2.5,5,4.2c1.2,1.8,2.1,3.8,2.6,6
			c0.5,2.3,0.8,4.6,0.8,7c0,2.7-0.3,5.2-1,7.5c-0.6,2.3-1.6,4.3-3,6c-1.3,1.7-3,3-5.1,4c-2,1-4.5,1.5-7.2,1.5h-11.3V29.3z
			 M114.3,65.2c1.6,0,3.3-0.3,4.9-0.8s3.1-1.5,4.5-2.8c1.3-1.3,2.4-3,3.2-5.2s1.2-4.9,1.2-8.2c0-2.6-0.2-4.8-0.7-6.6
			s-1.1-3.4-1.9-4.6c-0.8-1.3-1.6-2.2-2.6-3c-1-0.7-2-1.3-3.1-1.7c-1.1-0.4-2.1-0.6-3.2-0.8c-1.1-0.1-2-0.2-2.9-0.2h-8.9v33.9H114.3
			z"/>
		<path style="fill:#BDF271;" d="M137.4,29.3h2.1v37.9h-2.1V29.3z"/>
		<path style="fill:#BDF271;" d="M179.3,48.3c0,2.8-0.4,5.4-1.1,7.8c-0.7,2.4-1.8,4.5-3.2,6.3s-3.1,3.2-5.2,4.2s-4.4,1.5-7,1.5
			s-4.9-0.5-7-1.5s-3.8-2.4-5.2-4.2s-2.5-3.9-3.2-6.3c-0.7-2.4-1.1-5-1.1-7.8s0.4-5.4,1.1-7.8c0.7-2.4,1.8-4.5,3.2-6.3
			s3.2-3.2,5.2-4.2c2.1-1,4.4-1.5,7-1.5s4.9,0.5,7,1.5s3.8,2.4,5.2,4.2s2.5,3.9,3.2,6.3C178.9,42.9,179.3,45.5,179.3,48.3z
			 M148.3,48.3c0,2.4,0.3,4.7,1,6.9s1.6,4,2.8,5.7c1.2,1.6,2.8,2.9,4.5,3.8c1.8,1,3.8,1.4,6.1,1.4s4.3-0.5,6.1-1.4
			c1.8-1,3.3-2.2,4.5-3.8s2.2-3.5,2.8-5.7c0.7-2.2,1-4.5,1-6.9s-0.3-4.7-1-6.9s-1.6-4-2.8-5.7c-1.2-1.6-2.7-2.9-4.5-3.8
			c-1.8-1-3.8-1.4-6.1-1.4s-4.3,0.5-6.1,1.4c-1.8,1-3.3,2.2-4.5,3.8s-2.2,3.5-2.8,5.7C148.6,43.5,148.3,45.8,148.3,48.3z"/>
	</g>
</g>
</svg>
