<?xml version="1.0" encoding="utf-8"?>
<!-- Generator: Adobe Illustrator 22.0.1, SVG Export Plug-In . SVG Version: 6.00 Build 0)  -->
<svg version="1.1" id="Layer_2_1_" xmlns="http://www.w3.org/2000/svg" xmlns:xlink="http://www.w3.org/1999/xlink" x="0px" y="0px"
	 viewBox="0 0 206.4 105.5" style="enable-background:new 0 0 206.4 105.5;" xml:space="preserve">
<title>Radio Green</title>
<rect width="206.4" height="105.7"/>
<g>
	<g style="enable-background:new    ;">
		<path style="fill:#BDF271;" d="M31.8,29.3h14.5c1.5,0,3,0.2,4.3,0.5c1.3,0.3,2.5,0.9,3.5,1.6c1,0.8,1.8,1.8,2.4,3
			c0.6,1.2,0.9,2.8,0.9,4.6c0,2.5-0.7,4.7-2,6.4c-1.3,1.8-3.1,2.8-5.5,3.3v0.1c1.6,0.2,2.9,0.7,3.8,1.4c0.9,0.7,1.6,1.6,2.1,2.6
			c0.5,1,0.7,2.2,0.9,3.4c0.1,1.2,0.2,2.5,0.2,3.7c0,0.7,0,1.5,0,2.2c0,0.7,0,1.4,0.1,2c0.1,0.6,0.2,1.2,0.3,1.7
			c0.1,0.5,0.3,1,0.6,1.3h-2.4c-0.5-0.9-0.7-1.9-0.8-3.1c0-1.2-0.1-2.4-0.1-3.7s0-2.5-0.1-3.8c-0.1-1.3-0.4-2.4-0.9-3.4
			c-0.5-1-1.3-1.8-2.5-2.4C50,50.3,48.4,50,46.3,50H33.9v17.2h-2.1V29.3z M46.3,47.9c1.3,0,2.4-0.2,3.5-0.5c1.1-0.3,2-0.9,2.8-1.6
			c0.8-0.7,1.4-1.6,1.9-2.7c0.5-1.1,0.7-2.4,0.7-3.9c0-1.4-0.2-2.6-0.7-3.6s-1.1-1.8-2-2.5c-0.8-0.6-1.8-1.1-2.8-1.4
			c-1.1-0.3-2.2-0.4-3.4-0.4H33.9v16.6H46.3z"/>
		<path style="fill:#BDF271;" d="M74.9,29.3h2.3L91,67.2h-2.3l-4.4-12.2H67.6l-4.4,12.2h-2.3L74.9,29.3z M83.6,53l-7.5-21.4h-0.1
			L68.3,53H83.6z"/>
		<path style="fill:#BDF271;" d="M95.5,29.3h11.4c3.1,0,5.7,0.5,7.8,1.6c2.1,1.1,3.7,2.5,5,4.2c1.2,1.8,2.1,3.8,2.6,6
			c0.5,2.3,0.8,4.6,0.8,7c0,2.7-0.3,5.2-1,7.5c-0.6,2.3-1.6,4.3-3,6c-1.3,1.7-3,3-5.1,4c-2,1-4.5,1.5-7.2,1.5H95.5V29.3z M107,65.2
			c1.6,0,3.3-0.3,4.9-0.8c1.6-0.5,3.1-1.5,4.5-2.8c1.3-1.3,2.4-3,3.2-5.2s1.2-4.9,1.2-8.2c0-2.6-0.2-4.8-0.7-6.6
			c-0.5-1.8-1.1-3.4-1.9-4.6c-0.8-1.3-1.6-2.2-2.6-3c-1-0.7-2-1.3-3.1-1.7c-1.1-0.4-2.1-0.6-3.2-0.8c-1.1-0.1-2-0.2-2.9-0.2h-8.9
			v33.9H107z"/>
		<path style="fill:#BDF271;" d="M130.1,29.3h2.1v37.9h-2.1V29.3z"/>
		<path style="fill:#BDF271;" d="M172,48.3c0,2.8-0.4,5.4-1.1,7.8c-0.7,2.4-1.8,4.5-3.2,6.3s-3.1,3.2-5.2,4.2s-4.4,1.5-7,1.5
			s-4.9-0.5-7-1.5c-2.1-1-3.8-2.4-5.2-4.2s-2.5-3.9-3.2-6.3c-0.7-2.4-1.1-5-1.1-7.8c0-2.8,0.4-5.4,1.1-7.8c0.7-2.4,1.8-4.5,3.2-6.3
			c1.4-1.8,3.2-3.2,5.2-4.2c2.1-1,4.4-1.5,7-1.5s4.9,0.5,7,1.5c2.1,1,3.8,2.4,5.2,4.2c1.4,1.8,2.5,3.9,3.2,6.3
			C171.6,42.9,172,45.5,172,48.3z M141,48.3c0,2.4,0.3,4.7,1,6.9c0.7,2.2,1.6,4,2.8,5.7c1.2,1.6,2.8,2.9,4.5,3.8
			c1.8,1,3.8,1.4,6.1,1.4s4.3-0.5,6.1-1.4c1.8-1,3.3-2.2,4.5-3.8c1.2-1.6,2.2-3.5,2.8-5.7c0.7-2.2,1-4.5,1-6.9c0-2.4-0.3-4.7-1-6.9
			c-0.7-2.2-1.6-4-2.8-5.7c-1.2-1.6-2.7-2.9-4.5-3.8c-1.8-1-3.8-1.4-6.1-1.4s-4.3,0.5-6.1,1.4c-1.8,1-3.3,2.2-4.5,3.8
			c-1.2,1.6-2.2,3.5-2.8,5.7C141.3,43.5,141,45.8,141,48.3z"/>
	</g>
</g>
</svg>
