<svg id="Layer_2" data-name="Layer 2" xmlns="http://www.w3.org/2000/svg" viewBox="0 0 206.4 105.48"><defs><style>.cls-1{fill:#e7376b;}</style></defs><title>Artboard 5</title><rect width="206.4" height="105.48"/><path class="cls-1" d="M30.48,44.62a11.17,11.17,0,0,0-.95-4.25,8.82,8.82,0,0,0-2.32-3,9.93,9.93,0,0,0-3.49-1.83,15.23,15.23,0,0,0-4.42-.61,14.48,14.48,0,0,0-3.15.37A9.49,9.49,0,0,0,13,36.58a7.33,7.33,0,0,0-2.36,2.49A7.56,7.56,0,0,0,9.73,43a6.27,6.27,0,0,0,1,3.72A7.77,7.77,0,0,0,13.44,49a16.52,16.52,0,0,0,3.81,1.4c1.43.36,2.88.69,4.34,1s2.95.7,4.37,1.14a14.58,14.58,0,0,1,3.81,1.81,8.6,8.6,0,0,1,2.71,3,9.33,9.33,0,0,1,1,4.59,9.8,9.8,0,0,1-1.17,5,10.41,10.41,0,0,1-2.95,3.29,11.75,11.75,0,0,1-4,1.83,16.81,16.81,0,0,1-4.17.56,22.17,22.17,0,0,1-5.76-.72,12.53,12.53,0,0,1-4.69-2.33,11.24,11.24,0,0,1-3.15-4.17,14.72,14.72,0,0,1-1.1-6.21H8.7a11.39,11.39,0,0,0,.83,5.28A9.47,9.47,0,0,0,12.24,68a11,11,0,0,0,4.08,2,19.3,19.3,0,0,0,4.93.61,14.54,14.54,0,0,0,3.34-.42,10,10,0,0,0,3.28-1.44,8.45,8.45,0,0,0,2.49-2.65,7.93,7.93,0,0,0,1-4.14,6.85,6.85,0,0,0-1-3.9,7.7,7.7,0,0,0-2.71-2.44,16.35,16.35,0,0,0-3.81-1.49c-1.41-.37-2.87-.71-4.37-1s-2.91-.69-4.34-1.12a14.3,14.3,0,0,1-3.81-1.72A8.61,8.61,0,0,1,8.6,47.41a8.63,8.63,0,0,1-1-4.44,9.61,9.61,0,0,1,1.05-4.64,9.12,9.12,0,0,1,2.73-3.13,11.63,11.63,0,0,1,3.79-1.75,16.18,16.18,0,0,1,4.15-.56,18.94,18.94,0,0,1,5.1.66,12,12,0,0,1,4.15,2.07,10.2,10.2,0,0,1,2.86,3.64,13.92,13.92,0,0,1,1.22,5.36Z"/><path class="cls-1" d="M37.17,52.74A26.11,26.11,0,0,1,38.29,45a19.1,19.1,0,0,1,3.25-6.32,15.12,15.12,0,0,1,5.22-4.22,15.5,15.5,0,0,1,7-1.54,14.5,14.5,0,0,1,5.32.88,13.34,13.34,0,0,1,3.78,2.17,12.58,12.58,0,0,1,2.52,2.84,16.7,16.7,0,0,1,1.49,2.9,15.17,15.17,0,0,1,.7,2.33c.13.66.2,1,.2,1.09H65.63a11.89,11.89,0,0,0-1.42-4.27,11.49,11.49,0,0,0-2.68-3.22,11.76,11.76,0,0,0-3.59-2,12.58,12.58,0,0,0-4.17-.69,12.84,12.84,0,0,0-6.11,1.43,14,14,0,0,0-4.54,3.85,17.33,17.33,0,0,0-2.83,5.65,24.78,24.78,0,0,0,0,13.8,17.33,17.33,0,0,0,2.83,5.65,14,14,0,0,0,4.54,3.85,12.84,12.84,0,0,0,6.11,1.43,10.31,10.31,0,0,0,4.76-1.14,13.24,13.24,0,0,0,3.88-3,15.35,15.35,0,0,0,2.66-4.36,15.81,15.81,0,0,0,1.15-5.12h2.14a19.7,19.7,0,0,1-1.53,6.26,17.64,17.64,0,0,1-3.18,5,14,14,0,0,1-4.46,3.26,12.82,12.82,0,0,1-5.42,1.17,15.63,15.63,0,0,1-7-1.54,15.12,15.12,0,0,1-5.22-4.22,19.1,19.1,0,0,1-3.25-6.32A26.11,26.11,0,0,1,37.17,52.74Z"/><path class="cls-1" d="M72.86,33.79H75V51H97.27V33.79h2.15v37.9H97.27V53H75V71.69H72.86Z"/><path class="cls-1" d="M137.16,52.74A26.11,26.11,0,0,1,136,60.51a19.08,19.08,0,0,1-3.24,6.32,15,15,0,0,1-12.18,5.76,15.63,15.63,0,0,1-7-1.54,15.12,15.12,0,0,1-5.22-4.22,19.1,19.1,0,0,1-3.25-6.32,27.51,27.51,0,0,1,0-15.54,19.1,19.1,0,0,1,3.25-6.32,15.12,15.12,0,0,1,5.22-4.22,15.5,15.5,0,0,1,7-1.54,15,15,0,0,1,12.18,5.76A19.08,19.08,0,0,1,136,45,26.11,26.11,0,0,1,137.16,52.74Zm-31,0a23.83,23.83,0,0,0,1,6.9A17.33,17.33,0,0,0,110,65.29a14,14,0,0,0,4.54,3.85,12.84,12.84,0,0,0,6.11,1.43,12.65,12.65,0,0,0,6.07-1.43,14.07,14.07,0,0,0,4.52-3.85A17.33,17.33,0,0,0,134,59.64a24.78,24.78,0,0,0,0-13.8,17.33,17.33,0,0,0-2.83-5.65,14.07,14.07,0,0,0-4.52-3.85,12.65,12.65,0,0,0-6.07-1.43,12.84,12.84,0,0,0-6.11,1.43A14,14,0,0,0,110,40.19a17.33,17.33,0,0,0-2.83,5.65A23.83,23.83,0,0,0,106.15,52.74Z"/><path class="cls-1" d="M173.34,52.74a26.11,26.11,0,0,1-1.13,7.77A19.27,19.27,0,0,1,169,66.83a15,15,0,0,1-12.18,5.76,15.6,15.6,0,0,1-7-1.54,15.25,15.25,0,0,1-5.23-4.22,19.27,19.27,0,0,1-3.24-6.32,27.28,27.28,0,0,1,0-15.54,19.27,19.27,0,0,1,3.24-6.32,15.25,15.25,0,0,1,5.23-4.22A15.59,15.59,0,0,1,169,38.65,19.27,19.27,0,0,1,172.21,45,26.11,26.11,0,0,1,173.34,52.74Zm-31,0a23.83,23.83,0,0,0,1,6.9,17.33,17.33,0,0,0,2.83,5.65,14,14,0,0,0,4.54,3.85,12.84,12.84,0,0,0,6.11,1.43,12.65,12.65,0,0,0,6.07-1.43,14.07,14.07,0,0,0,4.52-3.85,17.33,17.33,0,0,0,2.83-5.65,24.78,24.78,0,0,0,0-13.8,17.33,17.33,0,0,0-2.83-5.65,14.07,14.07,0,0,0-4.52-3.85,12.65,12.65,0,0,0-6.07-1.43,12.84,12.84,0,0,0-6.11,1.43,14,14,0,0,0-4.54,3.85,17.33,17.33,0,0,0-2.83,5.65A23.83,23.83,0,0,0,142.33,52.74Z"/><path class="cls-1" d="M177.93,33.79h2.15V69.67h19.77v2H177.93Z"/></svg>