<svg id="Layer_2" data-name="Layer 2" xmlns="http://www.w3.org/2000/svg" viewBox="0 0 206.4 105.48"><defs><style>.school-1{fill:#e7376b;}</style></defs><title>No Shcool Tom</title><rect width="206.4" height="105.48"/><path class="school-1" d="M7.27,22.37H9.15L24.51,46.62h.07V22.37h1.5V48.81H24.31L8.84,24.37H8.77V48.81H7.27Z"/><path class="school-1" d="M52.41,35.59A18,18,0,0,1,51.62,41a13.33,13.33,0,0,1-2.26,4.41,10.91,10.91,0,0,1-17,0A13.35,13.35,0,0,1,30.06,41a19.26,19.26,0,0,1,0-10.85,13.2,13.2,0,0,1,2.27-4.4,10.66,10.66,0,0,1,3.64-3,10.91,10.91,0,0,1,4.89-1.07,10.46,10.46,0,0,1,8.5,4,13.18,13.18,0,0,1,2.26,4.4A18,18,0,0,1,52.41,35.59Zm-21.63,0a16.35,16.35,0,0,0,.68,4.81,12,12,0,0,0,2,3.94A9.77,9.77,0,0,0,36.6,47a8.87,8.87,0,0,0,4.26,1,8.77,8.77,0,0,0,4.24-1,9.7,9.7,0,0,0,3.15-2.69,12.06,12.06,0,0,0,2-3.94,17.39,17.39,0,0,0,0-9.63,12.16,12.16,0,0,0-2-3.94,9.67,9.67,0,0,0-3.15-2.68,8.77,8.77,0,0,0-4.24-1,8.87,8.87,0,0,0-4.26,1,9.74,9.74,0,0,0-3.17,2.68,12.14,12.14,0,0,0-2,3.94A16.42,16.42,0,0,0,30.78,35.59Z"/><path class="school-1" d="M81,29.92a7.63,7.63,0,0,0-.67-3,6.17,6.17,0,0,0-1.62-2.11,6.88,6.88,0,0,0-2.43-1.28,10.82,10.82,0,0,0-3.08-.42,9.74,9.74,0,0,0-2.2.26,6.53,6.53,0,0,0-2.18.9,5.11,5.11,0,0,0-1.65,1.74,5.19,5.19,0,0,0-.65,2.72,4.42,4.42,0,0,0,.71,2.6A5.37,5.37,0,0,0,69.07,33a12.09,12.09,0,0,0,2.65,1c1,.24,2,.48,3,.7s2.06.49,3,.8a10.05,10.05,0,0,1,2.66,1.26,6,6,0,0,1,1.89,2.07,6.45,6.45,0,0,1,.72,3.2,6.79,6.79,0,0,1-.82,3.48,7.27,7.27,0,0,1-2.06,2.3,8.3,8.3,0,0,1-2.76,1.28,11.67,11.67,0,0,1-2.91.39,15.7,15.7,0,0,1-4-.5,8.82,8.82,0,0,1-3.27-1.63A7.85,7.85,0,0,1,65,44.4a10.29,10.29,0,0,1-.77-4.33h1.5a8,8,0,0,0,.58,3.68,6.65,6.65,0,0,0,1.89,2.46,7.44,7.44,0,0,0,2.85,1.39,13.29,13.29,0,0,0,3.44.43,10,10,0,0,0,2.33-.3,6.86,6.86,0,0,0,2.28-1,5.72,5.72,0,0,0,1.74-1.85,5.43,5.43,0,0,0,.7-2.89,4.72,4.72,0,0,0-.72-2.72A5.27,5.27,0,0,0,79,37.57a11.71,11.71,0,0,0-2.65-1c-1-.26-2-.5-3-.72s-2-.48-3-.78a10,10,0,0,1-2.66-1.2A5.53,5.53,0,0,1,65,28.77a6.71,6.71,0,0,1,.73-3.24,6.41,6.41,0,0,1,1.91-2.18,8,8,0,0,1,2.64-1.22,11.24,11.24,0,0,1,2.9-.39,13,13,0,0,1,3.55.46,8.07,8.07,0,0,1,2.9,1.45,7.08,7.08,0,0,1,2,2.53,9.5,9.5,0,0,1,.85,3.74Z"/><path class="school-1" d="M85.62,35.59a18,18,0,0,1,.79-5.43,13.18,13.18,0,0,1,2.26-4.4,10.6,10.6,0,0,1,3.65-3,10.9,10.9,0,0,1,4.88-1.07,10.21,10.21,0,0,1,3.72.61,9.33,9.33,0,0,1,2.64,1.52,8.53,8.53,0,0,1,1.75,2,11.13,11.13,0,0,1,1,2,10.13,10.13,0,0,1,.49,1.63c.09.45.14.71.14.75h-1.5a8.39,8.39,0,0,0-1-3,8,8,0,0,0-4.37-3.64,9.36,9.36,0,0,0-7.17.52,9.64,9.64,0,0,0-3.17,2.68,12.16,12.16,0,0,0-2,3.94,17.39,17.39,0,0,0,0,9.63,12.06,12.06,0,0,0,2,3.94A9.67,9.67,0,0,0,93,47a8.8,8.8,0,0,0,4.25,1,7.24,7.24,0,0,0,3.33-.8,9.06,9.06,0,0,0,2.7-2.11,10.74,10.74,0,0,0,1.86-3,10.9,10.9,0,0,0,.8-3.57h1.5a13.94,13.94,0,0,1-1.07,4.37,12.23,12.23,0,0,1-2.22,3.46A9.62,9.62,0,0,1,101,48.62a9.06,9.06,0,0,1-3.79.82,10.77,10.77,0,0,1-4.88-1.08,10.57,10.57,0,0,1-3.65-2.94A13.33,13.33,0,0,1,86.41,41,18,18,0,0,1,85.62,35.59Z"/><path class="school-1" d="M110.52,22.37H112v12h15.54v-12h1.5V48.81h-1.5v-13H112v13h-1.5Z"/><path class="school-1" d="M155.39,35.59A18,18,0,0,1,154.6,41a13.33,13.33,0,0,1-2.26,4.41A11.19,11.19,0,0,1,139,48.36a10.54,10.54,0,0,1-3.64-2.94A13.35,13.35,0,0,1,133,41a19.26,19.26,0,0,1,0-10.85,13.2,13.2,0,0,1,2.27-4.4,10.56,10.56,0,0,1,3.64-3,10.91,10.91,0,0,1,4.89-1.07,10.46,10.46,0,0,1,8.5,4,13.18,13.18,0,0,1,2.26,4.4A18,18,0,0,1,155.39,35.59Zm-21.63,0a16.35,16.35,0,0,0,.68,4.81,12,12,0,0,0,2,3.94A9.77,9.77,0,0,0,139.58,47a8.87,8.87,0,0,0,4.26,1,8.77,8.77,0,0,0,4.24-1,9.7,9.7,0,0,0,3.15-2.69,12.26,12.26,0,0,0,2-3.94,17.39,17.39,0,0,0,0-9.63,12.36,12.36,0,0,0-2-3.94,9.67,9.67,0,0,0-3.15-2.68,8.77,8.77,0,0,0-4.24-1,8.87,8.87,0,0,0-4.26,1,9.74,9.74,0,0,0-3.17,2.68,12.14,12.14,0,0,0-2,3.94A16.42,16.42,0,0,0,133.76,35.59Z"/><path class="school-1" d="M180.63,35.59a18.35,18.35,0,0,1-.78,5.42,13.54,13.54,0,0,1-2.27,4.41,10.91,10.91,0,0,1-17,0A13.35,13.35,0,0,1,158.28,41a19.26,19.26,0,0,1,0-10.85,13.2,13.2,0,0,1,2.27-4.4,10.66,10.66,0,0,1,3.64-3,10.91,10.91,0,0,1,4.89-1.07,10.46,10.46,0,0,1,8.5,4,13.39,13.39,0,0,1,2.27,4.4A18.37,18.37,0,0,1,180.63,35.59Zm-21.63,0a16.35,16.35,0,0,0,.68,4.81,11.87,11.87,0,0,0,2,3.94A9.63,9.63,0,0,0,164.82,47a8.87,8.87,0,0,0,4.26,1,8.77,8.77,0,0,0,4.24-1,9.7,9.7,0,0,0,3.15-2.69,12.06,12.06,0,0,0,2-3.94,17.39,17.39,0,0,0,0-9.63,12.16,12.16,0,0,0-2-3.94,9.67,9.67,0,0,0-3.15-2.68,8.77,8.77,0,0,0-4.24-1,8.87,8.87,0,0,0-4.26,1,9.6,9.6,0,0,0-3.16,2.68,12,12,0,0,0-2,3.94A16.42,16.42,0,0,0,159,35.59Z"/><path class="school-1" d="M183.83,22.37h1.5v25h13.8v1.41h-15.3Z"/><path class="school-1" d="M6.2,58.19v-1.4H24.75v1.4H16.2V83.12H14.71V58.19Z"/><path class="school-1" d="M48.36,70a18.28,18.28,0,0,1-.78,5.41,13.18,13.18,0,0,1-2.26,4.38,10.44,10.44,0,0,1-8.46,4,10.52,10.52,0,0,1-8.5-4,13.35,13.35,0,0,1-2.25-4.38,19.12,19.12,0,0,1,0-10.81,13.35,13.35,0,0,1,2.25-4.38,10.84,10.84,0,0,1,17,0,13.18,13.18,0,0,1,2.26,4.38A18.27,18.27,0,0,1,48.36,70ZM26.82,70a16.62,16.62,0,0,0,.68,4.8,12,12,0,0,0,2,3.92,9.79,9.79,0,0,0,3.15,2.68,8.9,8.9,0,0,0,4.24,1,8.79,8.79,0,0,0,4.22-1,9.76,9.76,0,0,0,3.14-2.68,12.24,12.24,0,0,0,2-3.92,17.25,17.25,0,0,0,0-9.59,12.14,12.14,0,0,0-2-3.92,9.76,9.76,0,0,0-3.14-2.68,8.79,8.79,0,0,0-4.22-1,8.9,8.9,0,0,0-4.24,1,9.79,9.79,0,0,0-3.15,2.68,11.94,11.94,0,0,0-2,3.92A16.6,16.6,0,0,0,26.82,70Z"/><path class="school-1" d="M51.55,56.79h2.13l9.47,24.52h.06l9.36-24.52h2.14V83.12H73.22V58.78h-.07L63.93,83.12h-1.5L53.11,58.78H53V83.12H51.55Z"/><path class="school-1" d="M100.93,70a18.28,18.28,0,0,1-.78,5.41,13.18,13.18,0,0,1-2.26,4.38,10.44,10.44,0,0,1-8.46,4,10.52,10.52,0,0,1-8.5-4,13.35,13.35,0,0,1-2.25-4.38,19.12,19.12,0,0,1,0-10.81,13.35,13.35,0,0,1,2.25-4.38,10.84,10.84,0,0,1,17,0,13.18,13.18,0,0,1,2.26,4.38A18.27,18.27,0,0,1,100.93,70ZM79.39,70a16.62,16.62,0,0,0,.68,4.8,12,12,0,0,0,2,3.92,9.79,9.79,0,0,0,3.15,2.68,8.9,8.9,0,0,0,4.24,1,8.79,8.79,0,0,0,4.22-1,9.76,9.76,0,0,0,3.14-2.68,12.24,12.24,0,0,0,2-3.92,17.25,17.25,0,0,0,0-9.59,12.14,12.14,0,0,0-2-3.92,9.76,9.76,0,0,0-3.14-2.68,8.79,8.79,0,0,0-4.22-1,8.9,8.9,0,0,0-4.24,1A9.79,9.79,0,0,0,82,61.24a11.94,11.94,0,0,0-2,3.92A16.6,16.6,0,0,0,79.39,70Z"/><path class="school-1" d="M104.12,56.79h10.1a12.38,12.38,0,0,1,3,.35,6.87,6.87,0,0,1,2.44,1.15,5.31,5.31,0,0,1,1.64,2.08,7.6,7.6,0,0,1,.6,3.21,7.22,7.22,0,0,1-1.38,4.48,5.86,5.86,0,0,1-3.81,2.26v.08a5.33,5.33,0,0,1,2.63,1,4.65,4.65,0,0,1,1.44,1.8,7.65,7.65,0,0,1,.61,2.36,24.78,24.78,0,0,1,.14,2.58v1.51c0,.49,0,1,.06,1.38a8,8,0,0,0,.22,1.2,3.08,3.08,0,0,0,.43.93h-1.66A5.06,5.06,0,0,1,120,81c0-.82-.05-1.68-.05-2.56s0-1.77-.1-2.64a6.06,6.06,0,0,0-.65-2.34,4,4,0,0,0-1.71-1.66,7.08,7.08,0,0,0-3.31-.63h-8.61v12h-1.49Zm10.1,12.94a8.08,8.08,0,0,0,2.46-.35,4.91,4.91,0,0,0,1.95-1.09,5.16,5.16,0,0,0,1.29-1.88,7,7,0,0,0,.48-2.72,5.74,5.74,0,0,0-.51-2.53,4.72,4.72,0,0,0-1.36-1.71,5.33,5.33,0,0,0-2-1,8.93,8.93,0,0,0-2.34-.3h-8.61V69.73Z"/><path class="school-1" d="M125.48,56.79h10.11a12.3,12.3,0,0,1,3,.35A6.84,6.84,0,0,1,141,58.29a5.31,5.31,0,0,1,1.64,2.08,7.61,7.61,0,0,1,.59,3.21,7.21,7.21,0,0,1-1.37,4.48,5.91,5.91,0,0,1-3.81,2.26v.08a5.29,5.29,0,0,1,2.62,1,4.58,4.58,0,0,1,1.45,1.8,8,8,0,0,1,.61,2.36,24.76,24.76,0,0,1,.13,2.58v1.51A11.89,11.89,0,0,0,143,81a6.93,6.93,0,0,0,.22,1.2,2.85,2.85,0,0,0,.42.93h-1.66a5.21,5.21,0,0,1-.52-2.16c0-.82,0-1.68,0-2.56s0-1.77-.11-2.64a5.88,5.88,0,0,0-.64-2.34,4,4,0,0,0-1.71-1.66,7.11,7.11,0,0,0-3.31-.63H127v12h-1.49Zm10.11,12.94a8.13,8.13,0,0,0,2.46-.35A4.91,4.91,0,0,0,140,68.29a5.16,5.16,0,0,0,1.29-1.88,7.2,7.2,0,0,0,.47-2.72,5.74,5.74,0,0,0-.51-2.53,4.8,4.8,0,0,0-1.35-1.71,5.33,5.33,0,0,0-2-1,9,9,0,0,0-2.34-.3H127V69.73Z"/><path class="school-1" d="M168.79,70a18.28,18.28,0,0,1-.78,5.41,13.35,13.35,0,0,1-2.25,4.38,11.16,11.16,0,0,1-13.33,2.93,10.47,10.47,0,0,1-3.63-2.93,13.37,13.37,0,0,1-2.26-4.38,19.12,19.12,0,0,1,0-10.81,13.37,13.37,0,0,1,2.26-4.38,10.47,10.47,0,0,1,3.63-2.93,10.83,10.83,0,0,1,13.33,2.93A13.35,13.35,0,0,1,168,64.55,18.27,18.27,0,0,1,168.79,70Zm-21.53,0a16.62,16.62,0,0,0,.67,4.8,12.24,12.24,0,0,0,2,3.92,9.72,9.72,0,0,0,3.16,2.68,9.53,9.53,0,0,0,8.46,0,9.86,9.86,0,0,0,3.14-2.68,12.22,12.22,0,0,0,2-3.92,17.25,17.25,0,0,0,0-9.59,12.12,12.12,0,0,0-2-3.92,9.86,9.86,0,0,0-3.14-2.68,9.53,9.53,0,0,0-8.46,0,9.72,9.72,0,0,0-3.16,2.68,12.14,12.14,0,0,0-2,3.92A16.6,16.6,0,0,0,147.26,70Z"/><path class="school-1" d="M169.64,56.79h1.53l6.31,24.59h.06L184,56.79h1.87l6.51,24.59h.07l6.21-24.59h1.59l-6.95,26.33h-1.7L184.9,58.19h-.06l-6.55,24.93h-1.66Z"/></svg>