<svg id="Layer_2" data-name="Layer 2" xmlns="http://www.w3.org/2000/svg" viewBox="0 0 206.4 105.48"><defs><style>.cls-1{fill:#00adee;}.cls-2{fill:#26b7ed;}.cls-3{fill:#4dc0eb;}.cls-4{fill:#73caea;}.cls-5{fill:#99d3e9;}.cls-6{fill:#c0dce7;}.cls-7{fill:#e6e6e6;}</style></defs><title>Artboard 3</title><rect width="206.4" height="105.48"/><path class="cls-1" d="M15.06,33.84H39.45v2L15.88,69.62h24v2H13.64v-2L37.11,35.86h-22Z"/><path class="cls-2" d="M53.78,33.84H75v1.75L54.5,65H75.37V66.7H52.55V65L73,35.59H53.78Z"/><path class="cls-3" d="M92.5,33.84h18v1.49l-17.41,25h17.74v1.49H91.45V60.28l17.34-25H92.5Z"/><path class="cls-4" d="M121.22,33.84h14.84v1.23L121.72,55.61h14.6v1.22h-16V55.61l14.27-20.54H121.22Z"/><path class="cls-5" d="M149.94,33.84h11.65v1L150.33,50.94H161.8v1H149.26v-1l11.22-16.13H149.94Z"/><path class="cls-6" d="M170.66,33.84h8.47v.7l-8.19,11.73h8.34V47h-9.11v-.69l8.15-11.73h-7.66Z"/><path class="cls-7" d="M187.38,33.84h5.28v.44l-5.1,7.31h5.2V42h-5.69v-.44l5.09-7.31h-4.78Z"/></svg>