<?xml version="1.0" encoding="UTF-8" standalone="no"?>
<svg
   xmlns:dc="http://purl.org/dc/elements/1.1/"
   xmlns:cc="http://creativecommons.org/ns#"
   xmlns:rdf="http://www.w3.org/1999/02/22-rdf-syntax-ns#"
   xmlns:svg="http://www.w3.org/2000/svg"
   xmlns="http://www.w3.org/2000/svg"
   xmlns:sodipodi="http://sodipodi.sourceforge.net/DTD/sodipodi-0.dtd"
   xmlns:inkscape="http://www.inkscape.org/namespaces/inkscape"
   id="Layer_2"
   data-name="Layer 2"
   viewBox="0 0 206.40002 105.48003"
   version="1.1"
   sodipodi:docname="snooze.svg"
   inkscape:version="0.92.2 (5c3e80d, 2017-08-06)"
   width="206.40002"
   height="105.48003">
  <metadata
     id="metadata145">
    <rdf:RDF>
      <cc:Work
         rdf:about="">
        <dc:format>image/svg+xml</dc:format>
        <dc:type
           rdf:resource="http://purl.org/dc/dcmitype/StillImage" />
        <dc:title>button</dc:title>
      </cc:Work>
    </rdf:RDF>
  </metadata>
  <sodipodi:namedview
     pagecolor="#ffffff"
     bordercolor="#666666"
     borderopacity="1"
     objecttolerance="10"
     gridtolerance="10"
     guidetolerance="10"
     inkscape:pageopacity="0"
     inkscape:pageshadow="2"
     inkscape:window-width="1920"
     inkscape:window-height="1051"
     id="namedview143"
     showgrid="false"
     inkscape:zoom="2.8085937"
     inkscape:cx="77.031755"
     inkscape:cy="-30.321866"
     inkscape:window-x="1015"
     inkscape:window-y="1071"
     inkscape:window-maximized="1"
     inkscape:current-layer="Layer_2"
     fit-margin-top="0"
     fit-margin-left="0"
     fit-margin-right="0"
     fit-margin-bottom="0" />
  <defs
     id="defs51">
    <style
       id="style10">.cls-1{fill:url(#radial-gradient);filter:url(#luminosity-noclip);}.cls-17,.cls-2{fill:none;}.cls-3{clip-path:url(#clip-path);}.cls-4{fill:url(#radial-gradient-2);}.cls-5{fill:#19476d;}.cls-6{mask:url(#mask);}.cls-7{fill:url(#New_Pattern_2);}.cls-8{opacity:0.05;}.cls-14,.cls-9{font-size:379.56px;}.cls-9{fill:#43a7f8;}.cls-10,.cls-14,.cls-20,.cls-9{font-family:DigitalDismay, Digital Dismay;}.cls-10,.cls-20{font-size:59.36px;}.cls-11{opacity:0.2;}.cls-12,.cls-14,.cls-20{fill:#00adee;}.cls-13{fill:#b7b7b7;}.cls-15{isolation:isolate;font-size:74.35px;}.cls-15,.cls-21,.cls-22{fill:gray;}.cls-15,.cls-18{font-family:HelveticaNeue-Thin, Helvetica Neue;}.cls-16{letter-spacing:-0.06em;}.cls-17{stroke:#fff;stroke-miterlimit:10;}.cls-18{font-size:53.07px;fill:#e6e6e6;}.cls-19{letter-spacing:-0.02em;}.cls-21{font-size:47.57px;font-family:Helvetica-Light, Helvetica;}.cls-23{fill:#333;}</style>
    <radialGradient
       id="radial-gradient"
       cx="422.59"
       cy="304.10999"
       r="468.26001"
       gradientTransform="matrix(1,0,0,0.5,0,142.93)"
       gradientUnits="userSpaceOnUse">
      <stop
         offset="0"
         stop-color="#fff"
         id="stop12" />
      <stop
         offset="0.09"
         stop-color="#f4f4f4"
         id="stop14" />
      <stop
         offset="0.24"
         stop-color="#d7d7d7"
         id="stop16" />
      <stop
         offset="0.43"
         stop-color="#a8a8a8"
         id="stop18" />
      <stop
         offset="0.67"
         stop-color="#676767"
         id="stop20" />
      <stop
         offset="0.94"
         stop-color="#141414"
         id="stop22" />
      <stop
         offset="1"
         id="stop24" />
    </radialGradient>
    <clipPath
       id="clip-path">
      <path
         class="cls-2"
         d="M 4.9,3 A 0.11,0.11 0 0 1 4.81,3 H 4.33 v 1.66 c 0,0.07 0,0.09 -0.11,0.09 H 0.79 c -0.09,0 -0.11,0 -0.11,-0.11 V 3 H 0.17 A 0.08,0.08 0 0 1 0.08,2.91 0.11,0.11 0 0 1 0.08,2.84 V 2.79 L 2.4,0.55 c 0.09,-0.08 0.12,-0.08 0.21,0 L 3.68,1.62 3.76,1.71 V 1.53 c 0,-0.09 0,-0.11 0.11,-0.11 h 0.34 c 0.12,0 0.12,0 0.12,0.13 v 0.67 a 0.22,0.22 0 0 0 0,0.14 C 4.48,2.5 4.63,2.64 4.78,2.8 v 0.06 c 0,0 0.13,0.07 0.12,0.14 z"
         id="path27"
         inkscape:connector-curvature="0"
         style="fill:none" />
    </clipPath>
    <radialGradient
       id="radial-gradient-2"
       cx="-64978.359"
       cy="-85382.039"
       r="4.4299998"
       gradientTransform="matrix(0.56,0,0,-0.56,36297.77,-47689.76)"
       gradientUnits="userSpaceOnUse">
      <stop
         offset="0"
         stop-color="#17426c"
         id="stop30" />
      <stop
         offset="1"
         stop-color="#050f1a"
         id="stop32" />
    </radialGradient>
    <filter
       id="luminosity-noclip"
       x="0"
       y="-0.52999997"
       width="1024"
       height="600.51001"
       filterUnits="userSpaceOnUse"
       style="color-interpolation-filters:sRGB">
      <feFlood
         flood-color="#fff"
         result="bg"
         id="feFlood35" />
      <feBlend
         in="SourceGraphic"
         in2="bg"
         id="feBlend37"
         mode="normal" />
    </filter>
    <mask
       id="mask"
       x="0"
       y="-0.53"
       width="1024"
       height="600.51"
       maskUnits="userSpaceOnUse">
      <rect
         class="cls-1"
         y="-0.0099999998"
         width="1024"
         height="600"
         id="rect40"
         x="0"
         style="fill:url(#radial-gradient);filter:url(#luminosity-noclip)" />
    </mask>
    <pattern
       id="New_Pattern_2"
       data-name="New Pattern 2"
       width="5"
       height="5"
       patternUnits="userSpaceOnUse"
       viewBox="0 0 5 5">
      <rect
         class="cls-2"
         width="5"
         height="5"
         id="rect43" />
      <g
         class="cls-3"
         clip-path="url(#clip-path)"
         id="g47">
        <rect
           class="cls-4"
           x="0.02"
           y="0.02"
           width="4.95"
           height="4.95"
           id="rect45" />
      </g>
      <path
         id="path367"
         class="cls-5"
         d="M3.59,3.19A.2.2,0,0,0,3.78,3h0a.21.21,0,0,0-.21-.21A.2.2,0,0,0,3.36,3h0a.22.22,0,0,0,.23.19Zm-2.18,0A.19.19,0,0,0,1.6,3h0a.22.22,0,0,0-.23-.2.23.23,0,0,0-.19.2.21.21,0,0,0,.23.19Zm.89.94-.7-.71A.5.5,0,0,1,1,3.23a.49.49,0,0,1,.18-.64.53.53,0,0,1,.46,0,.53.53,0,0,1,.21.21.53.53,0,0,1,0,.39l.44.48V2.13A.47.47,0,0,1,2,1.79a.53.53,0,0,1,.1-.42.49.49,0,0,1,.68,0h0l0,0A.44.44,0,0,1,3,1.71a.49.49,0,0,1-.28.4c0,.36,0,1.45,0,1.53l.44-.45a.5.5,0,0,1,.21-.6.48.48,0,0,1,.64.2.45.45,0,0,1,0,.42c-.11.21-.3.28-.62.21l-.72.71v.6H2.29Zm.4-2.44a.22.22,0,0,0-.21-.2.2.2,0,0,0-.2.2.22.22,0,0,0,.22.21A.22.22,0,0,0,2.7,1.69Z" />
    </pattern>
    <mask
       maskUnits="userSpaceOnUse"
       id="mask208">
      <rect
         class="cls-2"
         x="817.59998"
         y="14.55"
         width="190.2"
         height="89.900002"
         id="rect210"
         style="fill:none" />
    </mask>
    <mask
       maskUnits="userSpaceOnUse"
       id="mask212">
      <rect
         class="cls-2"
         x="817.59998"
         y="14.55"
         width="190.2"
         height="89.900002"
         id="rect214"
         style="fill:none" />
    </mask>
  </defs>
  <title
     id="title53">button</title>
  <g
     id="BG"
     transform="matrix(0.20156252,0,0,0.17481229,8.828125e-6,0.09265051)">
    <rect
       y="-0.52999997"
       width="1024"
       height="600.53003"
       id="rect55"
       x="0" />
    <g
       class="cls-6"
       mask="url(#mask)"
       id="g59">
      <rect
         class="cls-7"
         y="-0.52999997"
         width="1024"
         height="600"
         id="rect57"
         x="0"
         style="fill:url(#New_Pattern_2)" />
    </g>
    <text
       class="cls-10"
       transform="matrix(0.92,0,0,1,601.49,134.45)"
       id="text65"
       style="font-size:59.36000061px;font-family:DigitalDismay, 'Digital Dismay'">aM</text>
    <g
       class="cls-11"
       id="g69"
       style="opacity:0.2">
      <text
         class="cls-10"
         transform="matrix(0.92,0,0,1,695.83,134.45)"
         id="text67"
         style="font-size:59.36000061px;font-family:DigitalDismay, 'Digital Dismay'">pM</text>
    </g>
  </g>
  <line
     class="cls-17"
     x1="817.59998"
     y1="104.45"
     x2="1007.8"
     y2="104.45"
     id="line104"
     mask="url(#mask212)"
     style="fill:none;stroke:#ffffff;stroke-miterlimit:10"
     transform="translate(-817.59998,0.53002666)" />
  <line
     class="cls-17"
     x1="817.59998"
     y1="14.55"
     x2="1007.8"
     y2="14.55"
     id="line106"
     mask="url(#mask208)"
     style="fill:none;stroke:#ffffff;stroke-miterlimit:10"
     transform="translate(-817.59998,0.53002666)" />
  <text
     class="cls-18"
     transform="scale(0.95916628,1.0425721)"
     id="text128"
     style="font-size:50.9029541px;font-family:HelveticaNeue-Thin, 'Helvetica Neue';fill:#e6e6e6;stroke-width:0.95916629"
     x="3.3779638"
     y="67.515739">SNO<tspan
   class="cls-19"
   x="107.67771"
   y="67.515739"
   id="tspan124"
   style="letter-spacing:-0.02em;stroke-width:0.95916629">O</tspan>
<tspan
   x="144.17398"
   y="67.515739"
   id="tspan126"
   style="stroke-width:0.95916629">ZE</tspan>
</text>
  <g
     class="cls-11"
     id="g132"
     style="opacity:0.2"
     transform="translate(-817.59998,0.53002666)" />
</svg>
