<svg id="Layer_2" data-name="Layer 2" xmlns="http://www.w3.org/2000/svg" viewBox="0 0 206.4 105.48"><defs></defs><title>Artboard 1</title><rect width="206.4" height="105.48"/><path class="cls-1" d="M126.39,73.09a16.2,16.2,0,0,1-7.23-1.59,15.87,15.87,0,0,1-5.39-4.36,19.68,19.68,0,0,1-3.33-6.48,27.85,27.85,0,0,1,0-15.84,19.68,19.68,0,0,1,3.33-6.48A15.87,15.87,0,0,1,119.16,34a17.19,17.19,0,0,1,14.44,0A15.9,15.9,0,0,1,139,38.34a19.87,19.87,0,0,1,3.33,6.48,28.08,28.08,0,0,1,0,15.84A19.67,19.67,0,0,1,139,67.14a15.52,15.52,0,0,1-12.58,6Zm0-37.68a12.3,12.3,0,0,0-5.86,1.37,13.51,13.51,0,0,0-4.38,3.71A17,17,0,0,0,113.4,46a24.21,24.21,0,0,0,0,13.5,16.9,16.9,0,0,0,2.75,5.5,13.51,13.51,0,0,0,4.38,3.71,12.3,12.3,0,0,0,5.86,1.37,12.17,12.17,0,0,0,5.84-1.37A13.65,13.65,0,0,0,136.59,65a17.1,17.1,0,0,0,2.75-5.5,24.21,24.21,0,0,0,0-13.5,17,17,0,0,0-2.75-5.5,13.65,13.65,0,0,0-4.36-3.71A12.17,12.17,0,0,0,126.39,35.41ZM90.21,73.09A16.16,16.16,0,0,1,83,71.5a15.82,15.82,0,0,1-5.4-4.36,19.68,19.68,0,0,1-3.33-6.48,27.85,27.85,0,0,1,0-15.84,19.68,19.68,0,0,1,3.33-6.48A15.82,15.82,0,0,1,83,34a17.16,17.16,0,0,1,14.43,0,15.9,15.9,0,0,1,5.37,4.36,19.87,19.87,0,0,1,3.33,6.48,27.85,27.85,0,0,1,0,15.84,19.67,19.67,0,0,1-3.33,6.48,15.52,15.52,0,0,1-12.58,6Zm0-37.68a12.3,12.3,0,0,0-5.86,1.37A13.51,13.51,0,0,0,80,40.49,17,17,0,0,0,77.22,46a24.21,24.21,0,0,0,0,13.5A16.9,16.9,0,0,0,80,65a13.51,13.51,0,0,0,4.38,3.71,13.2,13.2,0,0,0,11.71,0A13.72,13.72,0,0,0,100.41,65a17,17,0,0,0,2.75-5.5,24.21,24.21,0,0,0,0-13.5,17,17,0,0,0-2.75-5.5,13.72,13.72,0,0,0-4.35-3.71A12.23,12.23,0,0,0,90.21,35.41ZM24.84,73.09A22.68,22.68,0,0,1,19,72.35a12.9,12.9,0,0,1-4.87-2.43,11.59,11.59,0,0,1-3.29-4.34,15.1,15.1,0,0,1-1.15-6.43v-.49h3.16l0,.52a11,11,0,0,0,.79,5.05,8.85,8.85,0,0,0,2.56,3.35A10.55,10.55,0,0,0,20,69.48a19.32,19.32,0,0,0,4.81.59,14.15,14.15,0,0,0,3.23-.41,9.28,9.28,0,0,0,3.1-1.36,8.06,8.06,0,0,0,2.35-2.5,7.45,7.45,0,0,0,.93-3.88,6.4,6.4,0,0,0-.94-3.62A7.17,7.17,0,0,0,31,56a15.94,15.94,0,0,0-3.69-1.44c-1.41-.37-2.87-.72-4.35-1s-2.94-.7-4.39-1.13a14.79,14.79,0,0,1-3.94-1.78A8.48,8.48,0,0,1,10.67,43a10.12,10.12,0,0,1,1.11-4.89,9.61,9.61,0,0,1,2.88-3.3A12.3,12.3,0,0,1,18.61,33a16.7,16.7,0,0,1,4.28-.58,19.56,19.56,0,0,1,5.23.68,12.41,12.41,0,0,1,4.33,2.16,10.71,10.71,0,0,1,3,3.81,14.23,14.23,0,0,1,1.27,5.56l0,.52H33.59l0-.48a10.55,10.55,0,0,0-.91-4,8.38,8.38,0,0,0-2.18-2.86A9.37,9.37,0,0,0,27.16,36a14.89,14.89,0,0,0-4.27-.59,14.26,14.26,0,0,0-3.05.36,9.07,9.07,0,0,0-3,1.23,7,7,0,0,0-2.21,2.33A7.09,7.09,0,0,0,13.82,43a5.79,5.79,0,0,0,.93,3.42,7.14,7.14,0,0,0,2.51,2.16A16.38,16.38,0,0,0,21,49.92c1.42.35,2.87.69,4.33,1s3,.71,4.41,1.16a14.91,14.91,0,0,1,3.94,1.86,9.12,9.12,0,0,1,2.86,3.15,9.72,9.72,0,0,1,1.09,4.83,10.24,10.24,0,0,1-1.24,5.24,11,11,0,0,1-3.09,3.45,12.29,12.29,0,0,1-4.12,1.9A17.4,17.4,0,0,1,24.84,73.09Zm147.24-.9V33.29h24.43v3H175.23V50.49h20v3h-20V69.17h21.53v3Zm-29.34,0V69.51l23.07-33.2H144.15v-3h25.46V36l-23.17,33.2h23.61v3Zm-76.53,0-21.49-34v34H41.57V33.29H45L66.38,67V33.29h3.14v38.9Z"/><path id="text128" class="cls-2" d="M34.07,44.62a11,11,0,0,0-1-4.25,8.67,8.67,0,0,0-2.31-3,10,10,0,0,0-3.5-1.83,15.12,15.12,0,0,0-4.41-.61,14.48,14.48,0,0,0-3.15.37,9.49,9.49,0,0,0-3.13,1.3,7.45,7.45,0,0,0-2.37,2.49,7.66,7.66,0,0,0-.92,3.9,6.27,6.27,0,0,0,1,3.72A7.56,7.56,0,0,0,17,49a16.52,16.52,0,0,0,3.81,1.4c1.43.36,2.88.69,4.34,1s2.95.7,4.37,1.14a14.58,14.58,0,0,1,3.81,1.81,8.6,8.6,0,0,1,2.71,3,9.33,9.33,0,0,1,1,4.59,9.8,9.8,0,0,1-1.17,5,10.3,10.3,0,0,1-3,3.29A11.75,11.75,0,0,1,29,72a16.81,16.81,0,0,1-4.17.56,22.17,22.17,0,0,1-5.76-.72,12.53,12.53,0,0,1-4.69-2.33,11.24,11.24,0,0,1-3.15-4.17,14.72,14.72,0,0,1-1.1-6.21h2.15a11.39,11.39,0,0,0,.83,5.28A9.39,9.39,0,0,0,15.83,68a11,11,0,0,0,4.08,2,19.3,19.3,0,0,0,4.93.61,14.54,14.54,0,0,0,3.34-.42,9.81,9.81,0,0,0,3.27-1.44,8.23,8.23,0,0,0,2.49-2.65,7.84,7.84,0,0,0,1-4.14,6.85,6.85,0,0,0-1-3.9,7.7,7.7,0,0,0-2.71-2.44,16.81,16.81,0,0,0-3.81-1.49c-1.41-.37-2.87-.71-4.37-1s-2.91-.69-4.34-1.12a14.15,14.15,0,0,1-3.81-1.72,8.61,8.61,0,0,1-2.69-2.81,8.63,8.63,0,0,1-1-4.44,9.61,9.61,0,0,1,1.05-4.64A9.12,9.12,0,0,1,15,35.2a11.63,11.63,0,0,1,3.79-1.75,16.18,16.18,0,0,1,4.15-.56,18.94,18.94,0,0,1,5.1.66,11.83,11.83,0,0,1,4.15,2.08A10,10,0,0,1,35,39.26a13.74,13.74,0,0,1,1.23,5.36Zm8-10.83h2.69l22,34.76h.1V33.79H69v37.9H66.49l-22.17-35h-.1v35H42.07Zm64.7,19a26.11,26.11,0,0,1-1.13,7.77,19.27,19.27,0,0,1-3.24,6.32,15.33,15.33,0,0,1-5.2,4.22,16.66,16.66,0,0,1-14,0A15.25,15.25,0,0,1,78,66.83a19.08,19.08,0,0,1-3.24-6.32,27.28,27.28,0,0,1,0-15.54A19.08,19.08,0,0,1,78,38.65a15.25,15.25,0,0,1,5.23-4.22,16.66,16.66,0,0,1,14,0,15.33,15.33,0,0,1,5.2,4.22A19.27,19.27,0,0,1,105.64,45,26.11,26.11,0,0,1,106.77,52.74Zm-31,0a23.83,23.83,0,0,0,1,6.9,17.33,17.33,0,0,0,2.83,5.65,14,14,0,0,0,4.54,3.85,12.83,12.83,0,0,0,6.1,1.43,12.67,12.67,0,0,0,6.08-1.43,14.07,14.07,0,0,0,4.52-3.85,17.33,17.33,0,0,0,2.83-5.65,24.78,24.78,0,0,0,0-13.8,17.33,17.33,0,0,0-2.83-5.65,14.07,14.07,0,0,0-4.52-3.85,12.67,12.67,0,0,0-6.08-1.43,12.83,12.83,0,0,0-6.1,1.43,14,14,0,0,0-4.54,3.85,17.33,17.33,0,0,0-2.83,5.65A23.83,23.83,0,0,0,75.76,52.74Zm67.18,0a26.11,26.11,0,0,1-1.12,7.77,19.1,19.1,0,0,1-3.25,6.32,15.2,15.2,0,0,1-5.19,4.22,16.66,16.66,0,0,1-14,0,15.25,15.25,0,0,1-5.23-4.22,19.08,19.08,0,0,1-3.24-6.32,27.28,27.28,0,0,1,0-15.54,19.08,19.08,0,0,1,3.24-6.32,15.25,15.25,0,0,1,5.23-4.22,16.66,16.66,0,0,1,14,0,15.2,15.2,0,0,1,5.19,4.22A19.1,19.1,0,0,1,141.82,45,26.11,26.11,0,0,1,142.94,52.74Zm-31,0a23.83,23.83,0,0,0,1,6.9,17.33,17.33,0,0,0,2.83,5.65,14,14,0,0,0,4.54,3.85,12.8,12.8,0,0,0,6.1,1.43,12.67,12.67,0,0,0,6.08-1.43A14.07,14.07,0,0,0,137,65.29a17.53,17.53,0,0,0,2.83-5.65,24.78,24.78,0,0,0,0-13.8A17.53,17.53,0,0,0,137,40.19a14.07,14.07,0,0,0-4.52-3.85,12.67,12.67,0,0,0-6.08-1.43,12.8,12.8,0,0,0-6.1,1.43,14,14,0,0,0-4.54,3.85,17.33,17.33,0,0,0-2.83,5.65A23.83,23.83,0,0,0,111.94,52.74Zm32.71-19h24.46v2L145.48,69.67h24.07v2H143.24v-2l23.53-33.86H144.65Zm27.93,0H196v2H174.73V51h20v2h-20V69.67h21.53v2H172.58Z"/><path class="cls-3" d="M126.39,71.89a15,15,0,0,1-6.69-1.47,14.59,14.59,0,0,1-5-4,18.67,18.67,0,0,1-3.13-6.09,26.83,26.83,0,0,1,0-15.14,18.67,18.67,0,0,1,3.13-6.09,14.59,14.59,0,0,1,5-4,15,15,0,0,1,6.69-1.47A14.4,14.4,0,0,1,138,39.08a18.65,18.65,0,0,1,3.12,6.09,26.83,26.83,0,0,1,0,15.14A18.65,18.65,0,0,1,138,66.4a14.4,14.4,0,0,1-11.64,5.49Zm0-37.68A13.56,13.56,0,0,0,120,35.72a14.85,14.85,0,0,0-4.77,4,18.23,18.23,0,0,0-2.94,5.88,25.46,25.46,0,0,0,0,14.2,18.23,18.23,0,0,0,2.94,5.88,14.85,14.85,0,0,0,4.77,4,13.56,13.56,0,0,0,6.43,1.51,13.31,13.31,0,0,0,6.41-1.52,14.59,14.59,0,0,0,4.74-4,18.05,18.05,0,0,0,3-5.88,25.46,25.46,0,0,0,0-14.2,18.05,18.05,0,0,0-3-5.88,14.59,14.59,0,0,0-4.74-4A13.31,13.31,0,0,0,126.39,34.21ZM90.21,71.89a15,15,0,0,1-6.69-1.47,14.69,14.69,0,0,1-5-4,18.46,18.46,0,0,1-3.12-6.09,26.6,26.6,0,0,1,0-15.14,18.56,18.56,0,0,1,3.12-6.09,14.69,14.69,0,0,1,5-4,15,15,0,0,1,6.69-1.47,14.4,14.4,0,0,1,11.64,5.49A18.65,18.65,0,0,1,105,45.17a26.6,26.6,0,0,1,0,15.14,18.65,18.65,0,0,1-3.12,6.09,14.4,14.4,0,0,1-11.64,5.49Zm0-37.68a13.59,13.59,0,0,0-6.43,1.51,14.71,14.71,0,0,0-4.76,4,18.05,18.05,0,0,0-3,5.88,25.46,25.46,0,0,0,0,14.2,18.05,18.05,0,0,0,3,5.88,14.71,14.71,0,0,0,4.76,4,13.59,13.59,0,0,0,6.43,1.51,13.31,13.31,0,0,0,6.41-1.52,14.59,14.59,0,0,0,4.74-4,18.05,18.05,0,0,0,3-5.88,25.46,25.46,0,0,0,0-14.2,18.05,18.05,0,0,0-3-5.88,14.59,14.59,0,0,0-4.74-4A13.31,13.31,0,0,0,90.21,34.21ZM24.84,71.89a22.1,22.1,0,0,1-5.58-.69A12,12,0,0,1,14.83,69a10.52,10.52,0,0,1-2.95-3.91,13.28,13.28,0,0,1-1-5.22h.72a11.67,11.67,0,0,0,.91,4.87,10.21,10.21,0,0,0,2.92,3.79,11.47,11.47,0,0,0,4.33,2.12,20.27,20.27,0,0,0,5.11.63,15.53,15.53,0,0,0,3.51-.44,10.57,10.57,0,0,0,3.5-1.54,9,9,0,0,0,2.69-2.87,8.55,8.55,0,0,0,1.11-4.5,7.51,7.51,0,0,0-1.15-4.29A8.41,8.41,0,0,0,31.55,55a16.84,16.84,0,0,0-4-1.55c-1.42-.38-2.9-.73-4.4-1.05s-2.88-.68-4.29-1.1a13.56,13.56,0,0,1-3.63-1.64,7.92,7.92,0,0,1-2.47-2.58A8,8,0,0,1,11.87,43a9,9,0,0,1,1-4.31,8.4,8.4,0,0,1,2.53-2.9,10.84,10.84,0,0,1,3.56-1.64,15.18,15.18,0,0,1,4-.54,18.39,18.39,0,0,1,4.91.64,11,11,0,0,1,3.9,2,9.36,9.36,0,0,1,2.66,3.38,12.62,12.62,0,0,1,1.11,4.36h-.75a11.23,11.23,0,0,0-1-3.84,9.57,9.57,0,0,0-2.51-3.27,10.47,10.47,0,0,0-3.73-2,15.92,15.92,0,0,0-4.62-.64,15.25,15.25,0,0,0-3.3.39A10.22,10.22,0,0,0,16.23,36a8.18,8.18,0,0,0-2.59,2.73,8.27,8.27,0,0,0-1,4.26,7,7,0,0,0,1.15,4.12,8.35,8.35,0,0,0,2.93,2.52,17.15,17.15,0,0,0,4,1.46c1.44.36,2.89.7,4.36,1s2.92.69,4.31,1.12A13.67,13.67,0,0,1,33,54.94a8,8,0,0,1,2.49,2.73,8.68,8.68,0,0,1,.93,4.25,9.21,9.21,0,0,1-1.07,4.64,9.86,9.86,0,0,1-2.76,3.07,11.2,11.2,0,0,1-3.72,1.72A15.93,15.93,0,0,1,24.84,71.89ZM173.28,71V34.49h22v.62H174V51.69h20v.62H174V70.37h21.53V71Zm-29.34,0v-1.1l24.17-34.78H145.35v-.62h23.06v1.1L144.14,70.37h24.71V71ZM66.87,71,44.7,36H43.62l-.1.7V71h-.75V34.49h1.6l22,34.76h1.09l.1-.7V34.49h.74V71Z"/></svg>