<?xml version="1.0" encoding="utf-8"?>
<!-- Generator: Adobe Illustrator 22.0.1, SVG Export Plug-In . SVG Version: 6.00 Build 0)  -->
<svg version="1.1" id="Layer_2_1_" xmlns="http://www.w3.org/2000/svg" xmlns:xlink="http://www.w3.org/1999/xlink" x="0px" y="0px"
	 viewBox="0 0 206.4 105.5" style="enable-background:new 0 0 206.4 105.5;" xml:space="preserve">
<title>Stop Red</title>
<rect y="-0.8" width="206.4" height="105.5"/>
<g>
	<path style="fill:#E7376B;stroke:#E7376B;stroke-width:2;stroke-miterlimit:10;" d="M68.5,39.2c-0.1-1.6-0.4-3.1-1-4.3
		s-1.3-2.2-2.3-3s-2.1-1.4-3.5-1.8s-2.8-0.6-4.4-0.6c-1,0-2,0.1-3.1,0.4C53,30.1,52,30.5,51,31.1s-1.8,1.5-2.4,2.5
		c-0.6,1-0.9,2.4-0.9,3.9s0.3,2.8,1,3.7c0.7,1,1.6,1.7,2.7,2.3c1.1,0.6,2.4,1.1,3.8,1.4c1.4,0.4,2.9,0.7,4.3,1
		c1.5,0.3,3,0.7,4.4,1.1c1.4,0.4,2.7,1,3.8,1.8s2,1.8,2.7,3s1,2.8,1,4.6c0,2-0.4,3.7-1.2,5c-0.8,1.3-1.8,2.4-3,3.3
		c-1.2,0.9-2.5,1.5-4,1.8c-1.4,0.4-2.8,0.6-4.2,0.6c-2.1,0-4-0.2-5.8-0.7s-3.4-1.3-4.7-2.3c-1.3-1.1-2.4-2.5-3.1-4.2
		c-0.8-1.7-1.1-3.8-1.1-6.2h2.1c-0.1,2.1,0.2,3.9,0.8,5.3c0.7,1.4,1.6,2.6,2.7,3.5c1.2,0.9,2.5,1.6,4.1,2s3.2,0.6,4.9,0.6
		c1,0,2.2-0.1,3.3-0.4c1.2-0.3,2.3-0.8,3.3-1.4c1-0.7,1.8-1.6,2.5-2.7c0.7-1.1,1-2.5,1-4.2c0-1.6-0.3-2.9-1-3.9s-1.6-1.8-2.7-2.4
		c-1.1-0.6-2.4-1.1-3.8-1.5c-1.4-0.4-2.9-0.7-4.4-1s-2.9-0.7-4.3-1.1s-2.7-1-3.8-1.7s-2-1.7-2.7-2.8c-0.7-1.2-1-2.6-1-4.4
		c0-1.8,0.3-3.4,1-4.7s1.6-2.3,2.7-3.1c1.1-0.8,2.4-1.4,3.8-1.8c1.4-0.4,2.8-0.6,4.1-0.6c1.8,0,3.5,0.2,5.1,0.7
		c1.6,0.4,3,1.1,4.1,2.1c1.2,0.9,2.1,2.2,2.9,3.6c0.7,1.5,1.1,3.3,1.2,5.4C70.2,39.2,68.5,39.2,68.5,39.2z"/>
	<path style="fill:#E7376B;stroke:#E7376B;stroke-width:2;stroke-miterlimit:10;" d="M71.6,30.3v-2h26.7v2H86v36h-2.1v-36
		C83.9,30.3,71.6,30.3,71.6,30.3z"/>
	<path style="fill:#E7376B;stroke:#E7376B;stroke-width:2;stroke-miterlimit:10;" d="M130.3,47.3c0,2.8-0.4,5.4-1.1,7.8
		c-0.7,2.4-1.8,4.5-3.2,6.3s-3.1,3.2-5.2,4.2s-4.4,1.5-7,1.5s-4.9-0.5-7-1.5s-3.8-2.4-5.2-4.2s-2.5-3.9-3.2-6.3
		c-0.7-2.4-1.1-5-1.1-7.8s0.4-5.4,1.1-7.8c0.7-2.4,1.8-4.5,3.2-6.3c1.4-1.8,3.2-3.2,5.2-4.2c2.1-1,4.4-1.5,7-1.5s4.9,0.5,7,1.5
		s3.8,2.4,5.2,4.2c1.4,1.8,2.5,3.9,3.2,6.3C129.9,42,130.3,44.6,130.3,47.3z M99.3,47.3c0,2.4,0.3,4.8,1,6.9
		c0.7,2.2,1.6,4.1,2.8,5.7c1.2,1.6,2.8,2.9,4.5,3.9s3.8,1.4,6.1,1.4c2.3,0,4.3-0.5,6.1-1.4c1.8-1,3.3-2.2,4.5-3.9
		c1.2-1.6,2.2-3.5,2.8-5.7c0.7-2.2,1-4.5,1-6.9s-0.3-4.8-1-6.9c-0.7-2.2-1.6-4.1-2.8-5.7c-1.2-1.6-2.7-2.9-4.5-3.9s-3.8-1.4-6.1-1.4
		c-2.3,0-4.3,0.5-6.1,1.4s-3.3,2.2-4.5,3.9c-1.2,1.6-2.2,3.5-2.8,5.7C99.6,42.6,99.3,44.9,99.3,47.3z"/>
	<path style="fill:#E7376B;stroke:#E7376B;stroke-width:2;stroke-miterlimit:10;" d="M134.9,28.3h14.8c1,0,2.1,0.1,3.2,0.4
		c1.2,0.2,2.3,0.8,3.3,1.5c1,0.8,1.9,1.8,2.6,3.2c0.7,1.4,1,3.2,1,5.5c0,3.3-0.9,5.9-2.8,7.7c-1.9,1.8-4.6,2.7-8.1,2.7H137v16.9
		h-2.1V28.3z M137,47.4h12.3c1.6,0,2.9-0.3,4-0.8s2-1.2,2.6-2c0.7-0.8,1.1-1.7,1.4-2.7c0.3-1,0.4-2,0.4-3c0-0.7-0.1-1.6-0.3-2.5
		c-0.2-1-0.6-1.9-1.2-2.8c-0.6-0.9-1.4-1.7-2.5-2.3c-1.1-0.6-2.5-0.9-4.2-0.9H137V47.4z"/>
</g>
</svg>
