<?xml version="1.0" encoding="utf-8"?>
<!-- Generator: Adobe Illustrator 22.0.1, SVG Export Plug-In . SVG Version: 6.00 Build 0)  -->
<svg version="1.1" id="Layer_2_1_" xmlns="http://www.w3.org/2000/svg" xmlns:xlink="http://www.w3.org/1999/xlink" x="0px" y="0px"
	 viewBox="0 0 206.4 105.5" style="enable-background:new 0 0 206.4 105.5;" xml:space="preserve">
<title>Artboard 4</title>
<rect width="206.4" height="105.5"/>
<path style="fill:#BDF271;" d="M30.5,44.6c0-1.5-0.4-2.9-1-4.3c-0.5-1.2-1.3-2.2-2.3-3c-1-0.8-2.2-1.5-3.5-1.8
	c-1.4-0.4-2.9-0.6-4.4-0.6c-1.1,0-2.1,0.1-3.1,0.4C15,35.5,14,36,13,36.6c-1,0.6-1.8,1.5-2.4,2.5c-0.7,1.2-1,2.6-0.9,3.9
	c-0.1,1.3,0.3,2.6,1,3.7c0.7,1,1.6,1.7,2.7,2.3c1.2,0.6,2.5,1.1,3.8,1.4c1.4,0.4,2.9,0.7,4.3,1s3,0.7,4.4,1.1c1.4,0.4,2.6,1,3.8,1.8
	c1.1,0.8,2.1,1.8,2.7,3c0.7,1.4,1.1,3,1,4.6c0.1,1.7-0.3,3.5-1.2,5c-0.7,1.3-1.7,2.4-3,3.3c-1.2,0.9-2.6,1.5-4,1.8
	c-1.4,0.4-2.8,0.5-4.2,0.6c-1.9,0-3.9-0.2-5.8-0.7c-1.7-0.4-3.3-1.2-4.7-2.3c-1.4-1.1-2.4-2.6-3.2-4.2c-0.8-2-1.2-4.1-1.1-6.2h2.2
	c-0.1,1.8,0.1,3.6,0.8,5.3c0.6,1.4,1.5,2.6,2.7,3.5c1.2,0.9,2.6,1.6,4.1,2c1.6,0.4,3.3,0.6,4.9,0.6c1.1,0,2.2-0.2,3.3-0.4
	c1.2-0.3,2.3-0.8,3.3-1.4c1-0.7,1.9-1.6,2.5-2.7c0.7-1.3,1.1-2.7,1-4.1c0.1-1.4-0.3-2.7-1-3.9c-0.7-1-1.6-1.9-2.7-2.4
	c-1.2-0.7-2.5-1.2-3.8-1.5c-1.4-0.4-2.9-0.7-4.4-1s-2.9-0.7-4.3-1.1c-1.3-0.4-2.6-1-3.8-1.7c-1.1-0.7-2-1.7-2.7-2.9
	c-0.7-1.4-1.1-2.9-1-4.4c0-1.6,0.3-3.2,1.1-4.6c0.7-1.2,1.6-2.3,2.7-3.1c1.1-0.8,2.4-1.4,3.8-1.8c1.4-0.4,2.7-0.6,4.2-0.6
	c1.7,0,3.4,0.2,5.1,0.7c1.5,0.4,2.9,1.1,4.1,2.1c1.2,1,2.2,2.2,2.9,3.6c0.8,1.7,1.2,3.5,1.2,5.4H30.5z"/>
<path style="fill:#BDF271;" d="M37.2,52.7c0-2.6,0.4-5.2,1.1-7.7c0.7-2.3,1.8-4.4,3.3-6.3c1.4-1.8,3.2-3.2,5.2-4.2
	c2.2-1.1,4.6-1.6,7-1.5c1.8,0,3.6,0.3,5.3,0.9c1.4,0.5,2.6,1.2,3.8,2.2c1,0.8,1.8,1.8,2.5,2.8c0.6,0.9,1.1,1.9,1.5,2.9
	c0.3,0.8,0.5,1.5,0.7,2.3c0.1,0.7,0.2,1,0.2,1.1h-2.1c-0.2-1.5-0.7-3-1.4-4.3c-0.7-1.2-1.6-2.3-2.7-3.2c-1.1-0.9-2.3-1.5-3.6-2
	c-1.3-0.5-2.8-0.7-4.2-0.7c-2.1,0-4.2,0.5-6.1,1.4c-1.8,0.9-3.3,2.3-4.5,3.8c-1.3,1.7-2.2,3.6-2.8,5.7c-1.3,4.5-1.3,9.3,0,13.8
	c0.6,2,1.5,4,2.8,5.7c1.2,1.6,2.8,2.9,4.5,3.8c1.9,1,4,1.5,6.1,1.4c1.7,0,3.3-0.4,4.8-1.1c1.5-0.7,2.8-1.8,3.9-3
	c1.1-1.3,2-2.8,2.7-4.4c0.7-1.6,1.1-3.4,1.2-5.1h2.1c-0.2,2.2-0.7,4.3-1.5,6.3c-0.8,1.8-1.8,3.5-3.2,5c-1.3,1.4-2.8,2.5-4.5,3.3
	c-1.7,0.8-3.5,1.2-5.4,1.2c-2.4,0-4.8-0.5-7-1.5c-2-1-3.8-2.4-5.2-4.2c-1.5-1.9-2.6-4-3.3-6.3C37.5,58.1,37.1,55.4,37.2,52.7z"/>
<path style="fill:#BDF271;" d="M72.9,33.8H75V51h22.3V33.8h2.2v37.9h-2.2V53H75v18.7h-2.1V33.8z"/>
<path style="fill:#BDF271;" d="M137.2,52.7c0,2.6-0.4,5.3-1.2,7.8c-0.7,2.3-1.8,4.4-3.2,6.3c-2.9,3.7-7.4,5.9-12.2,5.8
	c-2.4,0-4.8-0.5-7-1.5c-2-1-3.8-2.4-5.2-4.2c-1.5-1.9-2.6-4-3.3-6.3c-1.5-5.1-1.5-10.5,0-15.5c0.7-2.3,1.8-4.4,3.3-6.3
	c1.4-1.8,3.2-3.2,5.2-4.2c2.2-1.1,4.6-1.6,7-1.5c4.7-0.1,9.3,2,12.2,5.8c1.5,1.9,2.6,4,3.2,6.3C136.8,47.5,137.2,50.1,137.2,52.7z
	 M106.2,52.7c0,2.3,0.3,4.7,1,6.9c0.6,2,1.6,4,2.8,5.6c1.2,1.6,2.8,2.9,4.5,3.8c1.9,1,4,1.5,6.1,1.4c2.1,0,4.2-0.5,6.1-1.4
	c1.8-0.9,3.3-2.3,4.5-3.8c1.3-1.7,2.2-3.6,2.8-5.7c1.3-4.5,1.3-9.3,0-13.8c-0.6-2-1.5-4-2.8-5.7c-1.2-1.6-2.8-2.9-4.5-3.8
	c-1.9-1-4-1.5-6.1-1.4c-2.1,0-4.2,0.5-6.1,1.4c-1.7,1-3.3,2.3-4.5,3.8c-1.3,1.7-2.2,3.6-2.8,5.7C106.5,48.1,106.1,50.4,106.2,52.7
	L106.2,52.7z"/>
<path style="fill:#BDF271;" d="M173.3,52.7c0,2.6-0.4,5.3-1.1,7.8c-0.7,2.3-1.8,4.4-3.2,6.3c-2.9,3.7-7.4,5.9-12.2,5.8
	c-2.4,0-4.8-0.5-7-1.5c-2-1-3.8-2.4-5.2-4.2c-1.5-1.9-2.6-4-3.2-6.3c-1.5-5.1-1.5-10.5,0-15.5c0.7-2.3,1.8-4.4,3.2-6.3
	c1.4-1.8,3.2-3.2,5.2-4.2c6.6-3.3,14.6-1.5,19.2,4.2c1.5,1.9,2.5,4.1,3.2,6.3C173,47.5,173.4,50.1,173.3,52.7z M142.3,52.7
	c0,2.3,0.3,4.7,1,6.9c0.6,2,1.5,4,2.8,5.6c1.2,1.6,2.8,2.9,4.5,3.8c1.9,1,4,1.5,6.1,1.4c2.1,0,4.2-0.5,6.1-1.4
	c1.8-0.9,3.3-2.3,4.5-3.8c1.3-1.7,2.2-3.6,2.8-5.7c1.3-4.5,1.3-9.3,0-13.8c-0.6-2-1.5-4-2.8-5.7c-1.2-1.6-2.8-2.9-4.5-3.8
	c-1.9-1-4-1.5-6.1-1.4c-2.1,0-4.2,0.5-6.1,1.4c-1.8,0.9-3.3,2.3-4.5,3.8c-1.3,1.7-2.2,3.6-2.8,5.7C142.7,48.1,142.3,50.4,142.3,52.7
	L142.3,52.7z"/>
<path style="fill:#BDF271;" d="M177.9,33.8h2.1v35.9h19.8v2h-21.9V33.8z"/>
</svg>
