<svg id="Layer_2" data-name="Layer 2" xmlns="http://www.w3.org/2000/svg" viewBox="0 0 206.4 105.48"><defs><style>.cls-1{fill:#e6e6e6;isolation:isolate;}</style></defs><title>Artboard 1</title><rect width="206.4" height="105.48"/><path id="text128" class="cls-1" d="M34.07,44.62a11,11,0,0,0-1-4.25,8.67,8.67,0,0,0-2.31-3,10,10,0,0,0-3.5-1.83,15.12,15.12,0,0,0-4.41-.61,14.48,14.48,0,0,0-3.15.37,9.49,9.49,0,0,0-3.13,1.3,7.45,7.45,0,0,0-2.37,2.49,7.66,7.66,0,0,0-.92,3.9,6.27,6.27,0,0,0,1,3.72A7.56,7.56,0,0,0,17,49a16.52,16.52,0,0,0,3.81,1.4c1.43.36,2.88.69,4.34,1s2.95.7,4.37,1.14a14.58,14.58,0,0,1,3.81,1.81,8.6,8.6,0,0,1,2.71,3,9.33,9.33,0,0,1,1,4.59,9.8,9.8,0,0,1-1.17,5,10.3,10.3,0,0,1-3,3.29A11.75,11.75,0,0,1,29,72a16.81,16.81,0,0,1-4.17.56,22.17,22.17,0,0,1-5.76-.72,12.53,12.53,0,0,1-4.69-2.33,11.24,11.24,0,0,1-3.15-4.17,14.72,14.72,0,0,1-1.1-6.21h2.15a11.39,11.39,0,0,0,.83,5.28A9.39,9.39,0,0,0,15.83,68a11,11,0,0,0,4.08,2,19.3,19.3,0,0,0,4.93.61,14.54,14.54,0,0,0,3.34-.42,9.81,9.81,0,0,0,3.27-1.44,8.23,8.23,0,0,0,2.49-2.65,7.84,7.84,0,0,0,1-4.14,6.85,6.85,0,0,0-1-3.9,7.7,7.7,0,0,0-2.71-2.44,16.81,16.81,0,0,0-3.81-1.49c-1.41-.37-2.87-.71-4.37-1s-2.91-.69-4.34-1.12a14.15,14.15,0,0,1-3.81-1.72,8.61,8.61,0,0,1-2.69-2.81,8.63,8.63,0,0,1-1-4.44,9.61,9.61,0,0,1,1.05-4.64A9.12,9.12,0,0,1,15,35.2a11.63,11.63,0,0,1,3.79-1.75,16.18,16.18,0,0,1,4.15-.56,18.94,18.94,0,0,1,5.1.66,11.83,11.83,0,0,1,4.15,2.08A10,10,0,0,1,35,39.26a13.74,13.74,0,0,1,1.23,5.36Zm8-10.83h2.69l22,34.76h.1V33.79H69v37.9H66.49l-22.17-35h-.1v35H42.07Zm64.7,19a26.11,26.11,0,0,1-1.13,7.77,19.27,19.27,0,0,1-3.24,6.32,15.33,15.33,0,0,1-5.2,4.22,16.66,16.66,0,0,1-14,0A15.25,15.25,0,0,1,78,66.83a19.08,19.08,0,0,1-3.24-6.32,27.28,27.28,0,0,1,0-15.54A19.08,19.08,0,0,1,78,38.65a15.25,15.25,0,0,1,5.23-4.22,16.66,16.66,0,0,1,14,0,15.33,15.33,0,0,1,5.2,4.22A19.27,19.27,0,0,1,105.64,45,26.11,26.11,0,0,1,106.77,52.74Zm-31,0a23.83,23.83,0,0,0,1,6.9,17.33,17.33,0,0,0,2.83,5.65,14,14,0,0,0,4.54,3.85,12.83,12.83,0,0,0,6.1,1.43,12.67,12.67,0,0,0,6.08-1.43,14.07,14.07,0,0,0,4.52-3.85,17.33,17.33,0,0,0,2.83-5.65,24.78,24.78,0,0,0,0-13.8,17.33,17.33,0,0,0-2.83-5.65,14.07,14.07,0,0,0-4.52-3.85,12.67,12.67,0,0,0-6.08-1.43,12.83,12.83,0,0,0-6.1,1.43,14,14,0,0,0-4.54,3.85,17.33,17.33,0,0,0-2.83,5.65A23.83,23.83,0,0,0,75.76,52.74Zm67.18,0a26.11,26.11,0,0,1-1.12,7.77,19.1,19.1,0,0,1-3.25,6.32,15.2,15.2,0,0,1-5.19,4.22,16.66,16.66,0,0,1-14,0,15.25,15.25,0,0,1-5.23-4.22,19.08,19.08,0,0,1-3.24-6.32,27.28,27.28,0,0,1,0-15.54,19.08,19.08,0,0,1,3.24-6.32,15.25,15.25,0,0,1,5.23-4.22,16.66,16.66,0,0,1,14,0,15.2,15.2,0,0,1,5.19,4.22A19.1,19.1,0,0,1,141.82,45,26.11,26.11,0,0,1,142.94,52.74Zm-31,0a23.83,23.83,0,0,0,1,6.9,17.33,17.33,0,0,0,2.83,5.65,14,14,0,0,0,4.54,3.85,12.8,12.8,0,0,0,6.1,1.43,12.67,12.67,0,0,0,6.08-1.43A14.07,14.07,0,0,0,137,65.29a17.53,17.53,0,0,0,2.83-5.65,24.78,24.78,0,0,0,0-13.8A17.53,17.53,0,0,0,137,40.19a14.07,14.07,0,0,0-4.52-3.85,12.67,12.67,0,0,0-6.08-1.43,12.8,12.8,0,0,0-6.1,1.43,14,14,0,0,0-4.54,3.85,17.33,17.33,0,0,0-2.83,5.65A23.83,23.83,0,0,0,111.94,52.74Zm32.71-19h24.46v2L145.48,69.67h24.07v2H143.24v-2l23.53-33.86H144.65Zm27.93,0H196v2H174.73V51h20v2h-20V69.67h21.53v2H172.58Z"/></svg>